<svg width="16" height="16" viewBox="0 0 16 16" fill="none" xmlns="http://www.w3.org/2000/svg">
<path opacity="0.5" d="M9.79942 4.20113C9.67726 4.32575 9.60884 4.49329 9.60884 4.66779C9.60884 4.84229 9.67726 5.00984 9.79942 5.13446L10.8661 6.20113C10.9907 6.32328 11.1582 6.3917 11.3327 6.3917C11.5073 6.3917 11.6748 6.32328 11.7994 6.20113L14.3127 3.68779C14.648 4.42859 14.7495 5.25395 14.6037 6.05389C14.458 6.85383 14.0719 7.59036 13.4969 8.16531C12.922 8.74027 12.1855 9.12635 11.3855 9.2721C10.5856 9.41785 9.76021 9.31635 9.01942 8.98113L4.41275 13.5878C4.14753 13.853 3.78782 14.002 3.41275 14.002C3.03768 14.002 2.67797 13.853 2.41275 13.5878C2.14753 13.3226 1.99854 12.9629 1.99854 12.5878C1.99854 12.2127 2.14753 11.853 2.41275 11.5878L7.01942 6.98113C6.68419 6.24033 6.58269 5.41497 6.72844 4.61503C6.87419 3.81509 7.26027 3.07856 7.83523 2.50361C8.41019 1.92865 9.14671 1.54257 9.94665 1.39682C10.7466 1.25107 11.572 1.35257 12.3127 1.68779L9.80608 4.19446L9.79942 4.20113Z" fill="#FA5F1C" stroke="#FA5F1C" stroke-width="1.33333" stroke-linecap="round" stroke-linejoin="round"/>
<path fill-rule="evenodd" clip-rule="evenodd" d="M7.33333 5.33464C7.33333 3.49369 8.82572 2.0013 10.6667 2.0013C10.7919 2.0013 10.9154 2.00818 11.0369 2.02157L9.33521 3.72325L9.32854 3.72992L9.32385 3.73466C9.07955 3.98389 8.94271 4.31898 8.94271 4.66799C8.94271 5.01699 9.07955 5.35208 9.32385 5.60132L9.32854 5.60606L10.3952 6.67273L10.3999 6.67742C10.6492 6.92172 10.9843 7.05856 11.3333 7.05856C11.6823 7.05856 12.0174 6.92172 12.2666 6.67742L12.2714 6.67273L13.9797 4.96435C13.9931 5.08583 14 5.20937 14 5.33464C14 7.17558 12.5076 8.66797 10.6667 8.66797C8.82572 8.66797 7.33333 7.17558 7.33333 5.33464ZM14.8773 3.33227C14.703 3.05356 14.3451 2.93984 14.0374 3.07917C13.9461 3.12053 13.8686 3.17993 13.8072 3.25124L11.3333 5.72518L10.2761 4.66799L10.278 4.66606L12.7847 2.15939C13.045 1.89904 13.045 1.47693 12.7847 1.21658C12.7202 1.15208 12.6458 1.10356 12.5663 1.07102C11.9852 0.811766 11.3418 0.667969 10.6667 0.667969C8.08934 0.667969 6 2.75731 6 5.33464C6 7.91196 8.08934 10.0013 10.6667 10.0013C13.244 10.0013 15.3333 7.91196 15.3333 5.33464C15.3333 4.65925 15.1894 4.01571 14.93 3.43444C14.9156 3.39926 14.898 3.36506 14.8773 3.33227Z" fill="#FA5F1C"/>
<path d="M10.6667 2.0013C8.82572 2.0013 7.33333 3.49369 7.33333 5.33464C7.33333 7.17558 8.82572 8.66797 10.6667 8.66797C12.5076 8.66797 14 7.17558 14 5.33464C14 5.20937 13.9931 5.08583 13.9797 4.96435L12.2714 6.67273L12.2666 6.67742C12.0174 6.92172 11.6823 7.05856 11.3333 7.05856C10.9843 7.05856 10.6492 6.92172 10.3999 6.67742L10.3952 6.67273L9.32854 5.60606L9.32385 5.60132C9.07955 5.35208 8.94271 5.01699 8.94271 4.66799C8.94271 4.31898 9.07955 3.98389 9.32385 3.73466L9.32854 3.72992L9.33521 3.72325L11.0369 2.02157C10.9154 2.00818 10.7919 2.0013 10.6667 2.0013Z" fill="#FA5F1C"/>
</svg>
