<svg width="496" height="68" viewBox="0 0 496 68" fill="none" xmlns="http://www.w3.org/2000/svg"><path d="M114.928 56.282c-3.259 0-6.204-.72-8.836-2.162-2.601-1.441-4.653-3.431-6.157-5.969-1.473-2.57-2.21-5.436-2.21-8.601 0-3.165.737-6.016 2.21-8.554 1.504-2.57 3.572-4.575 6.204-6.016 2.632-1.441 5.577-2.162 8.836-2.162 2.444 0 4.7.407 6.768 1.222 2.068.815 3.823 2.005 5.264 3.572l-2.209 2.209c-2.569-2.6-5.812-3.901-9.729-3.901-2.601 0-4.966.595-7.097 1.786-2.131 1.19-3.807 2.82-5.029 4.888-1.191 2.068-1.786 4.387-1.786 6.956 0 2.57.595 4.888 1.786 6.956 1.222 2.068 2.898 3.697 5.029 4.888 2.131 1.19 4.496 1.786 7.097 1.786 3.948 0 7.191-1.316 9.729-3.948l2.209 2.209c-1.441 1.567-3.212 2.773-5.311 3.619-2.068.815-4.324 1.222-6.768 1.222Zm41.38-3.196v8.883h-3.149V56h-22.137v5.969h-3.149v-8.883h1.41c1.661-.094 2.789-1.316 3.384-3.666.596-2.35 1.003-5.64 1.222-9.87l.329-8.272h18.236v21.808h3.854Zm-19.364-13.348c-.156 3.51-.454 6.408-.893 8.695-.438 2.256-1.222 3.807-2.35 4.653h15.416V34.239h-11.891l-.282 5.499Zm47.487 4.935h-20.68c.188 2.57 1.175 4.653 2.961 6.251 1.786 1.567 4.042 2.35 6.768 2.35 1.536 0 2.946-.266 4.23-.799a9.49 9.49 0 0 0 3.337-2.444l1.88 2.162c-1.096 1.316-2.475 2.319-4.136 3.008-1.629.69-3.431 1.034-5.405 1.034-2.538 0-4.794-.533-6.768-1.598-1.942-1.097-3.462-2.6-4.559-4.512-1.096-1.911-1.645-4.073-1.645-6.486 0-2.413.517-4.575 1.551-6.486 1.066-1.911 2.507-3.4 4.324-4.465 1.849-1.065 3.917-1.598 6.204-1.598 2.288 0 4.34.533 6.157 1.598 1.818 1.065 3.243 2.554 4.277 4.465 1.034 1.88 1.551 4.042 1.551 6.486l-.047 1.034Zm-11.938-10.716c-2.381 0-4.386.768-6.016 2.303-1.598 1.504-2.506 3.478-2.726 5.922h17.531c-.219-2.444-1.143-4.418-2.773-5.922-1.598-1.535-3.603-2.303-6.016-2.303Zm39.077-2.679V56h-3.337V34.239h-11.844l-.329 6.11c-.25 5.139-.846 9.087-1.786 11.844-.94 2.757-2.616 4.136-5.029 4.136-.658 0-1.457-.125-2.397-.376l.235-2.867c.564.125.956.188 1.175.188 1.285 0 2.256-.595 2.914-1.786.658-1.19 1.097-2.663 1.316-4.418.22-1.755.408-4.073.564-6.956l.423-8.836h18.095Zm17.994-.188c3.227 0 5.702.815 7.426 2.444 1.723 1.598 2.585 3.98 2.585 7.144V56h-3.196v-3.854c-.752 1.285-1.865 2.287-3.337 3.008-1.442.72-3.165 1.081-5.17 1.081-2.758 0-4.951-.658-6.58-1.974-1.63-1.316-2.444-3.055-2.444-5.217 0-2.1.752-3.791 2.256-5.076 1.535-1.285 3.963-1.927 7.285-1.927h7.849v-1.504c0-2.13-.596-3.744-1.786-4.841-1.191-1.128-2.93-1.692-5.217-1.692-1.567 0-3.071.266-4.512.799-1.442.501-2.679 1.206-3.713 2.115l-1.504-2.491c1.253-1.065 2.757-1.88 4.512-2.444a17.14 17.14 0 0 1 5.546-.893Zm-1.175 22.513c1.88 0 3.493-.423 4.841-1.269 1.347-.877 2.35-2.13 3.008-3.76v-4.042h-7.755c-4.23 0-6.345 1.473-6.345 4.418 0 1.441.548 2.585 1.645 3.431 1.096.815 2.632 1.222 4.606 1.222Zm20.069-22.325h3.337v10.951h15.557V31.278h3.337V56h-3.337V45.096h-15.557V56h-3.337V31.278Zm41.915 24.957c-2.382 0-4.528-.533-6.439-1.598a11.987 11.987 0 0 1-4.512-4.512c-1.097-1.911-1.645-4.073-1.645-6.486 0-2.413.548-4.575 1.645-6.486 1.096-1.911 2.6-3.4 4.512-4.465 1.911-1.065 4.057-1.598 6.439-1.598 2.381 0 4.527.533 6.439 1.598a11.34 11.34 0 0 1 4.465 4.465c1.096 1.911 1.645 4.073 1.645 6.486 0 2.413-.549 4.575-1.645 6.486a11.665 11.665 0 0 1-4.465 4.512c-1.912 1.065-4.058 1.598-6.439 1.598Zm0-2.961c1.754 0 3.321-.392 4.7-1.175 1.41-.815 2.506-1.958 3.29-3.431.783-1.473 1.175-3.149 1.175-5.029s-.392-3.556-1.175-5.029c-.784-1.473-1.88-2.6-3.29-3.384-1.379-.815-2.946-1.222-4.7-1.222-1.755 0-3.337.407-4.747 1.222-1.379.783-2.476 1.911-3.29 3.384-.784 1.473-1.175 3.149-1.175 5.029s.391 3.556 1.175 5.029c.814 1.473 1.911 2.616 3.29 3.431 1.41.783 2.992 1.175 4.747 1.175Zm47.726-10.058c3.353.783 5.029 2.804 5.029 6.063 0 2.162-.799 3.823-2.397 4.982-1.598 1.16-3.979 1.739-7.144 1.739h-11.233V31.278h10.904c2.82 0 5.029.548 6.627 1.645 1.598 1.097 2.397 2.663 2.397 4.7 0 1.347-.376 2.507-1.128 3.478-.72.94-1.739 1.645-3.055 2.115Zm-12.502-.94h7.426c1.912 0 3.369-.36 4.371-1.081 1.034-.72 1.551-1.77 1.551-3.149s-.517-2.413-1.551-3.102c-1.002-.69-2.459-1.034-4.371-1.034h-7.426v8.366Zm7.849 11.092c2.131 0 3.729-.345 4.794-1.034 1.066-.69 1.598-1.77 1.598-3.243 0-1.473-.485-2.554-1.457-3.243-.971-.72-2.506-1.081-4.606-1.081h-8.178v8.601h7.849Z" fill="#000"/><path d="M0 64 37 0l9.25 16L37 32h18.5L74 64H0Z" fill="#0061FF"/><path fill-rule="evenodd" clip-rule="evenodd" d="M478.158 44.49c0-3.564 2.824-6.19 6.196-6.19 3.554 0 6.196 2.81 6.196 6.19 0 3.561-2.824 6.187-6.196 6.187-3.553 0-6.196-2.786-6.196-6.188Zm-5.353.501c.227 6.531 5.603 10.756 11.595 10.756 6.469 0 11.595-4.796 11.595-11.099 0-6.53-5.171-10.8-11.117-11.052-.638-.022-1.276.115-1.913.366 1.07-1.211 8.702-10.094 9.978-10.962h-6.493c-2.164 2.306-4.351 4.819-6.584 7.468-3.439 3.95-7.061 8.974-7.061 14.523Zm-79.845 5.867 2.929 5.126h5.807L382.848 23 364 55.984h5.806l2.929-5.126h20.225Zm-2.916-5.102-7.196-12.595-7.197 12.595h14.393Z" fill="#000"/><path d="M439.748 23v5.12h12.358v27.83h5.884V28.12h12.358V23h-30.6Z" fill="#000"/><path fill-rule="evenodd" clip-rule="evenodd" d="M423.415 28.144h-10.266l-5.883-.024v-5.074h16.838c5.687 0 10.34 3.812 10.34 9.53 0 4.247-2.511 7.53-7.14 8.931l9.06 14.443h-6.622l-8.74-13.96h-7.853v13.96h-5.883V37.007h16.149c2.585 0 5.244-1.676 5.244-4.432 0-2.594-2.438-4.431-5.244-4.431Z" fill="#000"/></svg>