<svg width="87" height="22" viewBox="0 0 87 22" fill="none" xmlns="http://www.w3.org/2000/svg"><path fill-rule="evenodd" clip-rule="evenodd" d="m39.13 15.337 1.107 1.936h2.194L35.31 4.813l-7.12 12.46h2.193l1.107-1.936h7.64Zm-1.101-1.928-2.72-4.758-2.718 4.758h5.438Z" fill="#8E8E93"/><path d="M56.806 4.813v1.934h4.669V17.26h2.222V6.747h4.67V4.813H56.805Z" fill="#8E8E93"/><path fill-rule="evenodd" clip-rule="evenodd" d="M50.635 6.756h-3.878l-1.307-.01-1.374-1.916h6.82c2.148 0 3.906 1.44 3.906 3.6 0 1.605-.949 2.845-2.697 3.374l3.422 5.457h-2.502l-3.301-5.274h-2.967v5.274h-2.223v-7.157h6.101c.977 0 1.981-.633 1.981-1.674 0-.98-.92-1.674-1.98-1.674Z" fill="#8E8E93"/><path d="M0 21.847 12.704 0l3.176 5.462-3.176 5.462h6.352l6.351 10.923H0Z" fill="#8E8E93"/><path fill-rule="evenodd" clip-rule="evenodd" d="M87 19.017V2.977H76.93l-8.457 11.172 3.863 4.868H87Z" fill="#8E8E93"/><path fill-rule="evenodd" clip-rule="evenodd" d="M80.791 17.055a3.904 3.904 0 0 0 3.864-4.468h-.003a3.905 3.905 0 0 0-3.864-3.341h-2.386l2.986-3.711.474-.59h-2.471l-3.405 4.232c-.716.89-1.773 2.263-1.939 3.41h-.003a3.904 3.904 0 0 0 3.864 4.468h2.883Zm-.077-6.007h.074v.001a2.103 2.103 0 0 1 2.029 2.101h.003a2.102 2.102 0 0 1-2.029 2.101v.001h-2.883v-.001a2.102 2.102 0 0 1-2.028-2.1h.002c0-1.137.902-2.063 2.029-2.102v-.001h2.804Z" fill="#fff"/></svg>