<svg width="62" height="25" viewBox="0 0 62 25" fill="none" xmlns="http://www.w3.org/2000/svg"><path d="m38.75 18.82 9.964-17.715 2.491 4.429-2.49 4.429h4.981l4.983 8.857H38.75ZM24.793 7.94V6.046h10.164v1.892h-4.105v10.286h-1.954V7.94h-4.105Z" fill="#8C8B8B"/><path fill-rule="evenodd" clip-rule="evenodd" d="m21.342 12.89 3.01 5.338h-2.2l-2.903-5.16h-2.608v5.16h-1.954V6.066h5.592c1.89 0 3.435 1.41 3.435 3.522 0 1.57-.834 2.784-2.372 3.302Zm-1.291-4.94h-3.41v3.276h3.41c.858 0 1.741-.62 1.741-1.638 0-.959-.81-1.638-1.742-1.638Zm-9.642 8.398 1.053 1.893h2.087L6.774 6.063 0 18.24h2.087l1.053-1.893h7.269Zm-1.048-1.883-2.587-4.65-2.586 4.65H9.36Z" fill="#8C8B8B"/></svg>