<svg width="87" height="22" viewBox="0 0 87 22" fill="none" xmlns="http://www.w3.org/2000/svg">
  <path fill-rule="evenodd" clip-rule="evenodd" d="M39.1302 15.3368L40.2368 17.2735H42.4306L35.3099 4.8125L28.1895 17.2735H30.383L31.4896 15.3368H39.1302ZM38.0286 13.4093L35.3099 8.65124L32.5912 13.4093H38.0286Z" fill="#8E8E93" />
  <path d="M56.8056 4.8125V6.74693H61.4746V17.2605H63.6972V6.74693H68.3662V4.8125H56.8056Z" fill="#8E8E93" />
  <path fill-rule="evenodd" clip-rule="evenodd" d="M50.6352 6.7557H46.7568L45.4502 6.74693L44.0762 4.82999H50.8957C53.0441 4.82999 54.8018 6.26997 54.8018 8.42995C54.8018 10.0348 53.8531 11.2753 52.1045 11.8044L55.5273 17.2606H53.0254L49.7236 11.9866H46.7568V17.2606H44.5342V10.1042H46.7568H50.6352C51.6118 10.1042 52.6162 9.47086 52.6162 8.42995C52.6162 7.4498 51.6954 6.7557 50.6352 6.7557Z" fill="#8E8E93" />
  <path d="M0 21.8472L12.7037 0L15.8797 5.4618L12.7037 10.9236H19.0556L25.4075 21.8472H0Z" fill="#8E8E93" />
  <path fill-rule="evenodd" clip-rule="evenodd" d="M86.9997 19.0175V2.97656H76.9299L68.4727 14.1491L72.3364 19.0175H86.9997Z" fill="#8E8E93" />
  <path fill-rule="evenodd" clip-rule="evenodd" d="M80.791 17.0545C82.9474 17.0545 84.6953 15.3067 84.6953 13.1502C84.6953 12.9588 84.6814 12.7709 84.6549 12.5868H84.6522C84.3792 10.6972 82.7534 9.24564 80.7882 9.24564H78.4023L81.3881 5.53474L81.8624 4.94531H79.3905L75.986 9.17657C75.2697 10.0669 74.2127 11.4404 74.047 12.5868H74.0444C74.0178 12.7709 74.0039 12.9588 74.0039 13.1502C74.0039 15.3067 75.7519 17.0545 77.9083 17.0545H80.791ZM80.7143 11.048H80.7882V11.0493C81.9152 11.0885 82.8169 12.0138 82.8169 13.1502H82.8195C82.8195 14.2865 81.9177 15.2119 80.791 15.251V15.2522H80.7171H77.9822H77.9083V15.251C76.7815 15.2119 75.8799 14.2865 75.8799 13.1502H75.8825C75.8825 12.0138 76.7841 11.0885 77.911 11.0493V11.048H77.985H80.7143Z" fill="white" />
</svg>
