<svg width="496" height="68" viewBox="0 0 496 68" fill="none" xmlns="http://www.w3.org/2000/svg"><path d="M114.928 56.282C111.669 56.282 108.724 55.5613 106.092 54.12C103.491 52.6787 101.439 50.689 99.9346 48.151C98.4619 45.5817 97.7256 42.7147 97.7256 39.55C97.7256 36.3853 98.4619 33.534 99.9346 30.996C101.439 28.4267 103.507 26.4213 106.139 24.98C108.771 23.5387 111.716 22.818 114.975 22.818C117.419 22.818 119.675 23.2253 121.743 24.04C123.811 24.8547 125.566 26.0453 127.007 27.612L124.798 29.821C122.229 27.2203 118.986 25.92 115.069 25.92C112.468 25.92 110.103 26.5153 107.972 27.706C105.841 28.8967 104.165 30.526 102.943 32.594C101.752 34.662 101.157 36.9807 101.157 39.55C101.157 42.1193 101.752 44.438 102.943 46.506C104.165 48.574 105.841 50.2033 107.972 51.394C110.103 52.5847 112.468 53.18 115.069 53.18C119.017 53.18 122.26 51.864 124.798 49.232L127.007 51.441C125.566 53.0077 123.795 54.214 121.696 55.06C119.628 55.8747 117.372 56.282 114.928 56.282ZM156.308 53.086V61.969H153.159V56H131.022V61.969H127.873V53.086H129.283C130.944 52.992 132.072 51.77 132.667 49.42C133.263 47.07 133.67 43.78 133.889 39.55L134.218 31.278H152.454V53.086H156.308ZM136.944 39.738C136.788 43.2473 136.49 46.1457 136.051 48.433C135.613 50.689 134.829 52.24 133.701 53.086H149.117V34.239H137.226L136.944 39.738ZM184.431 44.673H163.751C163.939 47.2423 164.926 49.326 166.712 50.924C168.498 52.4907 170.754 53.274 173.48 53.274C175.016 53.274 176.426 53.0077 177.71 52.475C178.995 51.911 180.107 51.0963 181.047 50.031L182.927 52.193C181.831 53.509 180.452 54.5117 178.791 55.201C177.162 55.8903 175.36 56.235 173.386 56.235C170.848 56.235 168.592 55.7023 166.618 54.637C164.676 53.5403 163.156 52.0363 162.059 50.125C160.963 48.2137 160.414 46.0517 160.414 43.639C160.414 41.2263 160.931 39.0643 161.965 37.153C163.031 35.2417 164.472 33.7533 166.289 32.688C168.138 31.6227 170.206 31.09 172.493 31.09C174.781 31.09 176.833 31.6227 178.65 32.688C180.468 33.7533 181.893 35.2417 182.927 37.153C183.961 39.033 184.478 41.195 184.478 43.639L184.431 44.673ZM172.493 33.957C170.112 33.957 168.107 34.7247 166.477 36.26C164.879 37.764 163.971 39.738 163.751 42.182H181.282C181.063 39.738 180.139 37.764 178.509 36.26C176.911 34.7247 174.906 33.957 172.493 33.957ZM211.57 31.278V56H208.233V34.239H196.389L196.06 40.349C195.81 45.4877 195.214 49.4357 194.274 52.193C193.334 54.9503 191.658 56.329 189.245 56.329C188.587 56.329 187.788 56.2037 186.848 55.953L187.083 53.086C187.647 53.2113 188.039 53.274 188.258 53.274C189.543 53.274 190.514 52.6787 191.172 51.488C191.83 50.2973 192.269 48.8247 192.488 47.07C192.708 45.3153 192.896 42.9967 193.052 40.114L193.475 31.278H211.57ZM229.564 31.09C232.791 31.09 235.266 31.9047 236.99 33.534C238.713 35.132 239.575 37.5133 239.575 40.678V56H236.379V52.146C235.627 53.4307 234.514 54.4333 233.042 55.154C231.6 55.8747 229.877 56.235 227.872 56.235C225.114 56.235 222.921 55.577 221.292 54.261C219.662 52.945 218.848 51.206 218.848 49.044C218.848 46.9447 219.6 45.2527 221.104 43.968C222.639 42.6833 225.067 42.041 228.389 42.041H236.238V40.537C236.238 38.4063 235.642 36.7927 234.452 35.696C233.261 34.568 231.522 34.004 229.235 34.004C227.668 34.004 226.164 34.2703 224.723 34.803C223.281 35.3043 222.044 36.0093 221.01 36.918L219.506 34.427C220.759 33.3617 222.263 32.547 224.018 31.983C225.772 31.3877 227.621 31.09 229.564 31.09ZM228.389 53.603C230.269 53.603 231.882 53.18 233.23 52.334C234.577 51.4567 235.58 50.2033 236.238 48.574V44.532H228.483C224.253 44.532 222.138 46.0047 222.138 48.95C222.138 50.3913 222.686 51.535 223.783 52.381C224.879 53.1957 226.415 53.603 228.389 53.603ZM248.458 31.278H251.795V42.229H267.352V31.278H270.689V56H267.352V45.096H251.795V56H248.458V31.278ZM290.373 56.235C287.991 56.235 285.845 55.7023 283.934 54.637C282.022 53.5403 280.518 52.0363 279.422 50.125C278.325 48.2137 277.777 46.0517 277.777 43.639C277.777 41.2263 278.325 39.0643 279.422 37.153C280.518 35.2417 282.022 33.7533 283.934 32.688C285.845 31.6227 287.991 31.09 290.373 31.09C292.754 31.09 294.9 31.6227 296.812 32.688C298.723 33.7533 300.211 35.2417 301.277 37.153C302.373 39.0643 302.922 41.2263 302.922 43.639C302.922 46.0517 302.373 48.2137 301.277 50.125C300.211 52.0363 298.723 53.5403 296.812 54.637C294.9 55.7023 292.754 56.235 290.373 56.235ZM290.373 53.274C292.127 53.274 293.694 52.8823 295.073 52.099C296.483 51.2843 297.579 50.1407 298.363 48.668C299.146 47.1953 299.538 45.519 299.538 43.639C299.538 41.759 299.146 40.0827 298.363 38.61C297.579 37.1373 296.483 36.0093 295.073 35.226C293.694 34.4113 292.127 34.004 290.373 34.004C288.618 34.004 287.036 34.4113 285.626 35.226C284.247 36.0093 283.15 37.1373 282.336 38.61C281.552 40.0827 281.161 41.759 281.161 43.639C281.161 45.519 281.552 47.1953 282.336 48.668C283.15 50.1407 284.247 51.2843 285.626 52.099C287.036 52.8823 288.618 53.274 290.373 53.274ZM338.099 43.216C341.452 43.9993 343.128 46.0203 343.128 49.279C343.128 51.441 342.329 53.1017 340.731 54.261C339.133 55.4203 336.752 56 333.587 56H322.354V31.278H333.258C336.078 31.278 338.287 31.8263 339.885 32.923C341.483 34.0197 342.282 35.5863 342.282 37.623C342.282 38.9703 341.906 40.1297 341.154 41.101C340.434 42.041 339.415 42.746 338.099 43.216ZM325.597 42.276H333.023C334.935 42.276 336.392 41.9157 337.394 41.195C338.428 40.4743 338.945 39.4247 338.945 38.046C338.945 36.6673 338.428 35.6333 337.394 34.944C336.392 34.2547 334.935 33.91 333.023 33.91H325.597V42.276ZM333.446 53.368C335.577 53.368 337.175 53.0233 338.24 52.334C339.306 51.6447 339.838 50.5637 339.838 49.091C339.838 47.6183 339.353 46.5373 338.381 45.848C337.41 45.1273 335.875 44.767 333.775 44.767H325.597V53.368H333.446Z" fill="#000"></path><path d="M0 64L37 0L46.2501 16L37 32H55.5L74 64H0Z" fill="#0061FF"></path><path fill-rule="evenodd" clip-rule="evenodd" d="M478.158 44.4891C478.158 40.9264 480.982 38.3002 484.354 38.3002C487.908 38.3002 490.55 41.1092 490.55 44.4891C490.55 48.0512 487.726 50.6773 484.354 50.6773C480.801 50.6773 478.158 47.8913 478.158 44.4891ZM472.805 44.9911C473.032 51.5221 478.408 55.7468 484.4 55.7468C490.869 55.7468 495.995 50.9513 495.995 44.6484C495.995 38.1174 490.824 33.8474 484.878 33.5958C484.24 33.5735 483.602 33.7105 482.965 33.9615C484.035 32.751 491.667 23.8677 492.943 23H486.45C484.286 25.3063 482.099 27.8185 479.866 30.4676C476.427 34.4183 472.805 39.4419 472.805 44.9911Z" fill="#000"></path><path fill-rule="evenodd" clip-rule="evenodd" d="M392.96 50.8576L395.889 55.9839H401.696L382.848 23L364 55.9839H369.806L372.735 50.8576H392.96ZM390.044 45.7556L382.848 33.161L375.651 45.7556H390.044Z" fill="#000"></path><path d="M439.748 23V28.1204H452.106V55.9496H457.99V28.1204H470.348V23H439.748Z" fill="#000"></path><path fill-rule="evenodd" clip-rule="evenodd" d="M423.415 28.1436H413.149L407.266 28.1204V23.0463H424.104C429.791 23.0463 434.444 26.8579 434.444 32.5753C434.444 36.8232 431.933 40.1069 427.304 41.5073L436.364 55.9498H429.742L421.002 41.9897H413.149V55.9498H407.266V37.007H413.149H423.415C426 37.007 428.659 35.3306 428.659 32.5753C428.659 29.9809 426.221 28.1436 423.415 28.1436Z" fill="#000"></path></svg>
