<svg width="62" height="25" viewBox="0 0 62 25" fill="none" xmlns="http://www.w3.org/2000/svg">
  <path d="M38.75 18.8198L48.7142 1.10547L51.2053 5.53404L48.7142 9.96261H53.6964L58.6786 18.8198H38.75Z" fill="#8C8B8B" />
  <path d="M24.793 7.93944V6.04688H34.957V7.93944H30.852V18.2254H28.898V7.93944H24.793Z" fill="#8C8B8B" />
  <path fill-rule="evenodd" clip-rule="evenodd" d="M21.3423 12.8898L24.3517 18.2278H22.152L19.2491 13.0681H16.6407V18.2278H14.6865V6.06641H20.2795C22.1686 6.06641 23.7137 7.47522 23.7137 9.58848C23.7137 11.1585 22.8798 12.3723 21.3423 12.8898ZM20.0505 7.95042H16.6407V11.2265H20.0505C20.9092 11.2265 21.7923 10.6068 21.7923 9.58848C21.7923 8.62949 20.9826 7.95042 20.0505 7.95042Z" fill="#8C8B8B" />
  <path fill-rule="evenodd" clip-rule="evenodd" d="M10.409 16.3482L11.4618 18.241H13.549L6.77436 6.0625L0 18.241H2.08696L3.13975 16.3482H10.409ZM9.36094 14.4645L6.77436 9.8142L4.18782 14.4645H9.36094Z" fill="#8C8B8B" />
</svg>
