<svg width="1347" height="221" viewBox="0 0 1347 221" fill="none" xmlns="http://www.w3.org/2000/svg">
<mask id="path-1-outside-1_1332_31301" maskUnits="userSpaceOnUse" x="0.900879" y="0.320312" width="1347" height="220" fill="black">
<rect fill="white" x="0.900879" y="0.320312" width="1347" height="220"/>
<path d="M174.377 87.3923C166.102 87.3923 158.601 85.6136 151.873 82.0563C145.222 78.4216 139.963 73.4336 136.097 67.0923C132.307 60.6736 130.413 53.443 130.413 45.4003C130.413 37.3576 132.307 30.1656 136.097 23.8243C139.963 17.4056 145.222 12.4176 151.873 8.86031C158.601 5.22565 166.141 3.40831 174.493 3.40831C181.53 3.40831 187.871 4.64565 193.517 7.12031C199.239 9.59498 204.034 13.1523 207.901 17.7923L195.837 28.9283C190.346 22.587 183.541 19.4163 175.421 19.4163C170.394 19.4163 165.909 20.5376 161.965 22.7803C158.021 24.9456 154.927 28.0003 152.685 31.9443C150.519 35.8883 149.437 40.3736 149.437 45.4003C149.437 50.427 150.519 54.9123 152.685 58.8563C154.927 62.8003 158.021 65.8936 161.965 68.1363C165.909 70.3016 170.394 71.3843 175.421 71.3843C183.541 71.3843 190.346 68.175 195.837 61.7563L207.901 72.8923C204.034 77.6096 199.239 81.2056 193.517 83.6803C187.794 86.155 181.414 87.3923 174.377 87.3923ZM294.621 70.9203V86.0003H231.749V4.80031H293.113V19.8803H250.425V37.5123H288.125V52.1283H250.425V70.9203H294.621ZM356.547 4.80031C363.739 4.80031 369.965 5.99898 375.223 8.39631C380.559 10.7936 384.658 14.1963 387.519 18.6043C390.381 23.0123 391.811 28.2323 391.811 34.2643C391.811 40.219 390.381 45.439 387.519 49.9243C384.658 54.3323 380.559 57.735 375.223 60.1323C369.965 62.4523 363.739 63.6123 356.547 63.6123H340.191V86.0003H321.399V4.80031H356.547ZM355.503 48.3003C361.149 48.3003 365.441 47.1016 368.379 44.7043C371.318 42.2296 372.787 38.7496 372.787 34.2643C372.787 29.7016 371.318 26.2216 368.379 23.8243C365.441 21.3496 361.149 20.1123 355.503 20.1123H340.191V48.3003H355.503ZM475.602 20.1123H449.618V86.0003H431.058V20.1123H405.19V4.80031H475.602V20.1123ZM499.002 4.80031H517.678V57.6963L556.422 4.80031H574.054V86.0003H555.494V33.2203L516.75 86.0003H499.002V4.80031ZM702.035 45.1683C702.035 55.9176 698.362 64.3856 691.015 70.5723C683.746 76.6816 673.267 80.0843 659.579 80.7803V89.5963H642.295V80.6643C628.53 79.891 617.974 76.4497 610.627 70.3403C603.358 64.1537 599.723 55.763 599.723 45.1683C599.723 34.4963 603.358 26.1443 610.627 20.1123C617.974 14.003 628.53 10.523 642.295 9.67231V1.32031H659.579V9.55631C673.267 10.3296 683.746 13.8096 691.015 19.9963C698.362 26.183 702.035 34.5736 702.035 45.1683ZM659.579 66.0483C667.777 65.275 673.886 63.187 677.907 59.7843C681.929 56.3043 683.939 51.3936 683.939 45.0523C683.939 32.679 675.819 25.7963 659.579 24.4043V66.0483ZM617.935 45.1683C617.935 57.387 626.055 64.347 642.295 66.0483V24.4043C634.021 25.1776 627.873 27.2656 623.851 30.6683C619.907 33.9936 617.935 38.827 617.935 45.1683ZM727.694 4.80031H746.37V57.6963L785.114 4.80031H802.746V86.0003H784.186V33.2203L745.442 86.0003H727.694V4.80031ZM865.999 53.2883H853.007V86.0003H834.331V4.80031H853.007V37.6283H866.463L887.807 4.80031H907.643L881.079 44.0083L908.455 86.0003H887.111L865.999 53.2883ZM982.257 68.6003H944.557L937.365 86.0003H918.109L954.301 4.80031H972.861L1009.17 86.0003H989.449L982.257 68.6003ZM976.341 54.3323L963.465 23.2443L950.589 54.3323H976.341ZM1089.52 20.1123H1063.53V86.0003H1044.97V20.1123H1019.11V4.80031H1089.52V20.1123ZM1152.24 31.4803C1162.14 31.4803 1169.72 33.6843 1174.98 38.0923C1180.31 42.5003 1182.98 49.035 1182.98 57.6963C1182.98 66.899 1180.04 73.9363 1174.17 78.8083C1168.37 83.603 1160.17 86.0003 1149.57 86.0003H1112.92V4.80031H1131.59V31.4803H1152.24ZM1148.53 72.0803C1153.4 72.0803 1157.19 70.8816 1159.9 68.4843C1162.68 66.087 1164.07 62.607 1164.07 58.0443C1164.07 49.615 1158.89 45.4003 1148.53 45.4003H1131.59V72.0803H1148.53ZM1193.31 4.80031H1211.98V86.0003H1193.31V4.80031ZM1.90088 120.8H20.5769V173.696L59.3209 120.8H76.9529V202H58.3929V149.22L19.6489 202H1.90088V120.8ZM236.974 186.688V218.82H219.574V202H162.27V218.82H144.87L144.986 186.688H148.234C153.106 186.534 156.547 182.976 158.558 176.016C160.569 169.056 161.806 159.119 162.27 146.204L163.198 120.8H225.606V186.688H236.974ZM178.858 147.944C178.471 157.611 177.659 165.731 176.422 172.304C175.185 178.8 173.29 183.595 170.738 186.688H207.046V136.112H179.206L178.858 147.944ZM299.968 203.392C291.539 203.392 283.922 201.575 277.116 197.94C270.388 194.306 265.091 189.318 261.224 182.976C257.435 176.558 255.54 169.366 255.54 161.4C255.54 153.435 257.435 146.282 261.224 139.94C265.091 133.522 270.388 128.495 277.116 124.86C283.922 121.226 291.539 119.408 299.968 119.408C308.398 119.408 315.976 121.226 322.704 124.86C329.432 128.495 334.73 133.522 338.596 139.94C342.463 146.282 344.396 153.435 344.396 161.4C344.396 169.366 342.463 176.558 338.596 182.976C334.73 189.318 329.432 194.306 322.704 197.94C315.976 201.575 308.398 203.392 299.968 203.392ZM299.968 187.384C304.763 187.384 309.094 186.302 312.96 184.136C316.827 181.894 319.843 178.8 322.008 174.856C324.251 170.912 325.372 166.427 325.372 161.4C325.372 156.374 324.251 151.888 322.008 147.944C319.843 144 316.827 140.946 312.96 138.78C309.094 136.538 304.763 135.416 299.968 135.416C295.174 135.416 290.843 136.538 286.976 138.78C283.11 140.946 280.055 144 277.812 147.944C275.647 151.888 274.564 156.374 274.564 161.4C274.564 166.427 275.647 170.912 277.812 174.856C280.055 178.8 283.11 181.894 286.976 184.136C290.843 186.302 295.174 187.384 299.968 187.384ZM401.909 169.288H388.917V202H370.241V120.8H388.917V153.628H402.373L423.717 120.8H443.553L416.989 160.008L444.365 202H423.021L401.909 169.288ZM539.553 120.8L504.985 185.064C501.659 191.251 497.638 195.93 492.921 199.1C488.281 202.271 483.215 203.856 477.725 203.856C473.471 203.856 469.063 202.928 464.501 201.072L469.025 186.804C472.273 187.81 474.979 188.312 477.145 188.312C479.465 188.312 481.553 187.771 483.409 186.688C485.265 185.528 486.966 183.75 488.513 181.352L489.209 180.424L457.193 120.8H477.261L498.837 164.416L521.109 120.8H539.553ZM633.975 202L633.859 153.396L609.963 193.416H601.611L577.715 154.324V202H560.083V120.8H575.627L606.019 171.26L635.947 120.8H651.491L651.607 202H633.975ZM746.25 186.92V202H683.378V120.8H744.742V135.88H702.054V153.512H739.754V168.128H702.054V186.92H746.25ZM847.501 120.8V202H828.709V168.708H791.821V202H773.029V120.8H791.821V152.816H828.709V120.8H847.501ZM941.505 136.112H915.521V202H896.961V136.112H871.093V120.8H941.505V136.112ZM1015.81 184.6H978.111L970.919 202H951.663L987.855 120.8H1006.41L1042.72 202H1023L1015.81 184.6ZM1009.89 170.332L997.019 139.244L984.143 170.332H1009.89ZM1150.23 186.688V219.168H1132.95V202H1065.09V120.8H1083.77V186.688H1119.96V120.8H1138.63V186.688H1150.23ZM1174.23 120.8H1192.9V173.696L1231.65 120.8H1249.28V202H1230.72V149.22L1191.97 202H1174.23V120.8ZM1345.94 120.8V202H1327.38V180.424H1310.21L1295.83 202H1275.99L1292.93 177.524C1287.44 175.282 1283.22 171.918 1280.28 167.432C1277.34 162.87 1275.88 157.418 1275.88 151.076C1275.88 144.812 1277.31 139.438 1280.17 134.952C1283.03 130.39 1287.09 126.91 1292.35 124.512C1297.61 122.038 1303.79 120.8 1310.91 120.8H1345.94ZM1311.37 136.112C1306.04 136.112 1301.94 137.35 1299.08 139.824C1296.29 142.299 1294.9 145.972 1294.9 150.844C1294.9 155.562 1296.25 159.196 1298.96 161.748C1301.67 164.3 1305.65 165.576 1310.91 165.576H1327.38V136.112H1311.37Z"/>
</mask>
<path d="M174.377 87.3923C166.102 87.3923 158.601 85.6136 151.873 82.0563C145.222 78.4216 139.963 73.4336 136.097 67.0923C132.307 60.6736 130.413 53.443 130.413 45.4003C130.413 37.3576 132.307 30.1656 136.097 23.8243C139.963 17.4056 145.222 12.4176 151.873 8.86031C158.601 5.22565 166.141 3.40831 174.493 3.40831C181.53 3.40831 187.871 4.64565 193.517 7.12031C199.239 9.59498 204.034 13.1523 207.901 17.7923L195.837 28.9283C190.346 22.587 183.541 19.4163 175.421 19.4163C170.394 19.4163 165.909 20.5376 161.965 22.7803C158.021 24.9456 154.927 28.0003 152.685 31.9443C150.519 35.8883 149.437 40.3736 149.437 45.4003C149.437 50.427 150.519 54.9123 152.685 58.8563C154.927 62.8003 158.021 65.8936 161.965 68.1363C165.909 70.3016 170.394 71.3843 175.421 71.3843C183.541 71.3843 190.346 68.175 195.837 61.7563L207.901 72.8923C204.034 77.6096 199.239 81.2056 193.517 83.6803C187.794 86.155 181.414 87.3923 174.377 87.3923ZM294.621 70.9203V86.0003H231.749V4.80031H293.113V19.8803H250.425V37.5123H288.125V52.1283H250.425V70.9203H294.621ZM356.547 4.80031C363.739 4.80031 369.965 5.99898 375.223 8.39631C380.559 10.7936 384.658 14.1963 387.519 18.6043C390.381 23.0123 391.811 28.2323 391.811 34.2643C391.811 40.219 390.381 45.439 387.519 49.9243C384.658 54.3323 380.559 57.735 375.223 60.1323C369.965 62.4523 363.739 63.6123 356.547 63.6123H340.191V86.0003H321.399V4.80031H356.547ZM355.503 48.3003C361.149 48.3003 365.441 47.1016 368.379 44.7043C371.318 42.2296 372.787 38.7496 372.787 34.2643C372.787 29.7016 371.318 26.2216 368.379 23.8243C365.441 21.3496 361.149 20.1123 355.503 20.1123H340.191V48.3003H355.503ZM475.602 20.1123H449.618V86.0003H431.058V20.1123H405.19V4.80031H475.602V20.1123ZM499.002 4.80031H517.678V57.6963L556.422 4.80031H574.054V86.0003H555.494V33.2203L516.75 86.0003H499.002V4.80031ZM702.035 45.1683C702.035 55.9176 698.362 64.3856 691.015 70.5723C683.746 76.6816 673.267 80.0843 659.579 80.7803V89.5963H642.295V80.6643C628.53 79.891 617.974 76.4497 610.627 70.3403C603.358 64.1537 599.723 55.763 599.723 45.1683C599.723 34.4963 603.358 26.1443 610.627 20.1123C617.974 14.003 628.53 10.523 642.295 9.67231V1.32031H659.579V9.55631C673.267 10.3296 683.746 13.8096 691.015 19.9963C698.362 26.183 702.035 34.5736 702.035 45.1683ZM659.579 66.0483C667.777 65.275 673.886 63.187 677.907 59.7843C681.929 56.3043 683.939 51.3936 683.939 45.0523C683.939 32.679 675.819 25.7963 659.579 24.4043V66.0483ZM617.935 45.1683C617.935 57.387 626.055 64.347 642.295 66.0483V24.4043C634.021 25.1776 627.873 27.2656 623.851 30.6683C619.907 33.9936 617.935 38.827 617.935 45.1683ZM727.694 4.80031H746.37V57.6963L785.114 4.80031H802.746V86.0003H784.186V33.2203L745.442 86.0003H727.694V4.80031ZM865.999 53.2883H853.007V86.0003H834.331V4.80031H853.007V37.6283H866.463L887.807 4.80031H907.643L881.079 44.0083L908.455 86.0003H887.111L865.999 53.2883ZM982.257 68.6003H944.557L937.365 86.0003H918.109L954.301 4.80031H972.861L1009.17 86.0003H989.449L982.257 68.6003ZM976.341 54.3323L963.465 23.2443L950.589 54.3323H976.341ZM1089.52 20.1123H1063.53V86.0003H1044.97V20.1123H1019.11V4.80031H1089.52V20.1123ZM1152.24 31.4803C1162.14 31.4803 1169.72 33.6843 1174.98 38.0923C1180.31 42.5003 1182.98 49.035 1182.98 57.6963C1182.98 66.899 1180.04 73.9363 1174.17 78.8083C1168.37 83.603 1160.17 86.0003 1149.57 86.0003H1112.92V4.80031H1131.59V31.4803H1152.24ZM1148.53 72.0803C1153.4 72.0803 1157.19 70.8816 1159.9 68.4843C1162.68 66.087 1164.07 62.607 1164.07 58.0443C1164.07 49.615 1158.89 45.4003 1148.53 45.4003H1131.59V72.0803H1148.53ZM1193.31 4.80031H1211.98V86.0003H1193.31V4.80031ZM1.90088 120.8H20.5769V173.696L59.3209 120.8H76.9529V202H58.3929V149.22L19.6489 202H1.90088V120.8ZM236.974 186.688V218.82H219.574V202H162.27V218.82H144.87L144.986 186.688H148.234C153.106 186.534 156.547 182.976 158.558 176.016C160.569 169.056 161.806 159.119 162.27 146.204L163.198 120.8H225.606V186.688H236.974ZM178.858 147.944C178.471 157.611 177.659 165.731 176.422 172.304C175.185 178.8 173.29 183.595 170.738 186.688H207.046V136.112H179.206L178.858 147.944ZM299.968 203.392C291.539 203.392 283.922 201.575 277.116 197.94C270.388 194.306 265.091 189.318 261.224 182.976C257.435 176.558 255.54 169.366 255.54 161.4C255.54 153.435 257.435 146.282 261.224 139.94C265.091 133.522 270.388 128.495 277.116 124.86C283.922 121.226 291.539 119.408 299.968 119.408C308.398 119.408 315.976 121.226 322.704 124.86C329.432 128.495 334.73 133.522 338.596 139.94C342.463 146.282 344.396 153.435 344.396 161.4C344.396 169.366 342.463 176.558 338.596 182.976C334.73 189.318 329.432 194.306 322.704 197.94C315.976 201.575 308.398 203.392 299.968 203.392ZM299.968 187.384C304.763 187.384 309.094 186.302 312.96 184.136C316.827 181.894 319.843 178.8 322.008 174.856C324.251 170.912 325.372 166.427 325.372 161.4C325.372 156.374 324.251 151.888 322.008 147.944C319.843 144 316.827 140.946 312.96 138.78C309.094 136.538 304.763 135.416 299.968 135.416C295.174 135.416 290.843 136.538 286.976 138.78C283.11 140.946 280.055 144 277.812 147.944C275.647 151.888 274.564 156.374 274.564 161.4C274.564 166.427 275.647 170.912 277.812 174.856C280.055 178.8 283.11 181.894 286.976 184.136C290.843 186.302 295.174 187.384 299.968 187.384ZM401.909 169.288H388.917V202H370.241V120.8H388.917V153.628H402.373L423.717 120.8H443.553L416.989 160.008L444.365 202H423.021L401.909 169.288ZM539.553 120.8L504.985 185.064C501.659 191.251 497.638 195.93 492.921 199.1C488.281 202.271 483.215 203.856 477.725 203.856C473.471 203.856 469.063 202.928 464.501 201.072L469.025 186.804C472.273 187.81 474.979 188.312 477.145 188.312C479.465 188.312 481.553 187.771 483.409 186.688C485.265 185.528 486.966 183.75 488.513 181.352L489.209 180.424L457.193 120.8H477.261L498.837 164.416L521.109 120.8H539.553ZM633.975 202L633.859 153.396L609.963 193.416H601.611L577.715 154.324V202H560.083V120.8H575.627L606.019 171.26L635.947 120.8H651.491L651.607 202H633.975ZM746.25 186.92V202H683.378V120.8H744.742V135.88H702.054V153.512H739.754V168.128H702.054V186.92H746.25ZM847.501 120.8V202H828.709V168.708H791.821V202H773.029V120.8H791.821V152.816H828.709V120.8H847.501ZM941.505 136.112H915.521V202H896.961V136.112H871.093V120.8H941.505V136.112ZM1015.81 184.6H978.111L970.919 202H951.663L987.855 120.8H1006.41L1042.72 202H1023L1015.81 184.6ZM1009.89 170.332L997.019 139.244L984.143 170.332H1009.89ZM1150.23 186.688V219.168H1132.95V202H1065.09V120.8H1083.77V186.688H1119.96V120.8H1138.63V186.688H1150.23ZM1174.23 120.8H1192.9V173.696L1231.65 120.8H1249.28V202H1230.72V149.22L1191.97 202H1174.23V120.8ZM1345.94 120.8V202H1327.38V180.424H1310.21L1295.83 202H1275.99L1292.93 177.524C1287.44 175.282 1283.22 171.918 1280.28 167.432C1277.34 162.87 1275.88 157.418 1275.88 151.076C1275.88 144.812 1277.31 139.438 1280.17 134.952C1283.03 130.39 1287.09 126.91 1292.35 124.512C1297.61 122.038 1303.79 120.8 1310.91 120.8H1345.94ZM1311.37 136.112C1306.04 136.112 1301.94 137.35 1299.08 139.824C1296.29 142.299 1294.9 145.972 1294.9 150.844C1294.9 155.562 1296.25 159.196 1298.96 161.748C1301.67 164.3 1305.65 165.576 1310.91 165.576H1327.38V136.112H1311.37Z" stroke="black" stroke-width="2" mask="url(#path-1-outside-1_1332_31301)"/>
</svg>
