<svg width="16" height="16" viewBox="0 0 16 16" fill="none" xmlns="http://www.w3.org/2000/svg">
<g opacity="0.5">
<path d="M6.66781 11.332H9.33447V3.33203H1.33447V11.332H3.33447H6.66781Z" fill="#FFB548" stroke="#FFB548" stroke-width="1.33333" stroke-linecap="round" stroke-linejoin="round"/>
<path d="M13.3345 11.3333H14.6678V9.10667C14.6681 8.75637 14.5993 8.40945 14.4655 8.08573C14.3317 7.76201 14.1354 7.46783 13.8878 7.22L12.6678 6H9.33447V11.3333H13.3345Z" fill="#FFB548" stroke="#FFB548" stroke-width="1.33333" stroke-linecap="round" stroke-linejoin="round"/>
<path d="M9.33447 11.332H10.0011" stroke="#FFB548" stroke-width="1.33333" stroke-linecap="round" stroke-linejoin="round"/>
<path d="M6.66781 11.6667C6.66781 12.5871 5.92161 13.3333 5.00114 13.3333C4.08066 13.3333 3.33447 12.5871 3.33447 11.6667C3.33447 10.7462 4.08066 10 5.00114 10C5.92161 10 6.66781 10.7462 6.66781 11.6667Z" fill="#FFB548" stroke="#FFB548" stroke-width="1.33333" stroke-linecap="round" stroke-linejoin="round"/>
<path d="M13.3343 11.6667C13.3343 12.5871 12.5881 13.3333 11.6676 13.3333C10.7472 13.3333 10.001 12.5871 10.001 11.6667C10.001 10.7462 10.7472 10 11.6676 10C12.5881 10 13.3343 10.7462 13.3343 11.6667Z" fill="#FFB548" stroke="#FFB548" stroke-width="1.33333" stroke-linecap="round" stroke-linejoin="round"/>
</g>
<path d="M5.00016 13.3333C5.92064 13.3333 6.66683 12.5871 6.66683 11.6667C6.66683 10.7462 5.92064 10 5.00016 10C4.07969 10 3.3335 10.7462 3.3335 11.6667C3.3335 12.5871 4.07969 13.3333 5.00016 13.3333Z" fill="#FFB548" stroke="#FFB548" stroke-width="1.33333" stroke-linecap="round" stroke-linejoin="round"/>
<path d="M11.6667 13.3333C12.5871 13.3333 13.3333 12.5871 13.3333 11.6667C13.3333 10.7462 12.5871 10 11.6667 10C10.7462 10 10 10.7462 10 11.6667C10 12.5871 10.7462 13.3333 11.6667 13.3333Z" fill="#FFB548" stroke="#FFB548" stroke-width="1.33333" stroke-linecap="round" stroke-linejoin="round"/>
</svg>
