<svg width="16" height="16" viewBox="0 0 16 16" fill="none" xmlns="http://www.w3.org/2000/svg">
<path d="M8 5.33203C11.3137 5.33203 14 4.4366 14 3.33203C14 2.22746 11.3137 1.33203 8 1.33203C4.68629 1.33203 2 2.22746 2 3.33203C2 4.4366 4.68629 5.33203 8 5.33203Z" stroke="#00B2E3" stroke-width="1.33333" stroke-linecap="round" stroke-linejoin="round"/>
<g opacity="0.5">
<path d="M2 3.33203V12.6654C2 13.772 4.66667 14.6654 8 14.6654C11.3333 14.6654 14 13.772 14 12.6654V3.33203" stroke="#00B2E3" stroke-width="1.33333" stroke-linecap="round" stroke-linejoin="round"/>
<path d="M4.84619 1.46244L2.23081 3.23167L2.07696 6.61629L1.84619 12.6932L3.38465 13.924L6.84619 14.6932L11.4616 14.2317L13.7693 13.2317L14.1539 3.23167L9.61542 1.30859L4.84619 1.46244Z" fill="#00B2E3"/>
</g>
</svg>
