<svg width="158" height="32" viewBox="0 0 158 32" fill="none" xmlns="http://www.w3.org/2000/svg">
<path d="M75.6036 26.2654H71.4937V14.49L68.7028 21.1614H66.4854L63.6945 14.49V26.2654H59.5654V5.79224H63.3313L67.5941 15.9237L71.8569 5.79224H75.5845V26.2654H75.6036Z" fill="white"/>
<path d="M91.6042 17.2233H83.1359C83.1359 19.804 83.3461 21.4288 83.7667 22.0787C84.1299 22.614 84.6651 22.9007 85.3533 22.9007C86.0223 22.9007 86.5385 22.6331 86.9017 22.117C87.2458 21.6964 87.3987 21.0847 87.3987 20.2436H91.5086C91.4321 22.2317 90.8395 23.7992 89.7691 24.9461C88.7559 26.0357 87.284 26.571 85.3342 26.571C83.4608 26.571 81.9889 26.0166 80.8993 24.9079C80.1156 24.105 79.6185 22.9772 79.37 21.5244C79.1215 20.0716 79.0068 18.2365 79.0068 15.9999C79.0068 13.7825 79.1215 11.9282 79.37 10.4754C79.6185 9.0226 80.1347 7.89476 80.8993 7.09189C81.9698 6.00229 83.4226 5.46704 85.2959 5.46704C87.1311 5.46704 88.603 6.00229 89.6926 7.09189C90.4381 7.83741 90.9542 9.0226 91.2027 10.6283C91.4895 12.2532 91.6042 14.4515 91.6042 17.2233ZM87.4943 14.1839C87.4943 11.9282 87.3031 10.5136 86.9208 9.95927C86.5385 9.42403 86.0032 9.13729 85.3342 9.13729C84.6651 9.13729 84.1299 9.40491 83.7476 9.95927C83.3652 10.5328 83.1741 11.9473 83.1741 14.1839H87.4943Z" fill="white"/>
<path d="M107.126 10.2271C107.298 11.5461 107.375 13.4768 107.375 16.0192C107.375 16.4015 107.336 18.1793 106.973 19.7277C106.763 20.607 106.38 21.2952 105.941 21.8686C105.081 22.9391 103.876 23.4553 102.328 23.4553C101.544 23.4553 100.856 23.2832 100.263 22.92C99.8238 22.6333 99.4223 22.2701 99.0591 21.8304V26.2462H94.9492V5.79218H98.9062V7.30234C99.1165 6.88179 99.5753 6.46124 100.263 6.02157C100.856 5.65837 101.544 5.48633 102.328 5.48633C103.876 5.48633 105.081 6.02157 105.941 7.07295C106.572 7.8567 106.954 8.90807 107.126 10.2271ZM103.265 16.0192C103.265 12.5592 103.035 10.5329 102.596 9.95945C102.213 9.4242 101.697 9.13746 101.085 9.13746C100.512 9.13746 100.053 9.32862 99.69 9.71094C99.2694 10.1697 99.0591 10.8197 99.0591 11.6225V17.3191C99.0591 18.1793 99.2694 18.8101 99.69 19.2307C100.053 19.5939 100.512 19.7659 101.085 19.7659C101.735 19.7659 102.232 19.4983 102.596 18.9821C103.035 18.4087 103.265 17.9308 103.265 16.0192Z" fill="white"/>
<path d="M153.959 10.2271C154.131 11.5461 154.208 13.4768 154.208 16.0192C154.208 16.4015 154.169 18.1793 153.806 19.7277C153.596 20.607 153.214 21.2952 152.774 21.8686C151.914 22.9391 150.709 23.4553 149.161 23.4553C148.377 23.4553 147.689 23.2832 147.096 22.92C146.657 22.6333 146.255 22.2701 145.892 21.8304V26.2462H141.782V5.79218H145.739V7.30234C145.949 6.88179 146.408 6.46124 147.096 6.02157C147.689 5.65837 148.377 5.48633 149.161 5.48633C150.709 5.48633 151.914 6.02157 152.774 7.07295C153.405 7.8567 153.787 8.90807 153.959 10.2271ZM150.098 16.0192C150.098 12.5592 149.868 10.5329 149.429 9.95945C149.046 9.4242 148.53 9.13746 147.918 9.13746C147.345 9.13746 146.886 9.32862 146.523 9.71094C146.102 10.1697 145.892 10.8197 145.892 11.6225V17.3191C145.892 18.1793 146.102 18.8101 146.523 19.2307C146.886 19.5939 147.345 19.7659 147.918 19.7659C148.568 19.7659 149.065 19.4983 149.429 18.9821C149.887 18.4087 150.098 17.9308 150.098 16.0192Z" fill="white"/>
<path d="M138.419 16.0192C138.419 20.2629 137.941 23.0538 136.985 24.4111C135.953 25.8639 134.328 26.5903 132.13 26.5903C129.932 26.5903 128.307 25.8639 127.275 24.4111C126.319 23.0729 125.841 20.2629 125.841 16.0192C125.841 11.7755 126.319 8.98453 127.275 7.62731C128.307 6.21273 129.932 5.48633 132.13 5.48633C134.328 5.48633 135.953 6.19362 136.985 7.62731C137.941 8.96542 138.419 11.7563 138.419 16.0192ZM134.29 16.0192C134.29 12.6739 134.099 10.6667 133.717 9.99768C133.353 9.4242 132.818 9.13746 132.13 9.13746C131.442 9.13746 130.907 9.4242 130.543 9.99768C130.161 10.6667 129.97 12.6739 129.97 16.0192C129.97 19.3836 130.161 21.4099 130.543 22.0789C130.887 22.6142 131.404 22.9009 132.13 22.9009C132.856 22.9009 133.392 22.6333 133.717 22.0789C134.099 21.3907 134.29 19.3836 134.29 16.0192Z" fill="white"/>
<path d="M152.87 2.61888H152.182V0.611708H151.475V0H153.577V0.611708H152.87V2.61888Z" fill="white"/>
<path d="M154.972 0L155.469 1.64397H155.489L155.966 0H157.094V2.61888H156.406L156.483 0.611708H156.444L155.794 2.61888H155.183L154.533 0.611708H154.495L154.571 2.61888H153.883V0H154.972Z" fill="white"/>
<path d="M120.239 26.2654H124.808L119.188 15.4649L124.234 5.79224H119.799L115.651 14.1841H114.906V5.79224H110.796V26.2654H114.906V17.2235H115.766L120.239 26.2654Z" fill="white"/>
<path d="M0 26.2461H12.54L23.933 0H16.0573C13.2282 0 10.6858 1.6822 9.55792 4.26284L0 26.2461Z" fill="#00B2E3"/>
<path d="M30.0693 26.2461H42.5902L53.9833 0H46.1075C43.2784 0 40.736 1.6822 39.6081 4.26284L30.0693 26.2461Z" fill="#E43D30"/>
<path d="M12.541 32H25.0619L36.4549 5.75391H28.5792C25.7501 5.75391 23.2077 7.4361 22.0798 10.0167L12.541 32Z" fill="#FFB548"/>
</svg>
