<svg width="363" height="211" viewBox="0 0 363 211" fill="none" xmlns="http://www.w3.org/2000/svg">
<mask id="mask0_760_68157" style="mask-type:alpha" maskUnits="userSpaceOnUse" x="174" y="97" width="188" height="113">
<path d="M360.411 209.265L352.099 200.953L351.621 200.475L352.099 199.997L361.087 191.008L352.099 182.02L351.621 181.542L352.099 181.064L361.087 172.075L352.099 163.087L351.621 162.608L352.099 162.13L361.087 153.142L352.099 144.153L351.621 143.675L352.099 143.197L361.087 134.209L352.099 125.22L351.621 124.742L352.099 124.264L361.087 115.275L352.099 106.287L351.621 105.809L352.099 105.331L360.411 97.0184H174.74V103.5L175.696 104.456H201.111H201.569L201.739 104.882L203.092 108.262L203.224 108.593L203.026 108.889L201.674 110.917L201.557 111.092L201.362 111.17L194.601 113.875L194.582 113.882L194.563 113.888L186.911 116.439V184.923H195.702H195.982L196.18 185.121L196.262 185.203L198.407 186.275V209.265H360.411Z" fill="black"/>
</mask>
<g mask="url(#mask0_760_68157)">
<path d="M179.661 82.877L186.209 86.6573V94.2179L179.661 97.9982L173.114 94.2179V86.6573L179.661 82.877Z" fill="#F3F3F5" stroke="black" stroke-width="0.151213"/>
<path d="M192.756 82.877L199.304 86.6573V94.2179L192.756 97.9982L186.208 94.2179V86.6573L192.756 82.877Z" fill="#F3F3F5" stroke="black" stroke-width="0.151213"/>
<path d="M205.852 82.877L212.399 86.6573V94.2179L205.852 97.9982L199.304 94.2179V86.6573L205.852 82.877Z" fill="#F3F3F5" stroke="black" stroke-width="0.151213"/>
<path d="M218.946 82.877L225.494 86.6573V94.2179L218.946 97.9982L212.399 94.2179V86.6573L218.946 82.877Z" fill="#F3F3F5" stroke="black" stroke-width="0.151213"/>
<path d="M232.041 82.877L238.589 86.6573V94.2179L232.041 97.9982L225.493 94.2179V86.6573L232.041 82.877Z" fill="#F3F3F5" stroke="black" stroke-width="0.151213"/>
<path d="M245.137 82.877L251.685 86.6573V94.2179L245.137 97.9982L238.589 94.2179V86.6573L245.137 82.877Z" fill="#F3F3F5" stroke="black" stroke-width="0.151213"/>
<path d="M258.232 82.877L264.779 86.6573V94.2179L258.232 97.9982L251.684 94.2179V86.6573L258.232 82.877Z" fill="#F3F3F5" stroke="black" stroke-width="0.151213"/>
<path d="M271.326 82.877L277.874 86.6573V94.2179L271.326 97.9982L264.779 94.2179V86.6573L271.326 82.877Z" fill="#F3F3F5" stroke="black" stroke-width="0.151213"/>
<path d="M284.422 82.877L290.97 86.6573V94.2179L284.422 97.9982L277.874 94.2179V86.6573L284.422 82.877Z" fill="#F3F3F5" stroke="black" stroke-width="0.151213"/>
<path d="M297.517 82.877L304.064 86.6573V94.2179L297.517 97.9982L290.969 94.2179V86.6573L297.517 82.877Z" fill="#F3F3F5" stroke="black" stroke-width="0.151213"/>
<path d="M310.611 82.877L317.159 86.6573V94.2179L310.611 97.9982L304.064 94.2179V86.6573L310.611 82.877Z" fill="#F3F3F5" stroke="black" stroke-width="0.151213"/>
<path d="M323.707 82.877L330.255 86.6573V94.2179L323.707 97.9982L317.159 94.2179V86.6573L323.707 82.877Z" fill="#F3F3F5" stroke="black" stroke-width="0.151213"/>
<path d="M336.802 82.877L343.35 86.6573V94.2179L336.802 97.9982L330.254 94.2179V86.6573L336.802 82.877Z" fill="#F3F3F5" stroke="black" stroke-width="0.151213"/>
<path d="M349.897 82.877L356.444 86.6573V94.2179L349.897 97.9982L343.349 94.2179V86.6573L349.897 82.877Z" fill="#F3F3F5" stroke="black" stroke-width="0.151213"/>
<path d="M362.992 82.877L369.54 86.6573V94.2179L362.992 97.9982L356.445 94.2179V86.6573L362.992 82.877Z" fill="#F3F3F5" stroke="black" stroke-width="0.151213"/>
<path d="M179.661 105.559L186.209 109.339V116.9L179.661 120.68L173.114 116.9V109.339L179.661 105.559Z" fill="#F3F3F5" stroke="black" stroke-width="0.151213"/>
<path d="M192.756 105.559L199.304 109.339V116.9L192.756 120.68L186.208 116.9V109.339L192.756 105.559Z" fill="#F3F3F5" stroke="black" stroke-width="0.151213"/>
<path d="M205.852 105.559L212.399 109.339V116.9L205.852 120.68L199.304 116.9V109.339L205.852 105.559Z" fill="#F3F3F5" stroke="black" stroke-width="0.151213"/>
<path d="M218.946 105.559L225.494 109.339V116.9L218.946 120.68L212.399 116.9V109.339L218.946 105.559Z" fill="#F3F3F5" stroke="black" stroke-width="0.151213"/>
<path d="M232.041 105.559L238.589 109.339V116.9L232.041 120.68L225.493 116.9V109.339L232.041 105.559Z" fill="#F3F3F5" stroke="black" stroke-width="0.151213"/>
<path d="M245.137 105.559L251.685 109.339V116.9L245.137 120.68L238.589 116.9V109.339L245.137 105.559Z" fill="#F3F3F5" stroke="black" stroke-width="0.151213"/>
<path d="M258.232 105.559L264.779 109.339V116.9L258.232 120.68L251.684 116.9V109.339L258.232 105.559Z" fill="#F3F3F5" stroke="black" stroke-width="0.151213"/>
<path d="M271.326 105.559L277.874 109.339V116.9L271.326 120.68L264.779 116.9V109.339L271.326 105.559Z" fill="#F3F3F5" stroke="black" stroke-width="0.151213"/>
<path d="M284.421 105.559L290.969 109.339V116.9L284.421 120.68L277.873 116.9V109.339L284.421 105.559Z" fill="#F3F3F5" stroke="black" stroke-width="0.151213"/>
<path d="M297.517 105.559L304.064 109.339V116.9L297.517 120.68L290.969 116.9V109.339L297.517 105.559Z" fill="#F3F3F5" stroke="black" stroke-width="0.151213"/>
<path d="M310.611 105.559L317.159 109.339V116.9L310.611 120.68L304.064 116.9V109.339L310.611 105.559Z" fill="#F3F3F5" stroke="black" stroke-width="0.151213"/>
<path d="M323.706 105.559L330.254 109.339V116.9L323.706 120.68L317.158 116.9V109.339L323.706 105.559Z" fill="#F3F3F5" stroke="black" stroke-width="0.151213"/>
<path d="M336.802 105.559L343.35 109.339V116.9L336.802 120.68L330.254 116.9V109.339L336.802 105.559Z" fill="#F3F3F5" stroke="black" stroke-width="0.151213"/>
<path d="M349.897 105.559L356.444 109.339V116.9L349.897 120.68L343.349 116.9V109.339L349.897 105.559Z" fill="#F3F3F5" stroke="black" stroke-width="0.151213"/>
<path d="M362.992 105.559L369.54 109.339V116.9L362.992 120.68L356.445 116.9V109.339L362.992 105.559Z" fill="#F3F3F5" stroke="black" stroke-width="0.151213"/>
<path d="M179.661 128.242L186.209 132.023V139.583L179.661 143.363L173.114 139.583V132.023L179.661 128.242Z" fill="#F3F3F5" stroke="black" stroke-width="0.151213"/>
<path d="M192.756 128.242L199.304 132.023V139.583L192.756 143.363L186.208 139.583V132.023L192.756 128.242Z" fill="#F3F3F5" stroke="black" stroke-width="0.151213"/>
<path d="M205.852 128.242L212.399 132.023V139.583L205.852 143.363L199.304 139.583V132.023L205.852 128.242Z" fill="#F3F3F5" stroke="black" stroke-width="0.151213"/>
<path d="M218.946 128.242L225.494 132.023V139.583L218.946 143.363L212.399 139.583V132.023L218.946 128.242Z" fill="#F3F3F5" stroke="black" stroke-width="0.151213"/>
<path d="M232.041 128.242L238.589 132.023V139.583L232.041 143.363L225.493 139.583V132.023L232.041 128.242Z" fill="#F3F3F5" stroke="black" stroke-width="0.151213"/>
<path d="M245.137 128.242L251.685 132.023V139.583L245.137 143.363L238.589 139.583V132.023L245.137 128.242Z" fill="#F3F3F5" stroke="black" stroke-width="0.151213"/>
<path d="M258.232 128.242L264.779 132.023V139.583L258.232 143.363L251.684 139.583V132.023L258.232 128.242Z" fill="#F3F3F5" stroke="black" stroke-width="0.151213"/>
<path d="M271.326 128.242L277.874 132.023V139.583L271.326 143.363L264.779 139.583V132.023L271.326 128.242Z" fill="#F3F3F5" stroke="black" stroke-width="0.151213"/>
<path d="M284.421 128.242L290.969 132.023V139.583L284.421 143.363L277.873 139.583V132.023L284.421 128.242Z" fill="#F3F3F5" stroke="black" stroke-width="0.151213"/>
<path d="M297.517 128.242L304.064 132.023V139.583L297.517 143.363L290.969 139.583V132.023L297.517 128.242Z" fill="#F3F3F5" stroke="black" stroke-width="0.151213"/>
<path d="M310.611 128.242L317.159 132.023V139.583L310.611 143.363L304.064 139.583V132.023L310.611 128.242Z" fill="#F3F3F5" stroke="black" stroke-width="0.151213"/>
<path d="M323.706 128.242L330.254 132.023V139.583L323.706 143.363L317.158 139.583V132.023L323.706 128.242Z" fill="#F3F3F5" stroke="black" stroke-width="0.151213"/>
<path d="M336.802 128.242L343.35 132.023V139.583L336.802 143.363L330.254 139.583V132.023L336.802 128.242Z" fill="#F3F3F5" stroke="black" stroke-width="0.151213"/>
<path d="M349.897 128.242L356.444 132.023V139.583L349.897 143.363L343.349 139.583V132.023L349.897 128.242Z" fill="#F3F3F5" stroke="black" stroke-width="0.151213"/>
<path d="M362.992 128.242L369.54 132.023V139.583L362.992 143.363L356.445 139.583V132.023L362.992 128.242Z" fill="#F3F3F5" stroke="black" stroke-width="0.151213"/>
<path d="M179.661 150.924L186.209 154.704V162.265L179.661 166.045L173.114 162.265V154.704L179.661 150.924Z" fill="#F3F3F5" stroke="black" stroke-width="0.151213"/>
<path d="M192.756 150.924L199.304 154.704V162.265L192.756 166.045L186.208 162.265V154.704L192.756 150.924Z" fill="#F3F3F5" stroke="black" stroke-width="0.151213"/>
<path d="M205.852 150.924L212.399 154.704V162.265L205.852 166.045L199.304 162.265V154.704L205.852 150.924Z" fill="#F3F3F5" stroke="black" stroke-width="0.151213"/>
<path d="M218.946 150.924L225.494 154.704V162.265L218.946 166.045L212.399 162.265V154.704L218.946 150.924Z" fill="#F3F3F5" stroke="black" stroke-width="0.151213"/>
<path d="M232.041 150.924L238.589 154.704V162.265L232.041 166.045L225.493 162.265V154.704L232.041 150.924Z" fill="#F3F3F5" stroke="black" stroke-width="0.151213"/>
<path d="M245.137 150.924L251.685 154.704V162.265L245.137 166.045L238.589 162.265V154.704L245.137 150.924Z" fill="#F3F3F5" stroke="black" stroke-width="0.151213"/>
<path d="M258.232 150.924L264.779 154.704V162.265L258.232 166.045L251.684 162.265V154.704L258.232 150.924Z" fill="#F3F3F5" stroke="black" stroke-width="0.151213"/>
<path d="M271.326 150.924L277.874 154.704V162.265L271.326 166.045L264.779 162.265V154.704L271.326 150.924Z" fill="#F3F3F5" stroke="black" stroke-width="0.151213"/>
<path d="M284.422 150.924L290.97 154.704V162.265L284.422 166.045L277.874 162.265V154.704L284.422 150.924Z" fill="#F3F3F5" stroke="black" stroke-width="0.151213"/>
<path d="M297.517 150.924L304.064 154.704V162.265L297.517 166.045L290.969 162.265V154.704L297.517 150.924Z" fill="#F3F3F5" stroke="black" stroke-width="0.151213"/>
<path d="M310.611 150.924L317.159 154.704V162.265L310.611 166.045L304.064 162.265V154.704L310.611 150.924Z" fill="#F3F3F5" stroke="black" stroke-width="0.151213"/>
<path d="M323.707 150.924L330.255 154.704V162.265L323.707 166.045L317.159 162.265V154.704L323.707 150.924Z" fill="#F3F3F5" stroke="black" stroke-width="0.151213"/>
<path d="M336.802 150.924L343.35 154.704V162.265L336.802 166.045L330.254 162.265V154.704L336.802 150.924Z" fill="#F3F3F5" stroke="black" stroke-width="0.151213"/>
<path d="M349.897 150.924L356.444 154.704V162.265L349.897 166.045L343.349 162.265V154.704L349.897 150.924Z" fill="#F3F3F5" stroke="black" stroke-width="0.151213"/>
<path d="M362.992 150.924L369.54 154.704V162.265L362.992 166.045L356.445 162.265V154.704L362.992 150.924Z" fill="#F3F3F5" stroke="black" stroke-width="0.151213"/>
<path d="M179.661 173.605L186.209 177.386V184.946L179.661 188.727L173.114 184.946V177.386L179.661 173.605Z" fill="#F3F3F5" stroke="black" stroke-width="0.151213"/>
<path d="M192.756 173.605L199.304 177.386V184.946L192.756 188.727L186.208 184.946V177.386L192.756 173.605Z" fill="#F3F3F5" stroke="black" stroke-width="0.151213"/>
<path d="M205.852 173.605L212.399 177.386V184.946L205.852 188.727L199.304 184.946V177.386L205.852 173.605Z" fill="#F3F3F5" stroke="black" stroke-width="0.151213"/>
<path d="M218.946 173.605L225.494 177.386V184.946L218.946 188.727L212.399 184.946V177.386L218.946 173.605Z" fill="#F3F3F5" stroke="black" stroke-width="0.151213"/>
<path d="M232.041 173.605L238.589 177.386V184.946L232.041 188.727L225.493 184.946V177.386L232.041 173.605Z" fill="#F3F3F5" stroke="black" stroke-width="0.151213"/>
<path d="M245.137 173.605L251.685 177.386V184.946L245.137 188.727L238.589 184.946V177.386L245.137 173.605Z" fill="#F3F3F5" stroke="black" stroke-width="0.151213"/>
<path d="M258.232 173.605L264.779 177.386V184.946L258.232 188.727L251.684 184.946V177.386L258.232 173.605Z" fill="#F3F3F5" stroke="black" stroke-width="0.151213"/>
<path d="M271.326 173.605L277.874 177.386V184.946L271.326 188.727L264.779 184.946V177.386L271.326 173.605Z" fill="#F3F3F5" stroke="black" stroke-width="0.151213"/>
<path d="M284.421 173.605L290.969 177.386V184.946L284.421 188.727L277.873 184.946V177.386L284.421 173.605Z" fill="#F3F3F5" stroke="black" stroke-width="0.151213"/>
<path d="M297.517 173.605L304.064 177.386V184.946L297.517 188.727L290.969 184.946V177.386L297.517 173.605Z" fill="#F3F3F5" stroke="black" stroke-width="0.151213"/>
<path d="M310.611 173.605L317.159 177.386V184.946L310.611 188.727L304.064 184.946V177.386L310.611 173.605Z" fill="#F3F3F5" stroke="black" stroke-width="0.151213"/>
<path d="M323.706 173.605L330.254 177.386V184.946L323.706 188.727L317.158 184.946V177.386L323.706 173.605Z" fill="#F3F3F5" stroke="black" stroke-width="0.151213"/>
<path d="M336.802 173.605L343.35 177.386V184.946L336.802 188.727L330.254 184.946V177.386L336.802 173.605Z" fill="#F3F3F5" stroke="black" stroke-width="0.151213"/>
<path d="M349.897 173.605L356.444 177.386V184.946L349.897 188.727L343.349 184.946V177.386L349.897 173.605Z" fill="#F3F3F5" stroke="black" stroke-width="0.151213"/>
<path d="M362.992 173.605L369.54 177.386V184.946L362.992 188.727L356.445 184.946V177.386L362.992 173.605Z" fill="#F3F3F5" stroke="black" stroke-width="0.151213"/>
<path d="M179.661 196.287L186.209 200.067V207.628L179.661 211.408L173.114 207.628V200.067L179.661 196.287Z" fill="#F3F3F5" stroke="black" stroke-width="0.151213"/>
<path d="M192.756 196.287L199.304 200.067V207.628L192.756 211.408L186.208 207.628V200.067L192.756 196.287Z" fill="#F3F3F5" stroke="black" stroke-width="0.151213"/>
<path d="M205.852 196.287L212.399 200.067V207.628L205.852 211.408L199.304 207.628V200.067L205.852 196.287Z" fill="#F3F3F5" stroke="black" stroke-width="0.151213"/>
<path d="M218.946 196.287L225.494 200.067V207.628L218.946 211.408L212.399 207.628V200.067L218.946 196.287Z" fill="#F3F3F5" stroke="black" stroke-width="0.151213"/>
<path d="M232.041 196.287L238.589 200.067V207.628L232.041 211.408L225.493 207.628V200.067L232.041 196.287Z" fill="#F3F3F5" stroke="black" stroke-width="0.151213"/>
<path d="M245.137 196.287L251.685 200.067V207.628L245.137 211.408L238.589 207.628V200.067L245.137 196.287Z" fill="#F3F3F5" stroke="black" stroke-width="0.151213"/>
<path d="M258.232 196.287L264.779 200.067V207.628L258.232 211.408L251.684 207.628V200.067L258.232 196.287Z" fill="#F3F3F5" stroke="black" stroke-width="0.151213"/>
<path d="M271.326 196.287L277.874 200.067V207.628L271.326 211.408L264.779 207.628V200.067L271.326 196.287Z" fill="#F3F3F5" stroke="black" stroke-width="0.151213"/>
<path d="M284.421 196.287L290.969 200.067V207.628L284.421 211.408L277.873 207.628V200.067L284.421 196.287Z" fill="#F3F3F5" stroke="black" stroke-width="0.151213"/>
<path d="M297.517 196.287L304.064 200.067V207.628L297.517 211.408L290.969 207.628V200.067L297.517 196.287Z" fill="#F3F3F5" stroke="black" stroke-width="0.151213"/>
<path d="M310.611 196.287L317.159 200.067V207.628L310.611 211.408L304.064 207.628V200.067L310.611 196.287Z" fill="#F3F3F5" stroke="black" stroke-width="0.151213"/>
<path d="M323.706 196.287L330.254 200.067V207.628L323.706 211.408L317.158 207.628V200.067L323.706 196.287Z" fill="#F3F3F5" stroke="black" stroke-width="0.151213"/>
<path d="M336.802 196.287L343.35 200.067V207.628L336.802 211.408L330.254 207.628V200.067L336.802 196.287Z" fill="#F3F3F5" stroke="black" stroke-width="0.151213"/>
<path d="M349.897 196.287L356.444 200.067V207.628L349.897 211.408L343.349 207.628V200.067L349.897 196.287Z" fill="#F3F3F5" stroke="black" stroke-width="0.151213"/>
<path d="M362.992 196.287L369.54 200.067V207.628L362.992 211.408L356.445 207.628V200.067L362.992 196.287Z" fill="#F3F3F5" stroke="black" stroke-width="0.151213"/>
<path d="M173.114 94.2188L179.662 97.9991V105.56L173.114 109.34L166.567 105.56V97.9991L173.114 94.2188Z" fill="#F3F3F5" stroke="black" stroke-width="0.151213"/>
<path d="M186.209 94.2188L192.757 97.9991V105.56L186.209 109.34L179.661 105.56V97.9991L186.209 94.2188Z" fill="#F3F3F5" stroke="black" stroke-width="0.151213"/>
<path d="M199.304 94.2188L205.852 97.9991V105.56L199.304 109.34L192.756 105.56V97.9991L199.304 94.2188Z" fill="#F3F3F5" stroke="black" stroke-width="0.151213"/>
<path d="M212.4 94.2188L218.947 97.9991V105.56L212.4 109.34L205.852 105.56V97.9991L212.4 94.2188Z" fill="#F3F3F5" stroke="black" stroke-width="0.151213"/>
<path d="M225.494 94.2188L232.042 97.9991V105.56L225.494 109.34L218.947 105.56V97.9991L225.494 94.2188Z" fill="#F3F3F5" stroke="black" stroke-width="0.151213"/>
<path d="M238.589 94.2188L245.137 97.9991V105.56L238.589 109.34L232.041 105.56V97.9991L238.589 94.2188Z" fill="#F3F3F5" stroke="black" stroke-width="0.151213"/>
<path d="M251.685 94.2188L258.232 97.9991V105.56L251.685 109.34L245.137 105.56V97.9991L251.685 94.2188Z" fill="#F3F3F5" stroke="black" stroke-width="0.151213"/>
<path d="M264.779 94.2188L271.327 97.9991V105.56L264.779 109.34L258.232 105.56V97.9991L264.779 94.2188Z" fill="#F3F3F5" stroke="black" stroke-width="0.151213"/>
<path d="M277.874 94.2188L284.422 97.9991V105.56L277.874 109.34L271.326 105.56V97.9991L277.874 94.2188Z" fill="#F3F3F5" stroke="black" stroke-width="0.151213"/>
<path d="M290.97 94.2188L297.518 97.9991V105.56L290.97 109.34L284.422 105.56V97.9991L290.97 94.2188Z" fill="#F3F3F5" stroke="black" stroke-width="0.151213"/>
<path d="M304.065 94.2188L310.612 97.9991V105.56L304.065 109.34L297.517 105.56V97.9991L304.065 94.2188Z" fill="#F3F3F5" stroke="black" stroke-width="0.151213"/>
<path d="M317.159 94.2188L323.707 97.9991V105.56L317.159 109.34L310.612 105.56V97.9991L317.159 94.2188Z" fill="#F3F3F5" stroke="black" stroke-width="0.151213"/>
<path d="M330.255 94.2188L336.803 97.9991V105.56L330.255 109.34L323.707 105.56V97.9991L330.255 94.2188Z" fill="#F3F3F5" stroke="black" stroke-width="0.151213"/>
<path d="M343.35 94.2188L349.897 97.9991V105.56L343.35 109.34L336.802 105.56V97.9991L343.35 94.2188Z" fill="#F3F3F5" stroke="black" stroke-width="0.151213"/>
<path d="M356.444 94.2188L362.992 97.9991V105.56L356.444 109.34L349.897 105.56V97.9991L356.444 94.2188Z" fill="#F3F3F5" stroke="black" stroke-width="0.151213"/>
<path d="M173.114 116.9L179.662 120.681V128.241L173.114 132.022L166.567 128.241V120.681L173.114 116.9Z" fill="#F3F3F5" stroke="black" stroke-width="0.151213"/>
<path d="M186.209 116.9L192.757 120.681V128.241L186.209 132.022L179.661 128.241V120.681L186.209 116.9Z" fill="#F3F3F5" stroke="black" stroke-width="0.151213"/>
<path d="M199.304 116.9L205.852 120.681V128.241L199.304 132.022L192.756 128.241V120.681L199.304 116.9Z" fill="#F3F3F5" stroke="black" stroke-width="0.151213"/>
<path d="M212.4 116.9L218.947 120.681V128.241L212.4 132.022L205.852 128.241V120.681L212.4 116.9Z" fill="#F3F3F5" stroke="black" stroke-width="0.151213"/>
<path d="M225.494 116.9L232.042 120.681V128.241L225.494 132.022L218.947 128.241V120.681L225.494 116.9Z" fill="#F3F3F5" stroke="black" stroke-width="0.151213"/>
<path d="M238.589 116.9L245.137 120.681V128.241L238.589 132.022L232.041 128.241V120.681L238.589 116.9Z" fill="#F3F3F5" stroke="black" stroke-width="0.151213"/>
<path d="M251.685 116.9L258.232 120.681V128.241L251.685 132.022L245.137 128.241V120.681L251.685 116.9Z" fill="#F3F3F5" stroke="black" stroke-width="0.151213"/>
<path d="M264.779 116.9L271.327 120.681V128.241L264.779 132.022L258.232 128.241V120.681L264.779 116.9Z" fill="#F3F3F5" stroke="black" stroke-width="0.151213"/>
<path d="M277.874 116.9L284.422 120.681V128.241L277.874 132.022L271.326 128.241V120.681L277.874 116.9Z" fill="#F3F3F5" stroke="black" stroke-width="0.151213"/>
<path d="M290.97 116.9L297.518 120.681V128.241L290.97 132.022L284.422 128.241V120.681L290.97 116.9Z" fill="#F3F3F5" stroke="black" stroke-width="0.151213"/>
<path d="M304.065 116.9L310.612 120.681V128.241L304.065 132.022L297.517 128.241V120.681L304.065 116.9Z" fill="#F3F3F5" stroke="black" stroke-width="0.151213"/>
<path d="M317.159 116.9L323.707 120.681V128.241L317.159 132.022L310.612 128.241V120.681L317.159 116.9Z" fill="#F3F3F5" stroke="black" stroke-width="0.151213"/>
<path d="M330.255 116.9L336.803 120.681V128.241L330.255 132.022L323.707 128.241V120.681L330.255 116.9Z" fill="#F3F3F5" stroke="black" stroke-width="0.151213"/>
<path d="M343.35 116.9L349.897 120.681V128.241L343.35 132.022L336.802 128.241V120.681L343.35 116.9Z" fill="#F3F3F5" stroke="black" stroke-width="0.151213"/>
<path d="M356.444 116.9L362.992 120.681V128.241L356.444 132.022L349.897 128.241V120.681L356.444 116.9Z" fill="#F3F3F5" stroke="black" stroke-width="0.151213"/>
<path d="M173.114 139.582L179.662 143.362V150.923L173.114 154.703L166.567 150.923V143.362L173.114 139.582Z" fill="#F3F3F5" stroke="black" stroke-width="0.151213"/>
<path d="M186.209 139.582L192.757 143.362V150.923L186.209 154.703L179.661 150.923V143.362L186.209 139.582Z" fill="#F3F3F5" stroke="black" stroke-width="0.151213"/>
<path d="M199.304 139.582L205.852 143.362V150.923L199.304 154.703L192.756 150.923V143.362L199.304 139.582Z" fill="#F3F3F5" stroke="black" stroke-width="0.151213"/>
<path d="M212.4 139.582L218.947 143.362V150.923L212.4 154.703L205.852 150.923V143.362L212.4 139.582Z" fill="#F3F3F5" stroke="black" stroke-width="0.151213"/>
<path d="M225.494 139.582L232.042 143.362V150.923L225.494 154.703L218.947 150.923V143.362L225.494 139.582Z" fill="#F3F3F5" stroke="black" stroke-width="0.151213"/>
<path d="M238.589 139.582L245.137 143.362V150.923L238.589 154.703L232.041 150.923V143.362L238.589 139.582Z" fill="#F3F3F5" stroke="black" stroke-width="0.151213"/>
<path d="M251.685 139.582L258.232 143.362V150.923L251.685 154.703L245.137 150.923V143.362L251.685 139.582Z" fill="#F3F3F5" stroke="black" stroke-width="0.151213"/>
<path d="M264.779 139.582L271.327 143.362V150.923L264.779 154.703L258.232 150.923V143.362L264.779 139.582Z" fill="#F3F3F5" stroke="black" stroke-width="0.151213"/>
<path d="M277.874 139.582L284.422 143.362V150.923L277.874 154.703L271.326 150.923V143.362L277.874 139.582Z" fill="#F3F3F5" stroke="black" stroke-width="0.151213"/>
<path d="M290.97 139.582L297.518 143.362V150.923L290.97 154.703L284.422 150.923V143.362L290.97 139.582Z" fill="#F3F3F5" stroke="black" stroke-width="0.151213"/>
<path d="M304.065 139.582L310.612 143.362V150.923L304.065 154.703L297.517 150.923V143.362L304.065 139.582Z" fill="#F3F3F5" stroke="black" stroke-width="0.151213"/>
<path d="M317.159 139.582L323.707 143.362V150.923L317.159 154.703L310.612 150.923V143.362L317.159 139.582Z" fill="#F3F3F5" stroke="black" stroke-width="0.151213"/>
<path d="M330.255 139.582L336.803 143.362V150.923L330.255 154.703L323.707 150.923V143.362L330.255 139.582Z" fill="#F3F3F5" stroke="black" stroke-width="0.151213"/>
<path d="M343.35 139.582L349.897 143.362V150.923L343.35 154.703L336.802 150.923V143.362L343.35 139.582Z" fill="#F3F3F5" stroke="black" stroke-width="0.151213"/>
<path d="M356.444 139.582L362.992 143.362V150.923L356.444 154.703L349.897 150.923V143.362L356.444 139.582Z" fill="#F3F3F5" stroke="black" stroke-width="0.151213"/>
<path d="M173.114 162.264L179.662 166.044V173.605L173.114 177.385L166.567 173.605V166.044L173.114 162.264Z" fill="#F3F3F5" stroke="black" stroke-width="0.151213"/>
<path d="M186.209 162.264L192.757 166.044V173.605L186.209 177.385L179.661 173.605V166.044L186.209 162.264Z" fill="#F3F3F5" stroke="black" stroke-width="0.151213"/>
<path d="M199.304 162.264L205.852 166.044V173.605L199.304 177.385L192.756 173.605V166.044L199.304 162.264Z" fill="#F3F3F5" stroke="black" stroke-width="0.151213"/>
<path d="M212.4 162.264L218.947 166.044V173.605L212.4 177.385L205.852 173.605V166.044L212.4 162.264Z" fill="#F3F3F5" stroke="black" stroke-width="0.151213"/>
<path d="M225.494 162.264L232.042 166.044V173.605L225.494 177.385L218.947 173.605V166.044L225.494 162.264Z" fill="#F3F3F5" stroke="black" stroke-width="0.151213"/>
<path d="M238.589 162.264L245.137 166.044V173.605L238.589 177.385L232.041 173.605V166.044L238.589 162.264Z" fill="#F3F3F5" stroke="black" stroke-width="0.151213"/>
<path d="M251.685 162.264L258.232 166.044V173.605L251.685 177.385L245.137 173.605V166.044L251.685 162.264Z" fill="#F3F3F5" stroke="black" stroke-width="0.151213"/>
<path d="M264.779 162.264L271.327 166.044V173.605L264.779 177.385L258.232 173.605V166.044L264.779 162.264Z" fill="#F3F3F5" stroke="black" stroke-width="0.151213"/>
<path d="M277.874 162.264L284.422 166.044V173.605L277.874 177.385L271.326 173.605V166.044L277.874 162.264Z" fill="#F3F3F5" stroke="black" stroke-width="0.151213"/>
<path d="M290.97 162.264L297.518 166.044V173.605L290.97 177.385L284.422 173.605V166.044L290.97 162.264Z" fill="#F3F3F5" stroke="black" stroke-width="0.151213"/>
<path d="M304.065 162.264L310.612 166.044V173.605L304.065 177.385L297.517 173.605V166.044L304.065 162.264Z" fill="#F3F3F5" stroke="black" stroke-width="0.151213"/>
<path d="M317.159 162.264L323.707 166.044V173.605L317.159 177.385L310.612 173.605V166.044L317.159 162.264Z" fill="#F3F3F5" stroke="black" stroke-width="0.151213"/>
<path d="M330.255 162.264L336.803 166.044V173.605L330.255 177.385L323.707 173.605V166.044L330.255 162.264Z" fill="#F3F3F5" stroke="black" stroke-width="0.151213"/>
<path d="M343.35 162.264L349.897 166.044V173.605L343.35 177.385L336.802 173.605V166.044L343.35 162.264Z" fill="#F3F3F5" stroke="black" stroke-width="0.151213"/>
<path d="M356.444 162.264L362.992 166.044V173.605L356.444 177.385L349.897 173.605V166.044L356.444 162.264Z" fill="#F3F3F5" stroke="black" stroke-width="0.151213"/>
<path d="M173.114 184.945L179.662 188.726V196.286L173.114 200.067L166.567 196.286V188.726L173.114 184.945Z" fill="#F3F3F5" stroke="black" stroke-width="0.151213"/>
<path d="M186.209 184.945L192.757 188.726V196.286L186.209 200.067L179.661 196.286V188.726L186.209 184.945Z" fill="#F3F3F5" stroke="black" stroke-width="0.151213"/>
<path d="M199.304 184.945L205.852 188.726V196.286L199.304 200.067L192.756 196.286V188.726L199.304 184.945Z" fill="#F3F3F5" stroke="black" stroke-width="0.151213"/>
<path d="M212.4 184.945L218.947 188.726V196.286L212.4 200.067L205.852 196.286V188.726L212.4 184.945Z" fill="#F3F3F5" stroke="black" stroke-width="0.151213"/>
<path d="M225.494 184.945L232.042 188.726V196.286L225.494 200.067L218.947 196.286V188.726L225.494 184.945Z" fill="#F3F3F5" stroke="black" stroke-width="0.151213"/>
<path d="M238.589 184.945L245.137 188.726V196.286L238.589 200.067L232.041 196.286V188.726L238.589 184.945Z" fill="#F3F3F5" stroke="black" stroke-width="0.151213"/>
<path d="M251.685 184.945L258.232 188.726V196.286L251.685 200.067L245.137 196.286V188.726L251.685 184.945Z" fill="#F3F3F5" stroke="black" stroke-width="0.151213"/>
<path d="M264.779 184.945L271.327 188.726V196.286L264.779 200.067L258.232 196.286V188.726L264.779 184.945Z" fill="#F3F3F5" stroke="black" stroke-width="0.151213"/>
<path d="M277.874 184.945L284.422 188.726V196.286L277.874 200.067L271.326 196.286V188.726L277.874 184.945Z" fill="#F3F3F5" stroke="black" stroke-width="0.151213"/>
<path d="M290.97 184.945L297.518 188.726V196.286L290.97 200.067L284.422 196.286V188.726L290.97 184.945Z" fill="#F3F3F5" stroke="black" stroke-width="0.151213"/>
<path d="M304.065 184.945L310.612 188.726V196.286L304.065 200.067L297.517 196.286V188.726L304.065 184.945Z" fill="#F3F3F5" stroke="black" stroke-width="0.151213"/>
<path d="M317.159 184.945L323.707 188.726V196.286L317.159 200.067L310.612 196.286V188.726L317.159 184.945Z" fill="#F3F3F5" stroke="black" stroke-width="0.151213"/>
<path d="M330.255 184.945L336.803 188.726V196.286L330.255 200.067L323.707 196.286V188.726L330.255 184.945Z" fill="#F3F3F5" stroke="black" stroke-width="0.151213"/>
<path d="M343.35 184.945L349.897 188.726V196.286L343.35 200.067L336.802 196.286V188.726L343.35 184.945Z" fill="#F3F3F5" stroke="black" stroke-width="0.151213"/>
<path d="M356.444 184.945L362.992 188.726V196.286L356.444 200.067L349.897 196.286V188.726L356.444 184.945Z" fill="#F3F3F5" stroke="black" stroke-width="0.151213"/>
<path d="M173.114 207.629L179.662 211.409V218.97L173.114 222.75L166.567 218.97V211.409L173.114 207.629Z" fill="#F3F3F5" stroke="black" stroke-width="0.151213"/>
<path d="M186.209 207.629L192.757 211.409V218.97L186.209 222.75L179.661 218.97V211.409L186.209 207.629Z" fill="#F3F3F5" stroke="black" stroke-width="0.151213"/>
<path d="M199.304 207.629L205.852 211.409V218.97L199.304 222.75L192.756 218.97V211.409L199.304 207.629Z" fill="#F3F3F5" stroke="black" stroke-width="0.151213"/>
<path d="M212.4 207.629L218.947 211.409V218.97L212.4 222.75L205.852 218.97V211.409L212.4 207.629Z" fill="#F3F3F5" stroke="black" stroke-width="0.151213"/>
<path d="M225.494 207.629L232.042 211.409V218.97L225.494 222.75L218.947 218.97V211.409L225.494 207.629Z" fill="#F3F3F5" stroke="black" stroke-width="0.151213"/>
<path d="M238.589 207.629L245.137 211.409V218.97L238.589 222.75L232.041 218.97V211.409L238.589 207.629Z" fill="#F3F3F5" stroke="black" stroke-width="0.151213"/>
<path d="M251.685 207.629L258.232 211.409V218.97L251.685 222.75L245.137 218.97V211.409L251.685 207.629Z" fill="#F3F3F5" stroke="black" stroke-width="0.151213"/>
<path d="M264.779 207.629L271.327 211.409V218.97L264.779 222.75L258.232 218.97V211.409L264.779 207.629Z" fill="#F3F3F5" stroke="black" stroke-width="0.151213"/>
<path d="M277.874 207.629L284.422 211.409V218.97L277.874 222.75L271.326 218.97V211.409L277.874 207.629Z" fill="#F3F3F5" stroke="black" stroke-width="0.151213"/>
<path d="M290.97 207.629L297.518 211.409V218.97L290.97 222.75L284.422 218.97V211.409L290.97 207.629Z" fill="#F3F3F5" stroke="black" stroke-width="0.151213"/>
<path d="M304.065 207.629L310.612 211.409V218.97L304.065 222.75L297.517 218.97V211.409L304.065 207.629Z" fill="#F3F3F5" stroke="black" stroke-width="0.151213"/>
<path d="M317.159 207.629L323.707 211.409V218.97L317.159 222.75L310.612 218.97V211.409L317.159 207.629Z" fill="#F3F3F5" stroke="black" stroke-width="0.151213"/>
<path d="M330.255 207.629L336.803 211.409V218.97L330.255 222.75L323.707 218.97V211.409L330.255 207.629Z" fill="#F3F3F5" stroke="black" stroke-width="0.151213"/>
<path d="M343.35 207.629L349.897 211.409V218.97L343.35 222.75L336.802 218.97V211.409L343.35 207.629Z" fill="#F3F3F5" stroke="black" stroke-width="0.151213"/>
<path d="M356.444 207.629L362.992 211.409V218.97L356.444 222.75L349.897 218.97V211.409L356.444 207.629Z" fill="#F3F3F5" stroke="black" stroke-width="0.151213"/>
</g>
<mask id="mask1_760_68157" style="mask-type:alpha" maskUnits="userSpaceOnUse" x="1" y="97" width="201" height="113">
<path d="M10.901 105.331L2.58873 97.0184H173.384V103.78V104.06L173.582 104.258L174.934 105.611L175.132 105.809H175.412H200.65L201.7 108.434L200.661 109.992L194.113 112.612L186.017 115.31L185.555 115.464V115.952V184.246H175.692L173.939 182.494L172.636 179.887L172.617 179.849L172.594 179.814L171.292 177.861L170.644 175.918L170.49 175.456H170.003H145.66H145.38L145.182 175.654L141.801 179.035L141.656 179.18L141.616 179.381L140.94 182.761L140.935 182.786L140.932 182.81L140.28 188.03L137.787 191.146L133.863 193.108L133.72 193.18L133.624 193.307L131.595 196.012L131.503 196.135L131.473 196.285L130.186 202.723L127.777 203.927L127.575 204.028L127.474 204.23L126.189 206.802L123.109 209.265H2.58873L10.901 200.953L11.3791 200.475L10.901 199.997L1.91254 191.008L10.901 182.02L11.3791 181.542L10.901 181.064L1.91254 172.075L10.901 163.087L11.3791 162.608L10.901 162.13L1.91254 153.142L10.901 144.153L11.3791 143.675L10.901 143.197L1.91254 134.209L10.901 125.22L11.3791 124.742L10.901 124.264L1.91254 115.275L10.901 106.287L11.3791 105.809L10.901 105.331Z" fill="black"/>
</mask>
<g mask="url(#mask1_760_68157)">
<path d="M-0.0575166 82.877L6.4902 86.6573V94.2179L-0.0575166 97.9982L-6.60523 94.2179V86.6573L-0.0575166 82.877Z" fill="#F3F3F5" stroke="black" stroke-width="0.151213"/>
<path d="M13.0372 82.877L19.5849 86.6573V94.2179L13.0372 97.9982L6.4895 94.2179V86.6573L13.0372 82.877Z" fill="#F3F3F5" stroke="black" stroke-width="0.151213"/>
<path d="M26.1319 82.877L32.6796 86.6573V94.2179L26.1319 97.9982L19.5842 94.2179V86.6573L26.1319 82.877Z" fill="#F3F3F5" stroke="black" stroke-width="0.151213"/>
<path d="M39.2276 82.877L45.7754 86.6573V94.2179L39.2276 97.9982L32.6799 94.2179V86.6573L39.2276 82.877Z" fill="#F3F3F5" stroke="black" stroke-width="0.151213"/>
<path d="M52.3224 82.877L58.8701 86.6573V94.2179L52.3224 97.9982L45.7747 94.2179V86.6573L52.3224 82.877Z" fill="#F3F3F5" stroke="black" stroke-width="0.151213"/>
<path d="M65.4171 82.877L71.9648 86.6573V94.2179L65.4171 97.9982L58.8694 94.2179V86.6573L65.4171 82.877Z" fill="#F3F3F5" stroke="black" stroke-width="0.151213"/>
<path d="M78.5128 82.877L85.0605 86.6573V94.2179L78.5128 97.9982L71.9651 94.2179V86.6573L78.5128 82.877Z" fill="#F3F3F5" stroke="black" stroke-width="0.151213"/>
<path d="M91.6075 82.877L98.1552 86.6573V94.2179L91.6075 97.9982L85.0598 94.2179V86.6573L91.6075 82.877Z" fill="#F3F3F5" stroke="black" stroke-width="0.151213"/>
<path d="M104.702 82.877L111.25 86.6573V94.2179L104.702 97.9982L98.1545 94.2179V86.6573L104.702 82.877Z" fill="#F3F3F5" stroke="black" stroke-width="0.151213"/>
<path d="M117.798 82.877L124.346 86.6573V94.2179L117.798 97.9982L111.25 94.2179V86.6573L117.798 82.877Z" fill="#F3F3F5" stroke="black" stroke-width="0.151213"/>
<path d="M130.893 82.877L137.44 86.6573V94.2179L130.893 97.9982L124.345 94.2179V86.6573L130.893 82.877Z" fill="#F3F3F5" stroke="black" stroke-width="0.151213"/>
<path d="M143.987 82.877L150.535 86.6573V94.2179L143.987 97.9982L137.44 94.2179V86.6573L143.987 82.877Z" fill="#F3F3F5" stroke="black" stroke-width="0.151213"/>
<path d="M157.083 82.877L163.631 86.6573V94.2179L157.083 97.9982L150.535 94.2179V86.6573L157.083 82.877Z" fill="#F3F3F5" stroke="black" stroke-width="0.151213"/>
<path d="M170.178 82.877L176.726 86.6573V94.2179L170.178 97.9982L163.63 94.2179V86.6573L170.178 82.877Z" fill="#F3F3F5" stroke="black" stroke-width="0.151213"/>
<path d="M183.273 82.877L189.82 86.6573V94.2179L183.273 97.9982L176.725 94.2179V86.6573L183.273 82.877Z" fill="#F3F3F5" stroke="black" stroke-width="0.151213"/>
<path d="M196.368 82.877L202.916 86.6573V94.2179L196.368 97.9982L189.821 94.2179V86.6573L196.368 82.877Z" fill="#F3F3F5" stroke="black" stroke-width="0.151213"/>
<path d="M-0.0575166 105.559L6.4902 109.339V116.9L-0.0575166 120.68L-6.60523 116.9V109.339L-0.0575166 105.559Z" fill="#F3F3F5" stroke="black" stroke-width="0.151213"/>
<path d="M13.0372 105.559L19.5849 109.339V116.9L13.0372 120.68L6.4895 116.9V109.339L13.0372 105.559Z" fill="#F3F3F5" stroke="black" stroke-width="0.151213"/>
<path d="M26.1319 105.559L32.6796 109.339V116.9L26.1319 120.68L19.5842 116.9V109.339L26.1319 105.559Z" fill="#F3F3F5" stroke="black" stroke-width="0.151213"/>
<path d="M39.2276 105.559L45.7754 109.339V116.9L39.2276 120.68L32.6799 116.9V109.339L39.2276 105.559Z" fill="#F3F3F5" stroke="black" stroke-width="0.151213"/>
<path d="M52.3224 105.559L58.8701 109.339V116.9L52.3224 120.68L45.7747 116.9V109.339L52.3224 105.559Z" fill="#F3F3F5" stroke="black" stroke-width="0.151213"/>
<path d="M65.4171 105.559L71.9648 109.339V116.9L65.4171 120.68L58.8694 116.9V109.339L65.4171 105.559Z" fill="#F3F3F5" stroke="black" stroke-width="0.151213"/>
<path d="M78.5128 105.559L85.0605 109.339V116.9L78.5128 120.68L71.9651 116.9V109.339L78.5128 105.559Z" fill="#F3F3F5" stroke="black" stroke-width="0.151213"/>
<path d="M91.6075 105.559L98.1552 109.339V116.9L91.6075 120.68L85.0598 116.9V109.339L91.6075 105.559Z" fill="#F3F3F5" stroke="black" stroke-width="0.151213"/>
<path d="M104.702 105.559L111.25 109.339V116.9L104.702 120.68L98.1545 116.9V109.339L104.702 105.559Z" fill="#F3F3F5" stroke="black" stroke-width="0.151213"/>
<path d="M117.797 105.559L124.345 109.339V116.9L117.797 120.68L111.249 116.9V109.339L117.797 105.559Z" fill="#F3F3F5" stroke="black" stroke-width="0.151213"/>
<path d="M130.893 105.559L137.44 109.339V116.9L130.893 120.68L124.345 116.9V109.339L130.893 105.559Z" fill="#F3F3F5" stroke="black" stroke-width="0.151213"/>
<path d="M143.987 105.559L150.535 109.339V116.9L143.987 120.68L137.44 116.9V109.339L143.987 105.559Z" fill="#F3F3F5" stroke="black" stroke-width="0.151213"/>
<path d="M157.082 105.559L163.63 109.339V116.9L157.082 120.68L150.534 116.9V109.339L157.082 105.559Z" fill="#F3F3F5" stroke="black" stroke-width="0.151213"/>
<path d="M170.178 105.559L176.726 109.339V116.9L170.178 120.68L163.63 116.9V109.339L170.178 105.559Z" fill="#F3F3F5" stroke="black" stroke-width="0.151213"/>
<path d="M183.273 105.559L189.82 109.339V116.9L183.273 120.68L176.725 116.9V109.339L183.273 105.559Z" fill="#F3F3F5" stroke="black" stroke-width="0.151213"/>
<path d="M196.367 105.559L202.915 109.339V116.9L196.367 120.68L189.82 116.9V109.339L196.367 105.559Z" fill="#F3F3F5" stroke="black" stroke-width="0.151213"/>
<path d="M-0.0575166 128.242L6.4902 132.023V139.583L-0.0575166 143.363L-6.60523 139.583V132.023L-0.0575166 128.242Z" fill="#F3F3F5" stroke="black" stroke-width="0.151213"/>
<path d="M13.0372 128.242L19.5849 132.023V139.583L13.0372 143.363L6.4895 139.583V132.023L13.0372 128.242Z" fill="#F3F3F5" stroke="black" stroke-width="0.151213"/>
<path d="M26.1319 128.242L32.6796 132.023V139.583L26.1319 143.363L19.5842 139.583V132.023L26.1319 128.242Z" fill="#F3F3F5" stroke="black" stroke-width="0.151213"/>
<path d="M39.2276 128.242L45.7754 132.023V139.583L39.2276 143.363L32.6799 139.583V132.023L39.2276 128.242Z" fill="#F3F3F5" stroke="black" stroke-width="0.151213"/>
<path d="M52.3224 128.242L58.8701 132.023V139.583L52.3224 143.363L45.7747 139.583V132.023L52.3224 128.242Z" fill="#F3F3F5" stroke="black" stroke-width="0.151213"/>
<path d="M65.4171 128.242L71.9648 132.023V139.583L65.4171 143.363L58.8694 139.583V132.023L65.4171 128.242Z" fill="#F3F3F5" stroke="black" stroke-width="0.151213"/>
<path d="M78.5128 128.242L85.0605 132.023V139.583L78.5128 143.363L71.9651 139.583V132.023L78.5128 128.242Z" fill="#F3F3F5" stroke="black" stroke-width="0.151213"/>
<path d="M91.6075 128.242L98.1552 132.023V139.583L91.6075 143.363L85.0598 139.583V132.023L91.6075 128.242Z" fill="#F3F3F5" stroke="black" stroke-width="0.151213"/>
<path d="M104.702 128.242L111.25 132.023V139.583L104.702 143.363L98.1545 139.583V132.023L104.702 128.242Z" fill="#F3F3F5" stroke="black" stroke-width="0.151213"/>
<path d="M117.797 128.242L124.345 132.023V139.583L117.797 143.363L111.249 139.583V132.023L117.797 128.242Z" fill="#F3F3F5" stroke="black" stroke-width="0.151213"/>
<path d="M130.893 128.242L137.44 132.023V139.583L130.893 143.363L124.345 139.583V132.023L130.893 128.242Z" fill="#F3F3F5" stroke="black" stroke-width="0.151213"/>
<path d="M143.987 128.242L150.535 132.023V139.583L143.987 143.363L137.44 139.583V132.023L143.987 128.242Z" fill="#F3F3F5" stroke="black" stroke-width="0.151213"/>
<path d="M157.082 128.242L163.63 132.023V139.583L157.082 143.363L150.534 139.583V132.023L157.082 128.242Z" fill="#F3F3F5" stroke="black" stroke-width="0.151213"/>
<path d="M170.178 128.242L176.726 132.023V139.583L170.178 143.363L163.63 139.583V132.023L170.178 128.242Z" fill="#F3F3F5" stroke="black" stroke-width="0.151213"/>
<path d="M183.273 128.242L189.82 132.023V139.583L183.273 143.363L176.725 139.583V132.023L183.273 128.242Z" fill="#F3F3F5" stroke="black" stroke-width="0.151213"/>
<path d="M196.367 128.242L202.915 132.023V139.583L196.367 143.363L189.82 139.583V132.023L196.367 128.242Z" fill="#F3F3F5" stroke="black" stroke-width="0.151213"/>
<path d="M-0.0575166 150.924L6.4902 154.704V162.265L-0.0575166 166.045L-6.60523 162.265V154.704L-0.0575166 150.924Z" fill="#F3F3F5" stroke="black" stroke-width="0.151213"/>
<path d="M13.0372 150.924L19.5849 154.704V162.265L13.0372 166.045L6.4895 162.265V154.704L13.0372 150.924Z" fill="#F3F3F5" stroke="black" stroke-width="0.151213"/>
<path d="M26.1319 150.924L32.6796 154.704V162.265L26.1319 166.045L19.5842 162.265V154.704L26.1319 150.924Z" fill="#F3F3F5" stroke="black" stroke-width="0.151213"/>
<path d="M39.2276 150.924L45.7754 154.704V162.265L39.2276 166.045L32.6799 162.265V154.704L39.2276 150.924Z" fill="#F3F3F5" stroke="black" stroke-width="0.151213"/>
<path d="M52.3224 150.924L58.8701 154.704V162.265L52.3224 166.045L45.7747 162.265V154.704L52.3224 150.924Z" fill="#F3F3F5" stroke="black" stroke-width="0.151213"/>
<path d="M65.4171 150.924L71.9648 154.704V162.265L65.4171 166.045L58.8694 162.265V154.704L65.4171 150.924Z" fill="#F3F3F5" stroke="black" stroke-width="0.151213"/>
<path d="M78.5128 150.924L85.0605 154.704V162.265L78.5128 166.045L71.9651 162.265V154.704L78.5128 150.924Z" fill="#F3F3F5" stroke="black" stroke-width="0.151213"/>
<path d="M91.6075 150.924L98.1552 154.704V162.265L91.6075 166.045L85.0598 162.265V154.704L91.6075 150.924Z" fill="#F3F3F5" stroke="black" stroke-width="0.151213"/>
<path d="M104.702 150.924L111.25 154.704V162.265L104.702 166.045L98.1545 162.265V154.704L104.702 150.924Z" fill="#F3F3F5" stroke="black" stroke-width="0.151213"/>
<path d="M117.798 150.924L124.346 154.704V162.265L117.798 166.045L111.25 162.265V154.704L117.798 150.924Z" fill="#F3F3F5" stroke="black" stroke-width="0.151213"/>
<path d="M130.893 150.924L137.44 154.704V162.265L130.893 166.045L124.345 162.265V154.704L130.893 150.924Z" fill="#F3F3F5" stroke="black" stroke-width="0.151213"/>
<path d="M143.987 150.924L150.535 154.704V162.265L143.987 166.045L137.44 162.265V154.704L143.987 150.924Z" fill="#F3F3F5" stroke="black" stroke-width="0.151213"/>
<path d="M157.083 150.924L163.631 154.704V162.265L157.083 166.045L150.535 162.265V154.704L157.083 150.924Z" fill="#F3F3F5" stroke="black" stroke-width="0.151213"/>
<path d="M170.178 150.924L176.726 154.704V162.265L170.178 166.045L163.63 162.265V154.704L170.178 150.924Z" fill="#F3F3F5" stroke="black" stroke-width="0.151213"/>
<path d="M183.273 150.924L189.82 154.704V162.265L183.273 166.045L176.725 162.265V154.704L183.273 150.924Z" fill="#F3F3F5" stroke="black" stroke-width="0.151213"/>
<path d="M196.368 150.924L202.916 154.704V162.265L196.368 166.045L189.821 162.265V154.704L196.368 150.924Z" fill="#F3F3F5" stroke="black" stroke-width="0.151213"/>
<path d="M-0.0575166 173.605L6.4902 177.386V184.946L-0.0575166 188.727L-6.60523 184.946V177.386L-0.0575166 173.605Z" fill="#F3F3F5" stroke="black" stroke-width="0.151213"/>
<path d="M13.0372 173.605L19.5849 177.386V184.946L13.0372 188.727L6.4895 184.946V177.386L13.0372 173.605Z" fill="#F3F3F5" stroke="black" stroke-width="0.151213"/>
<path d="M26.1319 173.605L32.6796 177.386V184.946L26.1319 188.727L19.5842 184.946V177.386L26.1319 173.605Z" fill="#F3F3F5" stroke="black" stroke-width="0.151213"/>
<path d="M39.2276 173.605L45.7754 177.386V184.946L39.2276 188.727L32.6799 184.946V177.386L39.2276 173.605Z" fill="#F3F3F5" stroke="black" stroke-width="0.151213"/>
<path d="M52.3224 173.605L58.8701 177.386V184.946L52.3224 188.727L45.7747 184.946V177.386L52.3224 173.605Z" fill="#F3F3F5" stroke="black" stroke-width="0.151213"/>
<path d="M65.4171 173.605L71.9648 177.386V184.946L65.4171 188.727L58.8694 184.946V177.386L65.4171 173.605Z" fill="#F3F3F5" stroke="black" stroke-width="0.151213"/>
<path d="M78.5128 173.605L85.0605 177.386V184.946L78.5128 188.727L71.9651 184.946V177.386L78.5128 173.605Z" fill="#F3F3F5" stroke="black" stroke-width="0.151213"/>
<path d="M91.6075 173.605L98.1552 177.386V184.946L91.6075 188.727L85.0598 184.946V177.386L91.6075 173.605Z" fill="#F3F3F5" stroke="black" stroke-width="0.151213"/>
<path d="M104.702 173.605L111.25 177.386V184.946L104.702 188.727L98.1545 184.946V177.386L104.702 173.605Z" fill="#F3F3F5" stroke="black" stroke-width="0.151213"/>
<path d="M117.797 173.605L124.345 177.386V184.946L117.797 188.727L111.249 184.946V177.386L117.797 173.605Z" fill="#F3F3F5" stroke="black" stroke-width="0.151213"/>
<path d="M130.893 173.605L137.44 177.386V184.946L130.893 188.727L124.345 184.946V177.386L130.893 173.605Z" fill="#F3F3F5" stroke="black" stroke-width="0.151213"/>
<path d="M143.987 173.605L150.535 177.386V184.946L143.987 188.727L137.44 184.946V177.386L143.987 173.605Z" fill="#F3F3F5" stroke="black" stroke-width="0.151213"/>
<path d="M157.082 173.605L163.63 177.386V184.946L157.082 188.727L150.534 184.946V177.386L157.082 173.605Z" fill="#F3F3F5" stroke="black" stroke-width="0.151213"/>
<path d="M170.178 173.605L176.726 177.386V184.946L170.178 188.727L163.63 184.946V177.386L170.178 173.605Z" fill="#F3F3F5" stroke="black" stroke-width="0.151213"/>
<path d="M183.273 173.605L189.82 177.386V184.946L183.273 188.727L176.725 184.946V177.386L183.273 173.605Z" fill="#F3F3F5" stroke="black" stroke-width="0.151213"/>
<path d="M196.367 173.605L202.915 177.386V184.946L196.367 188.727L189.82 184.946V177.386L196.367 173.605Z" fill="#F3F3F5" stroke="black" stroke-width="0.151213"/>
<path d="M-0.0575166 196.287L6.4902 200.067V207.628L-0.0575166 211.408L-6.60523 207.628V200.067L-0.0575166 196.287Z" fill="#F3F3F5" stroke="black" stroke-width="0.151213"/>
<path d="M13.0372 196.287L19.5849 200.067V207.628L13.0372 211.408L6.4895 207.628V200.067L13.0372 196.287Z" fill="#F3F3F5" stroke="black" stroke-width="0.151213"/>
<path d="M26.1319 196.287L32.6796 200.067V207.628L26.1319 211.408L19.5842 207.628V200.067L26.1319 196.287Z" fill="#F3F3F5" stroke="black" stroke-width="0.151213"/>
<path d="M39.2276 196.287L45.7754 200.067V207.628L39.2276 211.408L32.6799 207.628V200.067L39.2276 196.287Z" fill="#F3F3F5" stroke="black" stroke-width="0.151213"/>
<path d="M52.3224 196.287L58.8701 200.067V207.628L52.3224 211.408L45.7747 207.628V200.067L52.3224 196.287Z" fill="#F3F3F5" stroke="black" stroke-width="0.151213"/>
<path d="M65.4171 196.287L71.9648 200.067V207.628L65.4171 211.408L58.8694 207.628V200.067L65.4171 196.287Z" fill="#F3F3F5" stroke="black" stroke-width="0.151213"/>
<path d="M78.5128 196.287L85.0605 200.067V207.628L78.5128 211.408L71.9651 207.628V200.067L78.5128 196.287Z" fill="#F3F3F5" stroke="black" stroke-width="0.151213"/>
<path d="M91.6075 196.287L98.1552 200.067V207.628L91.6075 211.408L85.0598 207.628V200.067L91.6075 196.287Z" fill="#F3F3F5" stroke="black" stroke-width="0.151213"/>
<path d="M104.702 196.287L111.25 200.067V207.628L104.702 211.408L98.1545 207.628V200.067L104.702 196.287Z" fill="#F3F3F5" stroke="black" stroke-width="0.151213"/>
<path d="M117.797 196.287L124.345 200.067V207.628L117.797 211.408L111.249 207.628V200.067L117.797 196.287Z" fill="#F3F3F5" stroke="black" stroke-width="0.151213"/>
<path d="M130.893 196.287L137.44 200.067V207.628L130.893 211.408L124.345 207.628V200.067L130.893 196.287Z" fill="#F3F3F5" stroke="black" stroke-width="0.151213"/>
<path d="M143.987 196.287L150.535 200.067V207.628L143.987 211.408L137.44 207.628V200.067L143.987 196.287Z" fill="#F3F3F5" stroke="black" stroke-width="0.151213"/>
<path d="M157.082 196.287L163.63 200.067V207.628L157.082 211.408L150.534 207.628V200.067L157.082 196.287Z" fill="#F3F3F5" stroke="black" stroke-width="0.151213"/>
<path d="M170.178 196.287L176.726 200.067V207.628L170.178 211.408L163.63 207.628V200.067L170.178 196.287Z" fill="#F3F3F5" stroke="black" stroke-width="0.151213"/>
<path d="M183.273 196.287L189.82 200.067V207.628L183.273 211.408L176.725 207.628V200.067L183.273 196.287Z" fill="#F3F3F5" stroke="black" stroke-width="0.151213"/>
<path d="M196.367 196.287L202.915 200.067V207.628L196.367 211.408L189.82 207.628V200.067L196.367 196.287Z" fill="#F3F3F5" stroke="black" stroke-width="0.151213"/>
<path d="M6.49033 94.2188L13.038 97.9991V105.56L6.49033 109.34L-0.0573778 105.56V97.9991L6.49033 94.2188Z" fill="#F3F3F5" stroke="black" stroke-width="0.151213"/>
<path d="M19.5851 94.2188L26.1328 97.9991V105.56L19.5851 109.34L13.0373 105.56V97.9991L19.5851 94.2188Z" fill="#F3F3F5" stroke="black" stroke-width="0.151213"/>
<path d="M32.6798 94.2188L39.2275 97.9991V105.56L32.6798 109.34L26.1321 105.56V97.9991L32.6798 94.2188Z" fill="#F3F3F5" stroke="black" stroke-width="0.151213"/>
<path d="M45.7755 94.2188L52.3232 97.9991V105.56L45.7755 109.34L39.2278 105.56V97.9991L45.7755 94.2188Z" fill="#F3F3F5" stroke="black" stroke-width="0.151213"/>
<path d="M58.8702 94.2188L65.4179 97.9991V105.56L58.8702 109.34L52.3225 105.56V97.9991L58.8702 94.2188Z" fill="#F3F3F5" stroke="black" stroke-width="0.151213"/>
<path d="M71.9649 94.2188L78.5127 97.9991V105.56L71.9649 109.34L65.4172 105.56V97.9991L71.9649 94.2188Z" fill="#F3F3F5" stroke="black" stroke-width="0.151213"/>
<path d="M85.0606 94.2188L91.6084 97.9991V105.56L85.0606 109.34L78.5129 105.56V97.9991L85.0606 94.2188Z" fill="#F3F3F5" stroke="black" stroke-width="0.151213"/>
<path d="M98.1554 94.2188L104.703 97.9991V105.56L98.1554 109.34L91.6077 105.56V97.9991L98.1554 94.2188Z" fill="#F3F3F5" stroke="black" stroke-width="0.151213"/>
<path d="M111.25 94.2188L117.798 97.9991V105.56L111.25 109.34L104.702 105.56V97.9991L111.25 94.2188Z" fill="#F3F3F5" stroke="black" stroke-width="0.151213"/>
<path d="M124.346 94.2188L130.894 97.9991V105.56L124.346 109.34L117.798 105.56V97.9991L124.346 94.2188Z" fill="#F3F3F5" stroke="black" stroke-width="0.151213"/>
<path d="M137.441 94.2188L143.988 97.9991V105.56L137.441 109.34L130.893 105.56V97.9991L137.441 94.2188Z" fill="#F3F3F5" stroke="black" stroke-width="0.151213"/>
<path d="M150.535 94.2188L157.083 97.9991V105.56L150.535 109.34L143.988 105.56V97.9991L150.535 94.2188Z" fill="#F3F3F5" stroke="black" stroke-width="0.151213"/>
<path d="M163.631 94.2188L170.179 97.9991V105.56L163.631 109.34L157.083 105.56V97.9991L163.631 94.2188Z" fill="#F3F3F5" stroke="black" stroke-width="0.151213"/>
<path d="M176.726 94.2188L183.273 97.9991V105.56L176.726 109.34L170.178 105.56V97.9991L176.726 94.2188Z" fill="#F3F3F5" stroke="black" stroke-width="0.151213"/>
<path d="M189.82 94.2188L196.368 97.9991V105.56L189.82 109.34L183.273 105.56V97.9991L189.82 94.2188Z" fill="#F3F3F5" stroke="black" stroke-width="0.151213"/>
<path d="M202.916 94.2188L209.464 97.9991V105.56L202.916 109.34L196.368 105.56V97.9991L202.916 94.2188Z" fill="#F3F3F5" stroke="black" stroke-width="0.151213"/>
<path d="M6.49033 116.9L13.038 120.681V128.241L6.49033 132.022L-0.0573778 128.241V120.681L6.49033 116.9Z" fill="#F3F3F5" stroke="black" stroke-width="0.151213"/>
<path d="M19.5851 116.9L26.1328 120.681V128.241L19.5851 132.022L13.0373 128.241V120.681L19.5851 116.9Z" fill="#F3F3F5" stroke="black" stroke-width="0.151213"/>
<path d="M32.6798 116.9L39.2275 120.681V128.241L32.6798 132.022L26.1321 128.241V120.681L32.6798 116.9Z" fill="#F3F3F5" stroke="black" stroke-width="0.151213"/>
<path d="M45.7755 116.9L52.3232 120.681V128.241L45.7755 132.022L39.2278 128.241V120.681L45.7755 116.9Z" fill="#F3F3F5" stroke="black" stroke-width="0.151213"/>
<path d="M58.8702 116.9L65.4179 120.681V128.241L58.8702 132.022L52.3225 128.241V120.681L58.8702 116.9Z" fill="#F3F3F5" stroke="black" stroke-width="0.151213"/>
<path d="M71.9649 116.9L78.5127 120.681V128.241L71.9649 132.022L65.4172 128.241V120.681L71.9649 116.9Z" fill="#F3F3F5" stroke="black" stroke-width="0.151213"/>
<path d="M85.0606 116.9L91.6084 120.681V128.241L85.0606 132.022L78.5129 128.241V120.681L85.0606 116.9Z" fill="#F3F3F5" stroke="black" stroke-width="0.151213"/>
<path d="M98.1554 116.9L104.703 120.681V128.241L98.1554 132.022L91.6077 128.241V120.681L98.1554 116.9Z" fill="#F3F3F5" stroke="black" stroke-width="0.151213"/>
<path d="M111.25 116.9L117.798 120.681V128.241L111.25 132.022L104.702 128.241V120.681L111.25 116.9Z" fill="#F3F3F5" stroke="black" stroke-width="0.151213"/>
<path d="M124.346 116.9L130.894 120.681V128.241L124.346 132.022L117.798 128.241V120.681L124.346 116.9Z" fill="#F3F3F5" stroke="black" stroke-width="0.151213"/>
<path d="M137.441 116.9L143.988 120.681V128.241L137.441 132.022L130.893 128.241V120.681L137.441 116.9Z" fill="#F3F3F5" stroke="black" stroke-width="0.151213"/>
<path d="M150.535 116.9L157.083 120.681V128.241L150.535 132.022L143.988 128.241V120.681L150.535 116.9Z" fill="#F3F3F5" stroke="black" stroke-width="0.151213"/>
<path d="M163.631 116.9L170.179 120.681V128.241L163.631 132.022L157.083 128.241V120.681L163.631 116.9Z" fill="#F3F3F5" stroke="black" stroke-width="0.151213"/>
<path d="M176.726 116.9L183.273 120.681V128.241L176.726 132.022L170.178 128.241V120.681L176.726 116.9Z" fill="#F3F3F5" stroke="black" stroke-width="0.151213"/>
<path d="M189.82 116.9L196.368 120.681V128.241L189.82 132.022L183.273 128.241V120.681L189.82 116.9Z" fill="#F3F3F5" stroke="black" stroke-width="0.151213"/>
<path d="M202.916 116.9L209.464 120.681V128.241L202.916 132.022L196.368 128.241V120.681L202.916 116.9Z" fill="#F3F3F5" stroke="black" stroke-width="0.151213"/>
<path d="M6.49033 139.582L13.038 143.362V150.923L6.49033 154.703L-0.0573778 150.923V143.362L6.49033 139.582Z" fill="#F3F3F5" stroke="black" stroke-width="0.151213"/>
<path d="M19.5851 139.582L26.1328 143.362V150.923L19.5851 154.703L13.0373 150.923V143.362L19.5851 139.582Z" fill="#F3F3F5" stroke="black" stroke-width="0.151213"/>
<path d="M32.6798 139.582L39.2275 143.362V150.923L32.6798 154.703L26.1321 150.923V143.362L32.6798 139.582Z" fill="#F3F3F5" stroke="black" stroke-width="0.151213"/>
<path d="M45.7755 139.582L52.3232 143.362V150.923L45.7755 154.703L39.2278 150.923V143.362L45.7755 139.582Z" fill="#F3F3F5" stroke="black" stroke-width="0.151213"/>
<path d="M58.8702 139.582L65.4179 143.362V150.923L58.8702 154.703L52.3225 150.923V143.362L58.8702 139.582Z" fill="#F3F3F5" stroke="black" stroke-width="0.151213"/>
<path d="M71.9649 139.582L78.5127 143.362V150.923L71.9649 154.703L65.4172 150.923V143.362L71.9649 139.582Z" fill="#F3F3F5" stroke="black" stroke-width="0.151213"/>
<path d="M85.0606 139.582L91.6084 143.362V150.923L85.0606 154.703L78.5129 150.923V143.362L85.0606 139.582Z" fill="#F3F3F5" stroke="black" stroke-width="0.151213"/>
<path d="M98.1554 139.582L104.703 143.362V150.923L98.1554 154.703L91.6077 150.923V143.362L98.1554 139.582Z" fill="#F3F3F5" stroke="black" stroke-width="0.151213"/>
<path d="M111.25 139.582L117.798 143.362V150.923L111.25 154.703L104.702 150.923V143.362L111.25 139.582Z" fill="#F3F3F5" stroke="black" stroke-width="0.151213"/>
<path d="M124.346 139.582L130.894 143.362V150.923L124.346 154.703L117.798 150.923V143.362L124.346 139.582Z" fill="#F3F3F5" stroke="black" stroke-width="0.151213"/>
<path d="M137.441 139.582L143.988 143.362V150.923L137.441 154.703L130.893 150.923V143.362L137.441 139.582Z" fill="#F3F3F5" stroke="black" stroke-width="0.151213"/>
<path d="M150.535 139.582L157.083 143.362V150.923L150.535 154.703L143.988 150.923V143.362L150.535 139.582Z" fill="#F3F3F5" stroke="black" stroke-width="0.151213"/>
<path d="M163.631 139.582L170.179 143.362V150.923L163.631 154.703L157.083 150.923V143.362L163.631 139.582Z" fill="#F3F3F5" stroke="black" stroke-width="0.151213"/>
<path d="M176.726 139.582L183.273 143.362V150.923L176.726 154.703L170.178 150.923V143.362L176.726 139.582Z" fill="#F3F3F5" stroke="black" stroke-width="0.151213"/>
<path d="M189.82 139.582L196.368 143.362V150.923L189.82 154.703L183.273 150.923V143.362L189.82 139.582Z" fill="#F3F3F5" stroke="black" stroke-width="0.151213"/>
<path d="M202.916 139.582L209.464 143.362V150.923L202.916 154.703L196.368 150.923V143.362L202.916 139.582Z" fill="#F3F3F5" stroke="black" stroke-width="0.151213"/>
<path d="M6.49033 162.264L13.038 166.044V173.605L6.49033 177.385L-0.0573778 173.605V166.044L6.49033 162.264Z" fill="#F3F3F5" stroke="black" stroke-width="0.151213"/>
<path d="M19.5851 162.264L26.1328 166.044V173.605L19.5851 177.385L13.0373 173.605V166.044L19.5851 162.264Z" fill="#F3F3F5" stroke="black" stroke-width="0.151213"/>
<path d="M32.6798 162.264L39.2275 166.044V173.605L32.6798 177.385L26.1321 173.605V166.044L32.6798 162.264Z" fill="#F3F3F5" stroke="black" stroke-width="0.151213"/>
<path d="M45.7755 162.264L52.3232 166.044V173.605L45.7755 177.385L39.2278 173.605V166.044L45.7755 162.264Z" fill="#F3F3F5" stroke="black" stroke-width="0.151213"/>
<path d="M58.8702 162.264L65.4179 166.044V173.605L58.8702 177.385L52.3225 173.605V166.044L58.8702 162.264Z" fill="#F3F3F5" stroke="black" stroke-width="0.151213"/>
<path d="M71.9649 162.264L78.5127 166.044V173.605L71.9649 177.385L65.4172 173.605V166.044L71.9649 162.264Z" fill="#F3F3F5" stroke="black" stroke-width="0.151213"/>
<path d="M85.0606 162.264L91.6084 166.044V173.605L85.0606 177.385L78.5129 173.605V166.044L85.0606 162.264Z" fill="#F3F3F5" stroke="black" stroke-width="0.151213"/>
<path d="M98.1554 162.264L104.703 166.044V173.605L98.1554 177.385L91.6077 173.605V166.044L98.1554 162.264Z" fill="#F3F3F5" stroke="black" stroke-width="0.151213"/>
<path d="M111.25 162.264L117.798 166.044V173.605L111.25 177.385L104.702 173.605V166.044L111.25 162.264Z" fill="#F3F3F5" stroke="black" stroke-width="0.151213"/>
<path d="M124.346 162.264L130.894 166.044V173.605L124.346 177.385L117.798 173.605V166.044L124.346 162.264Z" fill="#F3F3F5" stroke="black" stroke-width="0.151213"/>
<path d="M137.441 162.264L143.988 166.044V173.605L137.441 177.385L130.893 173.605V166.044L137.441 162.264Z" fill="#F3F3F5" stroke="black" stroke-width="0.151213"/>
<path d="M150.535 162.264L157.083 166.044V173.605L150.535 177.385L143.988 173.605V166.044L150.535 162.264Z" fill="#F3F3F5" stroke="black" stroke-width="0.151213"/>
<path d="M163.631 162.264L170.179 166.044V173.605L163.631 177.385L157.083 173.605V166.044L163.631 162.264Z" fill="#F3F3F5" stroke="black" stroke-width="0.151213"/>
<path d="M176.726 162.264L183.273 166.044V173.605L176.726 177.385L170.178 173.605V166.044L176.726 162.264Z" fill="#F3F3F5" stroke="black" stroke-width="0.151213"/>
<path d="M189.82 162.264L196.368 166.044V173.605L189.82 177.385L183.273 173.605V166.044L189.82 162.264Z" fill="#F3F3F5" stroke="black" stroke-width="0.151213"/>
<path d="M202.916 162.264L209.464 166.044V173.605L202.916 177.385L196.368 173.605V166.044L202.916 162.264Z" fill="#F3F3F5" stroke="black" stroke-width="0.151213"/>
<path d="M6.49033 184.945L13.038 188.726V196.286L6.49033 200.067L-0.0573778 196.286V188.726L6.49033 184.945Z" fill="#F3F3F5" stroke="black" stroke-width="0.151213"/>
<path d="M19.5851 184.945L26.1328 188.726V196.286L19.5851 200.067L13.0373 196.286V188.726L19.5851 184.945Z" fill="#F3F3F5" stroke="black" stroke-width="0.151213"/>
<path d="M32.6798 184.945L39.2275 188.726V196.286L32.6798 200.067L26.1321 196.286V188.726L32.6798 184.945Z" fill="#F3F3F5" stroke="black" stroke-width="0.151213"/>
<path d="M45.7755 184.945L52.3232 188.726V196.286L45.7755 200.067L39.2278 196.286V188.726L45.7755 184.945Z" fill="#F3F3F5" stroke="black" stroke-width="0.151213"/>
<path d="M58.8702 184.945L65.4179 188.726V196.286L58.8702 200.067L52.3225 196.286V188.726L58.8702 184.945Z" fill="#F3F3F5" stroke="black" stroke-width="0.151213"/>
<path d="M71.9649 184.945L78.5127 188.726V196.286L71.9649 200.067L65.4172 196.286V188.726L71.9649 184.945Z" fill="#F3F3F5" stroke="black" stroke-width="0.151213"/>
<path d="M85.0606 184.945L91.6084 188.726V196.286L85.0606 200.067L78.5129 196.286V188.726L85.0606 184.945Z" fill="#F3F3F5" stroke="black" stroke-width="0.151213"/>
<path d="M98.1554 184.945L104.703 188.726V196.286L98.1554 200.067L91.6077 196.286V188.726L98.1554 184.945Z" fill="#F3F3F5" stroke="black" stroke-width="0.151213"/>
<path d="M111.25 184.945L117.798 188.726V196.286L111.25 200.067L104.702 196.286V188.726L111.25 184.945Z" fill="#F3F3F5" stroke="black" stroke-width="0.151213"/>
<path d="M124.346 184.945L130.894 188.726V196.286L124.346 200.067L117.798 196.286V188.726L124.346 184.945Z" fill="#F3F3F5" stroke="black" stroke-width="0.151213"/>
<path d="M137.441 184.945L143.988 188.726V196.286L137.441 200.067L130.893 196.286V188.726L137.441 184.945Z" fill="#F3F3F5" stroke="black" stroke-width="0.151213"/>
<path d="M150.535 184.945L157.083 188.726V196.286L150.535 200.067L143.988 196.286V188.726L150.535 184.945Z" fill="#F3F3F5" stroke="black" stroke-width="0.151213"/>
<path d="M163.631 184.945L170.179 188.726V196.286L163.631 200.067L157.083 196.286V188.726L163.631 184.945Z" fill="#F3F3F5" stroke="black" stroke-width="0.151213"/>
<path d="M176.726 184.945L183.273 188.726V196.286L176.726 200.067L170.178 196.286V188.726L176.726 184.945Z" fill="#F3F3F5" stroke="black" stroke-width="0.151213"/>
<path d="M189.82 184.945L196.368 188.726V196.286L189.82 200.067L183.273 196.286V188.726L189.82 184.945Z" fill="#F3F3F5" stroke="black" stroke-width="0.151213"/>
<path d="M202.916 184.945L209.464 188.726V196.286L202.916 200.067L196.368 196.286V188.726L202.916 184.945Z" fill="#F3F3F5" stroke="black" stroke-width="0.151213"/>
<path d="M6.49033 207.629L13.038 211.409V218.97L6.49033 222.75L-0.0573778 218.97V211.409L6.49033 207.629Z" fill="#F3F3F5" stroke="black" stroke-width="0.151213"/>
<path d="M19.5851 207.629L26.1328 211.409V218.97L19.5851 222.75L13.0373 218.97V211.409L19.5851 207.629Z" fill="#F3F3F5" stroke="black" stroke-width="0.151213"/>
<path d="M32.6798 207.629L39.2275 211.409V218.97L32.6798 222.75L26.1321 218.97V211.409L32.6798 207.629Z" fill="#F3F3F5" stroke="black" stroke-width="0.151213"/>
<path d="M45.7755 207.629L52.3232 211.409V218.97L45.7755 222.75L39.2278 218.97V211.409L45.7755 207.629Z" fill="#F3F3F5" stroke="black" stroke-width="0.151213"/>
<path d="M58.8702 207.629L65.4179 211.409V218.97L58.8702 222.75L52.3225 218.97V211.409L58.8702 207.629Z" fill="#F3F3F5" stroke="black" stroke-width="0.151213"/>
<path d="M71.9649 207.629L78.5127 211.409V218.97L71.9649 222.75L65.4172 218.97V211.409L71.9649 207.629Z" fill="#F3F3F5" stroke="black" stroke-width="0.151213"/>
<path d="M85.0606 207.629L91.6084 211.409V218.97L85.0606 222.75L78.5129 218.97V211.409L85.0606 207.629Z" fill="#F3F3F5" stroke="black" stroke-width="0.151213"/>
<path d="M98.1554 207.629L104.703 211.409V218.97L98.1554 222.75L91.6077 218.97V211.409L98.1554 207.629Z" fill="#F3F3F5" stroke="black" stroke-width="0.151213"/>
<path d="M111.25 207.629L117.798 211.409V218.97L111.25 222.75L104.702 218.97V211.409L111.25 207.629Z" fill="#F3F3F5" stroke="black" stroke-width="0.151213"/>
<path d="M124.346 207.629L130.894 211.409V218.97L124.346 222.75L117.798 218.97V211.409L124.346 207.629Z" fill="#F3F3F5" stroke="black" stroke-width="0.151213"/>
<path d="M137.441 207.629L143.988 211.409V218.97L137.441 222.75L130.893 218.97V211.409L137.441 207.629Z" fill="#F3F3F5" stroke="black" stroke-width="0.151213"/>
<path d="M150.535 207.629L157.083 211.409V218.97L150.535 222.75L143.988 218.97V211.409L150.535 207.629Z" fill="#F3F3F5" stroke="black" stroke-width="0.151213"/>
<path d="M163.631 207.629L170.179 211.409V218.97L163.631 222.75L157.083 218.97V211.409L163.631 207.629Z" fill="#F3F3F5" stroke="black" stroke-width="0.151213"/>
<path d="M176.726 207.629L183.273 211.409V218.97L176.726 222.75L170.178 218.97V211.409L176.726 207.629Z" fill="#F3F3F5" stroke="black" stroke-width="0.151213"/>
<path d="M189.82 207.629L196.368 211.409V218.97L189.82 222.75L183.273 218.97V211.409L189.82 207.629Z" fill="#F3F3F5" stroke="black" stroke-width="0.151213"/>
<path d="M202.916 207.629L209.464 211.409V218.97L202.916 222.75L196.368 218.97V211.409L202.916 207.629Z" fill="#F3F3F5" stroke="black" stroke-width="0.151213"/>
</g>
<path d="M63.1689 1H64.5213V95.6661H63.1689V1Z" fill="black"/>
<path d="M252.75 1H251.398V95.6661H252.75V1Z" fill="black"/>
<path d="M64.7606 1C64.7606 1 60.0231 1 68.8177 1C77.6123 1 74.2272 80.1138 91.1318 81.4662H154.024" stroke="black" stroke-width="1.35237"/>
<path d="M251.158 1C251.158 1 255.896 1 247.101 1C238.307 1 241.692 80.1138 224.787 81.4662H161.895" stroke="black" stroke-width="1.35237"/>
<rect x="0.959961" y="95.666" width="154.171" height="1.35237" fill="#FA5F1C"/>
<rect x="0.959961" y="209.266" width="123.066" height="1.35237" fill="#FA5F1C"/>
<path d="M160.54 95.666H362.044V97.0184H160.54V95.666Z" fill="#FA5F1C"/>
<path d="M160.54 209.266H362.044V210.618H160.54V209.266Z" fill="#FA5F1C"/>
<path d="M160.54 209.943H132.817L130.788 207.915V199.8L134.169 196.419H139.579L193.673 195.743L196.378 194.391L197.054 193.715V186.953L195.702 185.6H186.235V115.953L194.35 113.248L201.111 110.544L202.464 108.515L201.111 105.134H175.416L174.064 103.782V96.3438" stroke="#FA5F1C" stroke-width="1.35237"/>
<path d="M195.701 209.265H198.406V186.274L195.701 184.922V209.265Z" fill="#FA5F1C"/>
<path d="M123.35 209.942L126.731 207.237L128.083 204.533L130.788 203.18L132.14 196.418L134.169 193.714L138.226 191.685L140.93 188.304L141.607 182.895L142.283 179.514L145.664 176.133H170.006L170.683 178.161L172.035 180.19L173.387 182.895L175.416 184.923H186.235" stroke="#FA5F1C" stroke-width="1.35237"/>
<path d="M147.692 176.133H167.978" stroke="black" stroke-width="1.35237"/>
<path d="M148.368 176.133V180.19H167.301V176.133" stroke="black" stroke-width="1.35237"/>
<path d="M151.75 180.189V185.599H163.921V180.189" stroke="black" stroke-width="1.35237"/>
<path d="M161.216 180.189V185.599" stroke="black" stroke-width="1.35237"/>
<path d="M154.454 180.189V185.599" stroke="black" stroke-width="1.35237"/>
<path d="M155.807 176.131V46.9797L157.835 44.9512L159.864 46.9797V176.131" stroke="black" stroke-width="1.35237"/>
<path d="M153.778 65.2383L161.893 68.6192" stroke="black" stroke-width="1.35237"/>
<path d="M153.778 69.2949L161.893 72.6759" stroke="black" stroke-width="1.35237"/>
<path d="M153.778 73.3516L161.893 76.7325" stroke="black" stroke-width="1.35237"/>
<path d="M153.778 77.4082L161.893 80.7891" stroke="black" stroke-width="1.35237"/>
<path d="M153.778 81.4648L161.893 84.8458" stroke="black" stroke-width="1.35237"/>
<path d="M153.778 85.5234L161.893 88.9044" stroke="black" stroke-width="1.35237"/>
<path d="M153.778 89.5801L161.893 92.961" stroke="black" stroke-width="1.35237"/>
<path d="M153.778 93.6367L161.893 97.0177" stroke="black" stroke-width="1.35237"/>
<path d="M153.778 97.6953L161.893 101.076" stroke="black" stroke-width="1.35237"/>
<path d="M153.778 101.752L161.893 105.133" stroke="black" stroke-width="1.35237"/>
<path d="M153.778 105.809L161.893 109.19" stroke="black" stroke-width="1.35237"/>
<path d="M153.778 161.256L161.893 164.637" stroke="black" stroke-width="1.35237"/>
<path d="M153.778 165.312L161.893 168.693" stroke="black" stroke-width="1.35237"/>
<path d="M153.778 169.371L161.893 172.752" stroke="black" stroke-width="1.35237"/>
<path d="M153.778 173.428L159.771 175.924" stroke="black" stroke-width="1.35237"/>
<path opacity="0.2" d="M362.044 96.3438L352.577 105.81L362.044 115.277L352.577 124.744L362.044 134.21L352.577 143.677L362.044 153.143L352.577 162.61L362.044 172.077L352.577 181.543L362.044 191.01L352.577 200.476L362.044 209.943" stroke="black" stroke-width="1.35237"/>
<path opacity="0.2" d="M0.960148 96.3438L10.4268 105.81L0.960148 115.277L10.4268 124.744L0.960148 134.21L10.4268 143.677L0.960148 153.143L10.4268 162.61L0.960148 172.077L10.4268 181.543L0.960148 191.01L10.4268 200.476L0.960148 209.943" stroke="black" stroke-width="1.35237"/>
</svg>
