<svg width="258" height="445" viewBox="0 0 258 445" fill="none" xmlns="http://www.w3.org/2000/svg">
<mask id="mask0_688_14461" style="mask-type:alpha" maskUnits="userSpaceOnUse" x="1" y="214" width="139" height="229">
<path d="M1.65803 441.826L11.848 431.636L12.4342 431.05L13.0203 431.636L24.0392 442.655L35.0582 431.636L35.6443 431.05L36.2305 431.636L47.2494 442.655L58.2683 431.636L58.8545 431.05L59.4406 431.636L70.4595 442.655L81.4785 431.636L82.0646 431.05L82.6508 431.636L93.6697 442.655L104.689 431.636L105.275 431.05L105.861 431.636L116.88 442.655L127.899 431.636L128.485 431.05L129.071 431.636L139.261 441.826L139.261 214.213L131.315 214.213L130.143 215.385L130.143 246.541L130.143 247.102L129.622 247.311L125.477 248.968L125.072 249.13L124.709 248.889L122.223 247.231L122.008 247.088L121.913 246.849L118.597 238.559L118.588 238.537L118.58 238.514L115.453 229.133L31.4997 229.133L31.4997 239.909L31.4997 240.253L31.2569 240.496L31.1563 240.596L29.8418 243.225L1.65803 243.225L1.65803 441.826Z" fill="black"/>
</mask>
<g mask="url(#mask0_688_14461)">
<path d="M156.597 220.247L151.962 228.274L142.694 228.274L138.06 220.247L142.694 212.22L151.962 212.22L156.597 220.247Z" fill="#F3F3F5" stroke="black" stroke-width="0.185371"/>
<path d="M156.597 236.3L151.962 244.327L142.694 244.327L138.06 236.3L142.694 228.273L151.962 228.273L156.597 236.3Z" fill="#F3F3F5" stroke="black" stroke-width="0.185371"/>
<path d="M156.597 252.353L151.962 260.379L142.694 260.379L138.06 252.353L142.694 244.326L151.962 244.326L156.597 252.353Z" fill="#F3F3F5" stroke="black" stroke-width="0.185371"/>
<path d="M156.597 268.405L151.962 276.432L142.694 276.432L138.06 268.405L142.694 260.378L151.962 260.378L156.597 268.405Z" fill="#F3F3F5" stroke="black" stroke-width="0.185371"/>
<path d="M156.597 284.458L151.962 292.485L142.694 292.485L138.06 284.458L142.694 276.431L151.962 276.431L156.597 284.458Z" fill="#F3F3F5" stroke="black" stroke-width="0.185371"/>
<path d="M156.597 300.513L151.962 308.54L142.694 308.54L138.06 300.513L142.694 292.486L151.962 292.486L156.597 300.513Z" fill="#F3F3F5" stroke="black" stroke-width="0.185371"/>
<path d="M156.597 316.565L151.962 324.592L142.694 324.592L138.06 316.565L142.694 308.539L151.962 308.539L156.597 316.565Z" fill="#F3F3F5" stroke="black" stroke-width="0.185371"/>
<path d="M156.597 332.618L151.962 340.645L142.694 340.645L138.06 332.618L142.694 324.591L151.962 324.591L156.597 332.618Z" fill="#F3F3F5" stroke="black" stroke-width="0.185371"/>
<path d="M156.597 348.671L151.962 356.698L142.694 356.698L138.06 348.671L142.694 340.644L151.962 340.644L156.597 348.671Z" fill="#F3F3F5" stroke="black" stroke-width="0.185371"/>
<path d="M156.597 364.724L151.962 372.75L142.694 372.75L138.06 364.724L142.694 356.697L151.962 356.697L156.597 364.724Z" fill="#F3F3F5" stroke="black" stroke-width="0.185371"/>
<path d="M156.597 380.778L151.962 388.805L142.694 388.805L138.06 380.778L142.694 372.752L151.962 372.752L156.597 380.778Z" fill="#F3F3F5" stroke="black" stroke-width="0.185371"/>
<path d="M156.597 396.831L151.962 404.858L142.694 404.858L138.06 396.831L142.694 388.804L151.962 388.804L156.597 396.831Z" fill="#F3F3F5" stroke="black" stroke-width="0.185371"/>
<path d="M156.597 412.884L151.962 420.911L142.694 420.911L138.06 412.884L142.694 404.857L151.962 404.857L156.597 412.884Z" fill="#F3F3F5" stroke="black" stroke-width="0.185371"/>
<path d="M156.597 428.937L151.962 436.963L142.694 436.963L138.06 428.937L142.694 420.91L151.962 420.91L156.597 428.937Z" fill="#F3F3F5" stroke="black" stroke-width="0.185371"/>
<path d="M156.597 444.991L151.962 453.018L142.694 453.018L138.06 444.991L142.694 436.964L151.962 436.964L156.597 444.991Z" fill="#F3F3F5" stroke="black" stroke-width="0.185371"/>
<path d="M128.791 220.247L124.157 228.274L114.888 228.274L110.254 220.247L114.888 212.22L124.157 212.22L128.791 220.247Z" fill="#F3F3F5" stroke="black" stroke-width="0.185371"/>
<path d="M128.791 236.3L124.157 244.327L114.888 244.327L110.254 236.3L114.888 228.273L124.157 228.273L128.791 236.3Z" fill="#F3F3F5" stroke="black" stroke-width="0.185371"/>
<path d="M128.791 252.353L124.157 260.379L114.888 260.379L110.254 252.353L114.888 244.326L124.157 244.326L128.791 252.353Z" fill="#F3F3F5" stroke="black" stroke-width="0.185371"/>
<path d="M128.791 268.405L124.157 276.432L114.888 276.432L110.254 268.405L114.888 260.378L124.157 260.378L128.791 268.405Z" fill="#F3F3F5" stroke="black" stroke-width="0.185371"/>
<path d="M128.791 284.458L124.157 292.485L114.888 292.485L110.254 284.458L114.888 276.431L124.157 276.431L128.791 284.458Z" fill="#F3F3F5" stroke="black" stroke-width="0.185371"/>
<path d="M128.791 300.513L124.157 308.54L114.888 308.54L110.254 300.513L114.888 292.486L124.157 292.486L128.791 300.513Z" fill="#F3F3F5" stroke="black" stroke-width="0.185371"/>
<path d="M128.791 316.565L124.157 324.592L114.888 324.592L110.254 316.565L114.888 308.539L124.157 308.539L128.791 316.565Z" fill="#F3F3F5" stroke="black" stroke-width="0.185371"/>
<path d="M128.791 332.618L124.157 340.645L114.888 340.645L110.254 332.618L114.888 324.591L124.157 324.591L128.791 332.618Z" fill="#F3F3F5" stroke="black" stroke-width="0.185371"/>
<path d="M128.791 348.671L124.157 356.698L114.888 356.698L110.254 348.671L114.888 340.644L124.157 340.644L128.791 348.671Z" fill="#F3F3F5" stroke="black" stroke-width="0.185371"/>
<path d="M128.791 364.724L124.157 372.75L114.888 372.75L110.254 364.724L114.888 356.697L124.157 356.697L128.791 364.724Z" fill="#F3F3F5" stroke="black" stroke-width="0.185371"/>
<path d="M128.791 380.778L124.157 388.805L114.888 388.805L110.254 380.778L114.888 372.752L124.157 372.752L128.791 380.778Z" fill="#F3F3F5" stroke="black" stroke-width="0.185371"/>
<path d="M128.791 396.831L124.157 404.858L114.888 404.858L110.254 396.831L114.888 388.804L124.157 388.804L128.791 396.831Z" fill="#F3F3F5" stroke="black" stroke-width="0.185371"/>
<path d="M128.791 412.884L124.157 420.911L114.888 420.911L110.254 412.884L114.888 404.857L124.157 404.857L128.791 412.884Z" fill="#F3F3F5" stroke="black" stroke-width="0.185371"/>
<path d="M128.791 428.937L124.157 436.963L114.888 436.963L110.254 428.937L114.888 420.91L124.157 420.91L128.791 428.937Z" fill="#F3F3F5" stroke="black" stroke-width="0.185371"/>
<path d="M128.791 444.991L124.157 453.018L114.888 453.018L110.254 444.991L114.888 436.964L124.157 436.964L128.791 444.991Z" fill="#F3F3F5" stroke="black" stroke-width="0.185371"/>
<path d="M100.985 220.247L96.3511 228.274L87.0825 228.274L82.4482 220.247L87.0825 212.22L96.3511 212.22L100.985 220.247Z" fill="#F3F3F5" stroke="black" stroke-width="0.185371"/>
<path d="M100.985 236.3L96.3511 244.327L87.0825 244.327L82.4482 236.3L87.0825 228.273L96.3511 228.273L100.985 236.3Z" fill="#F3F3F5" stroke="black" stroke-width="0.185371"/>
<path d="M100.985 252.353L96.3511 260.379L87.0825 260.379L82.4482 252.353L87.0825 244.326L96.3511 244.326L100.985 252.353Z" fill="#F3F3F5" stroke="black" stroke-width="0.185371"/>
<path d="M100.985 268.405L96.3511 276.432L87.0825 276.432L82.4482 268.405L87.0825 260.378L96.3511 260.378L100.985 268.405Z" fill="#F3F3F5" stroke="black" stroke-width="0.185371"/>
<path d="M100.985 284.458L96.3511 292.485L87.0825 292.485L82.4482 284.458L87.0825 276.431L96.3511 276.431L100.985 284.458Z" fill="#F3F3F5" stroke="black" stroke-width="0.185371"/>
<path d="M100.985 300.513L96.3511 308.54L87.0825 308.54L82.4482 300.513L87.0825 292.486L96.3511 292.486L100.985 300.513Z" fill="#F3F3F5" stroke="black" stroke-width="0.185371"/>
<path d="M100.985 316.565L96.3511 324.592L87.0825 324.592L82.4482 316.565L87.0825 308.539L96.3511 308.539L100.985 316.565Z" fill="#F3F3F5" stroke="black" stroke-width="0.185371"/>
<path d="M100.985 332.618L96.3511 340.645L87.0825 340.645L82.4482 332.618L87.0825 324.591L96.3511 324.591L100.985 332.618Z" fill="#F3F3F5" stroke="black" stroke-width="0.185371"/>
<path d="M100.985 348.671L96.3511 356.698L87.0825 356.698L82.4482 348.671L87.0825 340.644L96.3511 340.644L100.985 348.671Z" fill="#F3F3F5" stroke="black" stroke-width="0.185371"/>
<path d="M100.985 364.724L96.3511 372.75L87.0825 372.75L82.4482 364.724L87.0825 356.697L96.3511 356.697L100.985 364.724Z" fill="#F3F3F5" stroke="black" stroke-width="0.185371"/>
<path d="M100.985 380.778L96.3511 388.805L87.0825 388.805L82.4482 380.778L87.0825 372.752L96.3511 372.752L100.985 380.778Z" fill="#F3F3F5" stroke="black" stroke-width="0.185371"/>
<path d="M100.985 396.831L96.3511 404.858L87.0825 404.858L82.4482 396.831L87.0825 388.804L96.3511 388.804L100.985 396.831Z" fill="#F3F3F5" stroke="black" stroke-width="0.185371"/>
<path d="M100.985 412.884L96.3511 420.911L87.0825 420.911L82.4482 412.884L87.0825 404.857L96.3511 404.857L100.985 412.884Z" fill="#F3F3F5" stroke="black" stroke-width="0.185371"/>
<path d="M100.985 428.937L96.3511 436.963L87.0825 436.963L82.4482 428.937L87.0825 420.91L96.3511 420.91L100.985 428.937Z" fill="#F3F3F5" stroke="black" stroke-width="0.185371"/>
<path d="M100.985 444.991L96.3511 453.018L87.0825 453.018L82.4482 444.991L87.0825 436.964L96.3511 436.964L100.985 444.991Z" fill="#F3F3F5" stroke="black" stroke-width="0.185371"/>
<path d="M73.1797 220.247L68.5454 228.274L59.2768 228.274L54.6426 220.247L59.2768 212.22L68.5454 212.22L73.1797 220.247Z" fill="#F3F3F5" stroke="black" stroke-width="0.185371"/>
<path d="M73.1797 236.3L68.5454 244.327L59.2768 244.327L54.6426 236.3L59.2768 228.273L68.5454 228.273L73.1797 236.3Z" fill="#F3F3F5" stroke="black" stroke-width="0.185371"/>
<path d="M73.1797 252.353L68.5454 260.379L59.2768 260.379L54.6426 252.353L59.2768 244.326L68.5454 244.326L73.1797 252.353Z" fill="#F3F3F5" stroke="black" stroke-width="0.185371"/>
<path d="M73.1797 268.405L68.5454 276.432L59.2768 276.432L54.6426 268.405L59.2768 260.378L68.5454 260.378L73.1797 268.405Z" fill="#F3F3F5" stroke="black" stroke-width="0.185371"/>
<path d="M73.1797 284.458L68.5454 292.485L59.2768 292.485L54.6426 284.458L59.2768 276.431L68.5454 276.431L73.1797 284.458Z" fill="#F3F3F5" stroke="black" stroke-width="0.185371"/>
<path d="M73.1797 300.513L68.5454 308.54L59.2768 308.54L54.6426 300.513L59.2768 292.486L68.5454 292.486L73.1797 300.513Z" fill="#F3F3F5" stroke="black" stroke-width="0.185371"/>
<path d="M73.1797 316.565L68.5454 324.592L59.2768 324.592L54.6426 316.565L59.2768 308.539L68.5454 308.539L73.1797 316.565Z" fill="#F3F3F5" stroke="black" stroke-width="0.185371"/>
<path d="M73.1797 332.618L68.5454 340.645L59.2768 340.645L54.6426 332.618L59.2768 324.591L68.5454 324.591L73.1797 332.618Z" fill="#F3F3F5" stroke="black" stroke-width="0.185371"/>
<path d="M73.1797 348.671L68.5454 356.698L59.2768 356.698L54.6426 348.671L59.2768 340.644L68.5454 340.644L73.1797 348.671Z" fill="#F3F3F5" stroke="black" stroke-width="0.185371"/>
<path d="M73.1797 364.724L68.5454 372.75L59.2768 372.75L54.6426 364.724L59.2768 356.697L68.5454 356.697L73.1797 364.724Z" fill="#F3F3F5" stroke="black" stroke-width="0.185371"/>
<path d="M73.1797 380.778L68.5454 388.805L59.2768 388.805L54.6426 380.778L59.2768 372.752L68.5454 372.752L73.1797 380.778Z" fill="#F3F3F5" stroke="black" stroke-width="0.185371"/>
<path d="M73.1797 396.831L68.5454 404.858L59.2768 404.858L54.6426 396.831L59.2768 388.804L68.5454 388.804L73.1797 396.831Z" fill="#F3F3F5" stroke="black" stroke-width="0.185371"/>
<path d="M73.1797 412.884L68.5454 420.911L59.2768 420.911L54.6426 412.884L59.2768 404.857L68.5454 404.857L73.1797 412.884Z" fill="#F3F3F5" stroke="black" stroke-width="0.185371"/>
<path d="M73.1797 428.937L68.5454 436.963L59.2768 436.963L54.6426 428.937L59.2768 420.91L68.5454 420.91L73.1797 428.937Z" fill="#F3F3F5" stroke="black" stroke-width="0.185371"/>
<path d="M73.1797 444.991L68.5454 453.018L59.2768 453.018L54.6426 444.991L59.2768 436.964L68.5454 436.964L73.1797 444.991Z" fill="#F3F3F5" stroke="black" stroke-width="0.185371"/>
<path d="M45.374 220.247L40.7397 228.274L31.4712 228.274L26.8369 220.247L31.4712 212.22L40.7397 212.22L45.374 220.247Z" fill="#F3F3F5" stroke="black" stroke-width="0.185371"/>
<path d="M45.374 236.3L40.7397 244.327L31.4712 244.327L26.8369 236.3L31.4712 228.273L40.7397 228.273L45.374 236.3Z" fill="#F3F3F5" stroke="black" stroke-width="0.185371"/>
<path d="M45.374 252.353L40.7397 260.379L31.4712 260.379L26.8369 252.353L31.4712 244.326L40.7397 244.326L45.374 252.353Z" fill="#F3F3F5" stroke="black" stroke-width="0.185371"/>
<path d="M45.374 268.405L40.7397 276.432L31.4712 276.432L26.8369 268.405L31.4712 260.378L40.7397 260.378L45.374 268.405Z" fill="#F3F3F5" stroke="black" stroke-width="0.185371"/>
<path d="M45.374 284.458L40.7397 292.485L31.4712 292.485L26.8369 284.458L31.4712 276.431L40.7397 276.431L45.374 284.458Z" fill="#F3F3F5" stroke="black" stroke-width="0.185371"/>
<path d="M45.374 300.513L40.7397 308.54L31.4712 308.54L26.8369 300.513L31.4712 292.486L40.7397 292.486L45.374 300.513Z" fill="#F3F3F5" stroke="black" stroke-width="0.185371"/>
<path d="M45.374 316.565L40.7397 324.592L31.4712 324.592L26.8369 316.565L31.4712 308.539L40.7397 308.539L45.374 316.565Z" fill="#F3F3F5" stroke="black" stroke-width="0.185371"/>
<path d="M45.374 332.618L40.7397 340.645L31.4712 340.645L26.8369 332.618L31.4712 324.591L40.7397 324.591L45.374 332.618Z" fill="#F3F3F5" stroke="black" stroke-width="0.185371"/>
<path d="M45.374 348.671L40.7397 356.698L31.4712 356.698L26.8369 348.671L31.4712 340.644L40.7397 340.644L45.374 348.671Z" fill="#F3F3F5" stroke="black" stroke-width="0.185371"/>
<path d="M45.374 364.724L40.7397 372.75L31.4712 372.75L26.8369 364.724L31.4712 356.697L40.7397 356.697L45.374 364.724Z" fill="#F3F3F5" stroke="black" stroke-width="0.185371"/>
<path d="M45.374 380.778L40.7397 388.805L31.4712 388.805L26.8369 380.778L31.4712 372.752L40.7397 372.752L45.374 380.778Z" fill="#F3F3F5" stroke="black" stroke-width="0.185371"/>
<path d="M45.374 396.831L40.7397 404.858L31.4712 404.858L26.8369 396.831L31.4712 388.804L40.7397 388.804L45.374 396.831Z" fill="#F3F3F5" stroke="black" stroke-width="0.185371"/>
<path d="M45.374 412.884L40.7397 420.911L31.4712 420.911L26.8369 412.884L31.4712 404.857L40.7397 404.857L45.374 412.884Z" fill="#F3F3F5" stroke="black" stroke-width="0.185371"/>
<path d="M45.374 428.937L40.7397 436.963L31.4712 436.963L26.8369 428.937L31.4712 420.91L40.7397 420.91L45.374 428.937Z" fill="#F3F3F5" stroke="black" stroke-width="0.185371"/>
<path d="M45.374 444.991L40.7397 453.018L31.4712 453.018L26.8369 444.991L31.4712 436.964L40.7397 436.964L45.374 444.991Z" fill="#F3F3F5" stroke="black" stroke-width="0.185371"/>
<path d="M17.5684 220.247L12.9341 228.274L3.66552 228.274L-0.968764 220.247L3.66552 212.22L12.9341 212.22L17.5684 220.247Z" fill="#F3F3F5" stroke="black" stroke-width="0.185371"/>
<path d="M17.5684 236.3L12.9341 244.327L3.66552 244.327L-0.968764 236.3L3.66552 228.273L12.9341 228.273L17.5684 236.3Z" fill="#F3F3F5" stroke="black" stroke-width="0.185371"/>
<path d="M17.5684 252.353L12.9341 260.379L3.66552 260.379L-0.968764 252.353L3.66552 244.326L12.9341 244.326L17.5684 252.353Z" fill="#F3F3F5" stroke="black" stroke-width="0.185371"/>
<path d="M17.5684 268.405L12.9341 276.432L3.66552 276.432L-0.968764 268.405L3.66552 260.378L12.9341 260.378L17.5684 268.405Z" fill="#F3F3F5" stroke="black" stroke-width="0.185371"/>
<path d="M17.5684 284.458L12.9341 292.485L3.66552 292.485L-0.968764 284.458L3.66552 276.431L12.9341 276.431L17.5684 284.458Z" fill="#F3F3F5" stroke="black" stroke-width="0.185371"/>
<path d="M17.5684 300.513L12.9341 308.54L3.66552 308.54L-0.968764 300.513L3.66552 292.486L12.9341 292.486L17.5684 300.513Z" fill="#F3F3F5" stroke="black" stroke-width="0.185371"/>
<path d="M17.5684 316.565L12.9341 324.592L3.66552 324.592L-0.968764 316.565L3.66552 308.539L12.9341 308.539L17.5684 316.565Z" fill="#F3F3F5" stroke="black" stroke-width="0.185371"/>
<path d="M17.5684 332.618L12.9341 340.645L3.66552 340.645L-0.968764 332.618L3.66552 324.591L12.9341 324.591L17.5684 332.618Z" fill="#F3F3F5" stroke="black" stroke-width="0.185371"/>
<path d="M17.5684 348.671L12.9341 356.698L3.66552 356.698L-0.968764 348.671L3.66552 340.644L12.9341 340.644L17.5684 348.671Z" fill="#F3F3F5" stroke="black" stroke-width="0.185371"/>
<path d="M17.5684 364.724L12.9341 372.75L3.66552 372.75L-0.968764 364.724L3.66552 356.697L12.9341 356.697L17.5684 364.724Z" fill="#F3F3F5" stroke="black" stroke-width="0.185371"/>
<path d="M17.5684 380.778L12.9341 388.805L3.66552 388.805L-0.968764 380.778L3.66552 372.752L12.9341 372.752L17.5684 380.778Z" fill="#F3F3F5" stroke="black" stroke-width="0.185371"/>
<path d="M17.5684 396.831L12.9341 404.858L3.66552 404.858L-0.968764 396.831L3.66552 388.804L12.9341 388.804L17.5684 396.831Z" fill="#F3F3F5" stroke="black" stroke-width="0.185371"/>
<path d="M17.5684 412.884L12.9341 420.911L3.66552 420.911L-0.968764 412.884L3.66552 404.857L12.9341 404.857L17.5684 412.884Z" fill="#F3F3F5" stroke="black" stroke-width="0.185371"/>
<path d="M17.5684 428.937L12.9341 436.963L3.66552 436.963L-0.968764 428.937L3.66552 420.91L12.9341 420.91L17.5684 428.937Z" fill="#F3F3F5" stroke="black" stroke-width="0.185371"/>
<path d="M17.5684 444.991L12.9341 453.018L3.66552 453.018L-0.968764 444.991L3.66552 436.964L12.9341 436.964L17.5684 444.991Z" fill="#F3F3F5" stroke="black" stroke-width="0.185371"/>
<path d="M142.693 212.22L138.059 220.247L128.791 220.247L124.156 212.22L128.791 204.193L138.059 204.193L142.693 212.22Z" fill="#F3F3F5" stroke="black" stroke-width="0.185371"/>
<path d="M142.693 228.274L138.059 236.301L128.791 236.301L124.156 228.274L128.791 220.248L138.059 220.248L142.693 228.274Z" fill="#F3F3F5" stroke="black" stroke-width="0.185371"/>
<path d="M142.693 244.327L138.059 252.354L128.791 252.354L124.156 244.327L128.791 236.3L138.059 236.3L142.693 244.327Z" fill="#F3F3F5" stroke="black" stroke-width="0.185371"/>
<path d="M142.693 260.38L138.059 268.407L128.791 268.407L124.156 260.38L128.791 252.353L138.059 252.353L142.693 260.38Z" fill="#F3F3F5" stroke="black" stroke-width="0.185371"/>
<path d="M142.693 276.433L138.059 284.459L128.791 284.459L124.156 276.433L128.791 268.406L138.059 268.406L142.693 276.433Z" fill="#F3F3F5" stroke="black" stroke-width="0.185371"/>
<path d="M142.693 292.485L138.059 300.512L128.791 300.512L124.156 292.485L128.791 284.459L138.059 284.459L142.693 292.485Z" fill="#F3F3F5" stroke="black" stroke-width="0.185371"/>
<path d="M142.693 308.54L138.059 316.567L128.791 316.567L124.156 308.54L128.791 300.513L138.059 300.513L142.693 308.54Z" fill="#F3F3F5" stroke="black" stroke-width="0.185371"/>
<path d="M142.693 324.593L138.059 332.62L128.791 332.62L124.156 324.593L128.791 316.566L138.059 316.566L142.693 324.593Z" fill="#F3F3F5" stroke="black" stroke-width="0.185371"/>
<path d="M142.693 340.646L138.059 348.672L128.791 348.672L124.156 340.646L128.791 332.619L138.059 332.619L142.693 340.646Z" fill="#F3F3F5" stroke="black" stroke-width="0.185371"/>
<path d="M142.693 356.698L138.059 364.725L128.791 364.725L124.156 356.698L128.791 348.671L138.059 348.671L142.693 356.698Z" fill="#F3F3F5" stroke="black" stroke-width="0.185371"/>
<path d="M142.693 372.753L138.059 380.78L128.791 380.78L124.156 372.753L128.791 364.726L138.059 364.726L142.693 372.753Z" fill="#F3F3F5" stroke="black" stroke-width="0.185371"/>
<path d="M142.693 388.806L138.059 396.832L128.791 396.832L124.156 388.806L128.791 380.779L138.059 380.779L142.693 388.806Z" fill="#F3F3F5" stroke="black" stroke-width="0.185371"/>
<path d="M142.693 404.858L138.059 412.885L128.791 412.885L124.156 404.858L128.791 396.832L138.059 396.832L142.693 404.858Z" fill="#F3F3F5" stroke="black" stroke-width="0.185371"/>
<path d="M142.693 420.911L138.059 428.938L128.791 428.938L124.156 420.911L128.791 412.884L138.059 412.884L142.693 420.911Z" fill="#F3F3F5" stroke="black" stroke-width="0.185371"/>
<path d="M142.693 436.964L138.059 444.991L128.791 444.991L124.156 436.964L128.791 428.937L138.059 428.937L142.693 436.964Z" fill="#F3F3F5" stroke="black" stroke-width="0.185371"/>
<path d="M114.888 212.22L110.253 220.247L100.985 220.247L96.3506 212.22L100.985 204.193L110.253 204.193L114.888 212.22Z" fill="#F3F3F5" stroke="black" stroke-width="0.185371"/>
<path d="M114.888 228.274L110.253 236.301L100.985 236.301L96.3506 228.274L100.985 220.248L110.253 220.248L114.888 228.274Z" fill="#F3F3F5" stroke="black" stroke-width="0.185371"/>
<path d="M114.888 244.327L110.253 252.354L100.985 252.354L96.3506 244.327L100.985 236.3L110.253 236.3L114.888 244.327Z" fill="#F3F3F5" stroke="black" stroke-width="0.185371"/>
<path d="M114.888 260.38L110.253 268.407L100.985 268.407L96.3506 260.38L100.985 252.353L110.253 252.353L114.888 260.38Z" fill="#F3F3F5" stroke="black" stroke-width="0.185371"/>
<path d="M114.888 276.433L110.253 284.459L100.985 284.459L96.3506 276.433L100.985 268.406L110.253 268.406L114.888 276.433Z" fill="#F3F3F5" stroke="black" stroke-width="0.185371"/>
<path d="M114.888 292.485L110.253 300.512L100.985 300.512L96.3506 292.485L100.985 284.459L110.253 284.459L114.888 292.485Z" fill="#F3F3F5" stroke="black" stroke-width="0.185371"/>
<path d="M114.888 308.54L110.253 316.567L100.985 316.567L96.3506 308.54L100.985 300.513L110.253 300.513L114.888 308.54Z" fill="#F3F3F5" stroke="black" stroke-width="0.185371"/>
<path d="M114.888 324.593L110.253 332.62L100.985 332.62L96.3506 324.593L100.985 316.566L110.253 316.566L114.888 324.593Z" fill="#F3F3F5" stroke="black" stroke-width="0.185371"/>
<path d="M114.888 340.646L110.253 348.672L100.985 348.672L96.3506 340.646L100.985 332.619L110.253 332.619L114.888 340.646Z" fill="#F3F3F5" stroke="black" stroke-width="0.185371"/>
<path d="M114.888 356.698L110.253 364.725L100.985 364.725L96.3506 356.698L100.985 348.671L110.253 348.671L114.888 356.698Z" fill="#F3F3F5" stroke="black" stroke-width="0.185371"/>
<path d="M114.888 372.753L110.253 380.78L100.985 380.78L96.3506 372.753L100.985 364.726L110.253 364.726L114.888 372.753Z" fill="#F3F3F5" stroke="black" stroke-width="0.185371"/>
<path d="M114.888 388.806L110.253 396.832L100.985 396.832L96.3506 388.806L100.985 380.779L110.253 380.779L114.888 388.806Z" fill="#F3F3F5" stroke="black" stroke-width="0.185371"/>
<path d="M114.888 404.858L110.253 412.885L100.985 412.885L96.3506 404.858L100.985 396.832L110.253 396.832L114.888 404.858Z" fill="#F3F3F5" stroke="black" stroke-width="0.185371"/>
<path d="M114.888 420.911L110.253 428.938L100.985 428.938L96.3506 420.911L100.985 412.884L110.253 412.884L114.888 420.911Z" fill="#F3F3F5" stroke="black" stroke-width="0.185371"/>
<path d="M114.888 436.964L110.253 444.991L100.985 444.991L96.3506 436.964L100.985 428.937L110.253 428.937L114.888 436.964Z" fill="#F3F3F5" stroke="black" stroke-width="0.185371"/>
<path d="M87.082 212.22L82.4477 220.247L73.1792 220.247L68.5449 212.22L73.1792 204.193L82.4478 204.193L87.082 212.22Z" fill="#F3F3F5" stroke="black" stroke-width="0.185371"/>
<path d="M87.082 228.274L82.4477 236.301L73.1792 236.301L68.5449 228.274L73.1792 220.248L82.4478 220.248L87.082 228.274Z" fill="#F3F3F5" stroke="black" stroke-width="0.185371"/>
<path d="M87.082 244.327L82.4477 252.354L73.1792 252.354L68.5449 244.327L73.1792 236.3L82.4478 236.3L87.082 244.327Z" fill="#F3F3F5" stroke="black" stroke-width="0.185371"/>
<path d="M87.082 260.38L82.4477 268.407L73.1792 268.407L68.5449 260.38L73.1792 252.353L82.4478 252.353L87.082 260.38Z" fill="#F3F3F5" stroke="black" stroke-width="0.185371"/>
<path d="M87.082 276.433L82.4477 284.459L73.1792 284.459L68.5449 276.433L73.1792 268.406L82.4478 268.406L87.082 276.433Z" fill="#F3F3F5" stroke="black" stroke-width="0.185371"/>
<path d="M87.082 292.485L82.4477 300.512L73.1792 300.512L68.5449 292.485L73.1792 284.459L82.4478 284.459L87.082 292.485Z" fill="#F3F3F5" stroke="black" stroke-width="0.185371"/>
<path d="M87.082 308.54L82.4477 316.567L73.1792 316.567L68.5449 308.54L73.1792 300.513L82.4478 300.513L87.082 308.54Z" fill="#F3F3F5" stroke="black" stroke-width="0.185371"/>
<path d="M87.082 324.593L82.4477 332.62L73.1792 332.62L68.5449 324.593L73.1792 316.566L82.4478 316.566L87.082 324.593Z" fill="#F3F3F5" stroke="black" stroke-width="0.185371"/>
<path d="M87.082 340.646L82.4477 348.672L73.1792 348.672L68.5449 340.646L73.1792 332.619L82.4478 332.619L87.082 340.646Z" fill="#F3F3F5" stroke="black" stroke-width="0.185371"/>
<path d="M87.082 356.698L82.4477 364.725L73.1792 364.725L68.5449 356.698L73.1792 348.671L82.4478 348.671L87.082 356.698Z" fill="#F3F3F5" stroke="black" stroke-width="0.185371"/>
<path d="M87.082 372.753L82.4477 380.78L73.1792 380.78L68.5449 372.753L73.1792 364.726L82.4478 364.726L87.082 372.753Z" fill="#F3F3F5" stroke="black" stroke-width="0.185371"/>
<path d="M87.082 388.806L82.4477 396.832L73.1792 396.832L68.5449 388.806L73.1792 380.779L82.4478 380.779L87.082 388.806Z" fill="#F3F3F5" stroke="black" stroke-width="0.185371"/>
<path d="M87.082 404.858L82.4477 412.885L73.1792 412.885L68.5449 404.858L73.1792 396.832L82.4478 396.832L87.082 404.858Z" fill="#F3F3F5" stroke="black" stroke-width="0.185371"/>
<path d="M87.082 420.911L82.4477 428.938L73.1792 428.938L68.5449 420.911L73.1792 412.884L82.4478 412.884L87.082 420.911Z" fill="#F3F3F5" stroke="black" stroke-width="0.185371"/>
<path d="M87.082 436.964L82.4477 444.991L73.1792 444.991L68.5449 436.964L73.1792 428.937L82.4478 428.937L87.082 436.964Z" fill="#F3F3F5" stroke="black" stroke-width="0.185371"/>
<path d="M59.2764 212.22L54.6421 220.247L45.3735 220.247L40.7392 212.22L45.3735 204.193L54.6421 204.193L59.2764 212.22Z" fill="#F3F3F5" stroke="black" stroke-width="0.185371"/>
<path d="M59.2764 228.274L54.6421 236.301L45.3735 236.301L40.7392 228.274L45.3735 220.248L54.6421 220.248L59.2764 228.274Z" fill="#F3F3F5" stroke="black" stroke-width="0.185371"/>
<path d="M59.2764 244.327L54.6421 252.354L45.3735 252.354L40.7392 244.327L45.3735 236.3L54.6421 236.3L59.2764 244.327Z" fill="#F3F3F5" stroke="black" stroke-width="0.185371"/>
<path d="M59.2764 260.38L54.6421 268.407L45.3735 268.407L40.7392 260.38L45.3735 252.353L54.6421 252.353L59.2764 260.38Z" fill="#F3F3F5" stroke="black" stroke-width="0.185371"/>
<path d="M59.2764 276.433L54.6421 284.459L45.3735 284.459L40.7392 276.433L45.3735 268.406L54.6421 268.406L59.2764 276.433Z" fill="#F3F3F5" stroke="black" stroke-width="0.185371"/>
<path d="M59.2764 292.485L54.6421 300.512L45.3735 300.512L40.7392 292.485L45.3735 284.459L54.6421 284.459L59.2764 292.485Z" fill="#F3F3F5" stroke="black" stroke-width="0.185371"/>
<path d="M59.2764 308.54L54.6421 316.567L45.3735 316.567L40.7392 308.54L45.3735 300.513L54.6421 300.513L59.2764 308.54Z" fill="#F3F3F5" stroke="black" stroke-width="0.185371"/>
<path d="M59.2764 324.593L54.6421 332.62L45.3735 332.62L40.7392 324.593L45.3735 316.566L54.6421 316.566L59.2764 324.593Z" fill="#F3F3F5" stroke="black" stroke-width="0.185371"/>
<path d="M59.2764 340.646L54.6421 348.672L45.3735 348.672L40.7392 340.646L45.3735 332.619L54.6421 332.619L59.2764 340.646Z" fill="#F3F3F5" stroke="black" stroke-width="0.185371"/>
<path d="M59.2764 356.698L54.6421 364.725L45.3735 364.725L40.7392 356.698L45.3735 348.671L54.6421 348.671L59.2764 356.698Z" fill="#F3F3F5" stroke="black" stroke-width="0.185371"/>
<path d="M59.2764 372.753L54.6421 380.78L45.3735 380.78L40.7392 372.753L45.3735 364.726L54.6421 364.726L59.2764 372.753Z" fill="#F3F3F5" stroke="black" stroke-width="0.185371"/>
<path d="M59.2764 388.806L54.6421 396.832L45.3735 396.832L40.7392 388.806L45.3735 380.779L54.6421 380.779L59.2764 388.806Z" fill="#F3F3F5" stroke="black" stroke-width="0.185371"/>
<path d="M59.2764 404.858L54.6421 412.885L45.3735 412.885L40.7392 404.858L45.3735 396.832L54.6421 396.832L59.2764 404.858Z" fill="#F3F3F5" stroke="black" stroke-width="0.185371"/>
<path d="M59.2764 420.911L54.6421 428.938L45.3735 428.938L40.7392 420.911L45.3735 412.884L54.6421 412.884L59.2764 420.911Z" fill="#F3F3F5" stroke="black" stroke-width="0.185371"/>
<path d="M59.2764 436.964L54.6421 444.991L45.3735 444.991L40.7392 436.964L45.3735 428.937L54.6421 428.937L59.2764 436.964Z" fill="#F3F3F5" stroke="black" stroke-width="0.185371"/>
<path d="M31.4707 212.22L26.8364 220.247L17.5679 220.247L12.9336 212.22L17.5679 204.193L26.8364 204.193L31.4707 212.22Z" fill="#F3F3F5" stroke="black" stroke-width="0.185371"/>
<path d="M31.4707 228.274L26.8364 236.301L17.5679 236.301L12.9336 228.274L17.5679 220.248L26.8364 220.248L31.4707 228.274Z" fill="#F3F3F5" stroke="black" stroke-width="0.185371"/>
<path d="M31.4707 244.327L26.8364 252.354L17.5679 252.354L12.9336 244.327L17.5679 236.3L26.8364 236.3L31.4707 244.327Z" fill="#F3F3F5" stroke="black" stroke-width="0.185371"/>
<path d="M31.4707 260.38L26.8364 268.407L17.5679 268.407L12.9336 260.38L17.5679 252.353L26.8364 252.353L31.4707 260.38Z" fill="#F3F3F5" stroke="black" stroke-width="0.185371"/>
<path d="M31.4707 276.433L26.8364 284.459L17.5679 284.459L12.9336 276.433L17.5679 268.406L26.8364 268.406L31.4707 276.433Z" fill="#F3F3F5" stroke="black" stroke-width="0.185371"/>
<path d="M31.4707 292.485L26.8364 300.512L17.5679 300.512L12.9336 292.485L17.5679 284.459L26.8364 284.459L31.4707 292.485Z" fill="#F3F3F5" stroke="black" stroke-width="0.185371"/>
<path d="M31.4707 308.54L26.8364 316.567L17.5679 316.567L12.9336 308.54L17.5679 300.513L26.8364 300.513L31.4707 308.54Z" fill="#F3F3F5" stroke="black" stroke-width="0.185371"/>
<path d="M31.4707 324.593L26.8364 332.62L17.5679 332.62L12.9336 324.593L17.5679 316.566L26.8364 316.566L31.4707 324.593Z" fill="#F3F3F5" stroke="black" stroke-width="0.185371"/>
<path d="M31.4707 340.646L26.8364 348.672L17.5679 348.672L12.9336 340.646L17.5679 332.619L26.8364 332.619L31.4707 340.646Z" fill="#F3F3F5" stroke="black" stroke-width="0.185371"/>
<path d="M31.4707 356.698L26.8364 364.725L17.5679 364.725L12.9336 356.698L17.5679 348.671L26.8364 348.671L31.4707 356.698Z" fill="#F3F3F5" stroke="black" stroke-width="0.185371"/>
<path d="M31.4707 372.753L26.8364 380.78L17.5679 380.78L12.9336 372.753L17.5679 364.726L26.8364 364.726L31.4707 372.753Z" fill="#F3F3F5" stroke="black" stroke-width="0.185371"/>
<path d="M31.4707 388.806L26.8364 396.832L17.5679 396.832L12.9336 388.806L17.5679 380.779L26.8364 380.779L31.4707 388.806Z" fill="#F3F3F5" stroke="black" stroke-width="0.185371"/>
<path d="M31.4707 404.858L26.8364 412.885L17.5679 412.885L12.9336 404.858L17.5679 396.832L26.8364 396.832L31.4707 404.858Z" fill="#F3F3F5" stroke="black" stroke-width="0.185371"/>
<path d="M31.4707 420.911L26.8364 428.938L17.5679 428.938L12.9336 420.911L17.5679 412.884L26.8364 412.884L31.4707 420.911Z" fill="#F3F3F5" stroke="black" stroke-width="0.185371"/>
<path d="M31.4707 436.964L26.8364 444.991L17.5679 444.991L12.9336 436.964L17.5679 428.937L26.8364 428.937L31.4707 436.964Z" fill="#F3F3F5" stroke="black" stroke-width="0.185371"/>
<path d="M3.66504 212.22L-0.969242 220.247L-10.2378 220.247L-14.8721 212.22L-10.2378 204.193L-0.969242 204.193L3.66504 212.22Z" fill="#F3F3F5" stroke="black" stroke-width="0.185371"/>
<path d="M3.66504 228.274L-0.969242 236.301L-10.2378 236.301L-14.8721 228.274L-10.2378 220.248L-0.969242 220.248L3.66504 228.274Z" fill="#F3F3F5" stroke="black" stroke-width="0.185371"/>
<path d="M3.66504 244.327L-0.969242 252.354L-10.2378 252.354L-14.8721 244.327L-10.2378 236.3L-0.969242 236.3L3.66504 244.327Z" fill="#F3F3F5" stroke="black" stroke-width="0.185371"/>
<path d="M3.66504 260.38L-0.969242 268.407L-10.2378 268.407L-14.8721 260.38L-10.2378 252.353L-0.969242 252.353L3.66504 260.38Z" fill="#F3F3F5" stroke="black" stroke-width="0.185371"/>
<path d="M3.66504 276.433L-0.969242 284.459L-10.2378 284.459L-14.8721 276.433L-10.2378 268.406L-0.969242 268.406L3.66504 276.433Z" fill="#F3F3F5" stroke="black" stroke-width="0.185371"/>
<path d="M3.66504 292.485L-0.969242 300.512L-10.2378 300.512L-14.8721 292.485L-10.2378 284.459L-0.969242 284.459L3.66504 292.485Z" fill="#F3F3F5" stroke="black" stroke-width="0.185371"/>
<path d="M3.66504 308.54L-0.969242 316.567L-10.2378 316.567L-14.8721 308.54L-10.2378 300.513L-0.969242 300.513L3.66504 308.54Z" fill="#F3F3F5" stroke="black" stroke-width="0.185371"/>
<path d="M3.66504 324.593L-0.969242 332.62L-10.2378 332.62L-14.8721 324.593L-10.2378 316.566L-0.969242 316.566L3.66504 324.593Z" fill="#F3F3F5" stroke="black" stroke-width="0.185371"/>
<path d="M3.66504 340.646L-0.969242 348.672L-10.2378 348.672L-14.8721 340.646L-10.2378 332.619L-0.969242 332.619L3.66504 340.646Z" fill="#F3F3F5" stroke="black" stroke-width="0.185371"/>
<path d="M3.66504 356.698L-0.969242 364.725L-10.2378 364.725L-14.8721 356.698L-10.2378 348.671L-0.969242 348.671L3.66504 356.698Z" fill="#F3F3F5" stroke="black" stroke-width="0.185371"/>
<path d="M3.66504 372.753L-0.969242 380.78L-10.2378 380.78L-14.8721 372.753L-10.2378 364.726L-0.969242 364.726L3.66504 372.753Z" fill="#F3F3F5" stroke="black" stroke-width="0.185371"/>
<path d="M3.66504 388.806L-0.969242 396.832L-10.2378 396.832L-14.8721 388.806L-10.2378 380.779L-0.969242 380.779L3.66504 388.806Z" fill="#F3F3F5" stroke="black" stroke-width="0.185371"/>
<path d="M3.66504 404.858L-0.969242 412.885L-10.2378 412.885L-14.8721 404.858L-10.2378 396.832L-0.969242 396.832L3.66504 404.858Z" fill="#F3F3F5" stroke="black" stroke-width="0.185371"/>
<path d="M3.66504 420.911L-0.969242 428.938L-10.2378 428.938L-14.8721 420.911L-10.2378 412.884L-0.969242 412.884L3.66504 420.911Z" fill="#F3F3F5" stroke="black" stroke-width="0.185371"/>
<path d="M3.66504 436.964L-0.969242 444.991L-10.2378 444.991L-14.8721 436.964L-10.2378 428.937L-0.969242 428.937L3.66504 436.964Z" fill="#F3F3F5" stroke="black" stroke-width="0.185371"/>
</g>
<mask id="mask1_688_14461" style="mask-type:alpha" maskUnits="userSpaceOnUse" x="1" y="2" width="139" height="246">
<path d="M129.071 13.3635L139.261 3.17351L139.261 212.55L130.972 212.55L130.628 212.55L130.386 212.793L128.728 214.451L128.485 214.694L128.485 215.037L128.485 245.975L125.266 247.263L123.356 245.99L120.145 237.962L116.837 228.038L116.648 227.471L116.051 227.471L32.3286 227.471L32.3286 215.38L34.4775 213.232L37.6729 211.634L37.7191 211.611L37.762 211.582L40.1564 209.986L42.5379 209.192L43.1047 209.003L43.1047 208.406L43.1047 178.564L43.1047 178.221L42.8619 177.978L38.7173 173.833L38.5398 173.656L38.2937 173.607L34.149 172.778L34.1193 172.772L34.0893 172.768L27.69 171.968L23.8703 168.912L21.4649 164.101L21.3774 163.926L21.2209 163.809L17.9051 161.322L17.7547 161.209L17.5703 161.173L9.67855 159.594L8.20197 156.641L8.07842 156.394L7.83126 156.27L4.67838 154.694L1.65803 150.918L1.65804 3.17351L11.848 13.3635L12.4342 13.9496L13.0203 13.3635L24.0392 2.34457L35.0582 13.3635L35.6443 13.9496L36.2305 13.3635L47.2494 2.34457L58.2683 13.3635L58.8545 13.9496L59.4406 13.3635L70.4596 2.34457L81.4785 13.3635L82.0646 13.9496L82.6508 13.3635L93.6697 2.34458L104.689 13.3635L105.275 13.9496L105.861 13.3635L116.88 2.34458L127.899 13.3635L128.485 13.9496L129.071 13.3635Z" fill="black"/>
</mask>
<g mask="url(#mask1_688_14461)">
<path d="M156.597 -0.0732355L151.962 7.95357L142.694 7.95357L138.06 -0.0732363L142.694 -8.10005L151.962 -8.10005L156.597 -0.0732355Z" fill="#F3F3F5" stroke="black" stroke-width="0.185371"/>
<path d="M156.597 15.9815L151.962 24.0083L142.694 24.0083L138.06 15.9815L142.694 7.95464L151.962 7.95464L156.597 15.9815Z" fill="#F3F3F5" stroke="black" stroke-width="0.185371"/>
<path d="M156.597 32.0342L151.962 40.061L142.694 40.061L138.06 32.0342L142.694 24.0074L151.962 24.0074L156.597 32.0342Z" fill="#F3F3F5" stroke="black" stroke-width="0.185371"/>
<path d="M156.597 48.0869L151.962 56.1137L142.694 56.1137L138.06 48.0869L142.694 40.0601L151.962 40.0601L156.597 48.0869Z" fill="#F3F3F5" stroke="black" stroke-width="0.185371"/>
<path d="M156.597 64.1397L151.962 72.1665L142.694 72.1665L138.06 64.1397L142.694 56.1128L151.962 56.1128L156.597 64.1397Z" fill="#F3F3F5" stroke="black" stroke-width="0.185371"/>
<path d="M156.597 80.1924L151.962 88.2192L142.694 88.2192L138.06 80.1924L142.694 72.1656L151.962 72.1656L156.597 80.1924Z" fill="#F3F3F5" stroke="black" stroke-width="0.185371"/>
<path d="M156.597 96.2471L151.962 104.274L142.694 104.274L138.06 96.2471L142.694 88.2203L151.962 88.2203L156.597 96.2471Z" fill="#F3F3F5" stroke="black" stroke-width="0.185371"/>
<path d="M156.597 112.3L151.962 120.327L142.694 120.327L138.06 112.3L142.694 104.273L151.962 104.273L156.597 112.3Z" fill="#F3F3F5" stroke="black" stroke-width="0.185371"/>
<path d="M156.597 128.353L151.962 136.379L142.694 136.379L138.06 128.353L142.694 120.326L151.962 120.326L156.597 128.353Z" fill="#F3F3F5" stroke="black" stroke-width="0.185371"/>
<path d="M156.597 144.405L151.962 152.432L142.694 152.432L138.06 144.405L142.694 136.378L151.962 136.378L156.597 144.405Z" fill="#F3F3F5" stroke="black" stroke-width="0.185371"/>
<path d="M156.597 160.458L151.962 168.485L142.694 168.485L138.06 160.458L142.694 152.431L151.962 152.431L156.597 160.458Z" fill="#F3F3F5" stroke="black" stroke-width="0.185371"/>
<path d="M156.597 176.513L151.962 184.54L142.694 184.54L138.06 176.513L142.694 168.486L151.962 168.486L156.597 176.513Z" fill="#F3F3F5" stroke="black" stroke-width="0.185371"/>
<path d="M156.597 192.565L151.962 200.592L142.694 200.592L138.06 192.565L142.694 184.539L151.962 184.539L156.597 192.565Z" fill="#F3F3F5" stroke="black" stroke-width="0.185371"/>
<path d="M156.597 208.618L151.962 216.645L142.694 216.645L138.06 208.618L142.694 200.591L151.962 200.591L156.597 208.618Z" fill="#F3F3F5" stroke="black" stroke-width="0.185371"/>
<path d="M156.597 224.671L151.962 232.698L142.694 232.698L138.06 224.671L142.694 216.644L151.962 216.644L156.597 224.671Z" fill="#F3F3F5" stroke="black" stroke-width="0.185371"/>
<path d="M156.597 240.726L151.962 248.752L142.694 248.752L138.06 240.726L142.694 232.699L151.962 232.699L156.597 240.726Z" fill="#F3F3F5" stroke="black" stroke-width="0.185371"/>
<path d="M128.791 -0.0732355L124.157 7.95357L114.888 7.95357L110.254 -0.0732363L114.888 -8.10005L124.157 -8.10005L128.791 -0.0732355Z" fill="#F3F3F5" stroke="black" stroke-width="0.185371"/>
<path d="M128.791 15.9815L124.157 24.0083L114.888 24.0083L110.254 15.9815L114.888 7.95464L124.157 7.95464L128.791 15.9815Z" fill="#F3F3F5" stroke="black" stroke-width="0.185371"/>
<path d="M128.791 32.0342L124.157 40.061L114.888 40.061L110.254 32.0342L114.888 24.0074L124.157 24.0074L128.791 32.0342Z" fill="#F3F3F5" stroke="black" stroke-width="0.185371"/>
<path d="M128.791 48.0869L124.157 56.1137L114.888 56.1137L110.254 48.0869L114.888 40.0601L124.157 40.0601L128.791 48.0869Z" fill="#F3F3F5" stroke="black" stroke-width="0.185371"/>
<path d="M128.791 64.1397L124.157 72.1665L114.888 72.1665L110.254 64.1397L114.888 56.1128L124.157 56.1128L128.791 64.1397Z" fill="#F3F3F5" stroke="black" stroke-width="0.185371"/>
<path d="M128.791 80.1924L124.157 88.2192L114.888 88.2192L110.254 80.1924L114.888 72.1656L124.157 72.1656L128.791 80.1924Z" fill="#F3F3F5" stroke="black" stroke-width="0.185371"/>
<path d="M128.791 96.2471L124.157 104.274L114.888 104.274L110.254 96.2471L114.888 88.2203L124.157 88.2203L128.791 96.2471Z" fill="#F3F3F5" stroke="black" stroke-width="0.185371"/>
<path d="M128.791 112.3L124.157 120.327L114.888 120.327L110.254 112.3L114.888 104.273L124.157 104.273L128.791 112.3Z" fill="#F3F3F5" stroke="black" stroke-width="0.185371"/>
<path d="M128.791 128.353L124.157 136.379L114.888 136.379L110.254 128.353L114.888 120.326L124.157 120.326L128.791 128.353Z" fill="#F3F3F5" stroke="black" stroke-width="0.185371"/>
<path d="M128.791 144.405L124.157 152.432L114.888 152.432L110.254 144.405L114.888 136.378L124.157 136.378L128.791 144.405Z" fill="#F3F3F5" stroke="black" stroke-width="0.185371"/>
<path d="M128.791 160.458L124.157 168.485L114.888 168.485L110.254 160.458L114.888 152.431L124.157 152.431L128.791 160.458Z" fill="#F3F3F5" stroke="black" stroke-width="0.185371"/>
<path d="M128.791 176.513L124.157 184.54L114.888 184.54L110.254 176.513L114.888 168.486L124.157 168.486L128.791 176.513Z" fill="#F3F3F5" stroke="black" stroke-width="0.185371"/>
<path d="M128.791 192.565L124.157 200.592L114.888 200.592L110.254 192.565L114.888 184.539L124.157 184.539L128.791 192.565Z" fill="#F3F3F5" stroke="black" stroke-width="0.185371"/>
<path d="M128.791 208.618L124.157 216.645L114.888 216.645L110.254 208.618L114.888 200.591L124.157 200.591L128.791 208.618Z" fill="#F3F3F5" stroke="black" stroke-width="0.185371"/>
<path d="M128.791 224.671L124.157 232.698L114.888 232.698L110.254 224.671L114.888 216.644L124.157 216.644L128.791 224.671Z" fill="#F3F3F5" stroke="black" stroke-width="0.185371"/>
<path d="M128.791 240.726L124.157 248.752L114.888 248.752L110.254 240.726L114.888 232.699L124.157 232.699L128.791 240.726Z" fill="#F3F3F5" stroke="black" stroke-width="0.185371"/>
<path d="M100.985 -0.0732355L96.3511 7.95357L87.0825 7.95357L82.4482 -0.0732363L87.0825 -8.10005L96.3511 -8.10005L100.985 -0.0732355Z" fill="#F3F3F5" stroke="black" stroke-width="0.185371"/>
<path d="M100.985 15.9815L96.3511 24.0083L87.0825 24.0083L82.4482 15.9815L87.0825 7.95464L96.3511 7.95464L100.985 15.9815Z" fill="#F3F3F5" stroke="black" stroke-width="0.185371"/>
<path d="M100.985 32.0342L96.3511 40.061L87.0825 40.061L82.4482 32.0342L87.0825 24.0074L96.3511 24.0074L100.985 32.0342Z" fill="#F3F3F5" stroke="black" stroke-width="0.185371"/>
<path d="M100.985 48.0869L96.3511 56.1137L87.0825 56.1137L82.4482 48.0869L87.0825 40.0601L96.3511 40.0601L100.985 48.0869Z" fill="#F3F3F5" stroke="black" stroke-width="0.185371"/>
<path d="M100.985 64.1397L96.3511 72.1665L87.0825 72.1665L82.4482 64.1397L87.0825 56.1128L96.3511 56.1128L100.985 64.1397Z" fill="#F3F3F5" stroke="black" stroke-width="0.185371"/>
<path d="M100.985 80.1924L96.3511 88.2192L87.0825 88.2192L82.4482 80.1924L87.0825 72.1656L96.3511 72.1656L100.985 80.1924Z" fill="#F3F3F5" stroke="black" stroke-width="0.185371"/>
<path d="M100.985 96.2471L96.3511 104.274L87.0825 104.274L82.4482 96.2471L87.0825 88.2203L96.3511 88.2203L100.985 96.2471Z" fill="#F3F3F5" stroke="black" stroke-width="0.185371"/>
<path d="M100.985 112.3L96.3511 120.327L87.0825 120.327L82.4482 112.3L87.0825 104.273L96.3511 104.273L100.985 112.3Z" fill="#F3F3F5" stroke="black" stroke-width="0.185371"/>
<path d="M100.985 128.353L96.3511 136.379L87.0825 136.379L82.4482 128.353L87.0825 120.326L96.3511 120.326L100.985 128.353Z" fill="#F3F3F5" stroke="black" stroke-width="0.185371"/>
<path d="M100.985 144.405L96.3511 152.432L87.0825 152.432L82.4482 144.405L87.0825 136.378L96.3511 136.378L100.985 144.405Z" fill="#F3F3F5" stroke="black" stroke-width="0.185371"/>
<path d="M100.985 160.458L96.3511 168.485L87.0825 168.485L82.4482 160.458L87.0825 152.431L96.3511 152.431L100.985 160.458Z" fill="#F3F3F5" stroke="black" stroke-width="0.185371"/>
<path d="M100.985 176.513L96.3511 184.54L87.0825 184.54L82.4482 176.513L87.0825 168.486L96.3511 168.486L100.985 176.513Z" fill="#F3F3F5" stroke="black" stroke-width="0.185371"/>
<path d="M100.985 192.565L96.3511 200.592L87.0825 200.592L82.4482 192.565L87.0825 184.539L96.3511 184.539L100.985 192.565Z" fill="#F3F3F5" stroke="black" stroke-width="0.185371"/>
<path d="M100.985 208.618L96.3511 216.645L87.0825 216.645L82.4482 208.618L87.0825 200.591L96.3511 200.591L100.985 208.618Z" fill="#F3F3F5" stroke="black" stroke-width="0.185371"/>
<path d="M100.985 224.671L96.3511 232.698L87.0825 232.698L82.4482 224.671L87.0825 216.644L96.3511 216.644L100.985 224.671Z" fill="#F3F3F5" stroke="black" stroke-width="0.185371"/>
<path d="M100.985 240.726L96.3511 248.752L87.0825 248.752L82.4482 240.726L87.0825 232.699L96.3511 232.699L100.985 240.726Z" fill="#F3F3F5" stroke="black" stroke-width="0.185371"/>
<path d="M73.1797 -0.0732355L68.5454 7.95357L59.2768 7.95357L54.6426 -0.0732363L59.2768 -8.10005L68.5454 -8.10005L73.1797 -0.0732355Z" fill="#F3F3F5" stroke="black" stroke-width="0.185371"/>
<path d="M73.1797 15.9815L68.5454 24.0083L59.2768 24.0083L54.6426 15.9815L59.2768 7.95464L68.5454 7.95464L73.1797 15.9815Z" fill="#F3F3F5" stroke="black" stroke-width="0.185371"/>
<path d="M73.1797 32.0342L68.5454 40.061L59.2768 40.061L54.6426 32.0342L59.2768 24.0074L68.5454 24.0074L73.1797 32.0342Z" fill="#F3F3F5" stroke="black" stroke-width="0.185371"/>
<path d="M73.1797 48.0869L68.5454 56.1137L59.2768 56.1137L54.6426 48.0869L59.2768 40.0601L68.5454 40.0601L73.1797 48.0869Z" fill="#F3F3F5" stroke="black" stroke-width="0.185371"/>
<path d="M73.1797 64.1397L68.5454 72.1665L59.2768 72.1665L54.6426 64.1397L59.2768 56.1128L68.5454 56.1128L73.1797 64.1397Z" fill="#F3F3F5" stroke="black" stroke-width="0.185371"/>
<path d="M73.1797 80.1924L68.5454 88.2192L59.2768 88.2192L54.6426 80.1924L59.2768 72.1656L68.5454 72.1656L73.1797 80.1924Z" fill="#F3F3F5" stroke="black" stroke-width="0.185371"/>
<path d="M73.1797 96.2471L68.5454 104.274L59.2768 104.274L54.6426 96.2471L59.2768 88.2203L68.5454 88.2203L73.1797 96.2471Z" fill="#F3F3F5" stroke="black" stroke-width="0.185371"/>
<path d="M73.1797 112.3L68.5454 120.327L59.2768 120.327L54.6426 112.3L59.2768 104.273L68.5454 104.273L73.1797 112.3Z" fill="#F3F3F5" stroke="black" stroke-width="0.185371"/>
<path d="M73.1797 128.353L68.5454 136.379L59.2768 136.379L54.6426 128.353L59.2768 120.326L68.5454 120.326L73.1797 128.353Z" fill="#F3F3F5" stroke="black" stroke-width="0.185371"/>
<path d="M73.1797 144.405L68.5454 152.432L59.2768 152.432L54.6426 144.405L59.2768 136.378L68.5454 136.378L73.1797 144.405Z" fill="#F3F3F5" stroke="black" stroke-width="0.185371"/>
<path d="M73.1797 160.458L68.5454 168.485L59.2768 168.485L54.6426 160.458L59.2768 152.431L68.5454 152.431L73.1797 160.458Z" fill="#F3F3F5" stroke="black" stroke-width="0.185371"/>
<path d="M73.1797 176.513L68.5454 184.54L59.2768 184.54L54.6426 176.513L59.2768 168.486L68.5454 168.486L73.1797 176.513Z" fill="#F3F3F5" stroke="black" stroke-width="0.185371"/>
<path d="M73.1797 192.565L68.5454 200.592L59.2768 200.592L54.6426 192.565L59.2768 184.539L68.5454 184.539L73.1797 192.565Z" fill="#F3F3F5" stroke="black" stroke-width="0.185371"/>
<path d="M73.1797 208.618L68.5454 216.645L59.2768 216.645L54.6426 208.618L59.2768 200.591L68.5454 200.591L73.1797 208.618Z" fill="#F3F3F5" stroke="black" stroke-width="0.185371"/>
<path d="M73.1797 224.671L68.5454 232.698L59.2768 232.698L54.6426 224.671L59.2768 216.644L68.5454 216.644L73.1797 224.671Z" fill="#F3F3F5" stroke="black" stroke-width="0.185371"/>
<path d="M73.1797 240.726L68.5454 248.752L59.2768 248.752L54.6426 240.726L59.2768 232.699L68.5454 232.699L73.1797 240.726Z" fill="#F3F3F5" stroke="black" stroke-width="0.185371"/>
<path d="M45.374 -0.0732355L40.7397 7.95357L31.4712 7.95357L26.8369 -0.0732363L31.4712 -8.10005L40.7397 -8.10005L45.374 -0.0732355Z" fill="#F3F3F5" stroke="black" stroke-width="0.185371"/>
<path d="M45.374 15.9815L40.7397 24.0083L31.4712 24.0083L26.8369 15.9815L31.4712 7.95464L40.7397 7.95464L45.374 15.9815Z" fill="#F3F3F5" stroke="black" stroke-width="0.185371"/>
<path d="M45.374 32.0342L40.7397 40.061L31.4712 40.061L26.8369 32.0342L31.4712 24.0074L40.7397 24.0074L45.374 32.0342Z" fill="#F3F3F5" stroke="black" stroke-width="0.185371"/>
<path d="M45.374 48.0869L40.7397 56.1137L31.4712 56.1137L26.8369 48.0869L31.4712 40.0601L40.7397 40.0601L45.374 48.0869Z" fill="#F3F3F5" stroke="black" stroke-width="0.185371"/>
<path d="M45.374 64.1397L40.7397 72.1665L31.4712 72.1665L26.8369 64.1397L31.4712 56.1128L40.7397 56.1128L45.374 64.1397Z" fill="#F3F3F5" stroke="black" stroke-width="0.185371"/>
<path d="M45.374 80.1924L40.7397 88.2192L31.4712 88.2192L26.8369 80.1924L31.4712 72.1656L40.7397 72.1656L45.374 80.1924Z" fill="#F3F3F5" stroke="black" stroke-width="0.185371"/>
<path d="M45.374 96.2471L40.7397 104.274L31.4712 104.274L26.8369 96.2471L31.4712 88.2203L40.7397 88.2203L45.374 96.2471Z" fill="#F3F3F5" stroke="black" stroke-width="0.185371"/>
<path d="M45.374 112.3L40.7397 120.327L31.4712 120.327L26.8369 112.3L31.4712 104.273L40.7397 104.273L45.374 112.3Z" fill="#F3F3F5" stroke="black" stroke-width="0.185371"/>
<path d="M45.374 128.353L40.7397 136.379L31.4712 136.379L26.8369 128.353L31.4712 120.326L40.7397 120.326L45.374 128.353Z" fill="#F3F3F5" stroke="black" stroke-width="0.185371"/>
<path d="M45.374 144.405L40.7397 152.432L31.4712 152.432L26.8369 144.405L31.4712 136.378L40.7397 136.378L45.374 144.405Z" fill="#F3F3F5" stroke="black" stroke-width="0.185371"/>
<path d="M45.374 160.458L40.7397 168.485L31.4712 168.485L26.8369 160.458L31.4712 152.431L40.7397 152.431L45.374 160.458Z" fill="#F3F3F5" stroke="black" stroke-width="0.185371"/>
<path d="M45.374 176.513L40.7397 184.54L31.4712 184.54L26.8369 176.513L31.4712 168.486L40.7397 168.486L45.374 176.513Z" fill="#F3F3F5" stroke="black" stroke-width="0.185371"/>
<path d="M45.374 192.565L40.7397 200.592L31.4712 200.592L26.8369 192.565L31.4712 184.539L40.7397 184.539L45.374 192.565Z" fill="#F3F3F5" stroke="black" stroke-width="0.185371"/>
<path d="M45.374 208.618L40.7397 216.645L31.4712 216.645L26.8369 208.618L31.4712 200.591L40.7397 200.591L45.374 208.618Z" fill="#F3F3F5" stroke="black" stroke-width="0.185371"/>
<path d="M45.374 224.671L40.7397 232.698L31.4712 232.698L26.8369 224.671L31.4712 216.644L40.7397 216.644L45.374 224.671Z" fill="#F3F3F5" stroke="black" stroke-width="0.185371"/>
<path d="M45.374 240.726L40.7397 248.752L31.4712 248.752L26.8369 240.726L31.4712 232.699L40.7397 232.699L45.374 240.726Z" fill="#F3F3F5" stroke="black" stroke-width="0.185371"/>
<path d="M17.5684 -0.0732355L12.9341 7.95357L3.66552 7.95357L-0.968764 -0.0732363L3.66552 -8.10005L12.9341 -8.10005L17.5684 -0.0732355Z" fill="#F3F3F5" stroke="black" stroke-width="0.185371"/>
<path d="M17.5684 15.9815L12.9341 24.0083L3.66552 24.0083L-0.968764 15.9815L3.66552 7.95464L12.9341 7.95464L17.5684 15.9815Z" fill="#F3F3F5" stroke="black" stroke-width="0.185371"/>
<path d="M17.5684 32.0342L12.9341 40.061L3.66552 40.061L-0.968764 32.0342L3.66552 24.0074L12.9341 24.0074L17.5684 32.0342Z" fill="#F3F3F5" stroke="black" stroke-width="0.185371"/>
<path d="M17.5684 48.0869L12.9341 56.1137L3.66552 56.1137L-0.968764 48.0869L3.66552 40.0601L12.9341 40.0601L17.5684 48.0869Z" fill="#F3F3F5" stroke="black" stroke-width="0.185371"/>
<path d="M17.5684 64.1397L12.9341 72.1665L3.66552 72.1665L-0.968764 64.1397L3.66552 56.1128L12.9341 56.1128L17.5684 64.1397Z" fill="#F3F3F5" stroke="black" stroke-width="0.185371"/>
<path d="M17.5684 80.1924L12.9341 88.2192L3.66552 88.2192L-0.968764 80.1924L3.66552 72.1656L12.9341 72.1656L17.5684 80.1924Z" fill="#F3F3F5" stroke="black" stroke-width="0.185371"/>
<path d="M17.5684 96.2471L12.9341 104.274L3.66552 104.274L-0.968764 96.2471L3.66552 88.2203L12.9341 88.2203L17.5684 96.2471Z" fill="#F3F3F5" stroke="black" stroke-width="0.185371"/>
<path d="M17.5684 112.3L12.9341 120.327L3.66552 120.327L-0.968764 112.3L3.66552 104.273L12.9341 104.273L17.5684 112.3Z" fill="#F3F3F5" stroke="black" stroke-width="0.185371"/>
<path d="M17.5684 128.353L12.9341 136.379L3.66552 136.379L-0.968764 128.353L3.66552 120.326L12.9341 120.326L17.5684 128.353Z" fill="#F3F3F5" stroke="black" stroke-width="0.185371"/>
<path d="M17.5684 144.405L12.9341 152.432L3.66552 152.432L-0.968764 144.405L3.66552 136.378L12.9341 136.378L17.5684 144.405Z" fill="#F3F3F5" stroke="black" stroke-width="0.185371"/>
<path d="M17.5684 160.458L12.9341 168.485L3.66552 168.485L-0.968764 160.458L3.66552 152.431L12.9341 152.431L17.5684 160.458Z" fill="#F3F3F5" stroke="black" stroke-width="0.185371"/>
<path d="M17.5684 176.513L12.9341 184.54L3.66552 184.54L-0.968764 176.513L3.66552 168.486L12.9341 168.486L17.5684 176.513Z" fill="#F3F3F5" stroke="black" stroke-width="0.185371"/>
<path d="M17.5684 192.565L12.9341 200.592L3.66552 200.592L-0.968764 192.565L3.66552 184.539L12.9341 184.539L17.5684 192.565Z" fill="#F3F3F5" stroke="black" stroke-width="0.185371"/>
<path d="M17.5684 208.618L12.9341 216.645L3.66552 216.645L-0.968764 208.618L3.66552 200.591L12.9341 200.591L17.5684 208.618Z" fill="#F3F3F5" stroke="black" stroke-width="0.185371"/>
<path d="M17.5684 224.671L12.9341 232.698L3.66552 232.698L-0.968764 224.671L3.66552 216.644L12.9341 216.644L17.5684 224.671Z" fill="#F3F3F5" stroke="black" stroke-width="0.185371"/>
<path d="M17.5684 240.726L12.9341 248.752L3.66552 248.752L-0.968764 240.726L3.66552 232.699L12.9341 232.699L17.5684 240.726Z" fill="#F3F3F5" stroke="black" stroke-width="0.185371"/>
<path d="M142.693 7.95411L138.059 15.9809L128.791 15.9809L124.156 7.95411L128.791 -0.0727021L138.059 -0.0727017L142.693 7.95411Z" fill="#F3F3F5" stroke="black" stroke-width="0.185371"/>
<path d="M142.693 24.0068L138.059 32.0337L128.791 32.0337L124.156 24.0068L128.791 15.98L138.059 15.98L142.693 24.0068Z" fill="#F3F3F5" stroke="black" stroke-width="0.185371"/>
<path d="M142.693 40.0596L138.059 48.0864L128.791 48.0864L124.156 40.0596L128.791 32.0328L138.059 32.0328L142.693 40.0596Z" fill="#F3F3F5" stroke="black" stroke-width="0.185371"/>
<path d="M142.693 56.1143L138.059 64.1411L128.791 64.1411L124.156 56.1143L128.791 48.0875L138.059 48.0875L142.693 56.1143Z" fill="#F3F3F5" stroke="black" stroke-width="0.185371"/>
<path d="M142.693 72.167L138.059 80.1938L128.791 80.1938L124.156 72.167L128.791 64.1402L138.059 64.1402L142.693 72.167Z" fill="#F3F3F5" stroke="black" stroke-width="0.185371"/>
<path d="M142.693 88.2197L138.059 96.2465L128.791 96.2465L124.156 88.2197L128.791 80.1929L138.059 80.1929L142.693 88.2197Z" fill="#F3F3F5" stroke="black" stroke-width="0.185371"/>
<path d="M142.693 104.272L138.059 112.299L128.791 112.299L124.156 104.272L128.791 96.2457L138.059 96.2457L142.693 104.272Z" fill="#F3F3F5" stroke="black" stroke-width="0.185371"/>
<path d="M142.693 120.325L138.059 128.352L128.791 128.352L124.156 120.325L128.791 112.298L138.059 112.298L142.693 120.325Z" fill="#F3F3F5" stroke="black" stroke-width="0.185371"/>
<path d="M142.693 136.38L138.059 144.407L128.791 144.407L124.156 136.38L128.791 128.353L138.059 128.353L142.693 136.38Z" fill="#F3F3F5" stroke="black" stroke-width="0.185371"/>
<path d="M142.693 152.433L138.059 160.459L128.791 160.459L124.156 152.433L128.791 144.406L138.059 144.406L142.693 152.433Z" fill="#F3F3F5" stroke="black" stroke-width="0.185371"/>
<path d="M142.693 168.485L138.059 176.512L128.791 176.512L124.156 168.485L128.791 160.459L138.059 160.459L142.693 168.485Z" fill="#F3F3F5" stroke="black" stroke-width="0.185371"/>
<path d="M142.693 184.538L138.059 192.565L128.791 192.565L124.156 184.538L128.791 176.511L138.059 176.511L142.693 184.538Z" fill="#F3F3F5" stroke="black" stroke-width="0.185371"/>
<path d="M142.693 200.591L138.059 208.618L128.791 208.618L124.156 200.591L128.791 192.564L138.059 192.564L142.693 200.591Z" fill="#F3F3F5" stroke="black" stroke-width="0.185371"/>
<path d="M142.693 216.646L138.059 224.672L128.791 224.672L124.156 216.646L128.791 208.619L138.059 208.619L142.693 216.646Z" fill="#F3F3F5" stroke="black" stroke-width="0.185371"/>
<path d="M142.693 232.698L138.059 240.725L128.791 240.725L124.156 232.698L128.791 224.671L138.059 224.671L142.693 232.698Z" fill="#F3F3F5" stroke="black" stroke-width="0.185371"/>
<path d="M142.693 248.751L138.059 256.778L128.791 256.778L124.156 248.751L128.791 240.724L138.059 240.724L142.693 248.751Z" fill="#F3F3F5" stroke="black" stroke-width="0.185371"/>
<path d="M114.888 7.95411L110.253 15.9809L100.985 15.9809L96.3506 7.95411L100.985 -0.0727021L110.253 -0.0727017L114.888 7.95411Z" fill="#F3F3F5" stroke="black" stroke-width="0.185371"/>
<path d="M114.888 24.0068L110.253 32.0337L100.985 32.0337L96.3506 24.0068L100.985 15.98L110.253 15.98L114.888 24.0068Z" fill="#F3F3F5" stroke="black" stroke-width="0.185371"/>
<path d="M114.888 40.0596L110.253 48.0864L100.985 48.0864L96.3506 40.0596L100.985 32.0328L110.253 32.0328L114.888 40.0596Z" fill="#F3F3F5" stroke="black" stroke-width="0.185371"/>
<path d="M114.888 56.1143L110.253 64.1411L100.985 64.1411L96.3506 56.1143L100.985 48.0875L110.253 48.0875L114.888 56.1143Z" fill="#F3F3F5" stroke="black" stroke-width="0.185371"/>
<path d="M114.888 72.167L110.253 80.1938L100.985 80.1938L96.3506 72.167L100.985 64.1402L110.253 64.1402L114.888 72.167Z" fill="#F3F3F5" stroke="black" stroke-width="0.185371"/>
<path d="M114.888 88.2197L110.253 96.2465L100.985 96.2465L96.3506 88.2197L100.985 80.1929L110.253 80.1929L114.888 88.2197Z" fill="#F3F3F5" stroke="black" stroke-width="0.185371"/>
<path d="M114.888 104.272L110.253 112.299L100.985 112.299L96.3506 104.272L100.985 96.2457L110.253 96.2457L114.888 104.272Z" fill="#F3F3F5" stroke="black" stroke-width="0.185371"/>
<path d="M114.888 120.325L110.253 128.352L100.985 128.352L96.3506 120.325L100.985 112.298L110.253 112.298L114.888 120.325Z" fill="#F3F3F5" stroke="black" stroke-width="0.185371"/>
<path d="M114.888 136.38L110.253 144.407L100.985 144.407L96.3506 136.38L100.985 128.353L110.253 128.353L114.888 136.38Z" fill="#F3F3F5" stroke="black" stroke-width="0.185371"/>
<path d="M114.888 152.433L110.253 160.459L100.985 160.459L96.3506 152.433L100.985 144.406L110.253 144.406L114.888 152.433Z" fill="#F3F3F5" stroke="black" stroke-width="0.185371"/>
<path d="M114.888 168.485L110.253 176.512L100.985 176.512L96.3506 168.485L100.985 160.459L110.253 160.459L114.888 168.485Z" fill="#F3F3F5" stroke="black" stroke-width="0.185371"/>
<path d="M114.888 184.538L110.253 192.565L100.985 192.565L96.3506 184.538L100.985 176.511L110.253 176.511L114.888 184.538Z" fill="#F3F3F5" stroke="black" stroke-width="0.185371"/>
<path d="M114.888 200.591L110.253 208.618L100.985 208.618L96.3506 200.591L100.985 192.564L110.253 192.564L114.888 200.591Z" fill="#F3F3F5" stroke="black" stroke-width="0.185371"/>
<path d="M114.888 216.646L110.253 224.672L100.985 224.672L96.3506 216.646L100.985 208.619L110.253 208.619L114.888 216.646Z" fill="#F3F3F5" stroke="black" stroke-width="0.185371"/>
<path d="M114.888 232.698L110.253 240.725L100.985 240.725L96.3506 232.698L100.985 224.671L110.253 224.671L114.888 232.698Z" fill="#F3F3F5" stroke="black" stroke-width="0.185371"/>
<path d="M114.888 248.751L110.253 256.778L100.985 256.778L96.3506 248.751L100.985 240.724L110.253 240.724L114.888 248.751Z" fill="#F3F3F5" stroke="black" stroke-width="0.185371"/>
<path d="M87.082 7.95411L82.4477 15.9809L73.1792 15.9809L68.5449 7.95411L73.1792 -0.0727021L82.4478 -0.0727017L87.082 7.95411Z" fill="#F3F3F5" stroke="black" stroke-width="0.185371"/>
<path d="M87.082 24.0068L82.4477 32.0337L73.1792 32.0337L68.5449 24.0068L73.1792 15.98L82.4478 15.98L87.082 24.0068Z" fill="#F3F3F5" stroke="black" stroke-width="0.185371"/>
<path d="M87.082 40.0596L82.4477 48.0864L73.1792 48.0864L68.5449 40.0596L73.1792 32.0328L82.4478 32.0328L87.082 40.0596Z" fill="#F3F3F5" stroke="black" stroke-width="0.185371"/>
<path d="M87.082 56.1143L82.4477 64.1411L73.1792 64.1411L68.5449 56.1143L73.1792 48.0875L82.4478 48.0875L87.082 56.1143Z" fill="#F3F3F5" stroke="black" stroke-width="0.185371"/>
<path d="M87.082 72.167L82.4477 80.1938L73.1792 80.1938L68.5449 72.167L73.1792 64.1402L82.4478 64.1402L87.082 72.167Z" fill="#F3F3F5" stroke="black" stroke-width="0.185371"/>
<path d="M87.082 88.2197L82.4477 96.2465L73.1792 96.2465L68.5449 88.2197L73.1792 80.1929L82.4478 80.1929L87.082 88.2197Z" fill="#F3F3F5" stroke="black" stroke-width="0.185371"/>
<path d="M87.082 104.272L82.4477 112.299L73.1792 112.299L68.5449 104.272L73.1792 96.2457L82.4478 96.2457L87.082 104.272Z" fill="#F3F3F5" stroke="black" stroke-width="0.185371"/>
<path d="M87.082 120.325L82.4477 128.352L73.1792 128.352L68.5449 120.325L73.1792 112.298L82.4478 112.298L87.082 120.325Z" fill="#F3F3F5" stroke="black" stroke-width="0.185371"/>
<path d="M87.082 136.38L82.4477 144.407L73.1792 144.407L68.5449 136.38L73.1792 128.353L82.4478 128.353L87.082 136.38Z" fill="#F3F3F5" stroke="black" stroke-width="0.185371"/>
<path d="M87.082 152.433L82.4477 160.459L73.1792 160.459L68.5449 152.433L73.1792 144.406L82.4478 144.406L87.082 152.433Z" fill="#F3F3F5" stroke="black" stroke-width="0.185371"/>
<path d="M87.082 168.485L82.4477 176.512L73.1792 176.512L68.5449 168.485L73.1792 160.459L82.4478 160.459L87.082 168.485Z" fill="#F3F3F5" stroke="black" stroke-width="0.185371"/>
<path d="M87.082 184.538L82.4477 192.565L73.1792 192.565L68.5449 184.538L73.1792 176.511L82.4478 176.511L87.082 184.538Z" fill="#F3F3F5" stroke="black" stroke-width="0.185371"/>
<path d="M87.082 200.591L82.4477 208.618L73.1792 208.618L68.5449 200.591L73.1792 192.564L82.4478 192.564L87.082 200.591Z" fill="#F3F3F5" stroke="black" stroke-width="0.185371"/>
<path d="M87.082 216.646L82.4477 224.672L73.1792 224.672L68.5449 216.646L73.1792 208.619L82.4478 208.619L87.082 216.646Z" fill="#F3F3F5" stroke="black" stroke-width="0.185371"/>
<path d="M87.082 232.698L82.4477 240.725L73.1792 240.725L68.5449 232.698L73.1792 224.671L82.4478 224.671L87.082 232.698Z" fill="#F3F3F5" stroke="black" stroke-width="0.185371"/>
<path d="M87.082 248.751L82.4477 256.778L73.1792 256.778L68.5449 248.751L73.1792 240.724L82.4478 240.724L87.082 248.751Z" fill="#F3F3F5" stroke="black" stroke-width="0.185371"/>
<path d="M59.2764 7.95411L54.6421 15.9809L45.3735 15.9809L40.7392 7.95411L45.3735 -0.0727021L54.6421 -0.0727017L59.2764 7.95411Z" fill="#F3F3F5" stroke="black" stroke-width="0.185371"/>
<path d="M59.2764 24.0068L54.6421 32.0337L45.3735 32.0337L40.7392 24.0068L45.3735 15.98L54.6421 15.98L59.2764 24.0068Z" fill="#F3F3F5" stroke="black" stroke-width="0.185371"/>
<path d="M59.2764 40.0596L54.6421 48.0864L45.3735 48.0864L40.7392 40.0596L45.3735 32.0328L54.6421 32.0328L59.2764 40.0596Z" fill="#F3F3F5" stroke="black" stroke-width="0.185371"/>
<path d="M59.2764 56.1143L54.6421 64.1411L45.3735 64.1411L40.7392 56.1143L45.3735 48.0875L54.6421 48.0875L59.2764 56.1143Z" fill="#F3F3F5" stroke="black" stroke-width="0.185371"/>
<path d="M59.2764 72.167L54.6421 80.1938L45.3735 80.1938L40.7392 72.167L45.3735 64.1402L54.6421 64.1402L59.2764 72.167Z" fill="#F3F3F5" stroke="black" stroke-width="0.185371"/>
<path d="M59.2764 88.2197L54.6421 96.2465L45.3735 96.2465L40.7392 88.2197L45.3735 80.1929L54.6421 80.1929L59.2764 88.2197Z" fill="#F3F3F5" stroke="black" stroke-width="0.185371"/>
<path d="M59.2764 104.272L54.6421 112.299L45.3735 112.299L40.7392 104.272L45.3735 96.2457L54.6421 96.2457L59.2764 104.272Z" fill="#F3F3F5" stroke="black" stroke-width="0.185371"/>
<path d="M59.2764 120.325L54.6421 128.352L45.3735 128.352L40.7392 120.325L45.3735 112.298L54.6421 112.298L59.2764 120.325Z" fill="#F3F3F5" stroke="black" stroke-width="0.185371"/>
<path d="M59.2764 136.38L54.6421 144.407L45.3735 144.407L40.7392 136.38L45.3735 128.353L54.6421 128.353L59.2764 136.38Z" fill="#F3F3F5" stroke="black" stroke-width="0.185371"/>
<path d="M59.2764 152.433L54.6421 160.459L45.3735 160.459L40.7392 152.433L45.3735 144.406L54.6421 144.406L59.2764 152.433Z" fill="#F3F3F5" stroke="black" stroke-width="0.185371"/>
<path d="M59.2764 168.485L54.6421 176.512L45.3735 176.512L40.7392 168.485L45.3735 160.459L54.6421 160.459L59.2764 168.485Z" fill="#F3F3F5" stroke="black" stroke-width="0.185371"/>
<path d="M59.2764 184.538L54.6421 192.565L45.3735 192.565L40.7392 184.538L45.3735 176.511L54.6421 176.511L59.2764 184.538Z" fill="#F3F3F5" stroke="black" stroke-width="0.185371"/>
<path d="M59.2764 200.591L54.6421 208.618L45.3735 208.618L40.7392 200.591L45.3735 192.564L54.6421 192.564L59.2764 200.591Z" fill="#F3F3F5" stroke="black" stroke-width="0.185371"/>
<path d="M59.2764 216.646L54.6421 224.672L45.3735 224.672L40.7392 216.646L45.3735 208.619L54.6421 208.619L59.2764 216.646Z" fill="#F3F3F5" stroke="black" stroke-width="0.185371"/>
<path d="M59.2764 232.698L54.6421 240.725L45.3735 240.725L40.7392 232.698L45.3735 224.671L54.6421 224.671L59.2764 232.698Z" fill="#F3F3F5" stroke="black" stroke-width="0.185371"/>
<path d="M59.2764 248.751L54.6421 256.778L45.3735 256.778L40.7392 248.751L45.3735 240.724L54.6421 240.724L59.2764 248.751Z" fill="#F3F3F5" stroke="black" stroke-width="0.185371"/>
<path d="M31.4707 7.95411L26.8364 15.9809L17.5679 15.9809L12.9336 7.95411L17.5679 -0.0727021L26.8364 -0.0727017L31.4707 7.95411Z" fill="#F3F3F5" stroke="black" stroke-width="0.185371"/>
<path d="M31.4707 24.0068L26.8364 32.0337L17.5679 32.0337L12.9336 24.0068L17.5679 15.98L26.8364 15.98L31.4707 24.0068Z" fill="#F3F3F5" stroke="black" stroke-width="0.185371"/>
<path d="M31.4707 40.0596L26.8364 48.0864L17.5679 48.0864L12.9336 40.0596L17.5679 32.0328L26.8364 32.0328L31.4707 40.0596Z" fill="#F3F3F5" stroke="black" stroke-width="0.185371"/>
<path d="M31.4707 56.1143L26.8364 64.1411L17.5679 64.1411L12.9336 56.1143L17.5679 48.0875L26.8364 48.0875L31.4707 56.1143Z" fill="#F3F3F5" stroke="black" stroke-width="0.185371"/>
<path d="M31.4707 72.167L26.8364 80.1938L17.5679 80.1938L12.9336 72.167L17.5679 64.1402L26.8364 64.1402L31.4707 72.167Z" fill="#F3F3F5" stroke="black" stroke-width="0.185371"/>
<path d="M31.4707 88.2197L26.8364 96.2465L17.5679 96.2465L12.9336 88.2197L17.5679 80.1929L26.8364 80.1929L31.4707 88.2197Z" fill="#F3F3F5" stroke="black" stroke-width="0.185371"/>
<path d="M31.4707 104.272L26.8364 112.299L17.5679 112.299L12.9336 104.272L17.5679 96.2457L26.8364 96.2457L31.4707 104.272Z" fill="#F3F3F5" stroke="black" stroke-width="0.185371"/>
<path d="M31.4707 120.325L26.8364 128.352L17.5679 128.352L12.9336 120.325L17.5679 112.298L26.8364 112.298L31.4707 120.325Z" fill="#F3F3F5" stroke="black" stroke-width="0.185371"/>
<path d="M31.4707 136.38L26.8364 144.407L17.5679 144.407L12.9336 136.38L17.5679 128.353L26.8364 128.353L31.4707 136.38Z" fill="#F3F3F5" stroke="black" stroke-width="0.185371"/>
<path d="M31.4707 152.433L26.8364 160.459L17.5679 160.459L12.9336 152.433L17.5679 144.406L26.8364 144.406L31.4707 152.433Z" fill="#F3F3F5" stroke="black" stroke-width="0.185371"/>
<path d="M31.4707 168.485L26.8364 176.512L17.5679 176.512L12.9336 168.485L17.5679 160.459L26.8364 160.459L31.4707 168.485Z" fill="#F3F3F5" stroke="black" stroke-width="0.185371"/>
<path d="M31.4707 184.538L26.8364 192.565L17.5679 192.565L12.9336 184.538L17.5679 176.511L26.8364 176.511L31.4707 184.538Z" fill="#F3F3F5" stroke="black" stroke-width="0.185371"/>
<path d="M31.4707 200.591L26.8364 208.618L17.5679 208.618L12.9336 200.591L17.5679 192.564L26.8364 192.564L31.4707 200.591Z" fill="#F3F3F5" stroke="black" stroke-width="0.185371"/>
<path d="M31.4707 216.646L26.8364 224.672L17.5679 224.672L12.9336 216.646L17.5679 208.619L26.8364 208.619L31.4707 216.646Z" fill="#F3F3F5" stroke="black" stroke-width="0.185371"/>
<path d="M31.4707 232.698L26.8364 240.725L17.5679 240.725L12.9336 232.698L17.5679 224.671L26.8364 224.671L31.4707 232.698Z" fill="#F3F3F5" stroke="black" stroke-width="0.185371"/>
<path d="M31.4707 248.751L26.8364 256.778L17.5679 256.778L12.9336 248.751L17.5679 240.724L26.8364 240.724L31.4707 248.751Z" fill="#F3F3F5" stroke="black" stroke-width="0.185371"/>
<path d="M3.66504 7.95411L-0.969242 15.9809L-10.2378 15.9809L-14.8721 7.95411L-10.2378 -0.0727021L-0.969242 -0.0727017L3.66504 7.95411Z" fill="#F3F3F5" stroke="black" stroke-width="0.185371"/>
<path d="M3.66504 24.0068L-0.969242 32.0337L-10.2378 32.0337L-14.8721 24.0068L-10.2378 15.98L-0.969242 15.98L3.66504 24.0068Z" fill="#F3F3F5" stroke="black" stroke-width="0.185371"/>
<path d="M3.66504 40.0596L-0.969242 48.0864L-10.2378 48.0864L-14.8721 40.0596L-10.2378 32.0328L-0.969242 32.0328L3.66504 40.0596Z" fill="#F3F3F5" stroke="black" stroke-width="0.185371"/>
<path d="M3.66504 56.1143L-0.969242 64.1411L-10.2378 64.1411L-14.8721 56.1143L-10.2378 48.0875L-0.969242 48.0875L3.66504 56.1143Z" fill="#F3F3F5" stroke="black" stroke-width="0.185371"/>
<path d="M3.66504 72.167L-0.969242 80.1938L-10.2378 80.1938L-14.8721 72.167L-10.2378 64.1402L-0.969242 64.1402L3.66504 72.167Z" fill="#F3F3F5" stroke="black" stroke-width="0.185371"/>
<path d="M3.66504 88.2197L-0.969242 96.2465L-10.2378 96.2465L-14.8721 88.2197L-10.2378 80.1929L-0.969242 80.1929L3.66504 88.2197Z" fill="#F3F3F5" stroke="black" stroke-width="0.185371"/>
<path d="M3.66504 104.272L-0.969242 112.299L-10.2378 112.299L-14.8721 104.272L-10.2378 96.2457L-0.969242 96.2457L3.66504 104.272Z" fill="#F3F3F5" stroke="black" stroke-width="0.185371"/>
<path d="M3.66504 120.325L-0.969242 128.352L-10.2378 128.352L-14.8721 120.325L-10.2378 112.298L-0.969242 112.298L3.66504 120.325Z" fill="#F3F3F5" stroke="black" stroke-width="0.185371"/>
<path d="M3.66504 136.38L-0.969242 144.407L-10.2378 144.407L-14.8721 136.38L-10.2378 128.353L-0.969242 128.353L3.66504 136.38Z" fill="#F3F3F5" stroke="black" stroke-width="0.185371"/>
<path d="M3.66504 152.433L-0.969242 160.459L-10.2378 160.459L-14.8721 152.433L-10.2378 144.406L-0.969242 144.406L3.66504 152.433Z" fill="#F3F3F5" stroke="black" stroke-width="0.185371"/>
<path d="M3.66504 168.485L-0.969242 176.512L-10.2378 176.512L-14.8721 168.485L-10.2378 160.459L-0.969242 160.459L3.66504 168.485Z" fill="#F3F3F5" stroke="black" stroke-width="0.185371"/>
<path d="M3.66504 184.538L-0.969242 192.565L-10.2378 192.565L-14.8721 184.538L-10.2378 176.511L-0.969242 176.511L3.66504 184.538Z" fill="#F3F3F5" stroke="black" stroke-width="0.185371"/>
<path d="M3.66504 200.591L-0.969242 208.618L-10.2378 208.618L-14.8721 200.591L-10.2378 192.564L-0.969242 192.564L3.66504 200.591Z" fill="#F3F3F5" stroke="black" stroke-width="0.185371"/>
<path d="M3.66504 216.646L-0.969242 224.672L-10.2378 224.672L-14.8721 216.646L-10.2378 208.619L-0.969242 208.619L3.66504 216.646Z" fill="#F3F3F5" stroke="black" stroke-width="0.185371"/>
<path d="M3.66504 232.698L-0.969242 240.725L-10.2378 240.725L-14.8721 232.698L-10.2378 224.671L-0.969242 224.671L3.66504 232.698Z" fill="#F3F3F5" stroke="black" stroke-width="0.185371"/>
<path d="M3.66504 248.751L-0.969242 256.778L-10.2378 256.778L-14.8721 248.751L-10.2378 240.724L-0.969242 240.724L3.66504 248.751Z" fill="#F3F3F5" stroke="black" stroke-width="0.185371"/>
</g>
<path d="M256.97 77.4395L256.97 79.0973L140.919 79.0973L140.919 77.4394L256.97 77.4395Z" fill="black"/>
<path d="M256.97 309.846L256.97 308.188L140.919 308.188L140.919 309.846L256.97 309.846Z" fill="black"/>
<path d="M256.97 79.3902C256.97 79.3902 256.97 73.5825 256.97 84.3638C256.97 95.1451 159.984 90.9953 158.327 111.719L158.327 188.818" stroke="black" stroke-width="1.65787"/>
<path d="M256.97 307.895C256.97 307.895 256.97 313.703 256.97 302.921C256.97 292.14 159.984 296.29 158.327 275.567L158.327 198.467" stroke="black" stroke-width="1.65787"/>
<rect x="140.919" y="1.17773" width="188.997" height="1.65787" transform="rotate(90 140.919 1.17773)" fill="#FA5F1C"/>
<rect x="1.6582" y="1.17773" width="150.866" height="1.65787" transform="rotate(90 1.6582 1.17773)" fill="#FA5F1C"/>
<path d="M140.919 196.807L140.919 443.829L139.261 443.829L139.261 196.807L140.919 196.807Z" fill="#FA5F1C"/>
<path d="M1.6582 196.807L1.65819 443.829L0.0003243 443.829L0.000335097 196.807L1.6582 196.807Z" fill="#FA5F1C"/>
<path d="M0.828928 196.805L0.828929 162.819L3.31573 160.332L13.2629 160.332L17.4076 164.477L17.4076 171.108L18.2365 237.423L19.8944 240.739L20.7233 241.568L29.0127 241.568L30.6706 239.91L30.6706 228.305L116.051 228.305L119.366 238.252L122.682 246.541L125.169 248.199L129.314 246.541L129.314 215.042L130.972 213.384L140.09 213.384" stroke="#FA5F1C" stroke-width="1.65787"/>
<path d="M1.65837 239.91L1.65837 243.226L29.8421 243.226L31.5 239.91L1.65837 239.91Z" fill="#FA5F1C"/>
<path d="M0.82869 151.215L4.14443 155.36L7.46016 157.017L9.11803 160.333L17.4074 161.991L20.7231 164.478L23.2099 169.451L27.3546 172.767L33.986 173.596L38.1307 174.425L42.2754 178.57L42.2754 208.411L39.7886 209.24L37.3018 210.898L33.986 212.556L31.4992 215.043L31.4992 228.306" stroke="#FA5F1C" stroke-width="1.65787"/>
<path d="M42.2754 181.057L42.2754 205.925" stroke="black" stroke-width="1.65787"/>
<path d="M42.2754 181.885L37.3018 181.885L37.3018 205.095L42.2754 205.095" stroke="black" stroke-width="1.65787"/>
<path d="M37.3018 186.029L30.6703 186.029L30.6703 200.95L37.3018 200.95" stroke="black" stroke-width="1.65787"/>
<path d="M37.3018 197.635L30.6703 197.635" stroke="black" stroke-width="1.65787"/>
<path d="M37.3018 189.346L30.6703 189.346" stroke="black" stroke-width="1.65787"/>
<path d="M42.2757 191.004L200.602 191.004L203.089 193.491L200.602 195.978L42.2757 195.978" stroke="black" stroke-width="1.65787"/>
<path d="M178.221 188.518L174.076 198.465" stroke="black" stroke-width="1.65787"/>
<path d="M173.247 188.518L169.102 198.465" stroke="black" stroke-width="1.65787"/>
<path d="M168.273 188.518L164.129 198.465" stroke="black" stroke-width="1.65787"/>
<path d="M163.3 188.518L159.155 198.465" stroke="black" stroke-width="1.65787"/>
<path d="M158.326 188.518L154.182 198.465" stroke="black" stroke-width="1.65787"/>
<path d="M153.353 188.518L149.208 198.465" stroke="black" stroke-width="1.65787"/>
<path d="M148.379 188.518L144.234 198.465" stroke="black" stroke-width="1.65787"/>
<path d="M143.405 188.518L139.261 198.465" stroke="black" stroke-width="1.65787"/>
<path d="M138.433 188.518L134.288 198.465" stroke="black" stroke-width="1.65787"/>
<path d="M133.459 188.518L129.314 198.465" stroke="black" stroke-width="1.65787"/>
<path d="M128.485 188.518L124.341 198.465" stroke="black" stroke-width="1.65787"/>
<path d="M60.5127 188.518L56.368 198.465" stroke="black" stroke-width="1.65787"/>
<path d="M55.5391 188.518L51.3944 198.465" stroke="black" stroke-width="1.65787"/>
<path d="M50.5654 188.518L46.4208 198.465" stroke="black" stroke-width="1.65787"/>
<path d="M45.5918 188.518L42.531 195.863" stroke="black" stroke-width="1.65787"/>
<path opacity="0.2" d="M140.09 443.828L128.485 432.223L116.88 443.828L105.275 432.223L93.6695 443.828L82.0645 432.223L70.4594 443.828L58.8543 432.223L47.2492 443.828L35.6442 432.223L24.0391 443.828L12.434 432.223L0.828929 443.828" stroke="black" stroke-width="1.65787"/>
<path opacity="0.2" d="M140.09 1.17813L128.485 12.7832L116.88 1.17813L105.275 12.7832L93.6695 1.17813L82.0645 12.7832L70.4594 1.17813L58.8543 12.7832L47.2492 1.17813L35.6442 12.7832L24.0391 1.17813L12.434 12.7832L0.82893 1.17813" stroke="black" stroke-width="1.65787"/>
</svg>
