<svg width="286" height="446" viewBox="0 0 286 446" fill="none" xmlns="http://www.w3.org/2000/svg">
<mask id="mask0_688_14527" style="mask-type:alpha" maskUnits="userSpaceOnUse" x="106" y="2" width="163" height="215">
<path d="M268.574 2.8451L257.555 13.864L256.969 14.4502L256.383 13.864L245.364 2.8451L234.345 13.864L233.759 14.4502L233.173 13.864L222.154 2.84509L211.135 13.864L210.549 14.4502L209.963 13.864L198.944 2.84509L187.925 13.864L187.339 14.4502L186.753 13.864L175.734 2.84509L164.715 13.864L164.129 14.4502L163.542 13.864L152.524 2.84508L141.505 13.864L140.918 14.4502L140.332 13.864L129.313 2.84508L118.294 13.864L117.708 14.4502L117.122 13.864L106.103 2.84508L106.103 216.367L118.537 216.367L118.537 180.722L118.537 180.075L119.165 179.918L119.167 179.918L119.17 179.917L119.181 179.914L119.215 179.906C119.245 179.899 119.286 179.89 119.34 179.878C119.446 179.855 119.598 179.824 119.79 179.79C120.174 179.721 120.718 179.64 121.37 179.585C122.666 179.477 124.422 179.474 126.199 179.918C126.585 180.015 126.922 180.24 127.204 180.489C127.492 180.743 127.772 181.065 128.041 181.427C128.581 182.15 129.136 183.107 129.689 184.193C130.798 186.371 131.951 189.176 132.99 191.931C134.032 194.691 134.968 197.423 135.644 199.462C135.982 200.483 136.255 201.331 136.443 201.925L136.554 202.275L174.076 202.275L200.602 202.275L238.123 202.275L238.234 201.925C238.423 201.331 238.696 200.483 239.034 199.463C239.709 197.423 240.646 194.691 241.687 191.931C242.727 189.176 243.879 186.371 244.988 184.193C245.541 183.107 246.097 182.15 246.636 181.427C246.906 181.065 247.185 180.743 247.474 180.489C247.755 180.24 248.092 180.015 248.479 179.918C250.255 179.474 252.012 179.477 253.308 179.586C253.959 179.64 254.503 179.721 254.887 179.79C255.079 179.824 255.232 179.855 255.338 179.878L255.418 179.896L255.462 179.906L255.497 179.914L255.507 179.917L255.51 179.918L255.512 179.918L256.14 180.075L256.14 180.722L256.14 216.367L268.574 216.367L268.574 2.8451Z" fill="#D9D9D9"/>
</mask>
<g mask="url(#mask0_688_14527)">
<path d="M102.031 216.964L106.666 208.937L115.934 208.937L120.568 216.964L115.934 224.991L106.666 224.991L102.031 216.964Z" fill="#F3F3F5" stroke="black" stroke-width="0.185371"/>
<path d="M102.031 200.91L106.666 192.883L115.934 192.883L120.568 200.91L115.934 208.937L106.666 208.937L102.031 200.91Z" fill="#F3F3F5" stroke="black" stroke-width="0.185371"/>
<path d="M102.031 184.857L106.666 176.831L115.934 176.831L120.568 184.857L115.934 192.884L106.666 192.884L102.031 184.857Z" fill="#F3F3F5" stroke="black" stroke-width="0.185371"/>
<path d="M102.031 168.805L106.666 160.778L115.934 160.778L120.568 168.805L115.934 176.831L106.666 176.831L102.031 168.805Z" fill="#F3F3F5" stroke="black" stroke-width="0.185371"/>
<path d="M102.031 152.751L106.666 144.724L115.934 144.724L120.568 152.751L115.934 160.778L106.666 160.778L102.031 152.751Z" fill="#F3F3F5" stroke="black" stroke-width="0.185371"/>
<path d="M102.031 136.698L106.666 128.671L115.934 128.671L120.568 136.698L115.934 144.725L106.666 144.725L102.031 136.698Z" fill="#F3F3F5" stroke="black" stroke-width="0.185371"/>
<path d="M102.031 120.645L106.666 112.618L115.934 112.618L120.568 120.645L115.934 128.671L106.666 128.671L102.031 120.645Z" fill="#F3F3F5" stroke="black" stroke-width="0.185371"/>
<path d="M102.031 104.592L106.666 96.565L115.934 96.565L120.568 104.592L115.934 112.619L106.666 112.619L102.031 104.592Z" fill="#F3F3F5" stroke="black" stroke-width="0.185371"/>
<path d="M102.031 88.5381L106.666 80.5113L115.934 80.5113L120.568 88.5381L115.934 96.5649L106.666 96.5649L102.031 88.5381Z" fill="#F3F3F5" stroke="black" stroke-width="0.185371"/>
<path d="M102.031 72.4853L106.666 64.4585L115.934 64.4585L120.568 72.4853L115.934 80.5122L106.666 80.5122L102.031 72.4853Z" fill="#F3F3F5" stroke="black" stroke-width="0.185371"/>
<path d="M102.031 56.4326L106.666 48.4058L115.934 48.4058L120.568 56.4326L115.934 64.4594L106.666 64.4594L102.031 56.4326Z" fill="#F3F3F5" stroke="black" stroke-width="0.185371"/>
<path d="M102.031 40.3789L106.666 32.3521L115.934 32.3521L120.568 40.3789L115.934 48.4057L106.666 48.4057L102.031 40.3789Z" fill="#F3F3F5" stroke="black" stroke-width="0.185371"/>
<path d="M102.031 24.3262L106.666 16.2994L115.934 16.2994L120.568 24.3262L115.934 32.353L106.666 32.353L102.031 24.3262Z" fill="#F3F3F5" stroke="black" stroke-width="0.185371"/>
<path d="M102.031 8.27245L106.666 0.245644L115.934 0.245645L120.568 8.27246L115.934 16.2993L106.666 16.2993L102.031 8.27245Z" fill="#F3F3F5" stroke="black" stroke-width="0.185371"/>
<path d="M129.837 216.964L134.471 208.937L143.74 208.937L148.374 216.964L143.74 224.991L134.471 224.991L129.837 216.964Z" fill="#F3F3F5" stroke="black" stroke-width="0.185371"/>
<path d="M129.837 200.91L134.471 192.883L143.74 192.883L148.374 200.91L143.74 208.937L134.471 208.937L129.837 200.91Z" fill="#F3F3F5" stroke="black" stroke-width="0.185371"/>
<path d="M129.837 184.857L134.471 176.831L143.74 176.831L148.374 184.857L143.74 192.884L134.471 192.884L129.837 184.857Z" fill="#F3F3F5" stroke="black" stroke-width="0.185371"/>
<path d="M129.837 168.805L134.471 160.778L143.74 160.778L148.374 168.805L143.74 176.831L134.471 176.831L129.837 168.805Z" fill="#F3F3F5" stroke="black" stroke-width="0.185371"/>
<path d="M129.837 152.751L134.471 144.724L143.74 144.724L148.374 152.751L143.74 160.778L134.471 160.778L129.837 152.751Z" fill="#F3F3F5" stroke="black" stroke-width="0.185371"/>
<path d="M129.837 136.698L134.471 128.671L143.74 128.671L148.374 136.698L143.74 144.725L134.471 144.725L129.837 136.698Z" fill="#F3F3F5" stroke="black" stroke-width="0.185371"/>
<path d="M129.837 120.645L134.471 112.618L143.74 112.618L148.374 120.645L143.74 128.671L134.471 128.671L129.837 120.645Z" fill="#F3F3F5" stroke="black" stroke-width="0.185371"/>
<path d="M129.837 104.592L134.471 96.565L143.74 96.565L148.374 104.592L143.74 112.619L134.471 112.619L129.837 104.592Z" fill="#F3F3F5" stroke="black" stroke-width="0.185371"/>
<path d="M129.837 88.5381L134.471 80.5113L143.74 80.5113L148.374 88.5381L143.74 96.5649L134.471 96.5649L129.837 88.5381Z" fill="#F3F3F5" stroke="black" stroke-width="0.185371"/>
<path d="M129.837 72.4853L134.471 64.4585L143.74 64.4585L148.374 72.4853L143.74 80.5122L134.471 80.5122L129.837 72.4853Z" fill="#F3F3F5" stroke="black" stroke-width="0.185371"/>
<path d="M129.837 56.4326L134.471 48.4058L143.74 48.4058L148.374 56.4326L143.74 64.4594L134.471 64.4594L129.837 56.4326Z" fill="#F3F3F5" stroke="black" stroke-width="0.185371"/>
<path d="M129.837 40.3789L134.471 32.3521L143.74 32.3521L148.374 40.3789L143.74 48.4057L134.471 48.4057L129.837 40.3789Z" fill="#F3F3F5" stroke="black" stroke-width="0.185371"/>
<path d="M129.837 24.3262L134.471 16.2994L143.74 16.2994L148.374 24.3262L143.74 32.353L134.471 32.353L129.837 24.3262Z" fill="#F3F3F5" stroke="black" stroke-width="0.185371"/>
<path d="M129.837 8.27245L134.471 0.245644L143.74 0.245645L148.374 8.27246L143.74 16.2993L134.471 16.2993L129.837 8.27245Z" fill="#F3F3F5" stroke="black" stroke-width="0.185371"/>
<path d="M157.643 216.964L162.277 208.937L171.545 208.937L176.18 216.964L171.545 224.991L162.277 224.991L157.643 216.964Z" fill="#F3F3F5" stroke="black" stroke-width="0.185371"/>
<path d="M157.643 200.91L162.277 192.883L171.545 192.883L176.18 200.91L171.545 208.937L162.277 208.937L157.643 200.91Z" fill="#F3F3F5" stroke="black" stroke-width="0.185371"/>
<path d="M157.643 184.857L162.277 176.831L171.545 176.831L176.18 184.857L171.545 192.884L162.277 192.884L157.643 184.857Z" fill="#F3F3F5" stroke="black" stroke-width="0.185371"/>
<path d="M157.643 168.805L162.277 160.778L171.545 160.778L176.18 168.805L171.545 176.831L162.277 176.831L157.643 168.805Z" fill="#F3F3F5" stroke="black" stroke-width="0.185371"/>
<path d="M157.643 152.751L162.277 144.724L171.545 144.724L176.18 152.751L171.545 160.778L162.277 160.778L157.643 152.751Z" fill="#F3F3F5" stroke="black" stroke-width="0.185371"/>
<path d="M157.643 136.698L162.277 128.671L171.545 128.671L176.18 136.698L171.545 144.725L162.277 144.725L157.643 136.698Z" fill="#F3F3F5" stroke="black" stroke-width="0.185371"/>
<path d="M157.643 120.645L162.277 112.618L171.545 112.618L176.18 120.645L171.545 128.671L162.277 128.671L157.643 120.645Z" fill="#F3F3F5" stroke="black" stroke-width="0.185371"/>
<path d="M157.643 104.592L162.277 96.565L171.545 96.565L176.18 104.592L171.545 112.619L162.277 112.619L157.643 104.592Z" fill="#F3F3F5" stroke="black" stroke-width="0.185371"/>
<path d="M157.643 88.5381L162.277 80.5113L171.545 80.5113L176.18 88.5381L171.545 96.5649L162.277 96.5649L157.643 88.5381Z" fill="#F3F3F5" stroke="black" stroke-width="0.185371"/>
<path d="M157.643 72.4853L162.277 64.4585L171.545 64.4585L176.18 72.4853L171.545 80.5122L162.277 80.5122L157.643 72.4853Z" fill="#F3F3F5" stroke="black" stroke-width="0.185371"/>
<path d="M157.643 56.4326L162.277 48.4058L171.545 48.4058L176.18 56.4326L171.545 64.4594L162.277 64.4594L157.643 56.4326Z" fill="#F3F3F5" stroke="black" stroke-width="0.185371"/>
<path d="M157.643 40.3789L162.277 32.3521L171.545 32.3521L176.18 40.3789L171.545 48.4057L162.277 48.4057L157.643 40.3789Z" fill="#F3F3F5" stroke="black" stroke-width="0.185371"/>
<path d="M157.643 24.3262L162.277 16.2994L171.545 16.2994L176.18 24.3262L171.545 32.353L162.277 32.353L157.643 24.3262Z" fill="#F3F3F5" stroke="black" stroke-width="0.185371"/>
<path d="M157.643 8.27245L162.277 0.245644L171.545 0.245645L176.18 8.27246L171.545 16.2993L162.277 16.2993L157.643 8.27245Z" fill="#F3F3F5" stroke="black" stroke-width="0.185371"/>
<path d="M185.448 216.964L190.083 208.937L199.351 208.937L203.985 216.964L199.351 224.991L190.083 224.991L185.448 216.964Z" fill="#F3F3F5" stroke="black" stroke-width="0.185371"/>
<path d="M185.448 200.91L190.083 192.883L199.351 192.883L203.985 200.91L199.351 208.937L190.083 208.937L185.448 200.91Z" fill="#F3F3F5" stroke="black" stroke-width="0.185371"/>
<path d="M185.448 184.857L190.083 176.831L199.351 176.831L203.985 184.857L199.351 192.884L190.083 192.884L185.448 184.857Z" fill="#F3F3F5" stroke="black" stroke-width="0.185371"/>
<path d="M185.448 168.805L190.083 160.778L199.351 160.778L203.985 168.805L199.351 176.831L190.083 176.831L185.448 168.805Z" fill="#F3F3F5" stroke="black" stroke-width="0.185371"/>
<path d="M185.448 152.751L190.083 144.724L199.351 144.724L203.985 152.751L199.351 160.778L190.083 160.778L185.448 152.751Z" fill="#F3F3F5" stroke="black" stroke-width="0.185371"/>
<path d="M185.448 136.698L190.083 128.671L199.351 128.671L203.985 136.698L199.351 144.725L190.083 144.725L185.448 136.698Z" fill="#F3F3F5" stroke="black" stroke-width="0.185371"/>
<path d="M185.448 120.645L190.083 112.618L199.351 112.618L203.985 120.645L199.351 128.671L190.083 128.671L185.448 120.645Z" fill="#F3F3F5" stroke="black" stroke-width="0.185371"/>
<path d="M185.448 104.592L190.083 96.565L199.351 96.565L203.985 104.592L199.351 112.619L190.083 112.619L185.448 104.592Z" fill="#F3F3F5" stroke="black" stroke-width="0.185371"/>
<path d="M185.448 88.5381L190.083 80.5113L199.351 80.5113L203.985 88.5381L199.351 96.5649L190.083 96.5649L185.448 88.5381Z" fill="#F3F3F5" stroke="black" stroke-width="0.185371"/>
<path d="M185.448 72.4853L190.083 64.4585L199.351 64.4585L203.985 72.4853L199.351 80.5122L190.083 80.5122L185.448 72.4853Z" fill="#F3F3F5" stroke="black" stroke-width="0.185371"/>
<path d="M185.448 56.4326L190.083 48.4058L199.351 48.4058L203.985 56.4326L199.351 64.4594L190.083 64.4594L185.448 56.4326Z" fill="#F3F3F5" stroke="black" stroke-width="0.185371"/>
<path d="M185.448 40.3789L190.083 32.3521L199.351 32.3521L203.985 40.3789L199.351 48.4057L190.083 48.4057L185.448 40.3789Z" fill="#F3F3F5" stroke="black" stroke-width="0.185371"/>
<path d="M185.448 24.3262L190.083 16.2994L199.351 16.2994L203.985 24.3262L199.351 32.353L190.083 32.353L185.448 24.3262Z" fill="#F3F3F5" stroke="black" stroke-width="0.185371"/>
<path d="M185.448 8.27245L190.083 0.245644L199.351 0.245645L203.985 8.27246L199.351 16.2993L190.083 16.2993L185.448 8.27245Z" fill="#F3F3F5" stroke="black" stroke-width="0.185371"/>
<path d="M213.254 216.964L217.888 208.937L227.157 208.937L231.791 216.964L227.157 224.991L217.888 224.991L213.254 216.964Z" fill="#F3F3F5" stroke="black" stroke-width="0.185371"/>
<path d="M213.254 200.91L217.888 192.883L227.157 192.883L231.791 200.91L227.157 208.937L217.888 208.937L213.254 200.91Z" fill="#F3F3F5" stroke="black" stroke-width="0.185371"/>
<path d="M213.254 184.857L217.888 176.831L227.157 176.831L231.791 184.857L227.157 192.884L217.888 192.884L213.254 184.857Z" fill="#F3F3F5" stroke="black" stroke-width="0.185371"/>
<path d="M213.254 168.805L217.888 160.778L227.157 160.778L231.791 168.805L227.157 176.831L217.888 176.831L213.254 168.805Z" fill="#F3F3F5" stroke="black" stroke-width="0.185371"/>
<path d="M213.254 152.751L217.888 144.724L227.157 144.724L231.791 152.751L227.157 160.778L217.888 160.778L213.254 152.751Z" fill="#F3F3F5" stroke="black" stroke-width="0.185371"/>
<path d="M213.254 136.698L217.888 128.671L227.157 128.671L231.791 136.698L227.157 144.725L217.888 144.725L213.254 136.698Z" fill="#F3F3F5" stroke="black" stroke-width="0.185371"/>
<path d="M213.254 120.645L217.888 112.618L227.157 112.618L231.791 120.645L227.157 128.671L217.888 128.671L213.254 120.645Z" fill="#F3F3F5" stroke="black" stroke-width="0.185371"/>
<path d="M213.254 104.592L217.888 96.565L227.157 96.565L231.791 104.592L227.157 112.619L217.888 112.619L213.254 104.592Z" fill="#F3F3F5" stroke="black" stroke-width="0.185371"/>
<path d="M213.254 88.5381L217.888 80.5113L227.157 80.5113L231.791 88.5381L227.157 96.5649L217.888 96.5649L213.254 88.5381Z" fill="#F3F3F5" stroke="black" stroke-width="0.185371"/>
<path d="M213.254 72.4853L217.888 64.4585L227.157 64.4585L231.791 72.4853L227.157 80.5122L217.888 80.5122L213.254 72.4853Z" fill="#F3F3F5" stroke="black" stroke-width="0.185371"/>
<path d="M213.254 56.4326L217.888 48.4058L227.157 48.4058L231.791 56.4326L227.157 64.4594L217.888 64.4594L213.254 56.4326Z" fill="#F3F3F5" stroke="black" stroke-width="0.185371"/>
<path d="M213.254 40.3789L217.888 32.3521L227.157 32.3521L231.791 40.3789L227.157 48.4057L217.888 48.4057L213.254 40.3789Z" fill="#F3F3F5" stroke="black" stroke-width="0.185371"/>
<path d="M213.254 24.3262L217.888 16.2994L227.157 16.2994L231.791 24.3262L227.157 32.353L217.888 32.353L213.254 24.3262Z" fill="#F3F3F5" stroke="black" stroke-width="0.185371"/>
<path d="M213.254 8.27245L217.888 0.245644L227.157 0.245645L231.791 8.27246L227.157 16.2993L217.888 16.2993L213.254 8.27245Z" fill="#F3F3F5" stroke="black" stroke-width="0.185371"/>
<path d="M241.06 216.964L245.694 208.937L254.962 208.937L259.597 216.964L254.962 224.991L245.694 224.991L241.06 216.964Z" fill="#F3F3F5" stroke="black" stroke-width="0.185371"/>
<path d="M241.06 200.91L245.694 192.883L254.962 192.883L259.597 200.91L254.962 208.937L245.694 208.937L241.06 200.91Z" fill="#F3F3F5" stroke="black" stroke-width="0.185371"/>
<path d="M241.06 184.857L245.694 176.831L254.962 176.831L259.597 184.857L254.962 192.884L245.694 192.884L241.06 184.857Z" fill="#F3F3F5" stroke="black" stroke-width="0.185371"/>
<path d="M241.06 168.805L245.694 160.778L254.962 160.778L259.597 168.805L254.962 176.831L245.694 176.831L241.06 168.805Z" fill="#F3F3F5" stroke="black" stroke-width="0.185371"/>
<path d="M241.06 152.751L245.694 144.724L254.962 144.724L259.597 152.751L254.962 160.778L245.694 160.778L241.06 152.751Z" fill="#F3F3F5" stroke="black" stroke-width="0.185371"/>
<path d="M241.06 136.698L245.694 128.671L254.962 128.671L259.597 136.698L254.962 144.725L245.694 144.725L241.06 136.698Z" fill="#F3F3F5" stroke="black" stroke-width="0.185371"/>
<path d="M241.06 120.645L245.694 112.618L254.962 112.618L259.597 120.645L254.962 128.671L245.694 128.671L241.06 120.645Z" fill="#F3F3F5" stroke="black" stroke-width="0.185371"/>
<path d="M241.06 104.592L245.694 96.565L254.962 96.565L259.597 104.592L254.962 112.619L245.694 112.619L241.06 104.592Z" fill="#F3F3F5" stroke="black" stroke-width="0.185371"/>
<path d="M241.06 88.5381L245.694 80.5113L254.962 80.5113L259.597 88.5381L254.962 96.5649L245.694 96.5649L241.06 88.5381Z" fill="#F3F3F5" stroke="black" stroke-width="0.185371"/>
<path d="M241.06 72.4853L245.694 64.4585L254.962 64.4585L259.597 72.4853L254.962 80.5122L245.694 80.5122L241.06 72.4853Z" fill="#F3F3F5" stroke="black" stroke-width="0.185371"/>
<path d="M241.06 56.4326L245.694 48.4058L254.962 48.4058L259.597 56.4326L254.962 64.4594L245.694 64.4594L241.06 56.4326Z" fill="#F3F3F5" stroke="black" stroke-width="0.185371"/>
<path d="M241.06 40.3789L245.694 32.3521L254.962 32.3521L259.597 40.3789L254.962 48.4057L245.694 48.4057L241.06 40.3789Z" fill="#F3F3F5" stroke="black" stroke-width="0.185371"/>
<path d="M241.06 24.3262L245.694 16.2994L254.962 16.2994L259.597 24.3262L254.962 32.353L245.694 32.353L241.06 24.3262Z" fill="#F3F3F5" stroke="black" stroke-width="0.185371"/>
<path d="M241.06 8.27245L245.694 0.245644L254.962 0.245645L259.597 8.27246L254.962 16.2993L245.694 16.2993L241.06 8.27245Z" fill="#F3F3F5" stroke="black" stroke-width="0.185371"/>
<path d="M88.1289 208.937L92.7632 200.911L102.032 200.911L106.666 208.937L102.032 216.964L92.7632 216.964L88.1289 208.937Z" fill="#F3F3F5" stroke="black" stroke-width="0.185371"/>
<path d="M88.1289 192.884L92.7632 184.857L102.032 184.857L106.666 192.884L102.032 200.911L92.7632 200.911L88.1289 192.884Z" fill="#F3F3F5" stroke="black" stroke-width="0.185371"/>
<path d="M88.1289 176.831L92.7632 168.804L102.032 168.804L106.666 176.831L102.032 184.858L92.7632 184.858L88.1289 176.831Z" fill="#F3F3F5" stroke="black" stroke-width="0.185371"/>
<path d="M88.1289 160.777L92.7632 152.751L102.032 152.751L106.666 160.777L102.032 168.804L92.7632 168.804L88.1289 160.777Z" fill="#F3F3F5" stroke="black" stroke-width="0.185371"/>
<path d="M88.1289 144.725L92.7632 136.698L102.032 136.698L106.666 144.725L102.032 152.751L92.7632 152.751L88.1289 144.725Z" fill="#F3F3F5" stroke="black" stroke-width="0.185371"/>
<path d="M88.1289 128.672L92.7632 120.645L102.032 120.645L106.666 128.672L102.032 136.699L92.7632 136.699L88.1289 128.672Z" fill="#F3F3F5" stroke="black" stroke-width="0.185371"/>
<path d="M88.1289 112.618L92.7632 104.591L102.032 104.591L106.666 112.618L102.032 120.645L92.7632 120.645L88.1289 112.618Z" fill="#F3F3F5" stroke="black" stroke-width="0.185371"/>
<path d="M88.1289 96.5654L92.7632 88.5386L102.032 88.5386L106.666 96.5654L102.032 104.592L92.7632 104.592L88.1289 96.5654Z" fill="#F3F3F5" stroke="black" stroke-width="0.185371"/>
<path d="M88.1289 80.5117L92.7632 72.4849L102.032 72.4849L106.666 80.5117L102.032 88.5385L92.7632 88.5385L88.1289 80.5117Z" fill="#F3F3F5" stroke="black" stroke-width="0.185371"/>
<path d="M88.1289 64.459L92.7632 56.4322L102.032 56.4322L106.666 64.459L102.032 72.4858L92.7632 72.4858L88.1289 64.459Z" fill="#F3F3F5" stroke="black" stroke-width="0.185371"/>
<path d="M88.1289 48.4053L92.7632 40.3785L102.032 40.3785L106.666 48.4053L102.032 56.4321L92.7632 56.4321L88.1289 48.4053Z" fill="#F3F3F5" stroke="black" stroke-width="0.185371"/>
<path d="M88.1289 32.3525L92.7632 24.3257L102.032 24.3257L106.666 32.3525L102.032 40.3793L92.7632 40.3793L88.1289 32.3525Z" fill="#F3F3F5" stroke="black" stroke-width="0.185371"/>
<path d="M88.1289 16.2998L92.7632 8.27299L102.032 8.27299L106.666 16.2998L102.032 24.3266L92.7632 24.3266L88.1289 16.2998Z" fill="#F3F3F5" stroke="black" stroke-width="0.185371"/>
<path d="M88.1289 0.246086L92.7632 -7.78072L102.032 -7.78072L106.666 0.246089L102.032 8.2729L92.7632 8.2729L88.1289 0.246086Z" fill="#F3F3F5" stroke="black" stroke-width="0.185371"/>
<path d="M115.935 208.937L120.569 200.911L129.837 200.911L134.472 208.937L129.837 216.964L120.569 216.964L115.935 208.937Z" fill="#F3F3F5" stroke="black" stroke-width="0.185371"/>
<path d="M115.935 192.884L120.569 184.857L129.837 184.857L134.472 192.884L129.837 200.911L120.569 200.911L115.935 192.884Z" fill="#F3F3F5" stroke="black" stroke-width="0.185371"/>
<path d="M115.935 176.831L120.569 168.804L129.837 168.804L134.472 176.831L129.837 184.858L120.569 184.858L115.935 176.831Z" fill="#F3F3F5" stroke="black" stroke-width="0.185371"/>
<path d="M115.935 160.777L120.569 152.751L129.837 152.751L134.472 160.777L129.837 168.804L120.569 168.804L115.935 160.777Z" fill="#F3F3F5" stroke="black" stroke-width="0.185371"/>
<path d="M115.935 144.725L120.569 136.698L129.837 136.698L134.472 144.725L129.837 152.751L120.569 152.751L115.935 144.725Z" fill="#F3F3F5" stroke="black" stroke-width="0.185371"/>
<path d="M115.935 128.672L120.569 120.645L129.837 120.645L134.472 128.672L129.837 136.699L120.569 136.699L115.935 128.672Z" fill="#F3F3F5" stroke="black" stroke-width="0.185371"/>
<path d="M115.935 112.618L120.569 104.591L129.837 104.591L134.472 112.618L129.837 120.645L120.569 120.645L115.935 112.618Z" fill="#F3F3F5" stroke="black" stroke-width="0.185371"/>
<path d="M115.935 96.5654L120.569 88.5386L129.837 88.5386L134.472 96.5654L129.837 104.592L120.569 104.592L115.935 96.5654Z" fill="#F3F3F5" stroke="black" stroke-width="0.185371"/>
<path d="M115.935 80.5117L120.569 72.4849L129.837 72.4849L134.472 80.5117L129.837 88.5385L120.569 88.5385L115.935 80.5117Z" fill="#F3F3F5" stroke="black" stroke-width="0.185371"/>
<path d="M115.935 64.459L120.569 56.4322L129.837 56.4322L134.472 64.459L129.837 72.4858L120.569 72.4858L115.935 64.459Z" fill="#F3F3F5" stroke="black" stroke-width="0.185371"/>
<path d="M115.935 48.4053L120.569 40.3785L129.837 40.3785L134.472 48.4053L129.837 56.4321L120.569 56.4321L115.935 48.4053Z" fill="#F3F3F5" stroke="black" stroke-width="0.185371"/>
<path d="M115.935 32.3525L120.569 24.3257L129.837 24.3257L134.472 32.3525L129.837 40.3793L120.569 40.3793L115.935 32.3525Z" fill="#F3F3F5" stroke="black" stroke-width="0.185371"/>
<path d="M115.935 16.2998L120.569 8.27299L129.837 8.27299L134.472 16.2998L129.837 24.3266L120.569 24.3266L115.935 16.2998Z" fill="#F3F3F5" stroke="black" stroke-width="0.185371"/>
<path d="M115.935 0.246086L120.569 -7.78072L129.837 -7.78072L134.472 0.246089L129.837 8.2729L120.569 8.2729L115.935 0.246086Z" fill="#F3F3F5" stroke="black" stroke-width="0.185371"/>
<path d="M143.74 208.937L148.375 200.911L157.643 200.911L162.277 208.937L157.643 216.964L148.375 216.964L143.74 208.937Z" fill="#F3F3F5" stroke="black" stroke-width="0.185371"/>
<path d="M143.74 192.884L148.375 184.857L157.643 184.857L162.277 192.884L157.643 200.911L148.375 200.911L143.74 192.884Z" fill="#F3F3F5" stroke="black" stroke-width="0.185371"/>
<path d="M143.74 176.831L148.375 168.804L157.643 168.804L162.277 176.831L157.643 184.858L148.375 184.858L143.74 176.831Z" fill="#F3F3F5" stroke="black" stroke-width="0.185371"/>
<path d="M143.74 160.777L148.375 152.751L157.643 152.751L162.277 160.777L157.643 168.804L148.375 168.804L143.74 160.777Z" fill="#F3F3F5" stroke="black" stroke-width="0.185371"/>
<path d="M143.74 144.725L148.375 136.698L157.643 136.698L162.277 144.725L157.643 152.751L148.375 152.751L143.74 144.725Z" fill="#F3F3F5" stroke="black" stroke-width="0.185371"/>
<path d="M143.74 128.672L148.375 120.645L157.643 120.645L162.277 128.672L157.643 136.699L148.375 136.699L143.74 128.672Z" fill="#F3F3F5" stroke="black" stroke-width="0.185371"/>
<path d="M143.74 112.618L148.375 104.591L157.643 104.591L162.277 112.618L157.643 120.645L148.375 120.645L143.74 112.618Z" fill="#F3F3F5" stroke="black" stroke-width="0.185371"/>
<path d="M143.74 96.5654L148.375 88.5386L157.643 88.5386L162.277 96.5654L157.643 104.592L148.375 104.592L143.74 96.5654Z" fill="#F3F3F5" stroke="black" stroke-width="0.185371"/>
<path d="M143.74 80.5117L148.375 72.4849L157.643 72.4849L162.277 80.5117L157.643 88.5385L148.375 88.5385L143.74 80.5117Z" fill="#F3F3F5" stroke="black" stroke-width="0.185371"/>
<path d="M143.74 64.459L148.375 56.4322L157.643 56.4322L162.277 64.459L157.643 72.4858L148.375 72.4858L143.74 64.459Z" fill="#F3F3F5" stroke="black" stroke-width="0.185371"/>
<path d="M143.74 48.4053L148.375 40.3785L157.643 40.3785L162.277 48.4053L157.643 56.4321L148.375 56.4321L143.74 48.4053Z" fill="#F3F3F5" stroke="black" stroke-width="0.185371"/>
<path d="M143.74 32.3525L148.375 24.3257L157.643 24.3257L162.277 32.3525L157.643 40.3793L148.375 40.3793L143.74 32.3525Z" fill="#F3F3F5" stroke="black" stroke-width="0.185371"/>
<path d="M143.74 16.2998L148.375 8.27299L157.643 8.27299L162.277 16.2998L157.643 24.3266L148.375 24.3266L143.74 16.2998Z" fill="#F3F3F5" stroke="black" stroke-width="0.185371"/>
<path d="M143.74 0.246086L148.375 -7.78072L157.643 -7.78072L162.277 0.246089L157.643 8.2729L148.375 8.2729L143.74 0.246086Z" fill="#F3F3F5" stroke="black" stroke-width="0.185371"/>
<path d="M171.546 208.937L176.18 200.911L185.449 200.911L190.083 208.937L185.449 216.964L176.18 216.964L171.546 208.937Z" fill="#F3F3F5" stroke="black" stroke-width="0.185371"/>
<path d="M171.546 192.884L176.18 184.857L185.449 184.857L190.083 192.884L185.449 200.911L176.18 200.911L171.546 192.884Z" fill="#F3F3F5" stroke="black" stroke-width="0.185371"/>
<path d="M171.546 176.831L176.18 168.804L185.449 168.804L190.083 176.831L185.449 184.858L176.18 184.858L171.546 176.831Z" fill="#F3F3F5" stroke="black" stroke-width="0.185371"/>
<path d="M171.546 160.777L176.18 152.751L185.449 152.751L190.083 160.777L185.449 168.804L176.18 168.804L171.546 160.777Z" fill="#F3F3F5" stroke="black" stroke-width="0.185371"/>
<path d="M171.546 144.725L176.18 136.698L185.449 136.698L190.083 144.725L185.449 152.751L176.18 152.751L171.546 144.725Z" fill="#F3F3F5" stroke="black" stroke-width="0.185371"/>
<path d="M171.546 128.672L176.18 120.645L185.449 120.645L190.083 128.672L185.449 136.699L176.18 136.699L171.546 128.672Z" fill="#F3F3F5" stroke="black" stroke-width="0.185371"/>
<path d="M171.546 112.618L176.18 104.591L185.449 104.591L190.083 112.618L185.449 120.645L176.18 120.645L171.546 112.618Z" fill="#F3F3F5" stroke="black" stroke-width="0.185371"/>
<path d="M171.546 96.5654L176.18 88.5386L185.449 88.5386L190.083 96.5654L185.449 104.592L176.18 104.592L171.546 96.5654Z" fill="#F3F3F5" stroke="black" stroke-width="0.185371"/>
<path d="M171.546 80.5117L176.18 72.4849L185.449 72.4849L190.083 80.5117L185.449 88.5385L176.18 88.5385L171.546 80.5117Z" fill="#F3F3F5" stroke="black" stroke-width="0.185371"/>
<path d="M171.546 64.459L176.18 56.4322L185.449 56.4322L190.083 64.459L185.449 72.4858L176.18 72.4858L171.546 64.459Z" fill="#F3F3F5" stroke="black" stroke-width="0.185371"/>
<path d="M171.546 48.4053L176.18 40.3785L185.449 40.3785L190.083 48.4053L185.449 56.4321L176.18 56.4321L171.546 48.4053Z" fill="#F3F3F5" stroke="black" stroke-width="0.185371"/>
<path d="M171.546 32.3525L176.18 24.3257L185.449 24.3257L190.083 32.3525L185.449 40.3793L176.18 40.3793L171.546 32.3525Z" fill="#F3F3F5" stroke="black" stroke-width="0.185371"/>
<path d="M171.546 16.2998L176.18 8.27299L185.449 8.27299L190.083 16.2998L185.449 24.3266L176.18 24.3266L171.546 16.2998Z" fill="#F3F3F5" stroke="black" stroke-width="0.185371"/>
<path d="M171.546 0.246086L176.18 -7.78072L185.449 -7.78072L190.083 0.246089L185.449 8.2729L176.18 8.2729L171.546 0.246086Z" fill="#F3F3F5" stroke="black" stroke-width="0.185371"/>
<path d="M199.352 208.937L203.986 200.911L213.254 200.911L217.889 208.937L213.254 216.964L203.986 216.964L199.352 208.937Z" fill="#F3F3F5" stroke="black" stroke-width="0.185371"/>
<path d="M199.352 192.884L203.986 184.857L213.254 184.857L217.889 192.884L213.254 200.911L203.986 200.911L199.352 192.884Z" fill="#F3F3F5" stroke="black" stroke-width="0.185371"/>
<path d="M199.352 176.831L203.986 168.804L213.254 168.804L217.889 176.831L213.254 184.858L203.986 184.858L199.352 176.831Z" fill="#F3F3F5" stroke="black" stroke-width="0.185371"/>
<path d="M199.352 160.777L203.986 152.751L213.254 152.751L217.889 160.777L213.254 168.804L203.986 168.804L199.352 160.777Z" fill="#F3F3F5" stroke="black" stroke-width="0.185371"/>
<path d="M199.352 144.725L203.986 136.698L213.254 136.698L217.889 144.725L213.254 152.751L203.986 152.751L199.352 144.725Z" fill="#F3F3F5" stroke="black" stroke-width="0.185371"/>
<path d="M199.352 128.672L203.986 120.645L213.254 120.645L217.889 128.672L213.254 136.699L203.986 136.699L199.352 128.672Z" fill="#F3F3F5" stroke="black" stroke-width="0.185371"/>
<path d="M199.352 112.618L203.986 104.591L213.254 104.591L217.889 112.618L213.254 120.645L203.986 120.645L199.352 112.618Z" fill="#F3F3F5" stroke="black" stroke-width="0.185371"/>
<path d="M199.352 96.5654L203.986 88.5386L213.254 88.5386L217.889 96.5654L213.254 104.592L203.986 104.592L199.352 96.5654Z" fill="#F3F3F5" stroke="black" stroke-width="0.185371"/>
<path d="M199.352 80.5117L203.986 72.4849L213.254 72.4849L217.889 80.5117L213.254 88.5385L203.986 88.5385L199.352 80.5117Z" fill="#F3F3F5" stroke="black" stroke-width="0.185371"/>
<path d="M199.352 64.459L203.986 56.4322L213.254 56.4322L217.889 64.459L213.254 72.4858L203.986 72.4858L199.352 64.459Z" fill="#F3F3F5" stroke="black" stroke-width="0.185371"/>
<path d="M199.352 48.4053L203.986 40.3785L213.254 40.3785L217.889 48.4053L213.254 56.4321L203.986 56.4321L199.352 48.4053Z" fill="#F3F3F5" stroke="black" stroke-width="0.185371"/>
<path d="M199.352 32.3525L203.986 24.3257L213.254 24.3257L217.889 32.3525L213.254 40.3793L203.986 40.3793L199.352 32.3525Z" fill="#F3F3F5" stroke="black" stroke-width="0.185371"/>
<path d="M199.352 16.2998L203.986 8.27299L213.254 8.27299L217.889 16.2998L213.254 24.3266L203.986 24.3266L199.352 16.2998Z" fill="#F3F3F5" stroke="black" stroke-width="0.185371"/>
<path d="M199.352 0.246086L203.986 -7.78072L213.254 -7.78072L217.889 0.246089L213.254 8.2729L203.986 8.2729L199.352 0.246086Z" fill="#F3F3F5" stroke="black" stroke-width="0.185371"/>
<path d="M227.157 208.937L231.792 200.911L241.06 200.911L245.694 208.937L241.06 216.964L231.792 216.964L227.157 208.937Z" fill="#F3F3F5" stroke="black" stroke-width="0.185371"/>
<path d="M227.157 192.884L231.792 184.857L241.06 184.857L245.694 192.884L241.06 200.911L231.792 200.911L227.157 192.884Z" fill="#F3F3F5" stroke="black" stroke-width="0.185371"/>
<path d="M227.157 176.831L231.792 168.804L241.06 168.804L245.694 176.831L241.06 184.858L231.792 184.858L227.157 176.831Z" fill="#F3F3F5" stroke="black" stroke-width="0.185371"/>
<path d="M227.157 160.777L231.792 152.751L241.06 152.751L245.694 160.777L241.06 168.804L231.792 168.804L227.157 160.777Z" fill="#F3F3F5" stroke="black" stroke-width="0.185371"/>
<path d="M227.157 144.725L231.792 136.698L241.06 136.698L245.694 144.725L241.06 152.751L231.792 152.751L227.157 144.725Z" fill="#F3F3F5" stroke="black" stroke-width="0.185371"/>
<path d="M227.157 128.672L231.792 120.645L241.06 120.645L245.694 128.672L241.06 136.699L231.792 136.699L227.157 128.672Z" fill="#F3F3F5" stroke="black" stroke-width="0.185371"/>
<path d="M227.157 112.618L231.792 104.591L241.06 104.591L245.694 112.618L241.06 120.645L231.792 120.645L227.157 112.618Z" fill="#F3F3F5" stroke="black" stroke-width="0.185371"/>
<path d="M227.157 96.5654L231.792 88.5386L241.06 88.5386L245.694 96.5654L241.06 104.592L231.792 104.592L227.157 96.5654Z" fill="#F3F3F5" stroke="black" stroke-width="0.185371"/>
<path d="M227.157 80.5117L231.792 72.4849L241.06 72.4849L245.694 80.5117L241.06 88.5385L231.792 88.5385L227.157 80.5117Z" fill="#F3F3F5" stroke="black" stroke-width="0.185371"/>
<path d="M227.157 64.459L231.792 56.4322L241.06 56.4322L245.694 64.459L241.06 72.4858L231.792 72.4858L227.157 64.459Z" fill="#F3F3F5" stroke="black" stroke-width="0.185371"/>
<path d="M227.157 48.4053L231.792 40.3785L241.06 40.3785L245.694 48.4053L241.06 56.4321L231.792 56.4321L227.157 48.4053Z" fill="#F3F3F5" stroke="black" stroke-width="0.185371"/>
<path d="M227.157 32.3525L231.792 24.3257L241.06 24.3257L245.694 32.3525L241.06 40.3793L231.792 40.3793L227.157 32.3525Z" fill="#F3F3F5" stroke="black" stroke-width="0.185371"/>
<path d="M227.157 16.2998L231.792 8.27299L241.06 8.27299L245.694 16.2998L241.06 24.3266L231.792 24.3266L227.157 16.2998Z" fill="#F3F3F5" stroke="black" stroke-width="0.185371"/>
<path d="M227.157 0.246086L231.792 -7.78072L241.06 -7.78072L245.694 0.246089L241.06 8.2729L231.792 8.2729L227.157 0.246086Z" fill="#F3F3F5" stroke="black" stroke-width="0.185371"/>
<path d="M254.963 208.937L259.597 200.911L268.866 200.911L273.5 208.937L268.866 216.964L259.597 216.964L254.963 208.937Z" fill="#F3F3F5" stroke="black" stroke-width="0.185371"/>
<path d="M254.963 192.884L259.597 184.857L268.866 184.857L273.5 192.884L268.866 200.911L259.597 200.911L254.963 192.884Z" fill="#F3F3F5" stroke="black" stroke-width="0.185371"/>
<path d="M254.963 176.831L259.597 168.804L268.866 168.804L273.5 176.831L268.866 184.858L259.597 184.858L254.963 176.831Z" fill="#F3F3F5" stroke="black" stroke-width="0.185371"/>
<path d="M254.963 160.777L259.597 152.751L268.866 152.751L273.5 160.777L268.866 168.804L259.597 168.804L254.963 160.777Z" fill="#F3F3F5" stroke="black" stroke-width="0.185371"/>
<path d="M254.963 144.725L259.597 136.698L268.866 136.698L273.5 144.725L268.866 152.751L259.597 152.751L254.963 144.725Z" fill="#F3F3F5" stroke="black" stroke-width="0.185371"/>
<path d="M254.963 128.672L259.597 120.645L268.866 120.645L273.5 128.672L268.866 136.699L259.597 136.699L254.963 128.672Z" fill="#F3F3F5" stroke="black" stroke-width="0.185371"/>
<path d="M254.963 112.618L259.597 104.591L268.866 104.591L273.5 112.618L268.866 120.645L259.597 120.645L254.963 112.618Z" fill="#F3F3F5" stroke="black" stroke-width="0.185371"/>
<path d="M254.963 96.5654L259.597 88.5386L268.866 88.5386L273.5 96.5654L268.866 104.592L259.597 104.592L254.963 96.5654Z" fill="#F3F3F5" stroke="black" stroke-width="0.185371"/>
<path d="M254.963 80.5117L259.597 72.4849L268.866 72.4849L273.5 80.5117L268.866 88.5385L259.597 88.5385L254.963 80.5117Z" fill="#F3F3F5" stroke="black" stroke-width="0.185371"/>
<path d="M254.963 64.459L259.597 56.4322L268.866 56.4322L273.5 64.459L268.866 72.4858L259.597 72.4858L254.963 64.459Z" fill="#F3F3F5" stroke="black" stroke-width="0.185371"/>
<path d="M254.963 48.4053L259.597 40.3785L268.866 40.3785L273.5 48.4053L268.866 56.4321L259.597 56.4321L254.963 48.4053Z" fill="#F3F3F5" stroke="black" stroke-width="0.185371"/>
<path d="M254.963 32.3525L259.597 24.3257L268.866 24.3257L273.5 32.3525L268.866 40.3793L259.597 40.3793L254.963 32.3525Z" fill="#F3F3F5" stroke="black" stroke-width="0.185371"/>
<path d="M254.963 16.2998L259.597 8.27299L268.866 8.27299L273.5 16.2998L268.866 24.3266L259.597 24.3266L254.963 16.2998Z" fill="#F3F3F5" stroke="black" stroke-width="0.185371"/>
<path d="M254.963 0.246086L259.597 -7.78072L268.866 -7.78072L273.5 0.246089L268.866 8.2729L259.597 8.2729L254.963 0.246086Z" fill="#F3F3F5" stroke="black" stroke-width="0.185371"/>
</g>
<mask id="mask1_688_14527" style="mask-type:alpha" maskUnits="userSpaceOnUse" x="106" y="181" width="163" height="263">
<path d="M117.122 432.136L106.103 443.155L106.103 218.029L119.366 218.029L120.195 218.029L120.195 217.2L120.195 181.407C120.529 181.35 120.978 181.286 121.507 181.242C122.698 181.143 124.257 181.146 125.797 181.531C125.824 181.538 125.928 181.578 126.108 181.737C126.281 181.889 126.484 182.115 126.713 182.422C127.171 183.036 127.677 183.899 128.212 184.95C129.279 187.046 130.406 189.784 131.439 192.521C132.47 195.253 133.399 197.961 134.07 199.988C134.406 201.001 134.676 201.843 134.863 202.431C134.957 202.725 135.029 202.956 135.078 203.113L135.134 203.292L135.148 203.337L135.151 203.348L135.153 203.352L135.333 203.937L135.945 203.937L174.076 203.937L200.602 203.937L238.733 203.937L239.345 203.937L239.525 203.351L239.526 203.348L239.529 203.337L239.544 203.292L239.599 203.113C239.648 202.956 239.721 202.725 239.814 202.431C240.001 201.843 240.272 201.001 240.608 199.988C241.279 197.961 242.208 195.253 243.238 192.521C244.271 189.784 245.398 187.046 246.466 184.95C247 183.899 247.507 183.036 247.965 182.422C248.194 182.115 248.397 181.889 248.57 181.737C248.75 181.578 248.853 181.538 248.881 181.531C250.42 181.146 251.98 181.143 253.17 181.242C253.699 181.286 254.149 181.35 254.482 181.407L254.482 217.2L254.482 218.029L255.311 218.029L268.574 218.029L268.574 443.155L257.555 432.137L256.969 431.55L256.383 432.137L245.364 443.155L234.345 432.137L233.759 431.55L233.173 432.137L222.154 443.155L211.135 432.137L210.549 431.55L209.963 432.137L198.944 443.155L187.925 432.137L187.339 431.55L186.753 432.137L175.734 443.155L164.715 432.137L164.129 431.55L163.542 432.137L152.523 443.155L141.505 432.136L140.918 431.55L140.332 432.136L129.313 443.155L118.294 432.136L117.708 431.55L117.122 432.136Z" fill="#D9D9D9"/>
</mask>
<g mask="url(#mask1_688_14527)">
<path d="M102.031 437.283L106.666 429.256L115.934 429.256L120.568 437.283L115.934 445.31L106.666 445.31L102.031 437.283Z" fill="#F3F3F5" stroke="black" stroke-width="0.185371"/>
<path d="M102.031 421.23L106.666 413.204L115.934 413.204L120.568 421.23L115.934 429.257L106.666 429.257L102.031 421.23Z" fill="#F3F3F5" stroke="black" stroke-width="0.185371"/>
<path d="M102.031 405.177L106.666 397.15L115.934 397.15L120.568 405.177L115.934 413.204L106.666 413.204L102.031 405.177Z" fill="#F3F3F5" stroke="black" stroke-width="0.185371"/>
<path d="M102.031 389.124L106.666 381.097L115.934 381.097L120.568 389.124L115.934 397.151L106.666 397.151L102.031 389.124Z" fill="#F3F3F5" stroke="black" stroke-width="0.185371"/>
<path d="M102.031 373.071L106.666 365.044L115.934 365.044L120.568 373.071L115.934 381.098L106.666 381.098L102.031 373.071Z" fill="#F3F3F5" stroke="black" stroke-width="0.185371"/>
<path d="M102.031 357.018L106.666 348.991L115.934 348.991L120.568 357.018L115.934 365.044L106.666 365.044L102.031 357.018Z" fill="#F3F3F5" stroke="black" stroke-width="0.185371"/>
<path d="M102.031 340.965L106.666 332.938L115.934 332.938L120.568 340.965L115.934 348.992L106.666 348.992L102.031 340.965Z" fill="#F3F3F5" stroke="black" stroke-width="0.185371"/>
<path d="M102.031 324.911L106.666 316.884L115.934 316.884L120.568 324.911L115.934 332.938L106.666 332.938L102.031 324.911Z" fill="#F3F3F5" stroke="black" stroke-width="0.185371"/>
<path d="M102.031 308.858L106.666 300.832L115.934 300.832L120.568 308.858L115.934 316.885L106.666 316.885L102.031 308.858Z" fill="#F3F3F5" stroke="black" stroke-width="0.185371"/>
<path d="M102.031 292.805L106.666 284.778L115.934 284.778L120.568 292.805L115.934 300.831L106.666 300.831L102.031 292.805Z" fill="#F3F3F5" stroke="black" stroke-width="0.185371"/>
<path d="M102.031 276.752L106.666 268.725L115.934 268.725L120.568 276.752L115.934 284.779L106.666 284.779L102.031 276.752Z" fill="#F3F3F5" stroke="black" stroke-width="0.185371"/>
<path d="M102.031 260.699L106.666 252.672L115.934 252.672L120.568 260.699L115.934 268.726L106.666 268.726L102.031 260.699Z" fill="#F3F3F5" stroke="black" stroke-width="0.185371"/>
<path d="M102.031 244.646L106.666 236.619L115.934 236.619L120.568 244.646L115.934 252.672L106.666 252.672L102.031 244.646Z" fill="#F3F3F5" stroke="black" stroke-width="0.185371"/>
<path d="M102.031 228.593L106.666 220.566L115.934 220.566L120.568 228.593L115.934 236.62L106.666 236.62L102.031 228.593Z" fill="#F3F3F5" stroke="black" stroke-width="0.185371"/>
<path d="M102.031 212.539L106.666 204.512L115.934 204.512L120.568 212.539L115.934 220.566L106.666 220.566L102.031 212.539Z" fill="#F3F3F5" stroke="black" stroke-width="0.185371"/>
<path d="M102.031 196.486L106.666 188.46L115.934 188.46L120.568 196.486L115.934 204.513L106.666 204.513L102.031 196.486Z" fill="#F3F3F5" stroke="black" stroke-width="0.185371"/>
<path d="M102.031 180.433L106.666 172.406L115.934 172.406L120.568 180.433L115.934 188.459L106.666 188.459L102.031 180.433Z" fill="#F3F3F5" stroke="black" stroke-width="0.185371"/>
<path d="M129.837 437.283L134.471 429.256L143.74 429.256L148.374 437.283L143.74 445.31L134.471 445.31L129.837 437.283Z" fill="#F3F3F5" stroke="black" stroke-width="0.185371"/>
<path d="M129.837 421.23L134.471 413.204L143.74 413.204L148.374 421.23L143.74 429.257L134.471 429.257L129.837 421.23Z" fill="#F3F3F5" stroke="black" stroke-width="0.185371"/>
<path d="M129.837 405.177L134.471 397.15L143.74 397.15L148.374 405.177L143.74 413.204L134.471 413.204L129.837 405.177Z" fill="#F3F3F5" stroke="black" stroke-width="0.185371"/>
<path d="M129.837 389.124L134.471 381.097L143.74 381.097L148.374 389.124L143.74 397.151L134.471 397.151L129.837 389.124Z" fill="#F3F3F5" stroke="black" stroke-width="0.185371"/>
<path d="M129.837 373.071L134.471 365.044L143.74 365.044L148.374 373.071L143.74 381.098L134.471 381.098L129.837 373.071Z" fill="#F3F3F5" stroke="black" stroke-width="0.185371"/>
<path d="M129.837 357.018L134.471 348.991L143.74 348.991L148.374 357.018L143.74 365.044L134.471 365.044L129.837 357.018Z" fill="#F3F3F5" stroke="black" stroke-width="0.185371"/>
<path d="M129.837 340.965L134.471 332.938L143.74 332.938L148.374 340.965L143.74 348.992L134.471 348.992L129.837 340.965Z" fill="#F3F3F5" stroke="black" stroke-width="0.185371"/>
<path d="M129.837 324.911L134.471 316.884L143.74 316.884L148.374 324.911L143.74 332.938L134.471 332.938L129.837 324.911Z" fill="#F3F3F5" stroke="black" stroke-width="0.185371"/>
<path d="M129.837 308.858L134.471 300.832L143.74 300.832L148.374 308.858L143.74 316.885L134.471 316.885L129.837 308.858Z" fill="#F3F3F5" stroke="black" stroke-width="0.185371"/>
<path d="M129.837 292.805L134.471 284.778L143.74 284.778L148.374 292.805L143.74 300.831L134.471 300.831L129.837 292.805Z" fill="#F3F3F5" stroke="black" stroke-width="0.185371"/>
<path d="M129.837 276.752L134.471 268.725L143.74 268.725L148.374 276.752L143.74 284.779L134.471 284.779L129.837 276.752Z" fill="#F3F3F5" stroke="black" stroke-width="0.185371"/>
<path d="M129.837 260.699L134.471 252.672L143.74 252.672L148.374 260.699L143.74 268.726L134.471 268.726L129.837 260.699Z" fill="#F3F3F5" stroke="black" stroke-width="0.185371"/>
<path d="M129.837 244.646L134.471 236.619L143.74 236.619L148.374 244.646L143.74 252.672L134.471 252.672L129.837 244.646Z" fill="#F3F3F5" stroke="black" stroke-width="0.185371"/>
<path d="M129.837 228.593L134.471 220.566L143.74 220.566L148.374 228.593L143.74 236.62L134.471 236.62L129.837 228.593Z" fill="#F3F3F5" stroke="black" stroke-width="0.185371"/>
<path d="M129.837 212.539L134.471 204.512L143.74 204.512L148.374 212.539L143.74 220.566L134.471 220.566L129.837 212.539Z" fill="#F3F3F5" stroke="black" stroke-width="0.185371"/>
<path d="M129.837 196.486L134.471 188.46L143.74 188.46L148.374 196.486L143.74 204.513L134.471 204.513L129.837 196.486Z" fill="#F3F3F5" stroke="black" stroke-width="0.185371"/>
<path d="M129.837 180.433L134.471 172.406L143.74 172.406L148.374 180.433L143.74 188.459L134.471 188.459L129.837 180.433Z" fill="#F3F3F5" stroke="black" stroke-width="0.185371"/>
<path d="M157.643 437.283L162.277 429.256L171.545 429.256L176.18 437.283L171.545 445.31L162.277 445.31L157.643 437.283Z" fill="#F3F3F5" stroke="black" stroke-width="0.185371"/>
<path d="M157.643 421.23L162.277 413.204L171.545 413.204L176.18 421.23L171.545 429.257L162.277 429.257L157.643 421.23Z" fill="#F3F3F5" stroke="black" stroke-width="0.185371"/>
<path d="M157.643 405.177L162.277 397.15L171.545 397.15L176.18 405.177L171.545 413.204L162.277 413.204L157.643 405.177Z" fill="#F3F3F5" stroke="black" stroke-width="0.185371"/>
<path d="M157.643 389.124L162.277 381.097L171.545 381.097L176.18 389.124L171.545 397.151L162.277 397.151L157.643 389.124Z" fill="#F3F3F5" stroke="black" stroke-width="0.185371"/>
<path d="M157.643 373.071L162.277 365.044L171.545 365.044L176.18 373.071L171.545 381.098L162.277 381.098L157.643 373.071Z" fill="#F3F3F5" stroke="black" stroke-width="0.185371"/>
<path d="M157.643 357.018L162.277 348.991L171.545 348.991L176.18 357.018L171.545 365.044L162.277 365.044L157.643 357.018Z" fill="#F3F3F5" stroke="black" stroke-width="0.185371"/>
<path d="M157.643 340.965L162.277 332.938L171.545 332.938L176.18 340.965L171.545 348.992L162.277 348.992L157.643 340.965Z" fill="#F3F3F5" stroke="black" stroke-width="0.185371"/>
<path d="M157.643 324.911L162.277 316.884L171.545 316.884L176.18 324.911L171.545 332.938L162.277 332.938L157.643 324.911Z" fill="#F3F3F5" stroke="black" stroke-width="0.185371"/>
<path d="M157.643 308.858L162.277 300.832L171.545 300.832L176.18 308.858L171.545 316.885L162.277 316.885L157.643 308.858Z" fill="#F3F3F5" stroke="black" stroke-width="0.185371"/>
<path d="M157.643 292.805L162.277 284.778L171.545 284.778L176.18 292.805L171.545 300.831L162.277 300.831L157.643 292.805Z" fill="#F3F3F5" stroke="black" stroke-width="0.185371"/>
<path d="M157.643 276.752L162.277 268.725L171.545 268.725L176.18 276.752L171.545 284.779L162.277 284.779L157.643 276.752Z" fill="#F3F3F5" stroke="black" stroke-width="0.185371"/>
<path d="M157.643 260.699L162.277 252.672L171.545 252.672L176.18 260.699L171.545 268.726L162.277 268.726L157.643 260.699Z" fill="#F3F3F5" stroke="black" stroke-width="0.185371"/>
<path d="M157.643 244.646L162.277 236.619L171.545 236.619L176.18 244.646L171.545 252.672L162.277 252.672L157.643 244.646Z" fill="#F3F3F5" stroke="black" stroke-width="0.185371"/>
<path d="M157.643 228.593L162.277 220.566L171.545 220.566L176.18 228.593L171.545 236.62L162.277 236.62L157.643 228.593Z" fill="#F3F3F5" stroke="black" stroke-width="0.185371"/>
<path d="M157.643 212.539L162.277 204.512L171.545 204.512L176.18 212.539L171.545 220.566L162.277 220.566L157.643 212.539Z" fill="#F3F3F5" stroke="black" stroke-width="0.185371"/>
<path d="M157.643 196.486L162.277 188.46L171.545 188.46L176.18 196.486L171.545 204.513L162.277 204.513L157.643 196.486Z" fill="#F3F3F5" stroke="black" stroke-width="0.185371"/>
<path d="M157.643 180.433L162.277 172.406L171.545 172.406L176.18 180.433L171.545 188.459L162.277 188.459L157.643 180.433Z" fill="#F3F3F5" stroke="black" stroke-width="0.185371"/>
<path d="M185.448 437.283L190.083 429.256L199.351 429.256L203.985 437.283L199.351 445.31L190.083 445.31L185.448 437.283Z" fill="#F3F3F5" stroke="black" stroke-width="0.185371"/>
<path d="M185.448 421.23L190.083 413.204L199.351 413.204L203.985 421.23L199.351 429.257L190.083 429.257L185.448 421.23Z" fill="#F3F3F5" stroke="black" stroke-width="0.185371"/>
<path d="M185.448 405.177L190.083 397.15L199.351 397.15L203.985 405.177L199.351 413.204L190.083 413.204L185.448 405.177Z" fill="#F3F3F5" stroke="black" stroke-width="0.185371"/>
<path d="M185.448 389.124L190.083 381.097L199.351 381.097L203.985 389.124L199.351 397.151L190.083 397.151L185.448 389.124Z" fill="#F3F3F5" stroke="black" stroke-width="0.185371"/>
<path d="M185.448 373.071L190.083 365.044L199.351 365.044L203.985 373.071L199.351 381.098L190.083 381.098L185.448 373.071Z" fill="#F3F3F5" stroke="black" stroke-width="0.185371"/>
<path d="M185.448 357.018L190.083 348.991L199.351 348.991L203.985 357.018L199.351 365.044L190.083 365.044L185.448 357.018Z" fill="#F3F3F5" stroke="black" stroke-width="0.185371"/>
<path d="M185.448 340.965L190.083 332.938L199.351 332.938L203.985 340.965L199.351 348.992L190.083 348.992L185.448 340.965Z" fill="#F3F3F5" stroke="black" stroke-width="0.185371"/>
<path d="M185.448 324.911L190.083 316.884L199.351 316.884L203.985 324.911L199.351 332.938L190.083 332.938L185.448 324.911Z" fill="#F3F3F5" stroke="black" stroke-width="0.185371"/>
<path d="M185.448 308.858L190.083 300.832L199.351 300.832L203.985 308.858L199.351 316.885L190.083 316.885L185.448 308.858Z" fill="#F3F3F5" stroke="black" stroke-width="0.185371"/>
<path d="M185.448 292.805L190.083 284.778L199.351 284.778L203.985 292.805L199.351 300.831L190.083 300.831L185.448 292.805Z" fill="#F3F3F5" stroke="black" stroke-width="0.185371"/>
<path d="M185.448 276.752L190.083 268.725L199.351 268.725L203.985 276.752L199.351 284.779L190.083 284.779L185.448 276.752Z" fill="#F3F3F5" stroke="black" stroke-width="0.185371"/>
<path d="M185.448 260.699L190.083 252.672L199.351 252.672L203.985 260.699L199.351 268.726L190.083 268.726L185.448 260.699Z" fill="#F3F3F5" stroke="black" stroke-width="0.185371"/>
<path d="M185.448 244.646L190.083 236.619L199.351 236.619L203.985 244.646L199.351 252.672L190.083 252.672L185.448 244.646Z" fill="#F3F3F5" stroke="black" stroke-width="0.185371"/>
<path d="M185.448 228.593L190.083 220.566L199.351 220.566L203.985 228.593L199.351 236.62L190.083 236.62L185.448 228.593Z" fill="#F3F3F5" stroke="black" stroke-width="0.185371"/>
<path d="M185.448 212.539L190.083 204.512L199.351 204.512L203.985 212.539L199.351 220.566L190.083 220.566L185.448 212.539Z" fill="#F3F3F5" stroke="black" stroke-width="0.185371"/>
<path d="M185.448 196.486L190.083 188.46L199.351 188.46L203.985 196.486L199.351 204.513L190.083 204.513L185.448 196.486Z" fill="#F3F3F5" stroke="black" stroke-width="0.185371"/>
<path d="M185.448 180.433L190.083 172.406L199.351 172.406L203.985 180.433L199.351 188.459L190.083 188.459L185.448 180.433Z" fill="#F3F3F5" stroke="black" stroke-width="0.185371"/>
<path d="M213.254 437.283L217.888 429.256L227.157 429.256L231.791 437.283L227.157 445.31L217.888 445.31L213.254 437.283Z" fill="#F3F3F5" stroke="black" stroke-width="0.185371"/>
<path d="M213.254 421.23L217.888 413.204L227.157 413.204L231.791 421.23L227.157 429.257L217.888 429.257L213.254 421.23Z" fill="#F3F3F5" stroke="black" stroke-width="0.185371"/>
<path d="M213.254 405.177L217.888 397.15L227.157 397.15L231.791 405.177L227.157 413.204L217.888 413.204L213.254 405.177Z" fill="#F3F3F5" stroke="black" stroke-width="0.185371"/>
<path d="M213.254 389.124L217.888 381.097L227.157 381.097L231.791 389.124L227.157 397.151L217.888 397.151L213.254 389.124Z" fill="#F3F3F5" stroke="black" stroke-width="0.185371"/>
<path d="M213.254 373.071L217.888 365.044L227.157 365.044L231.791 373.071L227.157 381.098L217.888 381.098L213.254 373.071Z" fill="#F3F3F5" stroke="black" stroke-width="0.185371"/>
<path d="M213.254 357.018L217.888 348.991L227.157 348.991L231.791 357.018L227.157 365.044L217.888 365.044L213.254 357.018Z" fill="#F3F3F5" stroke="black" stroke-width="0.185371"/>
<path d="M213.254 340.965L217.888 332.938L227.157 332.938L231.791 340.965L227.157 348.992L217.888 348.992L213.254 340.965Z" fill="#F3F3F5" stroke="black" stroke-width="0.185371"/>
<path d="M213.254 324.911L217.888 316.884L227.157 316.884L231.791 324.911L227.157 332.938L217.888 332.938L213.254 324.911Z" fill="#F3F3F5" stroke="black" stroke-width="0.185371"/>
<path d="M213.254 308.858L217.888 300.832L227.157 300.832L231.791 308.858L227.157 316.885L217.888 316.885L213.254 308.858Z" fill="#F3F3F5" stroke="black" stroke-width="0.185371"/>
<path d="M213.254 292.805L217.888 284.778L227.157 284.778L231.791 292.805L227.157 300.831L217.888 300.831L213.254 292.805Z" fill="#F3F3F5" stroke="black" stroke-width="0.185371"/>
<path d="M213.254 276.752L217.888 268.725L227.157 268.725L231.791 276.752L227.157 284.779L217.888 284.779L213.254 276.752Z" fill="#F3F3F5" stroke="black" stroke-width="0.185371"/>
<path d="M213.254 260.699L217.888 252.672L227.157 252.672L231.791 260.699L227.157 268.726L217.888 268.726L213.254 260.699Z" fill="#F3F3F5" stroke="black" stroke-width="0.185371"/>
<path d="M213.254 244.646L217.888 236.619L227.157 236.619L231.791 244.646L227.157 252.672L217.888 252.672L213.254 244.646Z" fill="#F3F3F5" stroke="black" stroke-width="0.185371"/>
<path d="M213.254 228.593L217.888 220.566L227.157 220.566L231.791 228.593L227.157 236.62L217.888 236.62L213.254 228.593Z" fill="#F3F3F5" stroke="black" stroke-width="0.185371"/>
<path d="M213.254 212.539L217.888 204.512L227.157 204.512L231.791 212.539L227.157 220.566L217.888 220.566L213.254 212.539Z" fill="#F3F3F5" stroke="black" stroke-width="0.185371"/>
<path d="M213.254 196.486L217.888 188.46L227.157 188.46L231.791 196.486L227.157 204.513L217.888 204.513L213.254 196.486Z" fill="#F3F3F5" stroke="black" stroke-width="0.185371"/>
<path d="M213.254 180.433L217.888 172.406L227.157 172.406L231.791 180.433L227.157 188.459L217.888 188.459L213.254 180.433Z" fill="#F3F3F5" stroke="black" stroke-width="0.185371"/>
<path d="M241.06 437.283L245.694 429.256L254.962 429.256L259.597 437.283L254.962 445.31L245.694 445.31L241.06 437.283Z" fill="#F3F3F5" stroke="black" stroke-width="0.185371"/>
<path d="M241.06 421.23L245.694 413.204L254.962 413.204L259.597 421.23L254.962 429.257L245.694 429.257L241.06 421.23Z" fill="#F3F3F5" stroke="black" stroke-width="0.185371"/>
<path d="M241.06 405.177L245.694 397.15L254.962 397.15L259.597 405.177L254.962 413.204L245.694 413.204L241.06 405.177Z" fill="#F3F3F5" stroke="black" stroke-width="0.185371"/>
<path d="M241.06 389.124L245.694 381.097L254.962 381.097L259.597 389.124L254.962 397.151L245.694 397.151L241.06 389.124Z" fill="#F3F3F5" stroke="black" stroke-width="0.185371"/>
<path d="M241.06 373.071L245.694 365.044L254.962 365.044L259.597 373.071L254.962 381.098L245.694 381.098L241.06 373.071Z" fill="#F3F3F5" stroke="black" stroke-width="0.185371"/>
<path d="M241.06 357.018L245.694 348.991L254.962 348.991L259.597 357.018L254.962 365.044L245.694 365.044L241.06 357.018Z" fill="#F3F3F5" stroke="black" stroke-width="0.185371"/>
<path d="M241.06 340.965L245.694 332.938L254.962 332.938L259.597 340.965L254.962 348.992L245.694 348.992L241.06 340.965Z" fill="#F3F3F5" stroke="black" stroke-width="0.185371"/>
<path d="M241.06 324.911L245.694 316.884L254.962 316.884L259.597 324.911L254.962 332.938L245.694 332.938L241.06 324.911Z" fill="#F3F3F5" stroke="black" stroke-width="0.185371"/>
<path d="M241.06 308.858L245.694 300.832L254.962 300.832L259.597 308.858L254.962 316.885L245.694 316.885L241.06 308.858Z" fill="#F3F3F5" stroke="black" stroke-width="0.185371"/>
<path d="M241.06 292.805L245.694 284.778L254.962 284.778L259.597 292.805L254.962 300.831L245.694 300.831L241.06 292.805Z" fill="#F3F3F5" stroke="black" stroke-width="0.185371"/>
<path d="M241.06 276.752L245.694 268.725L254.962 268.725L259.597 276.752L254.962 284.779L245.694 284.779L241.06 276.752Z" fill="#F3F3F5" stroke="black" stroke-width="0.185371"/>
<path d="M241.06 260.699L245.694 252.672L254.962 252.672L259.597 260.699L254.962 268.726L245.694 268.726L241.06 260.699Z" fill="#F3F3F5" stroke="black" stroke-width="0.185371"/>
<path d="M241.06 244.646L245.694 236.619L254.962 236.619L259.597 244.646L254.962 252.672L245.694 252.672L241.06 244.646Z" fill="#F3F3F5" stroke="black" stroke-width="0.185371"/>
<path d="M241.06 228.593L245.694 220.566L254.962 220.566L259.597 228.593L254.962 236.62L245.694 236.62L241.06 228.593Z" fill="#F3F3F5" stroke="black" stroke-width="0.185371"/>
<path d="M241.06 212.539L245.694 204.512L254.962 204.512L259.597 212.539L254.962 220.566L245.694 220.566L241.06 212.539Z" fill="#F3F3F5" stroke="black" stroke-width="0.185371"/>
<path d="M241.06 196.486L245.694 188.46L254.962 188.46L259.597 196.486L254.962 204.513L245.694 204.513L241.06 196.486Z" fill="#F3F3F5" stroke="black" stroke-width="0.185371"/>
<path d="M241.06 180.433L245.694 172.406L254.962 172.406L259.597 180.433L254.962 188.459L245.694 188.459L241.06 180.433Z" fill="#F3F3F5" stroke="black" stroke-width="0.185371"/>
<path d="M88.1289 445.311L92.7632 437.284L102.032 437.284L106.666 445.311L102.032 453.337L92.7632 453.337L88.1289 445.311Z" fill="#F3F3F5" stroke="black" stroke-width="0.185371"/>
<path d="M88.1289 429.257L92.7632 421.23L102.032 421.23L106.666 429.257L102.032 437.284L92.7632 437.284L88.1289 429.257Z" fill="#F3F3F5" stroke="black" stroke-width="0.185371"/>
<path d="M88.1289 413.204L92.7632 405.177L102.032 405.177L106.666 413.204L102.032 421.231L92.7632 421.231L88.1289 413.204Z" fill="#F3F3F5" stroke="black" stroke-width="0.185371"/>
<path d="M88.1289 397.15L92.7632 389.124L102.032 389.124L106.666 397.15L102.032 405.177L92.7632 405.177L88.1289 397.15Z" fill="#F3F3F5" stroke="black" stroke-width="0.185371"/>
<path d="M88.1289 381.098L92.7632 373.071L102.032 373.071L106.666 381.098L102.032 389.124L92.7632 389.124L88.1289 381.098Z" fill="#F3F3F5" stroke="black" stroke-width="0.185371"/>
<path d="M88.1289 365.044L92.7632 357.017L102.032 357.017L106.666 365.044L102.032 373.071L92.7632 373.071L88.1289 365.044Z" fill="#F3F3F5" stroke="black" stroke-width="0.185371"/>
<path d="M88.1289 348.991L92.7632 340.964L102.032 340.964L106.666 348.991L102.032 357.018L92.7632 357.018L88.1289 348.991Z" fill="#F3F3F5" stroke="black" stroke-width="0.185371"/>
<path d="M88.1289 332.938L92.7632 324.912L102.032 324.912L106.666 332.938L102.032 340.965L92.7632 340.965L88.1289 332.938Z" fill="#F3F3F5" stroke="black" stroke-width="0.185371"/>
<path d="M88.1289 316.885L92.7632 308.858L102.032 308.858L106.666 316.885L102.032 324.912L92.7632 324.912L88.1289 316.885Z" fill="#F3F3F5" stroke="black" stroke-width="0.185371"/>
<path d="M88.1289 300.832L92.7632 292.805L102.032 292.805L106.666 300.832L102.032 308.859L92.7632 308.859L88.1289 300.832Z" fill="#F3F3F5" stroke="black" stroke-width="0.185371"/>
<path d="M88.1289 284.778L92.7632 276.752L102.032 276.752L106.666 284.778L102.032 292.805L92.7632 292.805L88.1289 284.778Z" fill="#F3F3F5" stroke="black" stroke-width="0.185371"/>
<path d="M88.1289 268.726L92.7632 260.699L102.032 260.699L106.666 268.726L102.032 276.752L92.7632 276.752L88.1289 268.726Z" fill="#F3F3F5" stroke="black" stroke-width="0.185371"/>
<path d="M88.1289 252.673L92.7632 244.646L102.032 244.646L106.666 252.673L102.032 260.7L92.7632 260.7L88.1289 252.673Z" fill="#F3F3F5" stroke="black" stroke-width="0.185371"/>
<path d="M88.1289 236.619L92.7632 228.592L102.032 228.592L106.666 236.619L102.032 244.646L92.7632 244.646L88.1289 236.619Z" fill="#F3F3F5" stroke="black" stroke-width="0.185371"/>
<path d="M88.1289 220.566L92.7632 212.54L102.032 212.54L106.666 220.566L102.032 228.593L92.7632 228.593L88.1289 220.566Z" fill="#F3F3F5" stroke="black" stroke-width="0.185371"/>
<path d="M88.1289 204.513L92.7632 196.486L102.032 196.486L106.666 204.513L102.032 212.54L92.7632 212.539L88.1289 204.513Z" fill="#F3F3F5" stroke="black" stroke-width="0.185371"/>
<path d="M88.1289 188.46L92.7632 180.433L102.032 180.433L106.666 188.46L102.032 196.487L92.7632 196.487L88.1289 188.46Z" fill="#F3F3F5" stroke="black" stroke-width="0.185371"/>
<path d="M115.935 445.311L120.569 437.284L129.837 437.284L134.472 445.311L129.837 453.337L120.569 453.337L115.935 445.311Z" fill="#F3F3F5" stroke="black" stroke-width="0.185371"/>
<path d="M115.935 429.257L120.569 421.23L129.837 421.23L134.472 429.257L129.837 437.284L120.569 437.284L115.935 429.257Z" fill="#F3F3F5" stroke="black" stroke-width="0.185371"/>
<path d="M115.935 413.204L120.569 405.177L129.837 405.177L134.472 413.204L129.837 421.231L120.569 421.231L115.935 413.204Z" fill="#F3F3F5" stroke="black" stroke-width="0.185371"/>
<path d="M115.935 397.15L120.569 389.124L129.837 389.124L134.472 397.15L129.837 405.177L120.569 405.177L115.935 397.15Z" fill="#F3F3F5" stroke="black" stroke-width="0.185371"/>
<path d="M115.935 381.098L120.569 373.071L129.837 373.071L134.472 381.098L129.837 389.124L120.569 389.124L115.935 381.098Z" fill="#F3F3F5" stroke="black" stroke-width="0.185371"/>
<path d="M115.935 365.044L120.569 357.017L129.837 357.017L134.472 365.044L129.837 373.071L120.569 373.071L115.935 365.044Z" fill="#F3F3F5" stroke="black" stroke-width="0.185371"/>
<path d="M115.935 348.991L120.569 340.964L129.837 340.964L134.472 348.991L129.837 357.018L120.569 357.018L115.935 348.991Z" fill="#F3F3F5" stroke="black" stroke-width="0.185371"/>
<path d="M115.935 332.938L120.569 324.912L129.837 324.912L134.472 332.938L129.837 340.965L120.569 340.965L115.935 332.938Z" fill="#F3F3F5" stroke="black" stroke-width="0.185371"/>
<path d="M115.935 316.885L120.569 308.858L129.837 308.858L134.472 316.885L129.837 324.912L120.569 324.912L115.935 316.885Z" fill="#F3F3F5" stroke="black" stroke-width="0.185371"/>
<path d="M115.935 300.832L120.569 292.805L129.837 292.805L134.472 300.832L129.837 308.859L120.569 308.859L115.935 300.832Z" fill="#F3F3F5" stroke="black" stroke-width="0.185371"/>
<path d="M115.935 284.778L120.569 276.752L129.837 276.752L134.472 284.778L129.837 292.805L120.569 292.805L115.935 284.778Z" fill="#F3F3F5" stroke="black" stroke-width="0.185371"/>
<path d="M115.935 268.726L120.569 260.699L129.837 260.699L134.472 268.726L129.837 276.752L120.569 276.752L115.935 268.726Z" fill="#F3F3F5" stroke="black" stroke-width="0.185371"/>
<path d="M115.935 252.673L120.569 244.646L129.837 244.646L134.472 252.673L129.837 260.7L120.569 260.7L115.935 252.673Z" fill="#F3F3F5" stroke="black" stroke-width="0.185371"/>
<path d="M115.935 236.619L120.569 228.592L129.837 228.592L134.472 236.619L129.837 244.646L120.569 244.646L115.935 236.619Z" fill="#F3F3F5" stroke="black" stroke-width="0.185371"/>
<path d="M115.935 220.566L120.569 212.54L129.837 212.54L134.472 220.566L129.837 228.593L120.569 228.593L115.935 220.566Z" fill="#F3F3F5" stroke="black" stroke-width="0.185371"/>
<path d="M115.935 204.513L120.569 196.486L129.837 196.486L134.472 204.513L129.837 212.54L120.569 212.539L115.935 204.513Z" fill="#F3F3F5" stroke="black" stroke-width="0.185371"/>
<path d="M115.935 188.46L120.569 180.433L129.837 180.433L134.472 188.46L129.837 196.487L120.569 196.487L115.935 188.46Z" fill="#F3F3F5" stroke="black" stroke-width="0.185371"/>
<path d="M143.74 445.311L148.375 437.284L157.643 437.284L162.277 445.311L157.643 453.337L148.375 453.337L143.74 445.311Z" fill="#F3F3F5" stroke="black" stroke-width="0.185371"/>
<path d="M143.74 429.257L148.375 421.23L157.643 421.23L162.277 429.257L157.643 437.284L148.375 437.284L143.74 429.257Z" fill="#F3F3F5" stroke="black" stroke-width="0.185371"/>
<path d="M143.74 413.204L148.375 405.177L157.643 405.177L162.277 413.204L157.643 421.231L148.375 421.231L143.74 413.204Z" fill="#F3F3F5" stroke="black" stroke-width="0.185371"/>
<path d="M143.74 397.15L148.375 389.124L157.643 389.124L162.277 397.15L157.643 405.177L148.375 405.177L143.74 397.15Z" fill="#F3F3F5" stroke="black" stroke-width="0.185371"/>
<path d="M143.74 381.098L148.375 373.071L157.643 373.071L162.277 381.098L157.643 389.124L148.375 389.124L143.74 381.098Z" fill="#F3F3F5" stroke="black" stroke-width="0.185371"/>
<path d="M143.74 365.044L148.375 357.017L157.643 357.017L162.277 365.044L157.643 373.071L148.375 373.071L143.74 365.044Z" fill="#F3F3F5" stroke="black" stroke-width="0.185371"/>
<path d="M143.74 348.991L148.375 340.964L157.643 340.964L162.277 348.991L157.643 357.018L148.375 357.018L143.74 348.991Z" fill="#F3F3F5" stroke="black" stroke-width="0.185371"/>
<path d="M143.74 332.938L148.375 324.912L157.643 324.912L162.277 332.938L157.643 340.965L148.375 340.965L143.74 332.938Z" fill="#F3F3F5" stroke="black" stroke-width="0.185371"/>
<path d="M143.74 316.885L148.375 308.858L157.643 308.858L162.277 316.885L157.643 324.912L148.375 324.912L143.74 316.885Z" fill="#F3F3F5" stroke="black" stroke-width="0.185371"/>
<path d="M143.74 300.832L148.375 292.805L157.643 292.805L162.277 300.832L157.643 308.859L148.375 308.859L143.74 300.832Z" fill="#F3F3F5" stroke="black" stroke-width="0.185371"/>
<path d="M143.74 284.778L148.375 276.752L157.643 276.752L162.277 284.778L157.643 292.805L148.375 292.805L143.74 284.778Z" fill="#F3F3F5" stroke="black" stroke-width="0.185371"/>
<path d="M143.74 268.726L148.375 260.699L157.643 260.699L162.277 268.726L157.643 276.752L148.375 276.752L143.74 268.726Z" fill="#F3F3F5" stroke="black" stroke-width="0.185371"/>
<path d="M143.74 252.673L148.375 244.646L157.643 244.646L162.277 252.673L157.643 260.7L148.375 260.7L143.74 252.673Z" fill="#F3F3F5" stroke="black" stroke-width="0.185371"/>
<path d="M143.74 236.619L148.375 228.592L157.643 228.592L162.277 236.619L157.643 244.646L148.375 244.646L143.74 236.619Z" fill="#F3F3F5" stroke="black" stroke-width="0.185371"/>
<path d="M143.74 220.566L148.375 212.54L157.643 212.54L162.277 220.566L157.643 228.593L148.375 228.593L143.74 220.566Z" fill="#F3F3F5" stroke="black" stroke-width="0.185371"/>
<path d="M143.74 204.513L148.375 196.486L157.643 196.486L162.277 204.513L157.643 212.54L148.375 212.539L143.74 204.513Z" fill="#F3F3F5" stroke="black" stroke-width="0.185371"/>
<path d="M143.74 188.46L148.375 180.433L157.643 180.433L162.277 188.46L157.643 196.487L148.375 196.487L143.74 188.46Z" fill="#F3F3F5" stroke="black" stroke-width="0.185371"/>
<path d="M171.546 445.311L176.18 437.284L185.449 437.284L190.083 445.311L185.449 453.337L176.18 453.337L171.546 445.311Z" fill="#F3F3F5" stroke="black" stroke-width="0.185371"/>
<path d="M171.546 429.257L176.18 421.23L185.449 421.23L190.083 429.257L185.449 437.284L176.18 437.284L171.546 429.257Z" fill="#F3F3F5" stroke="black" stroke-width="0.185371"/>
<path d="M171.546 413.204L176.18 405.177L185.449 405.177L190.083 413.204L185.449 421.231L176.18 421.231L171.546 413.204Z" fill="#F3F3F5" stroke="black" stroke-width="0.185371"/>
<path d="M171.546 397.15L176.18 389.124L185.449 389.124L190.083 397.15L185.449 405.177L176.18 405.177L171.546 397.15Z" fill="#F3F3F5" stroke="black" stroke-width="0.185371"/>
<path d="M171.546 381.098L176.18 373.071L185.449 373.071L190.083 381.098L185.449 389.124L176.18 389.124L171.546 381.098Z" fill="#F3F3F5" stroke="black" stroke-width="0.185371"/>
<path d="M171.546 365.044L176.18 357.017L185.449 357.017L190.083 365.044L185.449 373.071L176.18 373.071L171.546 365.044Z" fill="#F3F3F5" stroke="black" stroke-width="0.185371"/>
<path d="M171.546 348.991L176.18 340.964L185.449 340.964L190.083 348.991L185.449 357.018L176.18 357.018L171.546 348.991Z" fill="#F3F3F5" stroke="black" stroke-width="0.185371"/>
<path d="M171.546 332.938L176.18 324.912L185.449 324.912L190.083 332.938L185.449 340.965L176.18 340.965L171.546 332.938Z" fill="#F3F3F5" stroke="black" stroke-width="0.185371"/>
<path d="M171.546 316.885L176.18 308.858L185.449 308.858L190.083 316.885L185.449 324.912L176.18 324.912L171.546 316.885Z" fill="#F3F3F5" stroke="black" stroke-width="0.185371"/>
<path d="M171.546 300.832L176.18 292.805L185.449 292.805L190.083 300.832L185.449 308.859L176.18 308.859L171.546 300.832Z" fill="#F3F3F5" stroke="black" stroke-width="0.185371"/>
<path d="M171.546 284.778L176.18 276.752L185.449 276.752L190.083 284.778L185.449 292.805L176.18 292.805L171.546 284.778Z" fill="#F3F3F5" stroke="black" stroke-width="0.185371"/>
<path d="M171.546 268.726L176.18 260.699L185.449 260.699L190.083 268.726L185.449 276.752L176.18 276.752L171.546 268.726Z" fill="#F3F3F5" stroke="black" stroke-width="0.185371"/>
<path d="M171.546 252.673L176.18 244.646L185.449 244.646L190.083 252.673L185.449 260.7L176.18 260.7L171.546 252.673Z" fill="#F3F3F5" stroke="black" stroke-width="0.185371"/>
<path d="M171.546 236.619L176.18 228.592L185.449 228.592L190.083 236.619L185.449 244.646L176.18 244.646L171.546 236.619Z" fill="#F3F3F5" stroke="black" stroke-width="0.185371"/>
<path d="M171.546 220.566L176.18 212.54L185.449 212.54L190.083 220.566L185.449 228.593L176.18 228.593L171.546 220.566Z" fill="#F3F3F5" stroke="black" stroke-width="0.185371"/>
<path d="M171.546 204.513L176.18 196.486L185.449 196.486L190.083 204.513L185.449 212.54L176.18 212.539L171.546 204.513Z" fill="#F3F3F5" stroke="black" stroke-width="0.185371"/>
<path d="M171.546 188.46L176.18 180.433L185.449 180.433L190.083 188.46L185.449 196.487L176.18 196.487L171.546 188.46Z" fill="#F3F3F5" stroke="black" stroke-width="0.185371"/>
<path d="M199.352 445.311L203.986 437.284L213.254 437.284L217.889 445.311L213.254 453.337L203.986 453.337L199.352 445.311Z" fill="#F3F3F5" stroke="black" stroke-width="0.185371"/>
<path d="M199.352 429.257L203.986 421.23L213.254 421.23L217.889 429.257L213.254 437.284L203.986 437.284L199.352 429.257Z" fill="#F3F3F5" stroke="black" stroke-width="0.185371"/>
<path d="M199.352 413.204L203.986 405.177L213.254 405.177L217.889 413.204L213.254 421.231L203.986 421.231L199.352 413.204Z" fill="#F3F3F5" stroke="black" stroke-width="0.185371"/>
<path d="M199.352 397.15L203.986 389.124L213.254 389.124L217.889 397.15L213.254 405.177L203.986 405.177L199.352 397.15Z" fill="#F3F3F5" stroke="black" stroke-width="0.185371"/>
<path d="M199.352 381.098L203.986 373.071L213.254 373.071L217.889 381.098L213.254 389.124L203.986 389.124L199.352 381.098Z" fill="#F3F3F5" stroke="black" stroke-width="0.185371"/>
<path d="M199.352 365.044L203.986 357.017L213.254 357.017L217.889 365.044L213.254 373.071L203.986 373.071L199.352 365.044Z" fill="#F3F3F5" stroke="black" stroke-width="0.185371"/>
<path d="M199.352 348.991L203.986 340.964L213.254 340.964L217.889 348.991L213.254 357.018L203.986 357.018L199.352 348.991Z" fill="#F3F3F5" stroke="black" stroke-width="0.185371"/>
<path d="M199.352 332.938L203.986 324.912L213.254 324.912L217.889 332.938L213.254 340.965L203.986 340.965L199.352 332.938Z" fill="#F3F3F5" stroke="black" stroke-width="0.185371"/>
<path d="M199.352 316.885L203.986 308.858L213.254 308.858L217.889 316.885L213.254 324.912L203.986 324.912L199.352 316.885Z" fill="#F3F3F5" stroke="black" stroke-width="0.185371"/>
<path d="M199.352 300.832L203.986 292.805L213.254 292.805L217.889 300.832L213.254 308.859L203.986 308.859L199.352 300.832Z" fill="#F3F3F5" stroke="black" stroke-width="0.185371"/>
<path d="M199.352 284.778L203.986 276.752L213.254 276.752L217.889 284.778L213.254 292.805L203.986 292.805L199.352 284.778Z" fill="#F3F3F5" stroke="black" stroke-width="0.185371"/>
<path d="M199.352 268.726L203.986 260.699L213.254 260.699L217.889 268.726L213.254 276.752L203.986 276.752L199.352 268.726Z" fill="#F3F3F5" stroke="black" stroke-width="0.185371"/>
<path d="M199.352 252.673L203.986 244.646L213.254 244.646L217.889 252.673L213.254 260.7L203.986 260.7L199.352 252.673Z" fill="#F3F3F5" stroke="black" stroke-width="0.185371"/>
<path d="M199.352 236.619L203.986 228.592L213.254 228.592L217.889 236.619L213.254 244.646L203.986 244.646L199.352 236.619Z" fill="#F3F3F5" stroke="black" stroke-width="0.185371"/>
<path d="M199.352 220.566L203.986 212.54L213.254 212.54L217.889 220.566L213.254 228.593L203.986 228.593L199.352 220.566Z" fill="#F3F3F5" stroke="black" stroke-width="0.185371"/>
<path d="M199.352 204.513L203.986 196.486L213.254 196.486L217.889 204.513L213.254 212.54L203.986 212.539L199.352 204.513Z" fill="#F3F3F5" stroke="black" stroke-width="0.185371"/>
<path d="M199.352 188.46L203.986 180.433L213.254 180.433L217.889 188.46L213.254 196.487L203.986 196.487L199.352 188.46Z" fill="#F3F3F5" stroke="black" stroke-width="0.185371"/>
<path d="M227.157 445.311L231.792 437.284L241.06 437.284L245.694 445.311L241.06 453.337L231.792 453.337L227.157 445.311Z" fill="#F3F3F5" stroke="black" stroke-width="0.185371"/>
<path d="M227.157 429.257L231.792 421.23L241.06 421.23L245.694 429.257L241.06 437.284L231.792 437.284L227.157 429.257Z" fill="#F3F3F5" stroke="black" stroke-width="0.185371"/>
<path d="M227.157 413.204L231.792 405.177L241.06 405.177L245.694 413.204L241.06 421.231L231.792 421.231L227.157 413.204Z" fill="#F3F3F5" stroke="black" stroke-width="0.185371"/>
<path d="M227.157 397.15L231.792 389.124L241.06 389.124L245.694 397.15L241.06 405.177L231.792 405.177L227.157 397.15Z" fill="#F3F3F5" stroke="black" stroke-width="0.185371"/>
<path d="M227.157 381.098L231.792 373.071L241.06 373.071L245.694 381.098L241.06 389.124L231.792 389.124L227.157 381.098Z" fill="#F3F3F5" stroke="black" stroke-width="0.185371"/>
<path d="M227.157 365.044L231.792 357.017L241.06 357.017L245.694 365.044L241.06 373.071L231.792 373.071L227.157 365.044Z" fill="#F3F3F5" stroke="black" stroke-width="0.185371"/>
<path d="M227.157 348.991L231.792 340.964L241.06 340.964L245.694 348.991L241.06 357.018L231.792 357.018L227.157 348.991Z" fill="#F3F3F5" stroke="black" stroke-width="0.185371"/>
<path d="M227.157 332.938L231.792 324.912L241.06 324.912L245.694 332.938L241.06 340.965L231.792 340.965L227.157 332.938Z" fill="#F3F3F5" stroke="black" stroke-width="0.185371"/>
<path d="M227.157 316.885L231.792 308.858L241.06 308.858L245.694 316.885L241.06 324.912L231.792 324.912L227.157 316.885Z" fill="#F3F3F5" stroke="black" stroke-width="0.185371"/>
<path d="M227.157 300.832L231.792 292.805L241.06 292.805L245.694 300.832L241.06 308.859L231.792 308.859L227.157 300.832Z" fill="#F3F3F5" stroke="black" stroke-width="0.185371"/>
<path d="M227.157 284.778L231.792 276.752L241.06 276.752L245.694 284.778L241.06 292.805L231.792 292.805L227.157 284.778Z" fill="#F3F3F5" stroke="black" stroke-width="0.185371"/>
<path d="M227.157 268.726L231.792 260.699L241.06 260.699L245.694 268.726L241.06 276.752L231.792 276.752L227.157 268.726Z" fill="#F3F3F5" stroke="black" stroke-width="0.185371"/>
<path d="M227.157 252.673L231.792 244.646L241.06 244.646L245.694 252.673L241.06 260.7L231.792 260.7L227.157 252.673Z" fill="#F3F3F5" stroke="black" stroke-width="0.185371"/>
<path d="M227.157 236.619L231.792 228.592L241.06 228.592L245.694 236.619L241.06 244.646L231.792 244.646L227.157 236.619Z" fill="#F3F3F5" stroke="black" stroke-width="0.185371"/>
<path d="M227.157 220.566L231.792 212.54L241.06 212.54L245.694 220.566L241.06 228.593L231.792 228.593L227.157 220.566Z" fill="#F3F3F5" stroke="black" stroke-width="0.185371"/>
<path d="M227.157 204.513L231.792 196.486L241.06 196.486L245.694 204.513L241.06 212.54L231.792 212.539L227.157 204.513Z" fill="#F3F3F5" stroke="black" stroke-width="0.185371"/>
<path d="M227.157 188.46L231.792 180.433L241.06 180.433L245.694 188.46L241.06 196.487L231.792 196.487L227.157 188.46Z" fill="#F3F3F5" stroke="black" stroke-width="0.185371"/>
<path d="M254.963 445.311L259.597 437.284L268.866 437.284L273.5 445.311L268.866 453.337L259.597 453.337L254.963 445.311Z" fill="#F3F3F5" stroke="black" stroke-width="0.185371"/>
<path d="M254.963 429.257L259.597 421.23L268.866 421.23L273.5 429.257L268.866 437.284L259.597 437.284L254.963 429.257Z" fill="#F3F3F5" stroke="black" stroke-width="0.185371"/>
<path d="M254.963 413.204L259.597 405.177L268.866 405.177L273.5 413.204L268.866 421.231L259.597 421.231L254.963 413.204Z" fill="#F3F3F5" stroke="black" stroke-width="0.185371"/>
<path d="M254.963 397.15L259.597 389.124L268.866 389.124L273.5 397.15L268.866 405.177L259.597 405.177L254.963 397.15Z" fill="#F3F3F5" stroke="black" stroke-width="0.185371"/>
<path d="M254.963 381.098L259.597 373.071L268.866 373.071L273.5 381.098L268.866 389.124L259.597 389.124L254.963 381.098Z" fill="#F3F3F5" stroke="black" stroke-width="0.185371"/>
<path d="M254.963 365.044L259.597 357.017L268.866 357.017L273.5 365.044L268.866 373.071L259.597 373.071L254.963 365.044Z" fill="#F3F3F5" stroke="black" stroke-width="0.185371"/>
<path d="M254.963 348.991L259.597 340.964L268.866 340.964L273.5 348.991L268.866 357.018L259.597 357.018L254.963 348.991Z" fill="#F3F3F5" stroke="black" stroke-width="0.185371"/>
<path d="M254.963 332.938L259.597 324.912L268.866 324.912L273.5 332.938L268.866 340.965L259.597 340.965L254.963 332.938Z" fill="#F3F3F5" stroke="black" stroke-width="0.185371"/>
<path d="M254.963 316.885L259.597 308.858L268.866 308.858L273.5 316.885L268.866 324.912L259.597 324.912L254.963 316.885Z" fill="#F3F3F5" stroke="black" stroke-width="0.185371"/>
<path d="M254.963 300.832L259.597 292.805L268.866 292.805L273.5 300.832L268.866 308.859L259.597 308.859L254.963 300.832Z" fill="#F3F3F5" stroke="black" stroke-width="0.185371"/>
<path d="M254.963 284.778L259.597 276.752L268.866 276.752L273.5 284.778L268.866 292.805L259.597 292.805L254.963 284.778Z" fill="#F3F3F5" stroke="black" stroke-width="0.185371"/>
<path d="M254.963 268.726L259.597 260.699L268.866 260.699L273.5 268.726L268.866 276.752L259.597 276.752L254.963 268.726Z" fill="#F3F3F5" stroke="black" stroke-width="0.185371"/>
<path d="M254.963 252.673L259.597 244.646L268.866 244.646L273.5 252.673L268.866 260.7L259.597 260.7L254.963 252.673Z" fill="#F3F3F5" stroke="black" stroke-width="0.185371"/>
<path d="M254.963 236.619L259.597 228.592L268.866 228.592L273.5 236.619L268.866 244.646L259.597 244.646L254.963 236.619Z" fill="#F3F3F5" stroke="black" stroke-width="0.185371"/>
<path d="M254.963 220.566L259.597 212.54L268.866 212.54L273.5 220.566L268.866 228.593L259.597 228.593L254.963 220.566Z" fill="#F3F3F5" stroke="black" stroke-width="0.185371"/>
<path d="M254.963 204.513L259.597 196.486L268.866 196.486L273.5 204.513L268.866 212.54L259.597 212.539L254.963 204.513Z" fill="#F3F3F5" stroke="black" stroke-width="0.185371"/>
<path d="M254.963 188.46L259.597 180.433L268.866 180.433L273.5 188.46L268.866 196.487L259.597 196.487L254.963 188.46Z" fill="#F3F3F5" stroke="black" stroke-width="0.185371"/>
</g>
<rect x="104.445" y="444.323" width="442.651" height="1.65787" transform="rotate(-90 104.445 444.323)" fill="#FA5F1C"/>
<rect x="268.574" y="444.323" width="442.651" height="1.65787" transform="rotate(-90 268.574 444.323)" fill="#FA5F1C"/>
<rect y="361.43" width="1.65787" height="104.446" transform="rotate(-90 0 361.43)" fill="black"/>
<rect y="169.117" width="1.65787" height="104.446" transform="rotate(-90 0 169.117)" fill="black"/>
<path d="M0.828125 357.295C0.828125 357.295 0.828124 366.418 0.828126 355.637C0.828127 344.855 89.5241 352.321 91.1819 331.598L91.182 267.761" stroke="black" stroke-width="1.65787"/>
<path d="M0.828125 172.424C0.828125 172.424 0.828126 163.301 0.828124 174.082C0.828123 184.863 89.5241 177.398 91.1819 198.121L91.1819 261.958" stroke="black" stroke-width="1.65787"/>
<path d="M105.275 217.195L119.367 217.195L119.367 180.722C119.367 180.722 122.683 179.893 125.999 180.722C129.314 181.551 135.946 203.103 135.946 203.103L200.603 203.103" stroke="#FA5F1C" stroke-width="1.65787"/>
<path d="M269.404 217.195L255.312 217.195L255.312 180.722C255.312 180.722 251.997 179.893 248.681 180.722C245.365 181.551 238.734 203.103 238.734 203.103L174.077 203.103" stroke="#FA5F1C" stroke-width="1.65787"/>
<path d="M269.404 281.023L276.036 281.023L276.036 249.524L269.404 249.524" stroke="black" stroke-width="1.65787"/>
<path d="M276.035 272.734L284.324 272.734L284.324 257.814L276.035 257.814" stroke="black" stroke-width="1.65787"/>
<path d="M276.035 269.418L284.324 269.418" stroke="black" stroke-width="1.65787"/>
<path d="M276.035 261.129L284.324 261.129" stroke="black" stroke-width="1.65787"/>
<path d="M269.403 267.761L65.4857 267.761L62.1699 264.445L65.4857 261.129L269.403 261.129" stroke="black" stroke-width="1.65787"/>
<path d="M247.021 270.247L251.995 258.642" stroke="black" stroke-width="1.65787"/>
<path d="M154.182 270.247L159.155 258.642" stroke="black" stroke-width="1.65787"/>
<path d="M134.287 270.247L139.261 258.642" stroke="black" stroke-width="1.65787"/>
<path d="M114.393 270.247L119.366 258.642" stroke="black" stroke-width="1.65787"/>
<path d="M94.498 270.247L99.4717 258.642" stroke="black" stroke-width="1.65787"/>
<path d="M251.996 270.247L256.97 258.642" stroke="black" stroke-width="1.65787"/>
<path d="M159.156 270.247L164.13 258.642" stroke="black" stroke-width="1.65787"/>
<path d="M139.262 270.247L144.235 258.642" stroke="black" stroke-width="1.65787"/>
<path d="M119.367 270.247L124.341 258.642" stroke="black" stroke-width="1.65787"/>
<path d="M99.4727 270.247L104.446 258.642" stroke="black" stroke-width="1.65787"/>
<path d="M256.969 270.247L261.942 258.642" stroke="black" stroke-width="1.65787"/>
<path d="M164.129 270.247L169.103 258.642" stroke="black" stroke-width="1.65787"/>
<path d="M144.234 270.247L149.208 258.642" stroke="black" stroke-width="1.65787"/>
<path d="M124.34 270.247L129.313 258.642" stroke="black" stroke-width="1.65787"/>
<path d="M104.445 270.247L109.419 258.642" stroke="black" stroke-width="1.65787"/>
<path d="M261.943 270.247L266.917 258.642" stroke="black" stroke-width="1.65787"/>
<path d="M169.104 270.247L174.077 258.642" stroke="black" stroke-width="1.65787"/>
<path d="M149.209 270.247L154.183 258.642" stroke="black" stroke-width="1.65787"/>
<path d="M129.314 270.247L134.288 258.642" stroke="black" stroke-width="1.65787"/>
<path d="M109.42 270.247L114.394 258.642" stroke="black" stroke-width="1.65787"/>
<path opacity="0.2" d="M106.104 1.67227L117.709 13.2773L129.314 1.67227L140.919 13.2773L152.524 1.67228L164.129 13.2774L175.734 1.67228L187.339 13.2774L198.944 1.67228L210.549 13.2774L222.154 1.67228L233.759 13.2774L245.364 1.67229L256.97 13.2774L268.575 1.67229" stroke="black" stroke-width="1.65787"/>
<path opacity="0.2" d="M106.104 444.323L117.709 432.718L129.314 444.323L140.919 432.718L152.524 444.323L164.129 432.718L175.734 444.323L187.339 432.718L198.944 444.323L210.549 432.718L222.154 444.323L233.759 432.718L245.364 444.323L256.97 432.718L268.575 444.323" stroke="black" stroke-width="1.65787"/>
<path d="M269.404 281.852L269.404 248.694" stroke="black" stroke-width="1.65787"/>
</svg>
