<svg width="363" height="233" viewBox="0 0 363 233" fill="none" xmlns="http://www.w3.org/2000/svg">
<mask id="mask0_760_68092" style="mask-type:alpha" maskUnits="userSpaceOnUse" x="186" y="86" width="176" height="134">
<path d="M361.088 219.084L352.099 210.096L351.621 209.618L352.099 209.139L361.088 200.151L352.099 191.162L351.621 190.684L352.099 190.206L361.088 181.218L352.099 172.229L351.621 171.751L352.099 171.273L361.088 162.285L352.099 153.296L351.621 152.818L352.099 152.34L361.088 143.351L352.099 134.363L351.621 133.885L352.099 133.407L361.088 124.418L352.099 115.43L351.621 114.951L352.099 114.473L361.088 105.485L352.099 96.4963L351.621 96.0182L352.099 95.5401L361.088 86.5516H186.912V96.6944H215.988H216.516L216.644 97.2066L216.644 97.2083L216.645 97.211L216.647 97.2193L216.654 97.2476C216.659 97.2716 216.667 97.3055 216.677 97.3489C216.695 97.4356 216.721 97.5599 216.749 97.7166C216.805 98.0296 216.871 98.4734 216.915 99.0049C217.003 100.062 217.006 101.495 216.644 102.944C216.565 103.259 216.381 103.534 216.179 103.764C215.971 103.999 215.709 104.227 215.414 104.447C214.824 104.887 214.043 105.34 213.157 105.792C211.38 106.696 209.092 107.636 206.845 108.484C204.593 109.334 202.365 110.098 200.701 110.649C199.869 110.924 199.177 111.147 198.692 111.301L198.407 111.391V141.999V163.637V194.244L198.692 194.335C199.177 194.489 199.869 194.711 200.701 194.987C202.365 195.538 204.593 196.302 206.845 197.152C209.092 198 211.38 198.94 213.157 199.844C214.043 200.295 214.824 200.749 215.414 201.188C215.709 201.408 215.971 201.637 216.179 201.872C216.381 202.101 216.565 202.376 216.644 202.692C217.006 204.141 217.003 205.574 216.915 206.631C216.871 207.162 216.805 207.606 216.749 207.919C216.721 208.076 216.695 208.2 216.677 208.287L216.662 208.352L216.654 208.388L216.647 208.416L216.645 208.425L216.644 208.427L216.644 208.429L216.516 208.941H215.988H186.912V219.084H361.088Z" fill="#D9D9D9"/>
</mask>
<g mask="url(#mask0_760_68092)">
<path d="M186.425 83.2295L192.973 87.0098V94.5705L186.425 98.3508L179.877 94.5705V87.0098L186.425 83.2295Z" fill="#F3F3F5" stroke="black" stroke-width="0.151213"/>
<path d="M199.52 83.2295L206.067 87.0098V94.5705L199.52 98.3508L192.972 94.5705V87.0098L199.52 83.2295Z" fill="#F3F3F5" stroke="black" stroke-width="0.151213"/>
<path d="M212.615 83.2295L219.163 87.0098V94.5705L212.615 98.3508L206.068 94.5705V87.0098L212.615 83.2295Z" fill="#F3F3F5" stroke="black" stroke-width="0.151213"/>
<path d="M225.71 83.2295L232.258 87.0098V94.5705L225.71 98.3508L219.162 94.5705V87.0098L225.71 83.2295Z" fill="#F3F3F5" stroke="black" stroke-width="0.151213"/>
<path d="M238.805 83.2295L245.353 87.0098V94.5705L238.805 98.3508L232.257 94.5705V87.0098L238.805 83.2295Z" fill="#F3F3F5" stroke="black" stroke-width="0.151213"/>
<path d="M251.9 83.2295L258.448 87.0098V94.5705L251.9 98.3508L245.353 94.5705V87.0098L251.9 83.2295Z" fill="#F3F3F5" stroke="black" stroke-width="0.151213"/>
<path d="M264.995 83.2295L271.543 87.0098V94.5705L264.995 98.3508L258.448 94.5705V87.0098L264.995 83.2295Z" fill="#F3F3F5" stroke="black" stroke-width="0.151213"/>
<path d="M278.09 83.2295L284.638 87.0098V94.5705L278.09 98.3508L271.542 94.5705V87.0098L278.09 83.2295Z" fill="#F3F3F5" stroke="black" stroke-width="0.151213"/>
<path d="M291.186 83.2295L297.733 87.0098V94.5705L291.186 98.3508L284.638 94.5705V87.0098L291.186 83.2295Z" fill="#F3F3F5" stroke="black" stroke-width="0.151213"/>
<path d="M304.28 83.2295L310.828 87.0098V94.5705L304.28 98.3508L297.733 94.5705V87.0098L304.28 83.2295Z" fill="#F3F3F5" stroke="black" stroke-width="0.151213"/>
<path d="M317.375 83.2295L323.923 87.0098V94.5705L317.375 98.3508L310.827 94.5705V87.0098L317.375 83.2295Z" fill="#F3F3F5" stroke="black" stroke-width="0.151213"/>
<path d="M330.471 83.2295L337.019 87.0098V94.5705L330.471 98.3508L323.923 94.5705V87.0098L330.471 83.2295Z" fill="#F3F3F5" stroke="black" stroke-width="0.151213"/>
<path d="M343.566 83.2295L350.113 87.0098V94.5705L343.566 98.3508L337.018 94.5705V87.0098L343.566 83.2295Z" fill="#F3F3F5" stroke="black" stroke-width="0.151213"/>
<path d="M356.66 83.2295L363.208 87.0098V94.5705L356.66 98.3508L350.113 94.5705V87.0098L356.66 83.2295Z" fill="#F3F3F5" stroke="black" stroke-width="0.151213"/>
<path d="M186.425 105.911L192.973 109.691V117.252L186.425 121.032L179.877 117.252V109.691L186.425 105.911Z" fill="#F3F3F5" stroke="black" stroke-width="0.151213"/>
<path d="M199.52 105.911L206.067 109.691V117.252L199.52 121.032L192.972 117.252V109.691L199.52 105.911Z" fill="#F3F3F5" stroke="black" stroke-width="0.151213"/>
<path d="M212.615 105.911L219.163 109.691V117.252L212.615 121.032L206.068 117.252V109.691L212.615 105.911Z" fill="#F3F3F5" stroke="black" stroke-width="0.151213"/>
<path d="M225.71 105.911L232.258 109.691V117.252L225.71 121.032L219.162 117.252V109.691L225.71 105.911Z" fill="#F3F3F5" stroke="black" stroke-width="0.151213"/>
<path d="M238.805 105.911L245.353 109.691V117.252L238.805 121.032L232.257 117.252V109.691L238.805 105.911Z" fill="#F3F3F5" stroke="black" stroke-width="0.151213"/>
<path d="M251.9 105.911L258.448 109.691V117.252L251.9 121.032L245.353 117.252V109.691L251.9 105.911Z" fill="#F3F3F5" stroke="black" stroke-width="0.151213"/>
<path d="M264.995 105.911L271.543 109.691V117.252L264.995 121.032L258.448 117.252V109.691L264.995 105.911Z" fill="#F3F3F5" stroke="black" stroke-width="0.151213"/>
<path d="M278.09 105.911L284.638 109.691V117.252L278.09 121.032L271.542 117.252V109.691L278.09 105.911Z" fill="#F3F3F5" stroke="black" stroke-width="0.151213"/>
<path d="M291.186 105.911L297.733 109.691V117.252L291.186 121.032L284.638 117.252V109.691L291.186 105.911Z" fill="#F3F3F5" stroke="black" stroke-width="0.151213"/>
<path d="M304.28 105.911L310.828 109.691V117.252L304.28 121.032L297.733 117.252V109.691L304.28 105.911Z" fill="#F3F3F5" stroke="black" stroke-width="0.151213"/>
<path d="M317.375 105.911L323.923 109.691V117.252L317.375 121.032L310.827 117.252V109.691L317.375 105.911Z" fill="#F3F3F5" stroke="black" stroke-width="0.151213"/>
<path d="M330.47 105.911L337.018 109.691V117.252L330.47 121.032L323.922 117.252V109.691L330.47 105.911Z" fill="#F3F3F5" stroke="black" stroke-width="0.151213"/>
<path d="M343.566 105.911L350.113 109.691V117.252L343.566 121.032L337.018 117.252V109.691L343.566 105.911Z" fill="#F3F3F5" stroke="black" stroke-width="0.151213"/>
<path d="M356.66 105.911L363.208 109.691V117.252L356.66 121.032L350.113 117.252V109.691L356.66 105.911Z" fill="#F3F3F5" stroke="black" stroke-width="0.151213"/>
<path d="M186.425 128.593L192.973 132.373V139.934L186.425 143.714L179.877 139.934V132.373L186.425 128.593Z" fill="#F3F3F5" stroke="black" stroke-width="0.151213"/>
<path d="M199.52 128.593L206.067 132.373V139.934L199.52 143.714L192.972 139.934V132.373L199.52 128.593Z" fill="#F3F3F5" stroke="black" stroke-width="0.151213"/>
<path d="M212.615 128.593L219.163 132.373V139.934L212.615 143.714L206.068 139.934V132.373L212.615 128.593Z" fill="#F3F3F5" stroke="black" stroke-width="0.151213"/>
<path d="M225.71 128.593L232.258 132.373V139.934L225.71 143.714L219.162 139.934V132.373L225.71 128.593Z" fill="#F3F3F5" stroke="black" stroke-width="0.151213"/>
<path d="M238.805 128.593L245.353 132.373V139.934L238.805 143.714L232.257 139.934V132.373L238.805 128.593Z" fill="#F3F3F5" stroke="black" stroke-width="0.151213"/>
<path d="M251.9 128.593L258.448 132.373V139.934L251.9 143.714L245.353 139.934V132.373L251.9 128.593Z" fill="#F3F3F5" stroke="black" stroke-width="0.151213"/>
<path d="M264.995 128.593L271.543 132.373V139.934L264.995 143.714L258.448 139.934V132.373L264.995 128.593Z" fill="#F3F3F5" stroke="black" stroke-width="0.151213"/>
<path d="M278.09 128.593L284.638 132.373V139.934L278.09 143.714L271.542 139.934V132.373L278.09 128.593Z" fill="#F3F3F5" stroke="black" stroke-width="0.151213"/>
<path d="M291.186 128.593L297.733 132.373V139.934L291.186 143.714L284.638 139.934V132.373L291.186 128.593Z" fill="#F3F3F5" stroke="black" stroke-width="0.151213"/>
<path d="M304.28 128.593L310.828 132.373V139.934L304.28 143.714L297.733 139.934V132.373L304.28 128.593Z" fill="#F3F3F5" stroke="black" stroke-width="0.151213"/>
<path d="M317.375 128.593L323.923 132.373V139.934L317.375 143.714L310.827 139.934V132.373L317.375 128.593Z" fill="#F3F3F5" stroke="black" stroke-width="0.151213"/>
<path d="M330.47 128.593L337.018 132.373V139.934L330.47 143.714L323.922 139.934V132.373L330.47 128.593Z" fill="#F3F3F5" stroke="black" stroke-width="0.151213"/>
<path d="M343.566 128.593L350.113 132.373V139.934L343.566 143.714L337.018 139.934V132.373L343.566 128.593Z" fill="#F3F3F5" stroke="black" stroke-width="0.151213"/>
<path d="M356.66 128.593L363.208 132.373V139.934L356.66 143.714L350.113 139.934V132.373L356.66 128.593Z" fill="#F3F3F5" stroke="black" stroke-width="0.151213"/>
<path d="M186.425 151.275L192.973 155.056V162.616L186.425 166.397L179.877 162.616V155.056L186.425 151.275Z" fill="#F3F3F5" stroke="black" stroke-width="0.151213"/>
<path d="M199.52 151.275L206.067 155.056V162.616L199.52 166.397L192.972 162.616V155.056L199.52 151.275Z" fill="#F3F3F5" stroke="black" stroke-width="0.151213"/>
<path d="M212.615 151.275L219.163 155.056V162.616L212.615 166.397L206.068 162.616V155.056L212.615 151.275Z" fill="#F3F3F5" stroke="black" stroke-width="0.151213"/>
<path d="M225.71 151.275L232.258 155.056V162.616L225.71 166.397L219.162 162.616V155.056L225.71 151.275Z" fill="#F3F3F5" stroke="black" stroke-width="0.151213"/>
<path d="M238.805 151.275L245.353 155.056V162.616L238.805 166.397L232.257 162.616V155.056L238.805 151.275Z" fill="#F3F3F5" stroke="black" stroke-width="0.151213"/>
<path d="M251.9 151.275L258.448 155.056V162.616L251.9 166.397L245.353 162.616V155.056L251.9 151.275Z" fill="#F3F3F5" stroke="black" stroke-width="0.151213"/>
<path d="M264.995 151.275L271.543 155.056V162.616L264.995 166.397L258.448 162.616V155.056L264.995 151.275Z" fill="#F3F3F5" stroke="black" stroke-width="0.151213"/>
<path d="M278.09 151.275L284.638 155.056V162.616L278.09 166.397L271.542 162.616V155.056L278.09 151.275Z" fill="#F3F3F5" stroke="black" stroke-width="0.151213"/>
<path d="M291.186 151.275L297.733 155.056V162.616L291.186 166.397L284.638 162.616V155.056L291.186 151.275Z" fill="#F3F3F5" stroke="black" stroke-width="0.151213"/>
<path d="M304.28 151.275L310.828 155.056V162.616L304.28 166.397L297.733 162.616V155.056L304.28 151.275Z" fill="#F3F3F5" stroke="black" stroke-width="0.151213"/>
<path d="M317.375 151.275L323.923 155.056V162.616L317.375 166.397L310.827 162.616V155.056L317.375 151.275Z" fill="#F3F3F5" stroke="black" stroke-width="0.151213"/>
<path d="M330.471 151.275L337.019 155.056V162.616L330.471 166.397L323.923 162.616V155.056L330.471 151.275Z" fill="#F3F3F5" stroke="black" stroke-width="0.151213"/>
<path d="M343.566 151.275L350.113 155.056V162.616L343.566 166.397L337.018 162.616V155.056L343.566 151.275Z" fill="#F3F3F5" stroke="black" stroke-width="0.151213"/>
<path d="M356.66 151.275L363.208 155.056V162.616L356.66 166.397L350.113 162.616V155.056L356.66 151.275Z" fill="#F3F3F5" stroke="black" stroke-width="0.151213"/>
<path d="M186.425 173.957L192.973 177.737V185.298L186.425 189.078L179.877 185.298V177.737L186.425 173.957Z" fill="#F3F3F5" stroke="black" stroke-width="0.151213"/>
<path d="M199.52 173.957L206.067 177.737V185.298L199.52 189.078L192.972 185.298V177.737L199.52 173.957Z" fill="#F3F3F5" stroke="black" stroke-width="0.151213"/>
<path d="M212.615 173.957L219.163 177.737V185.298L212.615 189.078L206.068 185.298V177.737L212.615 173.957Z" fill="#F3F3F5" stroke="black" stroke-width="0.151213"/>
<path d="M225.71 173.957L232.258 177.737V185.298L225.71 189.078L219.162 185.298V177.737L225.71 173.957Z" fill="#F3F3F5" stroke="black" stroke-width="0.151213"/>
<path d="M238.805 173.957L245.353 177.737V185.298L238.805 189.078L232.257 185.298V177.737L238.805 173.957Z" fill="#F3F3F5" stroke="black" stroke-width="0.151213"/>
<path d="M251.9 173.957L258.448 177.737V185.298L251.9 189.078L245.353 185.298V177.737L251.9 173.957Z" fill="#F3F3F5" stroke="black" stroke-width="0.151213"/>
<path d="M264.995 173.957L271.543 177.737V185.298L264.995 189.078L258.448 185.298V177.737L264.995 173.957Z" fill="#F3F3F5" stroke="black" stroke-width="0.151213"/>
<path d="M278.09 173.957L284.638 177.737V185.298L278.09 189.078L271.542 185.298V177.737L278.09 173.957Z" fill="#F3F3F5" stroke="black" stroke-width="0.151213"/>
<path d="M291.186 173.957L297.733 177.737V185.298L291.186 189.078L284.638 185.298V177.737L291.186 173.957Z" fill="#F3F3F5" stroke="black" stroke-width="0.151213"/>
<path d="M304.28 173.957L310.828 177.737V185.298L304.28 189.078L297.733 185.298V177.737L304.28 173.957Z" fill="#F3F3F5" stroke="black" stroke-width="0.151213"/>
<path d="M317.375 173.957L323.923 177.737V185.298L317.375 189.078L310.827 185.298V177.737L317.375 173.957Z" fill="#F3F3F5" stroke="black" stroke-width="0.151213"/>
<path d="M330.47 173.957L337.018 177.737V185.298L330.47 189.078L323.922 185.298V177.737L330.47 173.957Z" fill="#F3F3F5" stroke="black" stroke-width="0.151213"/>
<path d="M343.566 173.957L350.113 177.737V185.298L343.566 189.078L337.018 185.298V177.737L343.566 173.957Z" fill="#F3F3F5" stroke="black" stroke-width="0.151213"/>
<path d="M356.66 173.957L363.208 177.737V185.298L356.66 189.078L350.113 185.298V177.737L356.66 173.957Z" fill="#F3F3F5" stroke="black" stroke-width="0.151213"/>
<path d="M186.425 196.639L192.973 200.419V207.98L186.425 211.76L179.877 207.98V200.419L186.425 196.639Z" fill="#F3F3F5" stroke="black" stroke-width="0.151213"/>
<path d="M199.52 196.639L206.067 200.419V207.98L199.52 211.76L192.972 207.98V200.419L199.52 196.639Z" fill="#F3F3F5" stroke="black" stroke-width="0.151213"/>
<path d="M212.615 196.639L219.163 200.419V207.98L212.615 211.76L206.068 207.98V200.419L212.615 196.639Z" fill="#F3F3F5" stroke="black" stroke-width="0.151213"/>
<path d="M225.71 196.639L232.258 200.419V207.98L225.71 211.76L219.162 207.98V200.419L225.71 196.639Z" fill="#F3F3F5" stroke="black" stroke-width="0.151213"/>
<path d="M238.805 196.639L245.353 200.419V207.98L238.805 211.76L232.257 207.98V200.419L238.805 196.639Z" fill="#F3F3F5" stroke="black" stroke-width="0.151213"/>
<path d="M251.9 196.639L258.448 200.419V207.98L251.9 211.76L245.353 207.98V200.419L251.9 196.639Z" fill="#F3F3F5" stroke="black" stroke-width="0.151213"/>
<path d="M264.995 196.639L271.543 200.419V207.98L264.995 211.76L258.448 207.98V200.419L264.995 196.639Z" fill="#F3F3F5" stroke="black" stroke-width="0.151213"/>
<path d="M278.09 196.639L284.638 200.419V207.98L278.09 211.76L271.542 207.98V200.419L278.09 196.639Z" fill="#F3F3F5" stroke="black" stroke-width="0.151213"/>
<path d="M291.186 196.639L297.733 200.419V207.98L291.186 211.76L284.638 207.98V200.419L291.186 196.639Z" fill="#F3F3F5" stroke="black" stroke-width="0.151213"/>
<path d="M304.28 196.639L310.828 200.419V207.98L304.28 211.76L297.733 207.98V200.419L304.28 196.639Z" fill="#F3F3F5" stroke="black" stroke-width="0.151213"/>
<path d="M317.375 196.639L323.923 200.419V207.98L317.375 211.76L310.827 207.98V200.419L317.375 196.639Z" fill="#F3F3F5" stroke="black" stroke-width="0.151213"/>
<path d="M330.47 196.639L337.018 200.419V207.98L330.47 211.76L323.922 207.98V200.419L330.47 196.639Z" fill="#F3F3F5" stroke="black" stroke-width="0.151213"/>
<path d="M343.566 196.639L350.113 200.419V207.98L343.566 211.76L337.018 207.98V200.419L343.566 196.639Z" fill="#F3F3F5" stroke="black" stroke-width="0.151213"/>
<path d="M356.66 196.639L363.208 200.419V207.98L356.66 211.76L350.113 207.98V200.419L356.66 196.639Z" fill="#F3F3F5" stroke="black" stroke-width="0.151213"/>
<path d="M192.973 71.8877L199.52 75.668V83.2287L192.973 87.009L186.425 83.2287V75.668L192.973 71.8877Z" fill="#F3F3F5" stroke="black" stroke-width="0.151213"/>
<path d="M206.067 71.8877L212.615 75.668V83.2287L206.067 87.009L199.52 83.2287V75.668L206.067 71.8877Z" fill="#F3F3F5" stroke="black" stroke-width="0.151213"/>
<path d="M219.163 71.8877L225.711 75.668V83.2287L219.163 87.009L212.615 83.2287V75.668L219.163 71.8877Z" fill="#F3F3F5" stroke="black" stroke-width="0.151213"/>
<path d="M232.258 71.8877L238.806 75.668V83.2287L232.258 87.009L225.71 83.2287V75.668L232.258 71.8877Z" fill="#F3F3F5" stroke="black" stroke-width="0.151213"/>
<path d="M245.353 71.8877L251.9 75.668V83.2287L245.353 87.009L238.805 83.2287V75.668L245.353 71.8877Z" fill="#F3F3F5" stroke="black" stroke-width="0.151213"/>
<path d="M258.448 71.8877L264.996 75.668V83.2287L258.448 87.009L251.901 83.2287V75.668L258.448 71.8877Z" fill="#F3F3F5" stroke="black" stroke-width="0.151213"/>
<path d="M271.543 71.8877L278.091 75.668V83.2287L271.543 87.009L264.995 83.2287V75.668L271.543 71.8877Z" fill="#F3F3F5" stroke="black" stroke-width="0.151213"/>
<path d="M284.638 71.8877L291.186 75.668V83.2287L284.638 87.009L278.09 83.2287V75.668L284.638 71.8877Z" fill="#F3F3F5" stroke="black" stroke-width="0.151213"/>
<path d="M297.733 71.8877L304.281 75.668V83.2287L297.733 87.009L291.186 83.2287V75.668L297.733 71.8877Z" fill="#F3F3F5" stroke="black" stroke-width="0.151213"/>
<path d="M310.828 71.8877L317.376 75.668V83.2287L310.828 87.009L304.281 83.2287V75.668L310.828 71.8877Z" fill="#F3F3F5" stroke="black" stroke-width="0.151213"/>
<path d="M323.923 71.8877L330.471 75.668V83.2287L323.923 87.009L317.375 83.2287V75.668L323.923 71.8877Z" fill="#F3F3F5" stroke="black" stroke-width="0.151213"/>
<path d="M337.019 71.8877L343.566 75.668V83.2287L337.019 87.009L330.471 83.2287V75.668L337.019 71.8877Z" fill="#F3F3F5" stroke="black" stroke-width="0.151213"/>
<path d="M350.113 71.8877L356.661 75.668V83.2287L350.113 87.009L343.566 83.2287V75.668L350.113 71.8877Z" fill="#F3F3F5" stroke="black" stroke-width="0.151213"/>
<path d="M363.208 71.8877L369.756 75.668V83.2287L363.208 87.009L356.66 83.2287V75.668L363.208 71.8877Z" fill="#F3F3F5" stroke="black" stroke-width="0.151213"/>
<path d="M192.973 94.5703L199.52 98.3506V105.911L192.973 109.692L186.425 105.911V98.3506L192.973 94.5703Z" fill="#F3F3F5" stroke="black" stroke-width="0.151213"/>
<path d="M206.067 94.5703L212.615 98.3506V105.911L206.067 109.692L199.52 105.911V98.3506L206.067 94.5703Z" fill="#F3F3F5" stroke="black" stroke-width="0.151213"/>
<path d="M219.163 94.5703L225.711 98.3506V105.911L219.163 109.692L212.615 105.911V98.3506L219.163 94.5703Z" fill="#F3F3F5" stroke="black" stroke-width="0.151213"/>
<path d="M232.258 94.5703L238.806 98.3506V105.911L232.258 109.692L225.71 105.911V98.3506L232.258 94.5703Z" fill="#F3F3F5" stroke="black" stroke-width="0.151213"/>
<path d="M245.353 94.5703L251.9 98.3506V105.911L245.353 109.692L238.805 105.911V98.3506L245.353 94.5703Z" fill="#F3F3F5" stroke="black" stroke-width="0.151213"/>
<path d="M258.448 94.5703L264.996 98.3506V105.911L258.448 109.692L251.901 105.911V98.3506L258.448 94.5703Z" fill="#F3F3F5" stroke="black" stroke-width="0.151213"/>
<path d="M271.543 94.5703L278.091 98.3506V105.911L271.543 109.692L264.995 105.911V98.3506L271.543 94.5703Z" fill="#F3F3F5" stroke="black" stroke-width="0.151213"/>
<path d="M284.638 94.5703L291.186 98.3506V105.911L284.638 109.692L278.09 105.911V98.3506L284.638 94.5703Z" fill="#F3F3F5" stroke="black" stroke-width="0.151213"/>
<path d="M297.733 94.5703L304.281 98.3506V105.911L297.733 109.692L291.186 105.911V98.3506L297.733 94.5703Z" fill="#F3F3F5" stroke="black" stroke-width="0.151213"/>
<path d="M310.828 94.5703L317.376 98.3506V105.911L310.828 109.692L304.281 105.911V98.3506L310.828 94.5703Z" fill="#F3F3F5" stroke="black" stroke-width="0.151213"/>
<path d="M323.923 94.5703L330.471 98.3506V105.911L323.923 109.692L317.375 105.911V98.3506L323.923 94.5703Z" fill="#F3F3F5" stroke="black" stroke-width="0.151213"/>
<path d="M337.019 94.5703L343.566 98.3506V105.911L337.019 109.692L330.471 105.911V98.3506L337.019 94.5703Z" fill="#F3F3F5" stroke="black" stroke-width="0.151213"/>
<path d="M350.113 94.5703L356.661 98.3506V105.911L350.113 109.692L343.566 105.911V98.3506L350.113 94.5703Z" fill="#F3F3F5" stroke="black" stroke-width="0.151213"/>
<path d="M363.208 94.5703L369.756 98.3506V105.911L363.208 109.692L356.66 105.911V98.3506L363.208 94.5703Z" fill="#F3F3F5" stroke="black" stroke-width="0.151213"/>
<path d="M192.973 117.252L199.52 121.032V128.593L192.973 132.373L186.425 128.593V121.032L192.973 117.252Z" fill="#F3F3F5" stroke="black" stroke-width="0.151213"/>
<path d="M206.067 117.252L212.615 121.032V128.593L206.067 132.373L199.52 128.593V121.032L206.067 117.252Z" fill="#F3F3F5" stroke="black" stroke-width="0.151213"/>
<path d="M219.163 117.252L225.711 121.032V128.593L219.163 132.373L212.615 128.593V121.032L219.163 117.252Z" fill="#F3F3F5" stroke="black" stroke-width="0.151213"/>
<path d="M232.258 117.252L238.806 121.032V128.593L232.258 132.373L225.71 128.593V121.032L232.258 117.252Z" fill="#F3F3F5" stroke="black" stroke-width="0.151213"/>
<path d="M245.353 117.252L251.9 121.032V128.593L245.353 132.373L238.805 128.593V121.032L245.353 117.252Z" fill="#F3F3F5" stroke="black" stroke-width="0.151213"/>
<path d="M258.448 117.252L264.996 121.032V128.593L258.448 132.373L251.901 128.593V121.032L258.448 117.252Z" fill="#F3F3F5" stroke="black" stroke-width="0.151213"/>
<path d="M271.543 117.252L278.091 121.032V128.593L271.543 132.373L264.995 128.593V121.032L271.543 117.252Z" fill="#F3F3F5" stroke="black" stroke-width="0.151213"/>
<path d="M284.638 117.252L291.186 121.032V128.593L284.638 132.373L278.09 128.593V121.032L284.638 117.252Z" fill="#F3F3F5" stroke="black" stroke-width="0.151213"/>
<path d="M297.733 117.252L304.281 121.032V128.593L297.733 132.373L291.186 128.593V121.032L297.733 117.252Z" fill="#F3F3F5" stroke="black" stroke-width="0.151213"/>
<path d="M310.828 117.252L317.376 121.032V128.593L310.828 132.373L304.281 128.593V121.032L310.828 117.252Z" fill="#F3F3F5" stroke="black" stroke-width="0.151213"/>
<path d="M323.923 117.252L330.471 121.032V128.593L323.923 132.373L317.375 128.593V121.032L323.923 117.252Z" fill="#F3F3F5" stroke="black" stroke-width="0.151213"/>
<path d="M337.019 117.252L343.566 121.032V128.593L337.019 132.373L330.471 128.593V121.032L337.019 117.252Z" fill="#F3F3F5" stroke="black" stroke-width="0.151213"/>
<path d="M350.113 117.252L356.661 121.032V128.593L350.113 132.373L343.566 128.593V121.032L350.113 117.252Z" fill="#F3F3F5" stroke="black" stroke-width="0.151213"/>
<path d="M363.208 117.252L369.756 121.032V128.593L363.208 132.373L356.66 128.593V121.032L363.208 117.252Z" fill="#F3F3F5" stroke="black" stroke-width="0.151213"/>
<path d="M192.973 139.934L199.52 143.714V151.275L192.973 155.055L186.425 151.275V143.714L192.973 139.934Z" fill="#F3F3F5" stroke="black" stroke-width="0.151213"/>
<path d="M206.067 139.934L212.615 143.714V151.275L206.067 155.055L199.52 151.275V143.714L206.067 139.934Z" fill="#F3F3F5" stroke="black" stroke-width="0.151213"/>
<path d="M219.163 139.934L225.711 143.714V151.275L219.163 155.055L212.615 151.275V143.714L219.163 139.934Z" fill="#F3F3F5" stroke="black" stroke-width="0.151213"/>
<path d="M232.258 139.934L238.806 143.714V151.275L232.258 155.055L225.71 151.275V143.714L232.258 139.934Z" fill="#F3F3F5" stroke="black" stroke-width="0.151213"/>
<path d="M245.353 139.934L251.9 143.714V151.275L245.353 155.055L238.805 151.275V143.714L245.353 139.934Z" fill="#F3F3F5" stroke="black" stroke-width="0.151213"/>
<path d="M258.448 139.934L264.996 143.714V151.275L258.448 155.055L251.901 151.275V143.714L258.448 139.934Z" fill="#F3F3F5" stroke="black" stroke-width="0.151213"/>
<path d="M271.543 139.934L278.091 143.714V151.275L271.543 155.055L264.995 151.275V143.714L271.543 139.934Z" fill="#F3F3F5" stroke="black" stroke-width="0.151213"/>
<path d="M284.638 139.934L291.186 143.714V151.275L284.638 155.055L278.09 151.275V143.714L284.638 139.934Z" fill="#F3F3F5" stroke="black" stroke-width="0.151213"/>
<path d="M297.733 139.934L304.281 143.714V151.275L297.733 155.055L291.186 151.275V143.714L297.733 139.934Z" fill="#F3F3F5" stroke="black" stroke-width="0.151213"/>
<path d="M310.828 139.934L317.376 143.714V151.275L310.828 155.055L304.281 151.275V143.714L310.828 139.934Z" fill="#F3F3F5" stroke="black" stroke-width="0.151213"/>
<path d="M323.923 139.934L330.471 143.714V151.275L323.923 155.055L317.375 151.275V143.714L323.923 139.934Z" fill="#F3F3F5" stroke="black" stroke-width="0.151213"/>
<path d="M337.019 139.934L343.566 143.714V151.275L337.019 155.055L330.471 151.275V143.714L337.019 139.934Z" fill="#F3F3F5" stroke="black" stroke-width="0.151213"/>
<path d="M350.113 139.934L356.661 143.714V151.275L350.113 155.055L343.566 151.275V143.714L350.113 139.934Z" fill="#F3F3F5" stroke="black" stroke-width="0.151213"/>
<path d="M363.208 139.934L369.756 143.714V151.275L363.208 155.055L356.66 151.275V143.714L363.208 139.934Z" fill="#F3F3F5" stroke="black" stroke-width="0.151213"/>
<path d="M192.973 162.616L199.52 166.397V173.957L192.973 177.738L186.425 173.957V166.397L192.973 162.616Z" fill="#F3F3F5" stroke="black" stroke-width="0.151213"/>
<path d="M206.067 162.616L212.615 166.397V173.957L206.067 177.738L199.52 173.957V166.397L206.067 162.616Z" fill="#F3F3F5" stroke="black" stroke-width="0.151213"/>
<path d="M219.163 162.616L225.711 166.397V173.957L219.163 177.738L212.615 173.957V166.397L219.163 162.616Z" fill="#F3F3F5" stroke="black" stroke-width="0.151213"/>
<path d="M232.258 162.616L238.806 166.397V173.957L232.258 177.738L225.71 173.957V166.397L232.258 162.616Z" fill="#F3F3F5" stroke="black" stroke-width="0.151213"/>
<path d="M245.353 162.616L251.9 166.397V173.957L245.353 177.738L238.805 173.957V166.397L245.353 162.616Z" fill="#F3F3F5" stroke="black" stroke-width="0.151213"/>
<path d="M258.448 162.616L264.996 166.397V173.957L258.448 177.738L251.901 173.957V166.397L258.448 162.616Z" fill="#F3F3F5" stroke="black" stroke-width="0.151213"/>
<path d="M271.543 162.616L278.091 166.397V173.957L271.543 177.738L264.995 173.957V166.397L271.543 162.616Z" fill="#F3F3F5" stroke="black" stroke-width="0.151213"/>
<path d="M284.638 162.616L291.186 166.397V173.957L284.638 177.738L278.09 173.957V166.397L284.638 162.616Z" fill="#F3F3F5" stroke="black" stroke-width="0.151213"/>
<path d="M297.733 162.616L304.281 166.397V173.957L297.733 177.738L291.186 173.957V166.397L297.733 162.616Z" fill="#F3F3F5" stroke="black" stroke-width="0.151213"/>
<path d="M310.828 162.616L317.376 166.397V173.957L310.828 177.738L304.281 173.957V166.397L310.828 162.616Z" fill="#F3F3F5" stroke="black" stroke-width="0.151213"/>
<path d="M323.923 162.616L330.471 166.397V173.957L323.923 177.738L317.375 173.957V166.397L323.923 162.616Z" fill="#F3F3F5" stroke="black" stroke-width="0.151213"/>
<path d="M337.019 162.616L343.566 166.397V173.957L337.019 177.738L330.471 173.957V166.397L337.019 162.616Z" fill="#F3F3F5" stroke="black" stroke-width="0.151213"/>
<path d="M350.113 162.616L356.661 166.397V173.957L350.113 177.738L343.566 173.957V166.397L350.113 162.616Z" fill="#F3F3F5" stroke="black" stroke-width="0.151213"/>
<path d="M363.208 162.616L369.756 166.397V173.957L363.208 177.738L356.66 173.957V166.397L363.208 162.616Z" fill="#F3F3F5" stroke="black" stroke-width="0.151213"/>
<path d="M192.973 185.298L199.52 189.078V196.639L192.973 200.419L186.425 196.639V189.078L192.973 185.298Z" fill="#F3F3F5" stroke="black" stroke-width="0.151213"/>
<path d="M206.067 185.298L212.615 189.078V196.639L206.067 200.419L199.52 196.639V189.078L206.067 185.298Z" fill="#F3F3F5" stroke="black" stroke-width="0.151213"/>
<path d="M219.163 185.298L225.711 189.078V196.639L219.163 200.419L212.615 196.639V189.078L219.163 185.298Z" fill="#F3F3F5" stroke="black" stroke-width="0.151213"/>
<path d="M232.258 185.298L238.806 189.078V196.639L232.258 200.419L225.71 196.639V189.078L232.258 185.298Z" fill="#F3F3F5" stroke="black" stroke-width="0.151213"/>
<path d="M245.353 185.298L251.9 189.078V196.639L245.353 200.419L238.805 196.639V189.078L245.353 185.298Z" fill="#F3F3F5" stroke="black" stroke-width="0.151213"/>
<path d="M258.448 185.298L264.996 189.078V196.639L258.448 200.419L251.901 196.639V189.078L258.448 185.298Z" fill="#F3F3F5" stroke="black" stroke-width="0.151213"/>
<path d="M271.543 185.298L278.091 189.078V196.639L271.543 200.419L264.995 196.639V189.078L271.543 185.298Z" fill="#F3F3F5" stroke="black" stroke-width="0.151213"/>
<path d="M284.638 185.298L291.186 189.078V196.639L284.638 200.419L278.09 196.639V189.078L284.638 185.298Z" fill="#F3F3F5" stroke="black" stroke-width="0.151213"/>
<path d="M297.733 185.298L304.281 189.078V196.639L297.733 200.419L291.186 196.639V189.078L297.733 185.298Z" fill="#F3F3F5" stroke="black" stroke-width="0.151213"/>
<path d="M310.828 185.298L317.376 189.078V196.639L310.828 200.419L304.281 196.639V189.078L310.828 185.298Z" fill="#F3F3F5" stroke="black" stroke-width="0.151213"/>
<path d="M323.923 185.298L330.471 189.078V196.639L323.923 200.419L317.375 196.639V189.078L323.923 185.298Z" fill="#F3F3F5" stroke="black" stroke-width="0.151213"/>
<path d="M337.019 185.298L343.566 189.078V196.639L337.019 200.419L330.471 196.639V189.078L337.019 185.298Z" fill="#F3F3F5" stroke="black" stroke-width="0.151213"/>
<path d="M350.113 185.298L356.661 189.078V196.639L350.113 200.419L343.566 196.639V189.078L350.113 185.298Z" fill="#F3F3F5" stroke="black" stroke-width="0.151213"/>
<path d="M363.208 185.298L369.756 189.078V196.639L363.208 200.419L356.66 196.639V189.078L363.208 185.298Z" fill="#F3F3F5" stroke="black" stroke-width="0.151213"/>
<path d="M192.973 207.979L199.52 211.76V219.32L192.973 223.101L186.425 219.32V211.76L192.973 207.979Z" fill="#F3F3F5" stroke="black" stroke-width="0.151213"/>
<path d="M206.067 207.979L212.615 211.76V219.32L206.067 223.101L199.52 219.32V211.76L206.067 207.979Z" fill="#F3F3F5" stroke="black" stroke-width="0.151213"/>
<path d="M219.163 207.979L225.711 211.76V219.32L219.163 223.101L212.615 219.32V211.76L219.163 207.979Z" fill="#F3F3F5" stroke="black" stroke-width="0.151213"/>
<path d="M232.258 207.979L238.806 211.76V219.32L232.258 223.101L225.71 219.32V211.76L232.258 207.979Z" fill="#F3F3F5" stroke="black" stroke-width="0.151213"/>
<path d="M245.353 207.979L251.9 211.76V219.32L245.353 223.101L238.805 219.32V211.76L245.353 207.979Z" fill="#F3F3F5" stroke="black" stroke-width="0.151213"/>
<path d="M258.448 207.979L264.996 211.76V219.32L258.448 223.101L251.901 219.32V211.76L258.448 207.979Z" fill="#F3F3F5" stroke="black" stroke-width="0.151213"/>
<path d="M271.543 207.979L278.091 211.76V219.32L271.543 223.101L264.995 219.32V211.76L271.543 207.979Z" fill="#F3F3F5" stroke="black" stroke-width="0.151213"/>
<path d="M284.638 207.979L291.186 211.76V219.32L284.638 223.101L278.09 219.32V211.76L284.638 207.979Z" fill="#F3F3F5" stroke="black" stroke-width="0.151213"/>
<path d="M297.733 207.979L304.281 211.76V219.32L297.733 223.101L291.186 219.32V211.76L297.733 207.979Z" fill="#F3F3F5" stroke="black" stroke-width="0.151213"/>
<path d="M310.828 207.979L317.376 211.76V219.32L310.828 223.101L304.281 219.32V211.76L310.828 207.979Z" fill="#F3F3F5" stroke="black" stroke-width="0.151213"/>
<path d="M323.923 207.979L330.471 211.76V219.32L323.923 223.101L317.375 219.32V211.76L323.923 207.979Z" fill="#F3F3F5" stroke="black" stroke-width="0.151213"/>
<path d="M337.019 207.979L343.566 211.76V219.32L337.019 223.101L330.471 219.32V211.76L337.019 207.979Z" fill="#F3F3F5" stroke="black" stroke-width="0.151213"/>
<path d="M350.113 207.979L356.661 211.76V219.32L350.113 223.101L343.566 219.32V211.76L350.113 207.979Z" fill="#F3F3F5" stroke="black" stroke-width="0.151213"/>
<path d="M363.208 207.979L369.756 211.76V219.32L363.208 223.101L356.66 219.32V211.76L363.208 207.979Z" fill="#F3F3F5" stroke="black" stroke-width="0.151213"/>
</g>
<mask id="mask1_760_68092" style="mask-type:alpha" maskUnits="userSpaceOnUse" x="1" y="86" width="215" height="134">
<path d="M10.901 95.5401L1.91254 86.5516H185.555V97.3706V98.0468H186.231H215.429C215.475 98.3188 215.527 98.6855 215.563 99.1172C215.644 100.088 215.641 101.36 215.327 102.616C215.322 102.639 215.289 102.723 215.16 102.87C215.035 103.011 214.851 103.176 214.601 103.363C214.1 103.737 213.396 104.15 212.539 104.586C210.829 105.457 208.595 106.376 206.363 107.219C204.134 108.06 201.925 108.817 200.271 109.365C199.445 109.639 198.758 109.86 198.278 110.012C198.039 110.088 197.85 110.148 197.722 110.187L197.577 110.233L197.54 110.244L197.531 110.247L197.528 110.248L197.05 110.395V110.894V141.999V163.637V194.741V195.241L197.528 195.388L197.531 195.389L197.54 195.391L197.577 195.403L197.722 195.448C197.85 195.488 198.039 195.547 198.278 195.624C198.758 195.776 199.445 195.997 200.271 196.271C201.925 196.819 204.134 197.576 206.363 198.417C208.595 199.259 210.829 200.179 212.539 201.049C213.396 201.486 214.1 201.899 214.601 202.273C214.851 202.459 215.035 202.625 215.16 202.766C215.289 202.913 215.322 202.997 215.327 203.02C215.641 204.275 215.644 205.547 215.563 206.519C215.527 206.95 215.475 207.317 215.429 207.589H186.231H185.555V208.265V219.084H1.91254L10.901 210.096L11.3792 209.618L10.901 209.139L1.91254 200.151L10.901 191.162L11.3792 190.684L10.901 190.206L1.91254 181.218L10.901 172.229L11.3792 171.751L10.901 171.273L1.91254 162.285L10.901 153.296L11.3792 152.818L10.901 152.34L1.91254 143.351L10.901 134.363L11.3792 133.885L10.901 133.407L1.91254 124.418L10.901 115.43L11.3792 114.951L10.901 114.473L1.91254 105.485L10.901 96.4963L11.3792 96.0182L10.901 95.5401Z" fill="#D9D9D9"/>
</mask>
<g mask="url(#mask1_760_68092)">
<path d="M6.7042 83.2314L13.2519 87.0118V94.5724L6.7042 98.3527L0.156489 94.5724V87.0118L6.7042 83.2314Z" fill="#F3F3F5" stroke="black" stroke-width="0.151213"/>
<path d="M19.7989 83.2314L26.3466 87.0118V94.5724L19.7989 98.3527L13.2512 94.5724V87.0118L19.7989 83.2314Z" fill="#F3F3F5" stroke="black" stroke-width="0.151213"/>
<path d="M32.8937 83.2314L39.4414 87.0118V94.5724L32.8937 98.3527L26.3459 94.5724V87.0118L32.8937 83.2314Z" fill="#F3F3F5" stroke="black" stroke-width="0.151213"/>
<path d="M45.9894 83.2314L52.5371 87.0118V94.5724L45.9894 98.3527L39.4416 94.5724V87.0118L45.9894 83.2314Z" fill="#F3F3F5" stroke="black" stroke-width="0.151213"/>
<path d="M59.0841 83.2314L65.6318 87.0118V94.5724L59.0841 98.3527L52.5364 94.5724V87.0118L59.0841 83.2314Z" fill="#F3F3F5" stroke="black" stroke-width="0.151213"/>
<path d="M72.1788 83.2314L78.7265 87.0118V94.5724L72.1788 98.3527L65.6311 94.5724V87.0118L72.1788 83.2314Z" fill="#F3F3F5" stroke="black" stroke-width="0.151213"/>
<path d="M85.2745 83.2314L91.8222 87.0118V94.5724L85.2745 98.3527L78.7268 94.5724V87.0118L85.2745 83.2314Z" fill="#F3F3F5" stroke="black" stroke-width="0.151213"/>
<path d="M98.3692 83.2314L104.917 87.0118V94.5724L98.3692 98.3527L91.8215 94.5724V87.0118L98.3692 83.2314Z" fill="#F3F3F5" stroke="black" stroke-width="0.151213"/>
<path d="M111.464 83.2314L118.012 87.0118V94.5724L111.464 98.3527L104.916 94.5724V87.0118L111.464 83.2314Z" fill="#F3F3F5" stroke="black" stroke-width="0.151213"/>
<path d="M124.56 83.2314L131.107 87.0118V94.5724L124.56 98.3527L118.012 94.5724V87.0118L124.56 83.2314Z" fill="#F3F3F5" stroke="black" stroke-width="0.151213"/>
<path d="M137.654 83.2314L144.202 87.0118V94.5724L137.654 98.3527L131.107 94.5724V87.0118L137.654 83.2314Z" fill="#F3F3F5" stroke="black" stroke-width="0.151213"/>
<path d="M150.749 83.2314L157.297 87.0118V94.5724L150.749 98.3527L144.201 94.5724V87.0118L150.749 83.2314Z" fill="#F3F3F5" stroke="black" stroke-width="0.151213"/>
<path d="M163.845 83.2314L170.393 87.0118V94.5724L163.845 98.3527L157.297 94.5724V87.0118L163.845 83.2314Z" fill="#F3F3F5" stroke="black" stroke-width="0.151213"/>
<path d="M176.94 83.2314L183.487 87.0118V94.5724L176.94 98.3527L170.392 94.5724V87.0118L176.94 83.2314Z" fill="#F3F3F5" stroke="black" stroke-width="0.151213"/>
<path d="M190.034 83.2314L196.582 87.0118V94.5724L190.034 98.3527L183.487 94.5724V87.0118L190.034 83.2314Z" fill="#F3F3F5" stroke="black" stroke-width="0.151213"/>
<path d="M203.13 83.2314L209.678 87.0118V94.5724L203.13 98.3527L196.582 94.5724V87.0118L203.13 83.2314Z" fill="#F3F3F5" stroke="black" stroke-width="0.151213"/>
<path d="M216.225 83.2314L222.772 87.0118V94.5724L216.225 98.3527L209.677 94.5724V87.0118L216.225 83.2314Z" fill="#F3F3F5" stroke="black" stroke-width="0.151213"/>
<path d="M6.7042 105.913L13.2519 109.693V117.254L6.7042 121.034L0.156489 117.254V109.693L6.7042 105.913Z" fill="#F3F3F5" stroke="black" stroke-width="0.151213"/>
<path d="M19.7989 105.913L26.3466 109.693V117.254L19.7989 121.034L13.2512 117.254V109.693L19.7989 105.913Z" fill="#F3F3F5" stroke="black" stroke-width="0.151213"/>
<path d="M32.8937 105.913L39.4414 109.693V117.254L32.8937 121.034L26.3459 117.254V109.693L32.8937 105.913Z" fill="#F3F3F5" stroke="black" stroke-width="0.151213"/>
<path d="M45.9894 105.913L52.5371 109.693V117.254L45.9894 121.034L39.4416 117.254V109.693L45.9894 105.913Z" fill="#F3F3F5" stroke="black" stroke-width="0.151213"/>
<path d="M59.0841 105.913L65.6318 109.693V117.254L59.0841 121.034L52.5364 117.254V109.693L59.0841 105.913Z" fill="#F3F3F5" stroke="black" stroke-width="0.151213"/>
<path d="M72.1788 105.913L78.7265 109.693V117.254L72.1788 121.034L65.6311 117.254V109.693L72.1788 105.913Z" fill="#F3F3F5" stroke="black" stroke-width="0.151213"/>
<path d="M85.2745 105.913L91.8222 109.693V117.254L85.2745 121.034L78.7268 117.254V109.693L85.2745 105.913Z" fill="#F3F3F5" stroke="black" stroke-width="0.151213"/>
<path d="M98.3692 105.913L104.917 109.693V117.254L98.3692 121.034L91.8215 117.254V109.693L98.3692 105.913Z" fill="#F3F3F5" stroke="black" stroke-width="0.151213"/>
<path d="M111.464 105.913L118.012 109.693V117.254L111.464 121.034L104.916 117.254V109.693L111.464 105.913Z" fill="#F3F3F5" stroke="black" stroke-width="0.151213"/>
<path d="M124.559 105.913L131.106 109.693V117.254L124.559 121.034L118.011 117.254V109.693L124.559 105.913Z" fill="#F3F3F5" stroke="black" stroke-width="0.151213"/>
<path d="M137.654 105.913L144.202 109.693V117.254L137.654 121.034L131.107 117.254V109.693L137.654 105.913Z" fill="#F3F3F5" stroke="black" stroke-width="0.151213"/>
<path d="M150.749 105.913L157.297 109.693V117.254L150.749 121.034L144.201 117.254V109.693L150.749 105.913Z" fill="#F3F3F5" stroke="black" stroke-width="0.151213"/>
<path d="M163.844 105.913L170.392 109.693V117.254L163.844 121.034L157.296 117.254V109.693L163.844 105.913Z" fill="#F3F3F5" stroke="black" stroke-width="0.151213"/>
<path d="M176.94 105.913L183.487 109.693V117.254L176.94 121.034L170.392 117.254V109.693L176.94 105.913Z" fill="#F3F3F5" stroke="black" stroke-width="0.151213"/>
<path d="M190.034 105.913L196.582 109.693V117.254L190.034 121.034L183.487 117.254V109.693L190.034 105.913Z" fill="#F3F3F5" stroke="black" stroke-width="0.151213"/>
<path d="M203.129 105.913L209.677 109.693V117.254L203.129 121.034L196.581 117.254V109.693L203.129 105.913Z" fill="#F3F3F5" stroke="black" stroke-width="0.151213"/>
<path d="M216.225 105.913L222.772 109.693V117.254L216.225 121.034L209.677 117.254V109.693L216.225 105.913Z" fill="#F3F3F5" stroke="black" stroke-width="0.151213"/>
<path d="M6.7042 128.595L13.2519 132.375V139.936L6.7042 143.716L0.156489 139.936V132.375L6.7042 128.595Z" fill="#F3F3F5" stroke="black" stroke-width="0.151213"/>
<path d="M19.7989 128.595L26.3466 132.375V139.936L19.7989 143.716L13.2512 139.936V132.375L19.7989 128.595Z" fill="#F3F3F5" stroke="black" stroke-width="0.151213"/>
<path d="M32.8937 128.595L39.4414 132.375V139.936L32.8937 143.716L26.3459 139.936V132.375L32.8937 128.595Z" fill="#F3F3F5" stroke="black" stroke-width="0.151213"/>
<path d="M45.9894 128.595L52.5371 132.375V139.936L45.9894 143.716L39.4416 139.936V132.375L45.9894 128.595Z" fill="#F3F3F5" stroke="black" stroke-width="0.151213"/>
<path d="M59.0841 128.595L65.6318 132.375V139.936L59.0841 143.716L52.5364 139.936V132.375L59.0841 128.595Z" fill="#F3F3F5" stroke="black" stroke-width="0.151213"/>
<path d="M72.1788 128.595L78.7265 132.375V139.936L72.1788 143.716L65.6311 139.936V132.375L72.1788 128.595Z" fill="#F3F3F5" stroke="black" stroke-width="0.151213"/>
<path d="M85.2745 128.595L91.8222 132.375V139.936L85.2745 143.716L78.7268 139.936V132.375L85.2745 128.595Z" fill="#F3F3F5" stroke="black" stroke-width="0.151213"/>
<path d="M98.3692 128.595L104.917 132.375V139.936L98.3692 143.716L91.8215 139.936V132.375L98.3692 128.595Z" fill="#F3F3F5" stroke="black" stroke-width="0.151213"/>
<path d="M111.464 128.595L118.012 132.375V139.936L111.464 143.716L104.916 139.936V132.375L111.464 128.595Z" fill="#F3F3F5" stroke="black" stroke-width="0.151213"/>
<path d="M124.559 128.595L131.106 132.375V139.936L124.559 143.716L118.011 139.936V132.375L124.559 128.595Z" fill="#F3F3F5" stroke="black" stroke-width="0.151213"/>
<path d="M137.654 128.595L144.202 132.375V139.936L137.654 143.716L131.107 139.936V132.375L137.654 128.595Z" fill="#F3F3F5" stroke="black" stroke-width="0.151213"/>
<path d="M150.749 128.595L157.297 132.375V139.936L150.749 143.716L144.201 139.936V132.375L150.749 128.595Z" fill="#F3F3F5" stroke="black" stroke-width="0.151213"/>
<path d="M163.844 128.595L170.392 132.375V139.936L163.844 143.716L157.296 139.936V132.375L163.844 128.595Z" fill="#F3F3F5" stroke="black" stroke-width="0.151213"/>
<path d="M176.94 128.595L183.487 132.375V139.936L176.94 143.716L170.392 139.936V132.375L176.94 128.595Z" fill="#F3F3F5" stroke="black" stroke-width="0.151213"/>
<path d="M190.034 128.595L196.582 132.375V139.936L190.034 143.716L183.487 139.936V132.375L190.034 128.595Z" fill="#F3F3F5" stroke="black" stroke-width="0.151213"/>
<path d="M203.129 128.595L209.677 132.375V139.936L203.129 143.716L196.581 139.936V132.375L203.129 128.595Z" fill="#F3F3F5" stroke="black" stroke-width="0.151213"/>
<path d="M216.225 128.595L222.772 132.375V139.936L216.225 143.716L209.677 139.936V132.375L216.225 128.595Z" fill="#F3F3F5" stroke="black" stroke-width="0.151213"/>
<path d="M6.7042 151.277L13.2519 155.058V162.618L6.7042 166.399L0.156489 162.618V155.058L6.7042 151.277Z" fill="#F3F3F5" stroke="black" stroke-width="0.151213"/>
<path d="M19.7989 151.277L26.3466 155.058V162.618L19.7989 166.399L13.2512 162.618V155.058L19.7989 151.277Z" fill="#F3F3F5" stroke="black" stroke-width="0.151213"/>
<path d="M32.8937 151.277L39.4414 155.058V162.618L32.8937 166.399L26.3459 162.618V155.058L32.8937 151.277Z" fill="#F3F3F5" stroke="black" stroke-width="0.151213"/>
<path d="M45.9894 151.277L52.5371 155.058V162.618L45.9894 166.399L39.4416 162.618V155.058L45.9894 151.277Z" fill="#F3F3F5" stroke="black" stroke-width="0.151213"/>
<path d="M59.0841 151.277L65.6318 155.058V162.618L59.0841 166.399L52.5364 162.618V155.058L59.0841 151.277Z" fill="#F3F3F5" stroke="black" stroke-width="0.151213"/>
<path d="M72.1788 151.277L78.7265 155.058V162.618L72.1788 166.399L65.6311 162.618V155.058L72.1788 151.277Z" fill="#F3F3F5" stroke="black" stroke-width="0.151213"/>
<path d="M85.2745 151.277L91.8222 155.058V162.618L85.2745 166.399L78.7268 162.618V155.058L85.2745 151.277Z" fill="#F3F3F5" stroke="black" stroke-width="0.151213"/>
<path d="M98.3692 151.277L104.917 155.058V162.618L98.3692 166.399L91.8215 162.618V155.058L98.3692 151.277Z" fill="#F3F3F5" stroke="black" stroke-width="0.151213"/>
<path d="M111.464 151.277L118.012 155.058V162.618L111.464 166.399L104.916 162.618V155.058L111.464 151.277Z" fill="#F3F3F5" stroke="black" stroke-width="0.151213"/>
<path d="M124.56 151.277L131.107 155.058V162.618L124.56 166.399L118.012 162.618V155.058L124.56 151.277Z" fill="#F3F3F5" stroke="black" stroke-width="0.151213"/>
<path d="M137.654 151.277L144.202 155.058V162.618L137.654 166.399L131.107 162.618V155.058L137.654 151.277Z" fill="#F3F3F5" stroke="black" stroke-width="0.151213"/>
<path d="M150.749 151.277L157.297 155.058V162.618L150.749 166.399L144.201 162.618V155.058L150.749 151.277Z" fill="#F3F3F5" stroke="black" stroke-width="0.151213"/>
<path d="M163.845 151.277L170.393 155.058V162.618L163.845 166.399L157.297 162.618V155.058L163.845 151.277Z" fill="#F3F3F5" stroke="black" stroke-width="0.151213"/>
<path d="M176.94 151.277L183.487 155.058V162.618L176.94 166.399L170.392 162.618V155.058L176.94 151.277Z" fill="#F3F3F5" stroke="black" stroke-width="0.151213"/>
<path d="M190.034 151.277L196.582 155.058V162.618L190.034 166.399L183.487 162.618V155.058L190.034 151.277Z" fill="#F3F3F5" stroke="black" stroke-width="0.151213"/>
<path d="M203.13 151.277L209.678 155.058V162.618L203.13 166.399L196.582 162.618V155.058L203.13 151.277Z" fill="#F3F3F5" stroke="black" stroke-width="0.151213"/>
<path d="M216.225 151.277L222.772 155.058V162.618L216.225 166.399L209.677 162.618V155.058L216.225 151.277Z" fill="#F3F3F5" stroke="black" stroke-width="0.151213"/>
<path d="M6.7042 173.959L13.2519 177.739V185.3L6.7042 189.08L0.156489 185.3V177.739L6.7042 173.959Z" fill="#F3F3F5" stroke="black" stroke-width="0.151213"/>
<path d="M19.7989 173.959L26.3466 177.739V185.3L19.7989 189.08L13.2512 185.3V177.739L19.7989 173.959Z" fill="#F3F3F5" stroke="black" stroke-width="0.151213"/>
<path d="M32.8937 173.959L39.4414 177.739V185.3L32.8937 189.08L26.3459 185.3V177.739L32.8937 173.959Z" fill="#F3F3F5" stroke="black" stroke-width="0.151213"/>
<path d="M45.9894 173.959L52.5371 177.739V185.3L45.9894 189.08L39.4416 185.3V177.739L45.9894 173.959Z" fill="#F3F3F5" stroke="black" stroke-width="0.151213"/>
<path d="M59.0841 173.959L65.6318 177.739V185.3L59.0841 189.08L52.5364 185.3V177.739L59.0841 173.959Z" fill="#F3F3F5" stroke="black" stroke-width="0.151213"/>
<path d="M72.1788 173.959L78.7265 177.739V185.3L72.1788 189.08L65.6311 185.3V177.739L72.1788 173.959Z" fill="#F3F3F5" stroke="black" stroke-width="0.151213"/>
<path d="M85.2745 173.959L91.8222 177.739V185.3L85.2745 189.08L78.7268 185.3V177.739L85.2745 173.959Z" fill="#F3F3F5" stroke="black" stroke-width="0.151213"/>
<path d="M98.3692 173.959L104.917 177.739V185.3L98.3692 189.08L91.8215 185.3V177.739L98.3692 173.959Z" fill="#F3F3F5" stroke="black" stroke-width="0.151213"/>
<path d="M111.464 173.959L118.012 177.739V185.3L111.464 189.08L104.916 185.3V177.739L111.464 173.959Z" fill="#F3F3F5" stroke="black" stroke-width="0.151213"/>
<path d="M124.559 173.959L131.106 177.739V185.3L124.559 189.08L118.011 185.3V177.739L124.559 173.959Z" fill="#F3F3F5" stroke="black" stroke-width="0.151213"/>
<path d="M137.654 173.959L144.202 177.739V185.3L137.654 189.08L131.107 185.3V177.739L137.654 173.959Z" fill="#F3F3F5" stroke="black" stroke-width="0.151213"/>
<path d="M150.749 173.959L157.297 177.739V185.3L150.749 189.08L144.201 185.3V177.739L150.749 173.959Z" fill="#F3F3F5" stroke="black" stroke-width="0.151213"/>
<path d="M163.844 173.959L170.392 177.739V185.3L163.844 189.08L157.296 185.3V177.739L163.844 173.959Z" fill="#F3F3F5" stroke="black" stroke-width="0.151213"/>
<path d="M176.94 173.959L183.487 177.739V185.3L176.94 189.08L170.392 185.3V177.739L176.94 173.959Z" fill="#F3F3F5" stroke="black" stroke-width="0.151213"/>
<path d="M190.034 173.959L196.582 177.739V185.3L190.034 189.08L183.487 185.3V177.739L190.034 173.959Z" fill="#F3F3F5" stroke="black" stroke-width="0.151213"/>
<path d="M203.129 173.959L209.677 177.739V185.3L203.129 189.08L196.581 185.3V177.739L203.129 173.959Z" fill="#F3F3F5" stroke="black" stroke-width="0.151213"/>
<path d="M216.225 173.959L222.772 177.739V185.3L216.225 189.08L209.677 185.3V177.739L216.225 173.959Z" fill="#F3F3F5" stroke="black" stroke-width="0.151213"/>
<path d="M6.7042 196.641L13.2519 200.421V207.982L6.7042 211.762L0.156489 207.982V200.421L6.7042 196.641Z" fill="#F3F3F5" stroke="black" stroke-width="0.151213"/>
<path d="M19.7989 196.641L26.3466 200.421V207.982L19.7989 211.762L13.2512 207.982V200.421L19.7989 196.641Z" fill="#F3F3F5" stroke="black" stroke-width="0.151213"/>
<path d="M32.8937 196.641L39.4414 200.421V207.982L32.8937 211.762L26.3459 207.982V200.421L32.8937 196.641Z" fill="#F3F3F5" stroke="black" stroke-width="0.151213"/>
<path d="M45.9894 196.641L52.5371 200.421V207.982L45.9894 211.762L39.4416 207.982V200.421L45.9894 196.641Z" fill="#F3F3F5" stroke="black" stroke-width="0.151213"/>
<path d="M59.0841 196.641L65.6318 200.421V207.982L59.0841 211.762L52.5364 207.982V200.421L59.0841 196.641Z" fill="#F3F3F5" stroke="black" stroke-width="0.151213"/>
<path d="M72.1788 196.641L78.7265 200.421V207.982L72.1788 211.762L65.6311 207.982V200.421L72.1788 196.641Z" fill="#F3F3F5" stroke="black" stroke-width="0.151213"/>
<path d="M85.2745 196.641L91.8222 200.421V207.982L85.2745 211.762L78.7268 207.982V200.421L85.2745 196.641Z" fill="#F3F3F5" stroke="black" stroke-width="0.151213"/>
<path d="M98.3692 196.641L104.917 200.421V207.982L98.3692 211.762L91.8215 207.982V200.421L98.3692 196.641Z" fill="#F3F3F5" stroke="black" stroke-width="0.151213"/>
<path d="M111.464 196.641L118.012 200.421V207.982L111.464 211.762L104.916 207.982V200.421L111.464 196.641Z" fill="#F3F3F5" stroke="black" stroke-width="0.151213"/>
<path d="M124.559 196.641L131.106 200.421V207.982L124.559 211.762L118.011 207.982V200.421L124.559 196.641Z" fill="#F3F3F5" stroke="black" stroke-width="0.151213"/>
<path d="M137.654 196.641L144.202 200.421V207.982L137.654 211.762L131.107 207.982V200.421L137.654 196.641Z" fill="#F3F3F5" stroke="black" stroke-width="0.151213"/>
<path d="M150.749 196.641L157.297 200.421V207.982L150.749 211.762L144.201 207.982V200.421L150.749 196.641Z" fill="#F3F3F5" stroke="black" stroke-width="0.151213"/>
<path d="M163.844 196.641L170.392 200.421V207.982L163.844 211.762L157.296 207.982V200.421L163.844 196.641Z" fill="#F3F3F5" stroke="black" stroke-width="0.151213"/>
<path d="M176.94 196.641L183.487 200.421V207.982L176.94 211.762L170.392 207.982V200.421L176.94 196.641Z" fill="#F3F3F5" stroke="black" stroke-width="0.151213"/>
<path d="M190.034 196.641L196.582 200.421V207.982L190.034 211.762L183.487 207.982V200.421L190.034 196.641Z" fill="#F3F3F5" stroke="black" stroke-width="0.151213"/>
<path d="M203.129 196.641L209.677 200.421V207.982L203.129 211.762L196.581 207.982V200.421L203.129 196.641Z" fill="#F3F3F5" stroke="black" stroke-width="0.151213"/>
<path d="M216.225 196.641L222.772 200.421V207.982L216.225 211.762L209.677 207.982V200.421L216.225 196.641Z" fill="#F3F3F5" stroke="black" stroke-width="0.151213"/>
<path d="M0.156351 71.8896L6.70406 75.67V83.2306L0.156351 87.0109L-6.39136 83.2306V75.67L0.156351 71.8896Z" fill="#F3F3F5" stroke="black" stroke-width="0.151213"/>
<path d="M13.2521 71.8896L19.7998 75.67V83.2306L13.2521 87.0109L6.70434 83.2306V75.67L13.2521 71.8896Z" fill="#F3F3F5" stroke="black" stroke-width="0.151213"/>
<path d="M26.3468 71.8896L32.8945 75.67V83.2306L26.3468 87.0109L19.7991 83.2306V75.67L26.3468 71.8896Z" fill="#F3F3F5" stroke="black" stroke-width="0.151213"/>
<path d="M39.4415 71.8896L45.9892 75.67V83.2306L39.4415 87.0109L32.8938 83.2306V75.67L39.4415 71.8896Z" fill="#F3F3F5" stroke="black" stroke-width="0.151213"/>
<path d="M52.5372 71.8896L59.0849 75.67V83.2306L52.5372 87.0109L45.9895 83.2306V75.67L52.5372 71.8896Z" fill="#F3F3F5" stroke="black" stroke-width="0.151213"/>
<path d="M65.6319 71.8896L72.1797 75.67V83.2306L65.6319 87.0109L59.0842 83.2306V75.67L65.6319 71.8896Z" fill="#F3F3F5" stroke="black" stroke-width="0.151213"/>
<path d="M78.7267 71.8896L85.2744 75.67V83.2306L78.7267 87.0109L72.179 83.2306V75.67L78.7267 71.8896Z" fill="#F3F3F5" stroke="black" stroke-width="0.151213"/>
<path d="M91.8224 71.8896L98.3701 75.67V83.2306L91.8224 87.0109L85.2747 83.2306V75.67L91.8224 71.8896Z" fill="#F3F3F5" stroke="black" stroke-width="0.151213"/>
<path d="M104.917 71.8896L111.465 75.67V83.2306L104.917 87.0109L98.3694 83.2306V75.67L104.917 71.8896Z" fill="#F3F3F5" stroke="black" stroke-width="0.151213"/>
<path d="M118.012 71.8896L124.56 75.67V83.2306L118.012 87.0109L111.464 83.2306V75.67L118.012 71.8896Z" fill="#F3F3F5" stroke="black" stroke-width="0.151213"/>
<path d="M131.108 71.8896L137.655 75.67V83.2306L131.108 87.0109L124.56 83.2306V75.67L131.108 71.8896Z" fill="#F3F3F5" stroke="black" stroke-width="0.151213"/>
<path d="M144.202 71.8896L150.75 75.67V83.2306L144.202 87.0109L137.655 83.2306V75.67L144.202 71.8896Z" fill="#F3F3F5" stroke="black" stroke-width="0.151213"/>
<path d="M157.297 71.8896L163.845 75.67V83.2306L157.297 87.0109L150.749 83.2306V75.67L157.297 71.8896Z" fill="#F3F3F5" stroke="black" stroke-width="0.151213"/>
<path d="M170.393 71.8896L176.94 75.67V83.2306L170.393 87.0109L163.845 83.2306V75.67L170.393 71.8896Z" fill="#F3F3F5" stroke="black" stroke-width="0.151213"/>
<path d="M183.487 71.8896L190.035 75.67V83.2306L183.487 87.0109L176.94 83.2306V75.67L183.487 71.8896Z" fill="#F3F3F5" stroke="black" stroke-width="0.151213"/>
<path d="M196.582 71.8896L203.13 75.67V83.2306L196.582 87.0109L190.034 83.2306V75.67L196.582 71.8896Z" fill="#F3F3F5" stroke="black" stroke-width="0.151213"/>
<path d="M209.678 71.8896L216.226 75.67V83.2306L209.678 87.0109L203.13 83.2306V75.67L209.678 71.8896Z" fill="#F3F3F5" stroke="black" stroke-width="0.151213"/>
<path d="M0.156351 94.5723L6.70406 98.3526V105.913L0.156351 109.694L-6.39136 105.913V98.3526L0.156351 94.5723Z" fill="#F3F3F5" stroke="black" stroke-width="0.151213"/>
<path d="M13.2521 94.5723L19.7998 98.3526V105.913L13.2521 109.694L6.70434 105.913V98.3526L13.2521 94.5723Z" fill="#F3F3F5" stroke="black" stroke-width="0.151213"/>
<path d="M26.3468 94.5723L32.8945 98.3526V105.913L26.3468 109.694L19.7991 105.913V98.3526L26.3468 94.5723Z" fill="#F3F3F5" stroke="black" stroke-width="0.151213"/>
<path d="M39.4415 94.5723L45.9892 98.3526V105.913L39.4415 109.694L32.8938 105.913V98.3526L39.4415 94.5723Z" fill="#F3F3F5" stroke="black" stroke-width="0.151213"/>
<path d="M52.5372 94.5723L59.0849 98.3526V105.913L52.5372 109.694L45.9895 105.913V98.3526L52.5372 94.5723Z" fill="#F3F3F5" stroke="black" stroke-width="0.151213"/>
<path d="M65.6319 94.5723L72.1797 98.3526V105.913L65.6319 109.694L59.0842 105.913V98.3526L65.6319 94.5723Z" fill="#F3F3F5" stroke="black" stroke-width="0.151213"/>
<path d="M78.7267 94.5723L85.2744 98.3526V105.913L78.7267 109.694L72.179 105.913V98.3526L78.7267 94.5723Z" fill="#F3F3F5" stroke="black" stroke-width="0.151213"/>
<path d="M91.8224 94.5723L98.3701 98.3526V105.913L91.8224 109.694L85.2747 105.913V98.3526L91.8224 94.5723Z" fill="#F3F3F5" stroke="black" stroke-width="0.151213"/>
<path d="M104.917 94.5723L111.465 98.3526V105.913L104.917 109.694L98.3694 105.913V98.3526L104.917 94.5723Z" fill="#F3F3F5" stroke="black" stroke-width="0.151213"/>
<path d="M118.012 94.5723L124.56 98.3526V105.913L118.012 109.694L111.464 105.913V98.3526L118.012 94.5723Z" fill="#F3F3F5" stroke="black" stroke-width="0.151213"/>
<path d="M131.108 94.5723L137.655 98.3526V105.913L131.108 109.694L124.56 105.913V98.3526L131.108 94.5723Z" fill="#F3F3F5" stroke="black" stroke-width="0.151213"/>
<path d="M144.202 94.5723L150.75 98.3526V105.913L144.202 109.694L137.655 105.913V98.3526L144.202 94.5723Z" fill="#F3F3F5" stroke="black" stroke-width="0.151213"/>
<path d="M157.297 94.5723L163.845 98.3526V105.913L157.297 109.694L150.749 105.913V98.3526L157.297 94.5723Z" fill="#F3F3F5" stroke="black" stroke-width="0.151213"/>
<path d="M170.393 94.5723L176.94 98.3526V105.913L170.393 109.694L163.845 105.913V98.3526L170.393 94.5723Z" fill="#F3F3F5" stroke="black" stroke-width="0.151213"/>
<path d="M183.487 94.5723L190.035 98.3526V105.913L183.487 109.694L176.94 105.913V98.3526L183.487 94.5723Z" fill="#F3F3F5" stroke="black" stroke-width="0.151213"/>
<path d="M196.582 94.5723L203.13 98.3526V105.913L196.582 109.694L190.034 105.913V98.3526L196.582 94.5723Z" fill="#F3F3F5" stroke="black" stroke-width="0.151213"/>
<path d="M209.678 94.5723L216.226 98.3526V105.913L209.678 109.694L203.13 105.913V98.3526L209.678 94.5723Z" fill="#F3F3F5" stroke="black" stroke-width="0.151213"/>
<path d="M0.156351 117.254L6.70406 121.034V128.595L0.156351 132.375L-6.39136 128.595V121.034L0.156351 117.254Z" fill="#F3F3F5" stroke="black" stroke-width="0.151213"/>
<path d="M13.2521 117.254L19.7998 121.034V128.595L13.2521 132.375L6.70434 128.595V121.034L13.2521 117.254Z" fill="#F3F3F5" stroke="black" stroke-width="0.151213"/>
<path d="M26.3468 117.254L32.8945 121.034V128.595L26.3468 132.375L19.7991 128.595V121.034L26.3468 117.254Z" fill="#F3F3F5" stroke="black" stroke-width="0.151213"/>
<path d="M39.4415 117.254L45.9892 121.034V128.595L39.4415 132.375L32.8938 128.595V121.034L39.4415 117.254Z" fill="#F3F3F5" stroke="black" stroke-width="0.151213"/>
<path d="M52.5372 117.254L59.0849 121.034V128.595L52.5372 132.375L45.9895 128.595V121.034L52.5372 117.254Z" fill="#F3F3F5" stroke="black" stroke-width="0.151213"/>
<path d="M65.6319 117.254L72.1797 121.034V128.595L65.6319 132.375L59.0842 128.595V121.034L65.6319 117.254Z" fill="#F3F3F5" stroke="black" stroke-width="0.151213"/>
<path d="M78.7267 117.254L85.2744 121.034V128.595L78.7267 132.375L72.179 128.595V121.034L78.7267 117.254Z" fill="#F3F3F5" stroke="black" stroke-width="0.151213"/>
<path d="M91.8224 117.254L98.3701 121.034V128.595L91.8224 132.375L85.2747 128.595V121.034L91.8224 117.254Z" fill="#F3F3F5" stroke="black" stroke-width="0.151213"/>
<path d="M104.917 117.254L111.465 121.034V128.595L104.917 132.375L98.3694 128.595V121.034L104.917 117.254Z" fill="#F3F3F5" stroke="black" stroke-width="0.151213"/>
<path d="M118.012 117.254L124.56 121.034V128.595L118.012 132.375L111.464 128.595V121.034L118.012 117.254Z" fill="#F3F3F5" stroke="black" stroke-width="0.151213"/>
<path d="M131.108 117.254L137.655 121.034V128.595L131.108 132.375L124.56 128.595V121.034L131.108 117.254Z" fill="#F3F3F5" stroke="black" stroke-width="0.151213"/>
<path d="M144.202 117.254L150.75 121.034V128.595L144.202 132.375L137.655 128.595V121.034L144.202 117.254Z" fill="#F3F3F5" stroke="black" stroke-width="0.151213"/>
<path d="M157.297 117.254L163.845 121.034V128.595L157.297 132.375L150.749 128.595V121.034L157.297 117.254Z" fill="#F3F3F5" stroke="black" stroke-width="0.151213"/>
<path d="M170.393 117.254L176.94 121.034V128.595L170.393 132.375L163.845 128.595V121.034L170.393 117.254Z" fill="#F3F3F5" stroke="black" stroke-width="0.151213"/>
<path d="M183.487 117.254L190.035 121.034V128.595L183.487 132.375L176.94 128.595V121.034L183.487 117.254Z" fill="#F3F3F5" stroke="black" stroke-width="0.151213"/>
<path d="M196.582 117.254L203.13 121.034V128.595L196.582 132.375L190.034 128.595V121.034L196.582 117.254Z" fill="#F3F3F5" stroke="black" stroke-width="0.151213"/>
<path d="M209.678 117.254L216.226 121.034V128.595L209.678 132.375L203.13 128.595V121.034L209.678 117.254Z" fill="#F3F3F5" stroke="black" stroke-width="0.151213"/>
<path d="M0.156351 139.936L6.70406 143.716V151.277L0.156351 155.057L-6.39136 151.277V143.716L0.156351 139.936Z" fill="#F3F3F5" stroke="black" stroke-width="0.151213"/>
<path d="M13.2521 139.936L19.7998 143.716V151.277L13.2521 155.057L6.70434 151.277V143.716L13.2521 139.936Z" fill="#F3F3F5" stroke="black" stroke-width="0.151213"/>
<path d="M26.3468 139.936L32.8945 143.716V151.277L26.3468 155.057L19.7991 151.277V143.716L26.3468 139.936Z" fill="#F3F3F5" stroke="black" stroke-width="0.151213"/>
<path d="M39.4415 139.936L45.9892 143.716V151.277L39.4415 155.057L32.8938 151.277V143.716L39.4415 139.936Z" fill="#F3F3F5" stroke="black" stroke-width="0.151213"/>
<path d="M52.5372 139.936L59.0849 143.716V151.277L52.5372 155.057L45.9895 151.277V143.716L52.5372 139.936Z" fill="#F3F3F5" stroke="black" stroke-width="0.151213"/>
<path d="M65.6319 139.936L72.1797 143.716V151.277L65.6319 155.057L59.0842 151.277V143.716L65.6319 139.936Z" fill="#F3F3F5" stroke="black" stroke-width="0.151213"/>
<path d="M78.7267 139.936L85.2744 143.716V151.277L78.7267 155.057L72.179 151.277V143.716L78.7267 139.936Z" fill="#F3F3F5" stroke="black" stroke-width="0.151213"/>
<path d="M91.8224 139.936L98.3701 143.716V151.277L91.8224 155.057L85.2747 151.277V143.716L91.8224 139.936Z" fill="#F3F3F5" stroke="black" stroke-width="0.151213"/>
<path d="M104.917 139.936L111.465 143.716V151.277L104.917 155.057L98.3694 151.277V143.716L104.917 139.936Z" fill="#F3F3F5" stroke="black" stroke-width="0.151213"/>
<path d="M118.012 139.936L124.56 143.716V151.277L118.012 155.057L111.464 151.277V143.716L118.012 139.936Z" fill="#F3F3F5" stroke="black" stroke-width="0.151213"/>
<path d="M131.108 139.936L137.655 143.716V151.277L131.108 155.057L124.56 151.277V143.716L131.108 139.936Z" fill="#F3F3F5" stroke="black" stroke-width="0.151213"/>
<path d="M144.202 139.936L150.75 143.716V151.277L144.202 155.057L137.655 151.277V143.716L144.202 139.936Z" fill="#F3F3F5" stroke="black" stroke-width="0.151213"/>
<path d="M157.297 139.936L163.845 143.716V151.277L157.297 155.057L150.749 151.277V143.716L157.297 139.936Z" fill="#F3F3F5" stroke="black" stroke-width="0.151213"/>
<path d="M170.393 139.936L176.94 143.716V151.277L170.393 155.057L163.845 151.277V143.716L170.393 139.936Z" fill="#F3F3F5" stroke="black" stroke-width="0.151213"/>
<path d="M183.487 139.936L190.035 143.716V151.277L183.487 155.057L176.94 151.277V143.716L183.487 139.936Z" fill="#F3F3F5" stroke="black" stroke-width="0.151213"/>
<path d="M196.582 139.936L203.13 143.716V151.277L196.582 155.057L190.034 151.277V143.716L196.582 139.936Z" fill="#F3F3F5" stroke="black" stroke-width="0.151213"/>
<path d="M209.678 139.936L216.226 143.716V151.277L209.678 155.057L203.13 151.277V143.716L209.678 139.936Z" fill="#F3F3F5" stroke="black" stroke-width="0.151213"/>
<path d="M0.156351 162.618L6.70406 166.398V173.959L0.156351 177.739L-6.39136 173.959V166.398L0.156351 162.618Z" fill="#F3F3F5" stroke="black" stroke-width="0.151213"/>
<path d="M13.2521 162.618L19.7998 166.398V173.959L13.2521 177.739L6.70434 173.959V166.398L13.2521 162.618Z" fill="#F3F3F5" stroke="black" stroke-width="0.151213"/>
<path d="M26.3468 162.618L32.8945 166.398V173.959L26.3468 177.739L19.7991 173.959V166.398L26.3468 162.618Z" fill="#F3F3F5" stroke="black" stroke-width="0.151213"/>
<path d="M39.4415 162.618L45.9892 166.398V173.959L39.4415 177.739L32.8938 173.959V166.398L39.4415 162.618Z" fill="#F3F3F5" stroke="black" stroke-width="0.151213"/>
<path d="M52.5372 162.618L59.0849 166.398V173.959L52.5372 177.739L45.9895 173.959V166.398L52.5372 162.618Z" fill="#F3F3F5" stroke="black" stroke-width="0.151213"/>
<path d="M65.6319 162.618L72.1797 166.398V173.959L65.6319 177.739L59.0842 173.959V166.398L65.6319 162.618Z" fill="#F3F3F5" stroke="black" stroke-width="0.151213"/>
<path d="M78.7267 162.618L85.2744 166.398V173.959L78.7267 177.739L72.179 173.959V166.398L78.7267 162.618Z" fill="#F3F3F5" stroke="black" stroke-width="0.151213"/>
<path d="M91.8224 162.618L98.3701 166.398V173.959L91.8224 177.739L85.2747 173.959V166.398L91.8224 162.618Z" fill="#F3F3F5" stroke="black" stroke-width="0.151213"/>
<path d="M104.917 162.618L111.465 166.398V173.959L104.917 177.739L98.3694 173.959V166.398L104.917 162.618Z" fill="#F3F3F5" stroke="black" stroke-width="0.151213"/>
<path d="M118.012 162.618L124.56 166.398V173.959L118.012 177.739L111.464 173.959V166.398L118.012 162.618Z" fill="#F3F3F5" stroke="black" stroke-width="0.151213"/>
<path d="M131.108 162.618L137.655 166.398V173.959L131.108 177.739L124.56 173.959V166.398L131.108 162.618Z" fill="#F3F3F5" stroke="black" stroke-width="0.151213"/>
<path d="M144.202 162.618L150.75 166.398V173.959L144.202 177.739L137.655 173.959V166.398L144.202 162.618Z" fill="#F3F3F5" stroke="black" stroke-width="0.151213"/>
<path d="M157.297 162.618L163.845 166.398V173.959L157.297 177.739L150.749 173.959V166.398L157.297 162.618Z" fill="#F3F3F5" stroke="black" stroke-width="0.151213"/>
<path d="M170.393 162.618L176.94 166.398V173.959L170.393 177.739L163.845 173.959V166.398L170.393 162.618Z" fill="#F3F3F5" stroke="black" stroke-width="0.151213"/>
<path d="M183.487 162.618L190.035 166.398V173.959L183.487 177.739L176.94 173.959V166.398L183.487 162.618Z" fill="#F3F3F5" stroke="black" stroke-width="0.151213"/>
<path d="M196.582 162.618L203.13 166.398V173.959L196.582 177.739L190.034 173.959V166.398L196.582 162.618Z" fill="#F3F3F5" stroke="black" stroke-width="0.151213"/>
<path d="M209.678 162.618L216.226 166.398V173.959L209.678 177.739L203.13 173.959V166.398L209.678 162.618Z" fill="#F3F3F5" stroke="black" stroke-width="0.151213"/>
<path d="M0.156351 185.3L6.70406 189.08V196.641L0.156351 200.421L-6.39136 196.641V189.08L0.156351 185.3Z" fill="#F3F3F5" stroke="black" stroke-width="0.151213"/>
<path d="M13.2521 185.3L19.7998 189.08V196.641L13.2521 200.421L6.70434 196.641V189.08L13.2521 185.3Z" fill="#F3F3F5" stroke="black" stroke-width="0.151213"/>
<path d="M26.3468 185.3L32.8945 189.08V196.641L26.3468 200.421L19.7991 196.641V189.08L26.3468 185.3Z" fill="#F3F3F5" stroke="black" stroke-width="0.151213"/>
<path d="M39.4415 185.3L45.9892 189.08V196.641L39.4415 200.421L32.8938 196.641V189.08L39.4415 185.3Z" fill="#F3F3F5" stroke="black" stroke-width="0.151213"/>
<path d="M52.5372 185.3L59.0849 189.08V196.641L52.5372 200.421L45.9895 196.641V189.08L52.5372 185.3Z" fill="#F3F3F5" stroke="black" stroke-width="0.151213"/>
<path d="M65.6319 185.3L72.1797 189.08V196.641L65.6319 200.421L59.0842 196.641V189.08L65.6319 185.3Z" fill="#F3F3F5" stroke="black" stroke-width="0.151213"/>
<path d="M78.7267 185.3L85.2744 189.08V196.641L78.7267 200.421L72.179 196.641V189.08L78.7267 185.3Z" fill="#F3F3F5" stroke="black" stroke-width="0.151213"/>
<path d="M91.8224 185.3L98.3701 189.08V196.641L91.8224 200.421L85.2747 196.641V189.08L91.8224 185.3Z" fill="#F3F3F5" stroke="black" stroke-width="0.151213"/>
<path d="M104.917 185.3L111.465 189.08V196.641L104.917 200.421L98.3694 196.641V189.08L104.917 185.3Z" fill="#F3F3F5" stroke="black" stroke-width="0.151213"/>
<path d="M118.012 185.3L124.56 189.08V196.641L118.012 200.421L111.464 196.641V189.08L118.012 185.3Z" fill="#F3F3F5" stroke="black" stroke-width="0.151213"/>
<path d="M131.108 185.3L137.655 189.08V196.641L131.108 200.421L124.56 196.641V189.08L131.108 185.3Z" fill="#F3F3F5" stroke="black" stroke-width="0.151213"/>
<path d="M144.202 185.3L150.75 189.08V196.641L144.202 200.421L137.655 196.641V189.08L144.202 185.3Z" fill="#F3F3F5" stroke="black" stroke-width="0.151213"/>
<path d="M157.297 185.3L163.845 189.08V196.641L157.297 200.421L150.749 196.641V189.08L157.297 185.3Z" fill="#F3F3F5" stroke="black" stroke-width="0.151213"/>
<path d="M170.393 185.3L176.94 189.08V196.641L170.393 200.421L163.845 196.641V189.08L170.393 185.3Z" fill="#F3F3F5" stroke="black" stroke-width="0.151213"/>
<path d="M183.487 185.3L190.035 189.08V196.641L183.487 200.421L176.94 196.641V189.08L183.487 185.3Z" fill="#F3F3F5" stroke="black" stroke-width="0.151213"/>
<path d="M196.582 185.3L203.13 189.08V196.641L196.582 200.421L190.034 196.641V189.08L196.582 185.3Z" fill="#F3F3F5" stroke="black" stroke-width="0.151213"/>
<path d="M209.678 185.3L216.226 189.08V196.641L209.678 200.421L203.13 196.641V189.08L209.678 185.3Z" fill="#F3F3F5" stroke="black" stroke-width="0.151213"/>
<path d="M0.156351 207.981L6.70406 211.762V219.322L0.156351 223.103L-6.39136 219.322V211.762L0.156351 207.981Z" fill="#F3F3F5" stroke="black" stroke-width="0.151213"/>
<path d="M13.2521 207.981L19.7998 211.762V219.322L13.2521 223.103L6.70434 219.322V211.762L13.2521 207.981Z" fill="#F3F3F5" stroke="black" stroke-width="0.151213"/>
<path d="M26.3468 207.981L32.8945 211.762V219.322L26.3468 223.103L19.7991 219.322V211.762L26.3468 207.981Z" fill="#F3F3F5" stroke="black" stroke-width="0.151213"/>
<path d="M39.4415 207.981L45.9892 211.762V219.322L39.4415 223.103L32.8938 219.322V211.762L39.4415 207.981Z" fill="#F3F3F5" stroke="black" stroke-width="0.151213"/>
<path d="M52.5372 207.981L59.0849 211.762V219.322L52.5372 223.103L45.9895 219.322V211.762L52.5372 207.981Z" fill="#F3F3F5" stroke="black" stroke-width="0.151213"/>
<path d="M65.6319 207.981L72.1797 211.762V219.322L65.6319 223.103L59.0842 219.322V211.762L65.6319 207.981Z" fill="#F3F3F5" stroke="black" stroke-width="0.151213"/>
<path d="M78.7267 207.981L85.2744 211.762V219.322L78.7267 223.103L72.179 219.322V211.762L78.7267 207.981Z" fill="#F3F3F5" stroke="black" stroke-width="0.151213"/>
<path d="M91.8224 207.981L98.3701 211.762V219.322L91.8224 223.103L85.2747 219.322V211.762L91.8224 207.981Z" fill="#F3F3F5" stroke="black" stroke-width="0.151213"/>
<path d="M104.917 207.981L111.465 211.762V219.322L104.917 223.103L98.3694 219.322V211.762L104.917 207.981Z" fill="#F3F3F5" stroke="black" stroke-width="0.151213"/>
<path d="M118.012 207.981L124.56 211.762V219.322L118.012 223.103L111.464 219.322V211.762L118.012 207.981Z" fill="#F3F3F5" stroke="black" stroke-width="0.151213"/>
<path d="M131.108 207.981L137.655 211.762V219.322L131.108 223.103L124.56 219.322V211.762L131.108 207.981Z" fill="#F3F3F5" stroke="black" stroke-width="0.151213"/>
<path d="M144.202 207.981L150.75 211.762V219.322L144.202 223.103L137.655 219.322V211.762L144.202 207.981Z" fill="#F3F3F5" stroke="black" stroke-width="0.151213"/>
<path d="M157.297 207.981L163.845 211.762V219.322L157.297 223.103L150.749 219.322V211.762L157.297 207.981Z" fill="#F3F3F5" stroke="black" stroke-width="0.151213"/>
<path d="M170.393 207.981L176.94 211.762V219.322L170.393 223.103L163.845 219.322V211.762L170.393 207.981Z" fill="#F3F3F5" stroke="black" stroke-width="0.151213"/>
<path d="M183.487 207.981L190.035 211.762V219.322L183.487 223.103L176.94 219.322V211.762L183.487 207.981Z" fill="#F3F3F5" stroke="black" stroke-width="0.151213"/>
<path d="M196.582 207.981L203.13 211.762V219.322L196.582 223.103L190.034 219.322V211.762L196.582 207.981Z" fill="#F3F3F5" stroke="black" stroke-width="0.151213"/>
<path d="M209.678 207.981L216.226 211.762V219.322L209.678 223.103L203.13 219.322V211.762L209.678 207.981Z" fill="#F3F3F5" stroke="black" stroke-width="0.151213"/>
</g>
<rect x="0.959961" y="85.1992" width="361.084" height="1.35237" fill="#FA5F1C"/>
<rect x="0.959961" y="219.085" width="361.084" height="1.35237" fill="#FA5F1C"/>
<rect x="68.5781" width="1.35237" height="85.1995" fill="black"/>
<rect x="225.454" width="1.35237" height="85.1995" fill="black"/>
<path d="M71.9523 0.675781C71.9523 0.675781 64.5101 0.675781 73.3047 0.675781C82.0993 0.675781 76.0095 73.0278 92.9141 74.3801H144.988" stroke="black" stroke-width="1.35237"/>
<path d="M222.757 0.675781C222.757 0.675781 230.199 0.675781 221.404 0.675781C212.61 0.675781 218.7 73.0278 201.795 74.3801H149.721" stroke="black" stroke-width="1.35237"/>
<path d="M186.235 85.876V97.3712H215.988C215.988 97.3712 216.664 100.076 215.988 102.781C215.311 105.485 197.731 110.895 197.731 110.895V163.637" stroke="#FA5F1C" stroke-width="1.35237"/>
<path d="M186.235 219.761V208.266H215.988C215.988 208.266 216.664 205.561 215.988 202.856C215.311 200.151 197.731 194.742 197.731 194.742V141.999" stroke="#FA5F1C" stroke-width="1.35237"/>
<path d="M134.168 219.761V225.17H159.863V219.761" stroke="black" stroke-width="1.35237"/>
<path d="M140.931 225.17V231.932H153.102V225.17" stroke="black" stroke-width="1.35237"/>
<path d="M143.636 225.17V231.932" stroke="black" stroke-width="1.35237"/>
<path d="M150.397 225.17V231.932" stroke="black" stroke-width="1.35237"/>
<path d="M144.987 219.761V53.4186L147.692 50.7139L150.397 53.4186V219.761" stroke="black" stroke-width="1.35237"/>
<path d="M142.959 201.504L152.426 205.561" stroke="black" stroke-width="1.35237"/>
<path d="M142.959 125.771L152.426 129.828" stroke="black" stroke-width="1.35237"/>
<path d="M142.959 109.542L152.426 113.599" stroke="black" stroke-width="1.35237"/>
<path d="M142.959 93.3135L152.426 97.3706" stroke="black" stroke-width="1.35237"/>
<path d="M142.959 77.085L152.426 81.1421" stroke="black" stroke-width="1.35237"/>
<path d="M142.959 205.561L152.426 209.618" stroke="black" stroke-width="1.35237"/>
<path d="M142.959 129.828L152.426 133.885" stroke="black" stroke-width="1.35237"/>
<path d="M142.959 113.6L152.426 117.657" stroke="black" stroke-width="1.35237"/>
<path d="M142.959 97.3711L152.426 101.428" stroke="black" stroke-width="1.35237"/>
<path d="M142.959 81.1426L152.426 85.1997" stroke="black" stroke-width="1.35237"/>
<path d="M142.959 209.618L152.426 213.675" stroke="black" stroke-width="1.35237"/>
<path d="M142.959 133.885L152.426 137.942" stroke="black" stroke-width="1.35237"/>
<path d="M142.959 117.656L152.426 121.713" stroke="black" stroke-width="1.35237"/>
<path d="M142.959 101.428L152.426 105.485" stroke="black" stroke-width="1.35237"/>
<path d="M142.959 85.1992L152.426 89.2563" stroke="black" stroke-width="1.35237"/>
<path d="M142.959 213.675L152.426 217.732" stroke="black" stroke-width="1.35237"/>
<path d="M142.959 137.942L152.426 142" stroke="black" stroke-width="1.35237"/>
<path d="M142.959 121.714L152.426 125.771" stroke="black" stroke-width="1.35237"/>
<path d="M142.959 105.485L152.426 109.542" stroke="black" stroke-width="1.35237"/>
<path d="M142.959 89.2568L152.426 93.314" stroke="black" stroke-width="1.35237"/>
<path opacity="0.2" d="M362.044 86.5518L352.577 96.0184L362.044 105.485L352.577 114.952L362.044 124.418L352.577 133.885L362.044 143.351L352.577 152.818L362.044 162.285L352.577 171.751L362.044 181.218L352.577 190.685L362.044 200.151L352.577 209.618L362.044 219.084" stroke="black" stroke-width="1.35237"/>
<path opacity="0.2" d="M0.960146 86.5518L10.4268 96.0184L0.960146 105.485L10.4268 114.952L0.960146 124.418L10.4268 133.885L0.960146 143.351L10.4268 152.818L0.960146 162.285L10.4268 171.751L0.960146 181.218L10.4268 190.685L0.960146 200.151L10.4268 209.618L0.960146 219.084" stroke="black" stroke-width="1.35237"/>
<path d="M133.493 219.761H160.541" stroke="black" stroke-width="1.35237"/>
</svg>
